%TF.GenerationSoftware,KiCad,Pcbnew,8.0.3*%
%TF.CreationDate,2025-02-14T19:05:39+05:30*%
%TF.ProjectId,Cyclohexane,4379636c-6f68-4657-9861-6e652e6b6963,rev?*%
%TF.SameCoordinates,Original*%
%TF.FileFunction,Legend,Bot*%
%TF.FilePolarity,Positive*%
%FSLAX46Y46*%
G04 Gerber Fmt 4.6, Leading zero omitted, Abs format (unit mm)*
G04 Created by KiCad (PCBNEW 8.0.3) date 2025-02-14 19:05:39*
%MOMM*%
%LPD*%
G01*
G04 APERTURE LIST*
%ADD10C,0.100000*%
G04 APERTURE END LIST*
D10*
X158875000Y-77950000D02*
X159975000Y-77950000D01*
X160375000Y-77950000D02*
X161475000Y-77950000D01*
X161875000Y-77950000D02*
X162975000Y-77950000D01*
X163375000Y-77950000D02*
X164475000Y-77950000D01*
X164875000Y-77950000D02*
X165975000Y-77950000D01*
X166375000Y-77950000D02*
X167475000Y-77950000D01*
X167875000Y-77950000D02*
X168975000Y-77950000D01*
X169375000Y-77950000D02*
X170475000Y-77950000D01*
X170875000Y-77950000D02*
X171975000Y-77950000D01*
X172375000Y-77950000D02*
X173475000Y-77950000D01*
X173875000Y-77950000D02*
X174975000Y-77950000D01*
X175375000Y-77950000D02*
X176475000Y-77950000D01*
X176625000Y-77950000D02*
X176625000Y-79050000D01*
X176625000Y-79450000D02*
X176625000Y-80550000D01*
X176625000Y-80950000D02*
X176625000Y-82050000D01*
X176625000Y-82450000D02*
X176625000Y-83550000D01*
X176625000Y-83950000D02*
X176625000Y-84250000D01*
X176625000Y-84250000D02*
X175525000Y-84250000D01*
X175125000Y-84250000D02*
X174025000Y-84250000D01*
X173625000Y-84250000D02*
X172525000Y-84250000D01*
X172125000Y-84250000D02*
X171025000Y-84250000D01*
X170625000Y-84250000D02*
X169525000Y-84250000D01*
X169125000Y-84250000D02*
X168025000Y-84250000D01*
X167625000Y-84250000D02*
X166525000Y-84250000D01*
X166125000Y-84250000D02*
X165025000Y-84250000D01*
X164625000Y-84250000D02*
X163525000Y-84250000D01*
X163125000Y-84250000D02*
X162025000Y-84250000D01*
X161625000Y-84250000D02*
X160525000Y-84250000D01*
X160125000Y-84250000D02*
X159025000Y-84250000D01*
X158875000Y-84250000D02*
X158875000Y-83150000D01*
X158875000Y-82750000D02*
X158875000Y-81650000D01*
X158875000Y-81250000D02*
X158875000Y-80150000D01*
X158875000Y-79750000D02*
X158875000Y-78650000D01*
X158875000Y-78250000D02*
X158875000Y-77950000D01*
X113325000Y-85850000D02*
X114425000Y-85850000D01*
X114825000Y-85850000D02*
X115925000Y-85850000D01*
X116325000Y-85850000D02*
X117425000Y-85850000D01*
X117825000Y-85850000D02*
X118925000Y-85850000D01*
X119325000Y-85850000D02*
X120425000Y-85850000D01*
X120825000Y-85850000D02*
X121925000Y-85850000D01*
X122325000Y-85850000D02*
X123425000Y-85850000D01*
X123825000Y-85850000D02*
X124925000Y-85850000D01*
X125325000Y-85850000D02*
X126425000Y-85850000D01*
X126825000Y-85850000D02*
X127925000Y-85850000D01*
X128325000Y-85850000D02*
X129425000Y-85850000D01*
X129825000Y-85850000D02*
X130925000Y-85850000D01*
X131325000Y-85850000D02*
X132425000Y-85850000D01*
X132825000Y-85850000D02*
X132925000Y-85850000D01*
X132925000Y-85850000D02*
X132925000Y-86950000D01*
X132925000Y-87350000D02*
X132925000Y-88450000D01*
X132925000Y-88850000D02*
X132925000Y-89950000D01*
X132925000Y-90350000D02*
X132925000Y-91450000D01*
X132925000Y-91850000D02*
X132925000Y-92175000D01*
X132925000Y-92175000D02*
X131825000Y-92175000D01*
X131425000Y-92175000D02*
X130325000Y-92175000D01*
X129925000Y-92175000D02*
X128825000Y-92175000D01*
X128425000Y-92175000D02*
X127325000Y-92175000D01*
X126925000Y-92175000D02*
X125825000Y-92175000D01*
X125425000Y-92175000D02*
X124325000Y-92175000D01*
X123925000Y-92175000D02*
X122825000Y-92175000D01*
X122425000Y-92175000D02*
X121325000Y-92175000D01*
X120925000Y-92175000D02*
X119825000Y-92175000D01*
X119425000Y-92175000D02*
X118325000Y-92175000D01*
X117925000Y-92175000D02*
X116825000Y-92175000D01*
X116425000Y-92175000D02*
X115325000Y-92175000D01*
X114925000Y-92175000D02*
X113825000Y-92175000D01*
X113425000Y-92175000D02*
X113325000Y-92175000D01*
X113325000Y-92175000D02*
X113325000Y-91075000D01*
X113325000Y-90675000D02*
X113325000Y-89575000D01*
X113325000Y-89175000D02*
X113325000Y-88075000D01*
X113325000Y-87675000D02*
X113325000Y-86575000D01*
X113325000Y-86175000D02*
X113325000Y-85850000D01*
X113200000Y-68200000D02*
X114300000Y-68200000D01*
X114700000Y-68200000D02*
X115800000Y-68200000D01*
X116200000Y-68200000D02*
X117300000Y-68200000D01*
X117700000Y-68200000D02*
X118800000Y-68200000D01*
X119200000Y-68200000D02*
X120300000Y-68200000D01*
X120700000Y-68200000D02*
X121800000Y-68200000D01*
X122200000Y-68200000D02*
X123300000Y-68200000D01*
X123700000Y-68200000D02*
X124800000Y-68200000D01*
X125200000Y-68200000D02*
X125225000Y-68200000D01*
X125225000Y-68200000D02*
X125225000Y-69300000D01*
X125225000Y-69700000D02*
X125225000Y-70800000D01*
X125225000Y-71200000D02*
X125225000Y-72300000D01*
X125225000Y-72700000D02*
X125225000Y-73800000D01*
X125225000Y-74200000D02*
X125225000Y-75300000D01*
X125225000Y-75700000D02*
X125225000Y-76600000D01*
X125225000Y-76600000D02*
X124125000Y-76600000D01*
X123725000Y-76600000D02*
X122625000Y-76600000D01*
X122225000Y-76600000D02*
X121125000Y-76600000D01*
X120725000Y-76600000D02*
X119625000Y-76600000D01*
X119225000Y-76600000D02*
X118125000Y-76600000D01*
X117725000Y-76600000D02*
X116625000Y-76600000D01*
X116225000Y-76600000D02*
X115125000Y-76600000D01*
X114725000Y-76600000D02*
X113625000Y-76600000D01*
X113225000Y-76600000D02*
X113200000Y-76600000D01*
X113200000Y-76600000D02*
X113200000Y-75500000D01*
X113200000Y-75100000D02*
X113200000Y-74000000D01*
X113200000Y-73600000D02*
X113200000Y-72500000D01*
X113200000Y-72100000D02*
X113200000Y-71000000D01*
X113200000Y-70600000D02*
X113200000Y-69500000D01*
X113200000Y-69100000D02*
X113200000Y-68200000D01*
X162150000Y-69975000D02*
X163250000Y-69975000D01*
X163650000Y-69975000D02*
X164750000Y-69975000D01*
X165150000Y-69975000D02*
X166250000Y-69975000D01*
X166650000Y-69975000D02*
X167750000Y-69975000D01*
X168150000Y-69975000D02*
X169250000Y-69975000D01*
X169650000Y-69975000D02*
X170750000Y-69975000D01*
X171150000Y-69975000D02*
X172250000Y-69975000D01*
X172650000Y-69975000D02*
X173750000Y-69975000D01*
X174150000Y-69975000D02*
X175000000Y-69975000D01*
X175000000Y-69975000D02*
X175000000Y-71075000D01*
X175000000Y-71475000D02*
X175000000Y-72575000D01*
X175000000Y-72975000D02*
X175000000Y-74075000D01*
X175000000Y-74475000D02*
X175000000Y-75425000D01*
X175000000Y-75425000D02*
X173900000Y-75425000D01*
X173500000Y-75425000D02*
X172400000Y-75425000D01*
X172000000Y-75425000D02*
X170900000Y-75425000D01*
X170500000Y-75425000D02*
X169400000Y-75425000D01*
X169000000Y-75425000D02*
X167900000Y-75425000D01*
X167500000Y-75425000D02*
X166400000Y-75425000D01*
X166000000Y-75425000D02*
X164900000Y-75425000D01*
X164500000Y-75425000D02*
X163400000Y-75425000D01*
X163000000Y-75425000D02*
X162150000Y-75425000D01*
X162150000Y-75425000D02*
X162150000Y-74325000D01*
X162150000Y-73925000D02*
X162150000Y-72825000D01*
X162150000Y-72425000D02*
X162150000Y-71325000D01*
X162150000Y-70925000D02*
X162150000Y-69975000D01*
X126625000Y-68175000D02*
X127725000Y-68175000D01*
X128125000Y-68175000D02*
X129225000Y-68175000D01*
X129625000Y-68175000D02*
X130725000Y-68175000D01*
X131125000Y-68175000D02*
X132225000Y-68175000D01*
X132625000Y-68175000D02*
X133725000Y-68175000D01*
X134125000Y-68175000D02*
X135225000Y-68175000D01*
X135625000Y-68175000D02*
X136725000Y-68175000D01*
X137125000Y-68175000D02*
X138225000Y-68175000D01*
X138625000Y-68175000D02*
X139550000Y-68175000D01*
X139550000Y-68175000D02*
X139550000Y-69275000D01*
X139550000Y-69675000D02*
X139550000Y-70775000D01*
X139550000Y-71175000D02*
X139550000Y-72275000D01*
X139550000Y-72675000D02*
X139550000Y-73775000D01*
X139550000Y-74175000D02*
X139550000Y-75275000D01*
X139550000Y-75675000D02*
X139550000Y-76575000D01*
X139550000Y-76575000D02*
X138450000Y-76575000D01*
X138050000Y-76575000D02*
X136950000Y-76575000D01*
X136550000Y-76575000D02*
X135450000Y-76575000D01*
X135050000Y-76575000D02*
X133950000Y-76575000D01*
X133550000Y-76575000D02*
X132450000Y-76575000D01*
X132050000Y-76575000D02*
X130950000Y-76575000D01*
X130550000Y-76575000D02*
X129450000Y-76575000D01*
X129050000Y-76575000D02*
X127950000Y-76575000D01*
X127550000Y-76575000D02*
X126625000Y-76575000D01*
X126625000Y-76575000D02*
X126625000Y-75475000D01*
X126625000Y-75075000D02*
X126625000Y-73975000D01*
X126625000Y-73575000D02*
X126625000Y-72475000D01*
X126625000Y-72075000D02*
X126625000Y-70975000D01*
X126625000Y-70575000D02*
X126625000Y-69475000D01*
X126625000Y-69075000D02*
X126625000Y-68175000D01*
X133100000Y-45225000D02*
X151675000Y-45225000D01*
X118812500Y-78075000D02*
X119912500Y-78075000D01*
X120312500Y-78075000D02*
X121412500Y-78075000D01*
X121812500Y-78075000D02*
X122912500Y-78075000D01*
X123312500Y-78075000D02*
X124412500Y-78075000D01*
X124812500Y-78075000D02*
X125912500Y-78075000D01*
X126312500Y-78075000D02*
X127412500Y-78075000D01*
X127812500Y-78075000D02*
X128912500Y-78075000D01*
X129312500Y-78075000D02*
X130412500Y-78075000D01*
X130812500Y-78075000D02*
X130887500Y-78075000D01*
X130887500Y-78075000D02*
X130887500Y-79175000D01*
X130887500Y-79575000D02*
X130887500Y-80675000D01*
X130887500Y-81075000D02*
X130887500Y-82175000D01*
X130887500Y-82575000D02*
X130887500Y-83675000D01*
X130887500Y-84075000D02*
X130887500Y-84400000D01*
X130887500Y-84400000D02*
X129787500Y-84400000D01*
X129387500Y-84400000D02*
X128287500Y-84400000D01*
X127887500Y-84400000D02*
X126787500Y-84400000D01*
X126387500Y-84400000D02*
X125287500Y-84400000D01*
X124887500Y-84400000D02*
X123787500Y-84400000D01*
X123387500Y-84400000D02*
X122287500Y-84400000D01*
X121887500Y-84400000D02*
X120787500Y-84400000D01*
X120387500Y-84400000D02*
X119287500Y-84400000D01*
X118887500Y-84400000D02*
X118812500Y-84400000D01*
X118812500Y-84400000D02*
X118812500Y-83300000D01*
X118812500Y-82900000D02*
X118812500Y-81800000D01*
X118812500Y-81400000D02*
X118812500Y-80300000D01*
X118812500Y-79900000D02*
X118812500Y-78800000D01*
X118812500Y-78400000D02*
X118812500Y-78075000D01*
X148900000Y-70025000D02*
X150000000Y-70025000D01*
X150400000Y-70025000D02*
X151500000Y-70025000D01*
X151900000Y-70025000D02*
X153000000Y-70025000D01*
X153400000Y-70025000D02*
X154500000Y-70025000D01*
X154900000Y-70025000D02*
X156000000Y-70025000D01*
X156400000Y-70025000D02*
X157500000Y-70025000D01*
X157900000Y-70025000D02*
X159000000Y-70025000D01*
X159400000Y-70025000D02*
X160500000Y-70025000D01*
X160900000Y-70025000D02*
X161750000Y-70025000D01*
X161750000Y-70025000D02*
X161750000Y-71125000D01*
X161750000Y-71525000D02*
X161750000Y-72625000D01*
X161750000Y-73025000D02*
X161750000Y-74125000D01*
X161750000Y-74525000D02*
X161750000Y-75475000D01*
X161750000Y-75475000D02*
X160650000Y-75475000D01*
X160250000Y-75475000D02*
X159150000Y-75475000D01*
X158750000Y-75475000D02*
X157650000Y-75475000D01*
X157250000Y-75475000D02*
X156150000Y-75475000D01*
X155750000Y-75475000D02*
X154650000Y-75475000D01*
X154250000Y-75475000D02*
X153150000Y-75475000D01*
X152750000Y-75475000D02*
X151650000Y-75475000D01*
X151250000Y-75475000D02*
X150150000Y-75475000D01*
X149750000Y-75475000D02*
X148900000Y-75475000D01*
X148900000Y-75475000D02*
X148900000Y-74375000D01*
X148900000Y-73975000D02*
X148900000Y-72875000D01*
X148900000Y-72475000D02*
X148900000Y-71375000D01*
X148900000Y-70975000D02*
X148900000Y-70025000D01*
X133237500Y-78150000D02*
X134337500Y-78150000D01*
X134737500Y-78150000D02*
X135837500Y-78150000D01*
X136237500Y-78150000D02*
X137337500Y-78150000D01*
X137737500Y-78150000D02*
X138837500Y-78150000D01*
X139237500Y-78150000D02*
X140337500Y-78150000D01*
X140737500Y-78150000D02*
X141837500Y-78150000D01*
X142237500Y-78150000D02*
X143337500Y-78150000D01*
X143737500Y-78150000D02*
X144837500Y-78150000D01*
X145237500Y-78150000D02*
X146337500Y-78150000D01*
X146737500Y-78150000D02*
X147837500Y-78150000D01*
X148237500Y-78150000D02*
X149337500Y-78150000D01*
X149737500Y-78150000D02*
X150837500Y-78150000D01*
X151237500Y-78150000D02*
X152337500Y-78150000D01*
X152737500Y-78150000D02*
X153837500Y-78150000D01*
X154237500Y-78150000D02*
X155337500Y-78150000D01*
X155737500Y-78150000D02*
X156062500Y-78150000D01*
X156062500Y-78150000D02*
X156062500Y-79250000D01*
X156062500Y-79650000D02*
X156062500Y-80750000D01*
X156062500Y-81150000D02*
X156062500Y-82250000D01*
X156062500Y-82650000D02*
X156062500Y-83750000D01*
X156062500Y-84150000D02*
X156062500Y-84475000D01*
X156062500Y-84475000D02*
X154962500Y-84475000D01*
X154562500Y-84475000D02*
X153462500Y-84475000D01*
X153062500Y-84475000D02*
X151962500Y-84475000D01*
X151562500Y-84475000D02*
X150462500Y-84475000D01*
X150062500Y-84475000D02*
X148962500Y-84475000D01*
X148562500Y-84475000D02*
X147462500Y-84475000D01*
X147062500Y-84475000D02*
X145962500Y-84475000D01*
X145562500Y-84475000D02*
X144462500Y-84475000D01*
X144062500Y-84475000D02*
X142962500Y-84475000D01*
X142562500Y-84475000D02*
X141462500Y-84475000D01*
X141062500Y-84475000D02*
X139962500Y-84475000D01*
X139562500Y-84475000D02*
X138462500Y-84475000D01*
X138062500Y-84475000D02*
X136962500Y-84475000D01*
X136562500Y-84475000D02*
X135462500Y-84475000D01*
X135062500Y-84475000D02*
X133962500Y-84475000D01*
X133562500Y-84475000D02*
X133237500Y-84475000D01*
X133237500Y-84475000D02*
X133237500Y-83375000D01*
X133237500Y-82975000D02*
X133237500Y-81875000D01*
X133237500Y-81475000D02*
X133237500Y-80375000D01*
X133237500Y-79975000D02*
X133237500Y-78875000D01*
X133237500Y-78475000D02*
X133237500Y-78150000D01*
X133100000Y-46975000D02*
X151675000Y-46975000D01*
X135100000Y-49287500D02*
X136200000Y-49287500D01*
X136600000Y-49287500D02*
X136600000Y-49287500D01*
X137000000Y-49287500D02*
X137000000Y-49287500D01*
X137400000Y-49287500D02*
X138500000Y-49287500D01*
X138900000Y-49287500D02*
X138900000Y-49287500D01*
X139300000Y-49287500D02*
X139300000Y-49287500D01*
X139700000Y-49287500D02*
X140800000Y-49287500D01*
X141200000Y-49287500D02*
X141200000Y-49287500D01*
X141600000Y-49287500D02*
X141600000Y-49287500D01*
X142000000Y-49287500D02*
X143100000Y-49287500D01*
X143500000Y-49287500D02*
X143500000Y-49287500D01*
X143900000Y-49287500D02*
X143900000Y-49287500D01*
X144300000Y-49287500D02*
X145400000Y-49287500D01*
X145800000Y-49287500D02*
X145800000Y-49287500D01*
X146200000Y-49287500D02*
X146200000Y-49287500D01*
X146600000Y-49287500D02*
X147700000Y-49287500D01*
X148100000Y-49287500D02*
X148100000Y-49287500D01*
X148500000Y-49287500D02*
X148500000Y-49287500D01*
X148900000Y-49287500D02*
X149725000Y-49287500D01*
X149725000Y-49287500D02*
X149725000Y-50387500D01*
X149725000Y-50787500D02*
X149725000Y-50787500D01*
X149725000Y-51187500D02*
X149725000Y-51187500D01*
X149725000Y-51587500D02*
X149725000Y-52687500D01*
X149725000Y-53087500D02*
X149725000Y-53087500D01*
X149725000Y-53487500D02*
X149725000Y-53487500D01*
X149725000Y-53887500D02*
X149725000Y-54912500D01*
X149725000Y-54912500D02*
X148625000Y-54912500D01*
X148225000Y-54912500D02*
X148225000Y-54912500D01*
X147825000Y-54912500D02*
X147825000Y-54912500D01*
X147425000Y-54912500D02*
X146325000Y-54912500D01*
X145925000Y-54912500D02*
X145925000Y-54912500D01*
X145525000Y-54912500D02*
X145525000Y-54912500D01*
X145125000Y-54912500D02*
X144025000Y-54912500D01*
X143625000Y-54912500D02*
X143625000Y-54912500D01*
X143225000Y-54912500D02*
X143225000Y-54912500D01*
X142825000Y-54912500D02*
X141725000Y-54912500D01*
X141325000Y-54912500D02*
X141325000Y-54912500D01*
X140925000Y-54912500D02*
X140925000Y-54912500D01*
X140525000Y-54912500D02*
X139425000Y-54912500D01*
X139025000Y-54912500D02*
X139025000Y-54912500D01*
X138625000Y-54912500D02*
X138625000Y-54912500D01*
X138225000Y-54912500D02*
X137125000Y-54912500D01*
X136725000Y-54912500D02*
X136725000Y-54912500D01*
X136325000Y-54912500D02*
X136325000Y-54912500D01*
X135925000Y-54912500D02*
X135100000Y-54912500D01*
X135100000Y-54912500D02*
X135100000Y-53812500D01*
X135100000Y-53412500D02*
X135100000Y-53412500D01*
X135100000Y-53012500D02*
X135100000Y-53012500D01*
X135100000Y-52612500D02*
X135100000Y-51512500D01*
X135100000Y-51112500D02*
X135100000Y-51112500D01*
X135100000Y-50712500D02*
X135100000Y-50712500D01*
X135100000Y-50312500D02*
X135100000Y-49287500D01*
X135275000Y-86925000D02*
X136375000Y-86925000D01*
X136775000Y-86925000D02*
X137875000Y-86925000D01*
X138275000Y-86925000D02*
X139375000Y-86925000D01*
X139775000Y-86925000D02*
X140875000Y-86925000D01*
X141275000Y-86925000D02*
X142375000Y-86925000D01*
X142775000Y-86925000D02*
X143875000Y-86925000D01*
X144275000Y-86925000D02*
X145375000Y-86925000D01*
X145775000Y-86925000D02*
X146875000Y-86925000D01*
X147275000Y-86925000D02*
X147850000Y-86925000D01*
X147850000Y-86925000D02*
X147850000Y-88025000D01*
X147850000Y-88425000D02*
X147850000Y-89525000D01*
X147850000Y-89925000D02*
X147850000Y-91025000D01*
X147850000Y-91350000D02*
X146750000Y-91350000D01*
X146350000Y-91350000D02*
X145250000Y-91350000D01*
X144850000Y-91350000D02*
X143750000Y-91350000D01*
X143350000Y-91350000D02*
X142250000Y-91350000D01*
X141850000Y-91350000D02*
X140750000Y-91350000D01*
X140350000Y-91350000D02*
X139250000Y-91350000D01*
X138850000Y-91350000D02*
X137750000Y-91350000D01*
X137350000Y-91350000D02*
X136250000Y-91350000D01*
X135850000Y-91350000D02*
X135275000Y-91350000D01*
X135275000Y-91350000D02*
X135275000Y-90250000D01*
X135275000Y-89850000D02*
X135275000Y-88750000D01*
X135275000Y-88350000D02*
X135275000Y-87250000D01*
X160244925Y-71702531D02*
X160721115Y-71702531D01*
X160721115Y-71702531D02*
X160721115Y-70702531D01*
X159911591Y-71702531D02*
X159911591Y-70702531D01*
X159911591Y-70702531D02*
X159530639Y-70702531D01*
X159530639Y-70702531D02*
X159435401Y-70750150D01*
X159435401Y-70750150D02*
X159387782Y-70797769D01*
X159387782Y-70797769D02*
X159340163Y-70893007D01*
X159340163Y-70893007D02*
X159340163Y-71035864D01*
X159340163Y-71035864D02*
X159387782Y-71131102D01*
X159387782Y-71131102D02*
X159435401Y-71178721D01*
X159435401Y-71178721D02*
X159530639Y-71226340D01*
X159530639Y-71226340D02*
X159911591Y-71226340D01*
X158959210Y-71654912D02*
X158816353Y-71702531D01*
X158816353Y-71702531D02*
X158578258Y-71702531D01*
X158578258Y-71702531D02*
X158483020Y-71654912D01*
X158483020Y-71654912D02*
X158435401Y-71607292D01*
X158435401Y-71607292D02*
X158387782Y-71512054D01*
X158387782Y-71512054D02*
X158387782Y-71416816D01*
X158387782Y-71416816D02*
X158435401Y-71321578D01*
X158435401Y-71321578D02*
X158483020Y-71273959D01*
X158483020Y-71273959D02*
X158578258Y-71226340D01*
X158578258Y-71226340D02*
X158768734Y-71178721D01*
X158768734Y-71178721D02*
X158863972Y-71131102D01*
X158863972Y-71131102D02*
X158911591Y-71083483D01*
X158911591Y-71083483D02*
X158959210Y-70988245D01*
X158959210Y-70988245D02*
X158959210Y-70893007D01*
X158959210Y-70893007D02*
X158911591Y-70797769D01*
X158911591Y-70797769D02*
X158863972Y-70750150D01*
X158863972Y-70750150D02*
X158768734Y-70702531D01*
X158768734Y-70702531D02*
X158530639Y-70702531D01*
X158530639Y-70702531D02*
X158387782Y-70750150D01*
X158006829Y-70797769D02*
X157959210Y-70750150D01*
X157959210Y-70750150D02*
X157863972Y-70702531D01*
X157863972Y-70702531D02*
X157625877Y-70702531D01*
X157625877Y-70702531D02*
X157530639Y-70750150D01*
X157530639Y-70750150D02*
X157483020Y-70797769D01*
X157483020Y-70797769D02*
X157435401Y-70893007D01*
X157435401Y-70893007D02*
X157435401Y-70988245D01*
X157435401Y-70988245D02*
X157483020Y-71131102D01*
X157483020Y-71131102D02*
X158054448Y-71702531D01*
X158054448Y-71702531D02*
X157435401Y-71702531D01*
X157054448Y-70797769D02*
X157006829Y-70750150D01*
X157006829Y-70750150D02*
X156911591Y-70702531D01*
X156911591Y-70702531D02*
X156673496Y-70702531D01*
X156673496Y-70702531D02*
X156578258Y-70750150D01*
X156578258Y-70750150D02*
X156530639Y-70797769D01*
X156530639Y-70797769D02*
X156483020Y-70893007D01*
X156483020Y-70893007D02*
X156483020Y-70988245D01*
X156483020Y-70988245D02*
X156530639Y-71131102D01*
X156530639Y-71131102D02*
X157102067Y-71702531D01*
X157102067Y-71702531D02*
X156483020Y-71702531D01*
X156054448Y-71702531D02*
X156054448Y-70702531D01*
X156054448Y-71178721D02*
X155483020Y-71178721D01*
X155483020Y-71702531D02*
X155483020Y-70702531D01*
X155006829Y-71702531D02*
X155006829Y-70702531D01*
X155006829Y-71178721D02*
X154435401Y-71178721D01*
X154435401Y-71702531D02*
X154435401Y-70702531D01*
X154102067Y-70702531D02*
X153530639Y-70702531D01*
X153816353Y-71702531D02*
X153816353Y-70702531D01*
X152625877Y-71702531D02*
X152959210Y-71226340D01*
X153197305Y-71702531D02*
X153197305Y-70702531D01*
X153197305Y-70702531D02*
X152816353Y-70702531D01*
X152816353Y-70702531D02*
X152721115Y-70750150D01*
X152721115Y-70750150D02*
X152673496Y-70797769D01*
X152673496Y-70797769D02*
X152625877Y-70893007D01*
X152625877Y-70893007D02*
X152625877Y-71035864D01*
X152625877Y-71035864D02*
X152673496Y-71131102D01*
X152673496Y-71131102D02*
X152721115Y-71178721D01*
X152721115Y-71178721D02*
X152816353Y-71226340D01*
X152816353Y-71226340D02*
X153197305Y-71226340D01*
X160721115Y-73312475D02*
X160721115Y-72312475D01*
X160054449Y-72312475D02*
X159863973Y-72312475D01*
X159863973Y-72312475D02*
X159768735Y-72360094D01*
X159768735Y-72360094D02*
X159673497Y-72455332D01*
X159673497Y-72455332D02*
X159625878Y-72645808D01*
X159625878Y-72645808D02*
X159625878Y-72979141D01*
X159625878Y-72979141D02*
X159673497Y-73169617D01*
X159673497Y-73169617D02*
X159768735Y-73264856D01*
X159768735Y-73264856D02*
X159863973Y-73312475D01*
X159863973Y-73312475D02*
X160054449Y-73312475D01*
X160054449Y-73312475D02*
X160149687Y-73264856D01*
X160149687Y-73264856D02*
X160244925Y-73169617D01*
X160244925Y-73169617D02*
X160292544Y-72979141D01*
X160292544Y-72979141D02*
X160292544Y-72645808D01*
X160292544Y-72645808D02*
X160244925Y-72455332D01*
X160244925Y-72455332D02*
X160149687Y-72360094D01*
X160149687Y-72360094D02*
X160054449Y-72312475D01*
X158673497Y-73312475D02*
X159244925Y-73312475D01*
X158959211Y-73312475D02*
X158959211Y-72312475D01*
X158959211Y-72312475D02*
X159054449Y-72455332D01*
X159054449Y-72455332D02*
X159149687Y-72550570D01*
X159149687Y-72550570D02*
X159244925Y-72598189D01*
X157816354Y-72645808D02*
X157816354Y-73312475D01*
X158054449Y-72264856D02*
X158292544Y-72979141D01*
X158292544Y-72979141D02*
X157673497Y-72979141D01*
X157292544Y-72931522D02*
X156530640Y-72931522D01*
X156054449Y-73312475D02*
X156054449Y-72312475D01*
X155625878Y-72407713D02*
X155578259Y-72360094D01*
X155578259Y-72360094D02*
X155483021Y-72312475D01*
X155483021Y-72312475D02*
X155244926Y-72312475D01*
X155244926Y-72312475D02*
X155149688Y-72360094D01*
X155149688Y-72360094D02*
X155102069Y-72407713D01*
X155102069Y-72407713D02*
X155054450Y-72502951D01*
X155054450Y-72502951D02*
X155054450Y-72598189D01*
X155054450Y-72598189D02*
X155102069Y-72741046D01*
X155102069Y-72741046D02*
X155673497Y-73312475D01*
X155673497Y-73312475D02*
X155054450Y-73312475D01*
X154054450Y-73217236D02*
X154102069Y-73264856D01*
X154102069Y-73264856D02*
X154244926Y-73312475D01*
X154244926Y-73312475D02*
X154340164Y-73312475D01*
X154340164Y-73312475D02*
X154483021Y-73264856D01*
X154483021Y-73264856D02*
X154578259Y-73169617D01*
X154578259Y-73169617D02*
X154625878Y-73074379D01*
X154625878Y-73074379D02*
X154673497Y-72883903D01*
X154673497Y-72883903D02*
X154673497Y-72741046D01*
X154673497Y-72741046D02*
X154625878Y-72550570D01*
X154625878Y-72550570D02*
X154578259Y-72455332D01*
X154578259Y-72455332D02*
X154483021Y-72360094D01*
X154483021Y-72360094D02*
X154340164Y-72312475D01*
X154340164Y-72312475D02*
X154244926Y-72312475D01*
X154244926Y-72312475D02*
X154102069Y-72360094D01*
X154102069Y-72360094D02*
X154054450Y-72407713D01*
X153863974Y-73407713D02*
X153102069Y-73407713D01*
X152911592Y-73264856D02*
X152768735Y-73312475D01*
X152768735Y-73312475D02*
X152530640Y-73312475D01*
X152530640Y-73312475D02*
X152435402Y-73264856D01*
X152435402Y-73264856D02*
X152387783Y-73217236D01*
X152387783Y-73217236D02*
X152340164Y-73121998D01*
X152340164Y-73121998D02*
X152340164Y-73026760D01*
X152340164Y-73026760D02*
X152387783Y-72931522D01*
X152387783Y-72931522D02*
X152435402Y-72883903D01*
X152435402Y-72883903D02*
X152530640Y-72836284D01*
X152530640Y-72836284D02*
X152721116Y-72788665D01*
X152721116Y-72788665D02*
X152816354Y-72741046D01*
X152816354Y-72741046D02*
X152863973Y-72693427D01*
X152863973Y-72693427D02*
X152911592Y-72598189D01*
X152911592Y-72598189D02*
X152911592Y-72502951D01*
X152911592Y-72502951D02*
X152863973Y-72407713D01*
X152863973Y-72407713D02*
X152816354Y-72360094D01*
X152816354Y-72360094D02*
X152721116Y-72312475D01*
X152721116Y-72312475D02*
X152483021Y-72312475D01*
X152483021Y-72312475D02*
X152340164Y-72360094D01*
X151911592Y-73312475D02*
X151911592Y-72312475D01*
X151911592Y-72312475D02*
X151673497Y-72312475D01*
X151673497Y-72312475D02*
X151530640Y-72360094D01*
X151530640Y-72360094D02*
X151435402Y-72455332D01*
X151435402Y-72455332D02*
X151387783Y-72550570D01*
X151387783Y-72550570D02*
X151340164Y-72741046D01*
X151340164Y-72741046D02*
X151340164Y-72883903D01*
X151340164Y-72883903D02*
X151387783Y-73074379D01*
X151387783Y-73074379D02*
X151435402Y-73169617D01*
X151435402Y-73169617D02*
X151530640Y-73264856D01*
X151530640Y-73264856D02*
X151673497Y-73312475D01*
X151673497Y-73312475D02*
X151911592Y-73312475D01*
X150959211Y-73026760D02*
X150483021Y-73026760D01*
X151054449Y-73312475D02*
X150721116Y-72312475D01*
X150721116Y-72312475D02*
X150387783Y-73312475D01*
X160721115Y-74922419D02*
X160721115Y-73922419D01*
X160054449Y-73922419D02*
X159863973Y-73922419D01*
X159863973Y-73922419D02*
X159768735Y-73970038D01*
X159768735Y-73970038D02*
X159673497Y-74065276D01*
X159673497Y-74065276D02*
X159625878Y-74255752D01*
X159625878Y-74255752D02*
X159625878Y-74589085D01*
X159625878Y-74589085D02*
X159673497Y-74779561D01*
X159673497Y-74779561D02*
X159768735Y-74874800D01*
X159768735Y-74874800D02*
X159863973Y-74922419D01*
X159863973Y-74922419D02*
X160054449Y-74922419D01*
X160054449Y-74922419D02*
X160149687Y-74874800D01*
X160149687Y-74874800D02*
X160244925Y-74779561D01*
X160244925Y-74779561D02*
X160292544Y-74589085D01*
X160292544Y-74589085D02*
X160292544Y-74255752D01*
X160292544Y-74255752D02*
X160244925Y-74065276D01*
X160244925Y-74065276D02*
X160149687Y-73970038D01*
X160149687Y-73970038D02*
X160054449Y-73922419D01*
X158673497Y-74922419D02*
X159244925Y-74922419D01*
X158959211Y-74922419D02*
X158959211Y-73922419D01*
X158959211Y-73922419D02*
X159054449Y-74065276D01*
X159054449Y-74065276D02*
X159149687Y-74160514D01*
X159149687Y-74160514D02*
X159244925Y-74208133D01*
X157768735Y-73922419D02*
X158244925Y-73922419D01*
X158244925Y-73922419D02*
X158292544Y-74398609D01*
X158292544Y-74398609D02*
X158244925Y-74350990D01*
X158244925Y-74350990D02*
X158149687Y-74303371D01*
X158149687Y-74303371D02*
X157911592Y-74303371D01*
X157911592Y-74303371D02*
X157816354Y-74350990D01*
X157816354Y-74350990D02*
X157768735Y-74398609D01*
X157768735Y-74398609D02*
X157721116Y-74493847D01*
X157721116Y-74493847D02*
X157721116Y-74731942D01*
X157721116Y-74731942D02*
X157768735Y-74827180D01*
X157768735Y-74827180D02*
X157816354Y-74874800D01*
X157816354Y-74874800D02*
X157911592Y-74922419D01*
X157911592Y-74922419D02*
X158149687Y-74922419D01*
X158149687Y-74922419D02*
X158244925Y-74874800D01*
X158244925Y-74874800D02*
X158292544Y-74827180D01*
X157292544Y-74541466D02*
X156530640Y-74541466D01*
X156054449Y-74922419D02*
X156054449Y-73922419D01*
X155625878Y-74017657D02*
X155578259Y-73970038D01*
X155578259Y-73970038D02*
X155483021Y-73922419D01*
X155483021Y-73922419D02*
X155244926Y-73922419D01*
X155244926Y-73922419D02*
X155149688Y-73970038D01*
X155149688Y-73970038D02*
X155102069Y-74017657D01*
X155102069Y-74017657D02*
X155054450Y-74112895D01*
X155054450Y-74112895D02*
X155054450Y-74208133D01*
X155054450Y-74208133D02*
X155102069Y-74350990D01*
X155102069Y-74350990D02*
X155673497Y-74922419D01*
X155673497Y-74922419D02*
X155054450Y-74922419D01*
X154054450Y-74827180D02*
X154102069Y-74874800D01*
X154102069Y-74874800D02*
X154244926Y-74922419D01*
X154244926Y-74922419D02*
X154340164Y-74922419D01*
X154340164Y-74922419D02*
X154483021Y-74874800D01*
X154483021Y-74874800D02*
X154578259Y-74779561D01*
X154578259Y-74779561D02*
X154625878Y-74684323D01*
X154625878Y-74684323D02*
X154673497Y-74493847D01*
X154673497Y-74493847D02*
X154673497Y-74350990D01*
X154673497Y-74350990D02*
X154625878Y-74160514D01*
X154625878Y-74160514D02*
X154578259Y-74065276D01*
X154578259Y-74065276D02*
X154483021Y-73970038D01*
X154483021Y-73970038D02*
X154340164Y-73922419D01*
X154340164Y-73922419D02*
X154244926Y-73922419D01*
X154244926Y-73922419D02*
X154102069Y-73970038D01*
X154102069Y-73970038D02*
X154054450Y-74017657D01*
X153102069Y-74922419D02*
X153673497Y-74922419D01*
X153387783Y-74922419D02*
X153387783Y-73922419D01*
X153387783Y-73922419D02*
X153483021Y-74065276D01*
X153483021Y-74065276D02*
X153578259Y-74160514D01*
X153578259Y-74160514D02*
X153673497Y-74208133D01*
X152911593Y-75017657D02*
X152149688Y-75017657D01*
X151959211Y-74874800D02*
X151816354Y-74922419D01*
X151816354Y-74922419D02*
X151578259Y-74922419D01*
X151578259Y-74922419D02*
X151483021Y-74874800D01*
X151483021Y-74874800D02*
X151435402Y-74827180D01*
X151435402Y-74827180D02*
X151387783Y-74731942D01*
X151387783Y-74731942D02*
X151387783Y-74636704D01*
X151387783Y-74636704D02*
X151435402Y-74541466D01*
X151435402Y-74541466D02*
X151483021Y-74493847D01*
X151483021Y-74493847D02*
X151578259Y-74446228D01*
X151578259Y-74446228D02*
X151768735Y-74398609D01*
X151768735Y-74398609D02*
X151863973Y-74350990D01*
X151863973Y-74350990D02*
X151911592Y-74303371D01*
X151911592Y-74303371D02*
X151959211Y-74208133D01*
X151959211Y-74208133D02*
X151959211Y-74112895D01*
X151959211Y-74112895D02*
X151911592Y-74017657D01*
X151911592Y-74017657D02*
X151863973Y-73970038D01*
X151863973Y-73970038D02*
X151768735Y-73922419D01*
X151768735Y-73922419D02*
X151530640Y-73922419D01*
X151530640Y-73922419D02*
X151387783Y-73970038D01*
X150387783Y-74827180D02*
X150435402Y-74874800D01*
X150435402Y-74874800D02*
X150578259Y-74922419D01*
X150578259Y-74922419D02*
X150673497Y-74922419D01*
X150673497Y-74922419D02*
X150816354Y-74874800D01*
X150816354Y-74874800D02*
X150911592Y-74779561D01*
X150911592Y-74779561D02*
X150959211Y-74684323D01*
X150959211Y-74684323D02*
X151006830Y-74493847D01*
X151006830Y-74493847D02*
X151006830Y-74350990D01*
X151006830Y-74350990D02*
X150959211Y-74160514D01*
X150959211Y-74160514D02*
X150911592Y-74065276D01*
X150911592Y-74065276D02*
X150816354Y-73970038D01*
X150816354Y-73970038D02*
X150673497Y-73922419D01*
X150673497Y-73922419D02*
X150578259Y-73922419D01*
X150578259Y-73922419D02*
X150435402Y-73970038D01*
X150435402Y-73970038D02*
X150387783Y-74017657D01*
X149483021Y-74922419D02*
X149959211Y-74922419D01*
X149959211Y-74922419D02*
X149959211Y-73922419D01*
X175696115Y-80002531D02*
X175696115Y-79002531D01*
X175696115Y-79002531D02*
X175362782Y-79716816D01*
X175362782Y-79716816D02*
X175029449Y-79002531D01*
X175029449Y-79002531D02*
X175029449Y-80002531D01*
X174553258Y-80002531D02*
X174553258Y-79002531D01*
X174553258Y-79002531D02*
X174172306Y-79002531D01*
X174172306Y-79002531D02*
X174077068Y-79050150D01*
X174077068Y-79050150D02*
X174029449Y-79097769D01*
X174029449Y-79097769D02*
X173981830Y-79193007D01*
X173981830Y-79193007D02*
X173981830Y-79335864D01*
X173981830Y-79335864D02*
X174029449Y-79431102D01*
X174029449Y-79431102D02*
X174077068Y-79478721D01*
X174077068Y-79478721D02*
X174172306Y-79526340D01*
X174172306Y-79526340D02*
X174553258Y-79526340D01*
X173648496Y-79002531D02*
X172981830Y-80002531D01*
X172981830Y-79002531D02*
X173648496Y-80002531D01*
X172743734Y-79002531D02*
X172410401Y-80002531D01*
X172410401Y-80002531D02*
X172077068Y-79002531D01*
X171267544Y-79002531D02*
X171743734Y-79002531D01*
X171743734Y-79002531D02*
X171791353Y-79478721D01*
X171791353Y-79478721D02*
X171743734Y-79431102D01*
X171743734Y-79431102D02*
X171648496Y-79383483D01*
X171648496Y-79383483D02*
X171410401Y-79383483D01*
X171410401Y-79383483D02*
X171315163Y-79431102D01*
X171315163Y-79431102D02*
X171267544Y-79478721D01*
X171267544Y-79478721D02*
X171219925Y-79573959D01*
X171219925Y-79573959D02*
X171219925Y-79812054D01*
X171219925Y-79812054D02*
X171267544Y-79907292D01*
X171267544Y-79907292D02*
X171315163Y-79954912D01*
X171315163Y-79954912D02*
X171410401Y-80002531D01*
X171410401Y-80002531D02*
X171648496Y-80002531D01*
X171648496Y-80002531D02*
X171743734Y-79954912D01*
X171743734Y-79954912D02*
X171791353Y-79907292D01*
X170267544Y-80002531D02*
X170838972Y-80002531D01*
X170553258Y-80002531D02*
X170553258Y-79002531D01*
X170553258Y-79002531D02*
X170648496Y-79145388D01*
X170648496Y-79145388D02*
X170743734Y-79240626D01*
X170743734Y-79240626D02*
X170838972Y-79288245D01*
X169648496Y-79002531D02*
X169553258Y-79002531D01*
X169553258Y-79002531D02*
X169458020Y-79050150D01*
X169458020Y-79050150D02*
X169410401Y-79097769D01*
X169410401Y-79097769D02*
X169362782Y-79193007D01*
X169362782Y-79193007D02*
X169315163Y-79383483D01*
X169315163Y-79383483D02*
X169315163Y-79621578D01*
X169315163Y-79621578D02*
X169362782Y-79812054D01*
X169362782Y-79812054D02*
X169410401Y-79907292D01*
X169410401Y-79907292D02*
X169458020Y-79954912D01*
X169458020Y-79954912D02*
X169553258Y-80002531D01*
X169553258Y-80002531D02*
X169648496Y-80002531D01*
X169648496Y-80002531D02*
X169743734Y-79954912D01*
X169743734Y-79954912D02*
X169791353Y-79907292D01*
X169791353Y-79907292D02*
X169838972Y-79812054D01*
X169838972Y-79812054D02*
X169886591Y-79621578D01*
X169886591Y-79621578D02*
X169886591Y-79383483D01*
X169886591Y-79383483D02*
X169838972Y-79193007D01*
X169838972Y-79193007D02*
X169791353Y-79097769D01*
X169791353Y-79097769D02*
X169743734Y-79050150D01*
X169743734Y-79050150D02*
X169648496Y-79002531D01*
X168696115Y-79002531D02*
X168600877Y-79002531D01*
X168600877Y-79002531D02*
X168505639Y-79050150D01*
X168505639Y-79050150D02*
X168458020Y-79097769D01*
X168458020Y-79097769D02*
X168410401Y-79193007D01*
X168410401Y-79193007D02*
X168362782Y-79383483D01*
X168362782Y-79383483D02*
X168362782Y-79621578D01*
X168362782Y-79621578D02*
X168410401Y-79812054D01*
X168410401Y-79812054D02*
X168458020Y-79907292D01*
X168458020Y-79907292D02*
X168505639Y-79954912D01*
X168505639Y-79954912D02*
X168600877Y-80002531D01*
X168600877Y-80002531D02*
X168696115Y-80002531D01*
X168696115Y-80002531D02*
X168791353Y-79954912D01*
X168791353Y-79954912D02*
X168838972Y-79907292D01*
X168838972Y-79907292D02*
X168886591Y-79812054D01*
X168886591Y-79812054D02*
X168934210Y-79621578D01*
X168934210Y-79621578D02*
X168934210Y-79383483D01*
X168934210Y-79383483D02*
X168886591Y-79193007D01*
X168886591Y-79193007D02*
X168838972Y-79097769D01*
X168838972Y-79097769D02*
X168791353Y-79050150D01*
X168791353Y-79050150D02*
X168696115Y-79002531D01*
X167934210Y-80002531D02*
X167934210Y-79002531D01*
X167934210Y-79002531D02*
X167696115Y-79002531D01*
X167696115Y-79002531D02*
X167553258Y-79050150D01*
X167553258Y-79050150D02*
X167458020Y-79145388D01*
X167458020Y-79145388D02*
X167410401Y-79240626D01*
X167410401Y-79240626D02*
X167362782Y-79431102D01*
X167362782Y-79431102D02*
X167362782Y-79573959D01*
X167362782Y-79573959D02*
X167410401Y-79764435D01*
X167410401Y-79764435D02*
X167458020Y-79859673D01*
X167458020Y-79859673D02*
X167553258Y-79954912D01*
X167553258Y-79954912D02*
X167696115Y-80002531D01*
X167696115Y-80002531D02*
X167934210Y-80002531D01*
X166934210Y-80002531D02*
X166934210Y-79002531D01*
X166934210Y-79002531D02*
X166553258Y-79002531D01*
X166553258Y-79002531D02*
X166458020Y-79050150D01*
X166458020Y-79050150D02*
X166410401Y-79097769D01*
X166410401Y-79097769D02*
X166362782Y-79193007D01*
X166362782Y-79193007D02*
X166362782Y-79335864D01*
X166362782Y-79335864D02*
X166410401Y-79431102D01*
X166410401Y-79431102D02*
X166458020Y-79478721D01*
X166458020Y-79478721D02*
X166553258Y-79526340D01*
X166553258Y-79526340D02*
X166934210Y-79526340D01*
X175696115Y-81612475D02*
X175696115Y-80612475D01*
X175696115Y-80612475D02*
X175362782Y-81326760D01*
X175362782Y-81326760D02*
X175029449Y-80612475D01*
X175029449Y-80612475D02*
X175029449Y-81612475D01*
X174553258Y-81612475D02*
X174553258Y-80612475D01*
X174077068Y-81612475D02*
X174077068Y-80612475D01*
X174077068Y-80612475D02*
X173505640Y-81612475D01*
X173505640Y-81612475D02*
X173505640Y-80612475D01*
X173029449Y-81612475D02*
X173029449Y-80612475D01*
X171791354Y-81612475D02*
X171791354Y-80612475D01*
X171124688Y-80612475D02*
X170934212Y-80612475D01*
X170934212Y-80612475D02*
X170838974Y-80660094D01*
X170838974Y-80660094D02*
X170743736Y-80755332D01*
X170743736Y-80755332D02*
X170696117Y-80945808D01*
X170696117Y-80945808D02*
X170696117Y-81279141D01*
X170696117Y-81279141D02*
X170743736Y-81469617D01*
X170743736Y-81469617D02*
X170838974Y-81564856D01*
X170838974Y-81564856D02*
X170934212Y-81612475D01*
X170934212Y-81612475D02*
X171124688Y-81612475D01*
X171124688Y-81612475D02*
X171219926Y-81564856D01*
X171219926Y-81564856D02*
X171315164Y-81469617D01*
X171315164Y-81469617D02*
X171362783Y-81279141D01*
X171362783Y-81279141D02*
X171362783Y-80945808D01*
X171362783Y-80945808D02*
X171315164Y-80755332D01*
X171315164Y-80755332D02*
X171219926Y-80660094D01*
X171219926Y-80660094D02*
X171124688Y-80612475D01*
X169791355Y-80612475D02*
X170267545Y-80612475D01*
X170267545Y-80612475D02*
X170315164Y-81088665D01*
X170315164Y-81088665D02*
X170267545Y-81041046D01*
X170267545Y-81041046D02*
X170172307Y-80993427D01*
X170172307Y-80993427D02*
X169934212Y-80993427D01*
X169934212Y-80993427D02*
X169838974Y-81041046D01*
X169838974Y-81041046D02*
X169791355Y-81088665D01*
X169791355Y-81088665D02*
X169743736Y-81183903D01*
X169743736Y-81183903D02*
X169743736Y-81421998D01*
X169743736Y-81421998D02*
X169791355Y-81517236D01*
X169791355Y-81517236D02*
X169838974Y-81564856D01*
X169838974Y-81564856D02*
X169934212Y-81612475D01*
X169934212Y-81612475D02*
X170172307Y-81612475D01*
X170172307Y-81612475D02*
X170267545Y-81564856D01*
X170267545Y-81564856D02*
X170315164Y-81517236D01*
X169315164Y-81231522D02*
X168553260Y-81231522D01*
X167362783Y-81564856D02*
X167219926Y-81612475D01*
X167219926Y-81612475D02*
X166981831Y-81612475D01*
X166981831Y-81612475D02*
X166886593Y-81564856D01*
X166886593Y-81564856D02*
X166838974Y-81517236D01*
X166838974Y-81517236D02*
X166791355Y-81421998D01*
X166791355Y-81421998D02*
X166791355Y-81326760D01*
X166791355Y-81326760D02*
X166838974Y-81231522D01*
X166838974Y-81231522D02*
X166886593Y-81183903D01*
X166886593Y-81183903D02*
X166981831Y-81136284D01*
X166981831Y-81136284D02*
X167172307Y-81088665D01*
X167172307Y-81088665D02*
X167267545Y-81041046D01*
X167267545Y-81041046D02*
X167315164Y-80993427D01*
X167315164Y-80993427D02*
X167362783Y-80898189D01*
X167362783Y-80898189D02*
X167362783Y-80802951D01*
X167362783Y-80802951D02*
X167315164Y-80707713D01*
X167315164Y-80707713D02*
X167267545Y-80660094D01*
X167267545Y-80660094D02*
X167172307Y-80612475D01*
X167172307Y-80612475D02*
X166934212Y-80612475D01*
X166934212Y-80612475D02*
X166791355Y-80660094D01*
X166362783Y-81088665D02*
X166029450Y-81088665D01*
X165886593Y-81612475D02*
X166362783Y-81612475D01*
X166362783Y-81612475D02*
X166362783Y-80612475D01*
X166362783Y-80612475D02*
X165886593Y-80612475D01*
X165458021Y-81612475D02*
X165458021Y-80612475D01*
X165458021Y-80612475D02*
X164886593Y-81612475D01*
X164886593Y-81612475D02*
X164886593Y-80612475D01*
X164458021Y-81564856D02*
X164315164Y-81612475D01*
X164315164Y-81612475D02*
X164077069Y-81612475D01*
X164077069Y-81612475D02*
X163981831Y-81564856D01*
X163981831Y-81564856D02*
X163934212Y-81517236D01*
X163934212Y-81517236D02*
X163886593Y-81421998D01*
X163886593Y-81421998D02*
X163886593Y-81326760D01*
X163886593Y-81326760D02*
X163934212Y-81231522D01*
X163934212Y-81231522D02*
X163981831Y-81183903D01*
X163981831Y-81183903D02*
X164077069Y-81136284D01*
X164077069Y-81136284D02*
X164267545Y-81088665D01*
X164267545Y-81088665D02*
X164362783Y-81041046D01*
X164362783Y-81041046D02*
X164410402Y-80993427D01*
X164410402Y-80993427D02*
X164458021Y-80898189D01*
X164458021Y-80898189D02*
X164458021Y-80802951D01*
X164458021Y-80802951D02*
X164410402Y-80707713D01*
X164410402Y-80707713D02*
X164362783Y-80660094D01*
X164362783Y-80660094D02*
X164267545Y-80612475D01*
X164267545Y-80612475D02*
X164029450Y-80612475D01*
X164029450Y-80612475D02*
X163886593Y-80660094D01*
X163267545Y-80612475D02*
X163077069Y-80612475D01*
X163077069Y-80612475D02*
X162981831Y-80660094D01*
X162981831Y-80660094D02*
X162886593Y-80755332D01*
X162886593Y-80755332D02*
X162838974Y-80945808D01*
X162838974Y-80945808D02*
X162838974Y-81279141D01*
X162838974Y-81279141D02*
X162886593Y-81469617D01*
X162886593Y-81469617D02*
X162981831Y-81564856D01*
X162981831Y-81564856D02*
X163077069Y-81612475D01*
X163077069Y-81612475D02*
X163267545Y-81612475D01*
X163267545Y-81612475D02*
X163362783Y-81564856D01*
X163362783Y-81564856D02*
X163458021Y-81469617D01*
X163458021Y-81469617D02*
X163505640Y-81279141D01*
X163505640Y-81279141D02*
X163505640Y-80945808D01*
X163505640Y-80945808D02*
X163458021Y-80755332D01*
X163458021Y-80755332D02*
X163362783Y-80660094D01*
X163362783Y-80660094D02*
X163267545Y-80612475D01*
X161838974Y-81612475D02*
X162172307Y-81136284D01*
X162410402Y-81612475D02*
X162410402Y-80612475D01*
X162410402Y-80612475D02*
X162029450Y-80612475D01*
X162029450Y-80612475D02*
X161934212Y-80660094D01*
X161934212Y-80660094D02*
X161886593Y-80707713D01*
X161886593Y-80707713D02*
X161838974Y-80802951D01*
X161838974Y-80802951D02*
X161838974Y-80945808D01*
X161838974Y-80945808D02*
X161886593Y-81041046D01*
X161886593Y-81041046D02*
X161934212Y-81088665D01*
X161934212Y-81088665D02*
X162029450Y-81136284D01*
X162029450Y-81136284D02*
X162410402Y-81136284D01*
X160124688Y-81612475D02*
X160696116Y-81612475D01*
X160410402Y-81612475D02*
X160410402Y-80612475D01*
X160410402Y-80612475D02*
X160505640Y-80755332D01*
X160505640Y-80755332D02*
X160600878Y-80850570D01*
X160600878Y-80850570D02*
X160696116Y-80898189D01*
X175696115Y-83222419D02*
X175696115Y-82222419D01*
X175696115Y-82222419D02*
X175362782Y-82936704D01*
X175362782Y-82936704D02*
X175029449Y-82222419D01*
X175029449Y-82222419D02*
X175029449Y-83222419D01*
X174553258Y-83222419D02*
X174553258Y-82222419D01*
X174077068Y-83222419D02*
X174077068Y-82222419D01*
X174077068Y-82222419D02*
X173505640Y-83222419D01*
X173505640Y-83222419D02*
X173505640Y-82222419D01*
X173029449Y-83222419D02*
X173029449Y-82222419D01*
X171791354Y-83222419D02*
X171791354Y-82222419D01*
X171124688Y-82222419D02*
X170934212Y-82222419D01*
X170934212Y-82222419D02*
X170838974Y-82270038D01*
X170838974Y-82270038D02*
X170743736Y-82365276D01*
X170743736Y-82365276D02*
X170696117Y-82555752D01*
X170696117Y-82555752D02*
X170696117Y-82889085D01*
X170696117Y-82889085D02*
X170743736Y-83079561D01*
X170743736Y-83079561D02*
X170838974Y-83174800D01*
X170838974Y-83174800D02*
X170934212Y-83222419D01*
X170934212Y-83222419D02*
X171124688Y-83222419D01*
X171124688Y-83222419D02*
X171219926Y-83174800D01*
X171219926Y-83174800D02*
X171315164Y-83079561D01*
X171315164Y-83079561D02*
X171362783Y-82889085D01*
X171362783Y-82889085D02*
X171362783Y-82555752D01*
X171362783Y-82555752D02*
X171315164Y-82365276D01*
X171315164Y-82365276D02*
X171219926Y-82270038D01*
X171219926Y-82270038D02*
X171124688Y-82222419D01*
X169743736Y-83222419D02*
X170315164Y-83222419D01*
X170029450Y-83222419D02*
X170029450Y-82222419D01*
X170029450Y-82222419D02*
X170124688Y-82365276D01*
X170124688Y-82365276D02*
X170219926Y-82460514D01*
X170219926Y-82460514D02*
X170315164Y-82508133D01*
X168838974Y-82222419D02*
X169315164Y-82222419D01*
X169315164Y-82222419D02*
X169362783Y-82698609D01*
X169362783Y-82698609D02*
X169315164Y-82650990D01*
X169315164Y-82650990D02*
X169219926Y-82603371D01*
X169219926Y-82603371D02*
X168981831Y-82603371D01*
X168981831Y-82603371D02*
X168886593Y-82650990D01*
X168886593Y-82650990D02*
X168838974Y-82698609D01*
X168838974Y-82698609D02*
X168791355Y-82793847D01*
X168791355Y-82793847D02*
X168791355Y-83031942D01*
X168791355Y-83031942D02*
X168838974Y-83127180D01*
X168838974Y-83127180D02*
X168886593Y-83174800D01*
X168886593Y-83174800D02*
X168981831Y-83222419D01*
X168981831Y-83222419D02*
X169219926Y-83222419D01*
X169219926Y-83222419D02*
X169315164Y-83174800D01*
X169315164Y-83174800D02*
X169362783Y-83127180D01*
X168362783Y-82841466D02*
X167600879Y-82841466D01*
X166410402Y-83174800D02*
X166267545Y-83222419D01*
X166267545Y-83222419D02*
X166029450Y-83222419D01*
X166029450Y-83222419D02*
X165934212Y-83174800D01*
X165934212Y-83174800D02*
X165886593Y-83127180D01*
X165886593Y-83127180D02*
X165838974Y-83031942D01*
X165838974Y-83031942D02*
X165838974Y-82936704D01*
X165838974Y-82936704D02*
X165886593Y-82841466D01*
X165886593Y-82841466D02*
X165934212Y-82793847D01*
X165934212Y-82793847D02*
X166029450Y-82746228D01*
X166029450Y-82746228D02*
X166219926Y-82698609D01*
X166219926Y-82698609D02*
X166315164Y-82650990D01*
X166315164Y-82650990D02*
X166362783Y-82603371D01*
X166362783Y-82603371D02*
X166410402Y-82508133D01*
X166410402Y-82508133D02*
X166410402Y-82412895D01*
X166410402Y-82412895D02*
X166362783Y-82317657D01*
X166362783Y-82317657D02*
X166315164Y-82270038D01*
X166315164Y-82270038D02*
X166219926Y-82222419D01*
X166219926Y-82222419D02*
X165981831Y-82222419D01*
X165981831Y-82222419D02*
X165838974Y-82270038D01*
X165410402Y-82698609D02*
X165077069Y-82698609D01*
X164934212Y-83222419D02*
X165410402Y-83222419D01*
X165410402Y-83222419D02*
X165410402Y-82222419D01*
X165410402Y-82222419D02*
X164934212Y-82222419D01*
X164505640Y-83222419D02*
X164505640Y-82222419D01*
X164505640Y-82222419D02*
X163934212Y-83222419D01*
X163934212Y-83222419D02*
X163934212Y-82222419D01*
X163505640Y-83174800D02*
X163362783Y-83222419D01*
X163362783Y-83222419D02*
X163124688Y-83222419D01*
X163124688Y-83222419D02*
X163029450Y-83174800D01*
X163029450Y-83174800D02*
X162981831Y-83127180D01*
X162981831Y-83127180D02*
X162934212Y-83031942D01*
X162934212Y-83031942D02*
X162934212Y-82936704D01*
X162934212Y-82936704D02*
X162981831Y-82841466D01*
X162981831Y-82841466D02*
X163029450Y-82793847D01*
X163029450Y-82793847D02*
X163124688Y-82746228D01*
X163124688Y-82746228D02*
X163315164Y-82698609D01*
X163315164Y-82698609D02*
X163410402Y-82650990D01*
X163410402Y-82650990D02*
X163458021Y-82603371D01*
X163458021Y-82603371D02*
X163505640Y-82508133D01*
X163505640Y-82508133D02*
X163505640Y-82412895D01*
X163505640Y-82412895D02*
X163458021Y-82317657D01*
X163458021Y-82317657D02*
X163410402Y-82270038D01*
X163410402Y-82270038D02*
X163315164Y-82222419D01*
X163315164Y-82222419D02*
X163077069Y-82222419D01*
X163077069Y-82222419D02*
X162934212Y-82270038D01*
X162315164Y-82222419D02*
X162124688Y-82222419D01*
X162124688Y-82222419D02*
X162029450Y-82270038D01*
X162029450Y-82270038D02*
X161934212Y-82365276D01*
X161934212Y-82365276D02*
X161886593Y-82555752D01*
X161886593Y-82555752D02*
X161886593Y-82889085D01*
X161886593Y-82889085D02*
X161934212Y-83079561D01*
X161934212Y-83079561D02*
X162029450Y-83174800D01*
X162029450Y-83174800D02*
X162124688Y-83222419D01*
X162124688Y-83222419D02*
X162315164Y-83222419D01*
X162315164Y-83222419D02*
X162410402Y-83174800D01*
X162410402Y-83174800D02*
X162505640Y-83079561D01*
X162505640Y-83079561D02*
X162553259Y-82889085D01*
X162553259Y-82889085D02*
X162553259Y-82555752D01*
X162553259Y-82555752D02*
X162505640Y-82365276D01*
X162505640Y-82365276D02*
X162410402Y-82270038D01*
X162410402Y-82270038D02*
X162315164Y-82222419D01*
X160886593Y-83222419D02*
X161219926Y-82746228D01*
X161458021Y-83222419D02*
X161458021Y-82222419D01*
X161458021Y-82222419D02*
X161077069Y-82222419D01*
X161077069Y-82222419D02*
X160981831Y-82270038D01*
X160981831Y-82270038D02*
X160934212Y-82317657D01*
X160934212Y-82317657D02*
X160886593Y-82412895D01*
X160886593Y-82412895D02*
X160886593Y-82555752D01*
X160886593Y-82555752D02*
X160934212Y-82650990D01*
X160934212Y-82650990D02*
X160981831Y-82698609D01*
X160981831Y-82698609D02*
X161077069Y-82746228D01*
X161077069Y-82746228D02*
X161458021Y-82746228D01*
X159743735Y-82317657D02*
X159696116Y-82270038D01*
X159696116Y-82270038D02*
X159600878Y-82222419D01*
X159600878Y-82222419D02*
X159362783Y-82222419D01*
X159362783Y-82222419D02*
X159267545Y-82270038D01*
X159267545Y-82270038D02*
X159219926Y-82317657D01*
X159219926Y-82317657D02*
X159172307Y-82412895D01*
X159172307Y-82412895D02*
X159172307Y-82508133D01*
X159172307Y-82508133D02*
X159219926Y-82650990D01*
X159219926Y-82650990D02*
X159791354Y-83222419D01*
X159791354Y-83222419D02*
X159172307Y-83222419D01*
X172974687Y-71552531D02*
X173308020Y-71076340D01*
X173546115Y-71552531D02*
X173546115Y-70552531D01*
X173546115Y-70552531D02*
X173165163Y-70552531D01*
X173165163Y-70552531D02*
X173069925Y-70600150D01*
X173069925Y-70600150D02*
X173022306Y-70647769D01*
X173022306Y-70647769D02*
X172974687Y-70743007D01*
X172974687Y-70743007D02*
X172974687Y-70885864D01*
X172974687Y-70885864D02*
X173022306Y-70981102D01*
X173022306Y-70981102D02*
X173069925Y-71028721D01*
X173069925Y-71028721D02*
X173165163Y-71076340D01*
X173165163Y-71076340D02*
X173546115Y-71076340D01*
X172355639Y-71076340D02*
X172355639Y-71552531D01*
X172688972Y-70552531D02*
X172355639Y-71076340D01*
X172355639Y-71076340D02*
X172022306Y-70552531D01*
X171212782Y-71552531D02*
X171688972Y-71552531D01*
X171688972Y-71552531D02*
X171688972Y-70552531D01*
X170308020Y-71552531D02*
X170641353Y-71076340D01*
X170879448Y-71552531D02*
X170879448Y-70552531D01*
X170879448Y-70552531D02*
X170498496Y-70552531D01*
X170498496Y-70552531D02*
X170403258Y-70600150D01*
X170403258Y-70600150D02*
X170355639Y-70647769D01*
X170355639Y-70647769D02*
X170308020Y-70743007D01*
X170308020Y-70743007D02*
X170308020Y-70885864D01*
X170308020Y-70885864D02*
X170355639Y-70981102D01*
X170355639Y-70981102D02*
X170403258Y-71028721D01*
X170403258Y-71028721D02*
X170498496Y-71076340D01*
X170498496Y-71076340D02*
X170879448Y-71076340D01*
X169831829Y-71552531D02*
X169641353Y-71552531D01*
X169641353Y-71552531D02*
X169546115Y-71504912D01*
X169546115Y-71504912D02*
X169498496Y-71457292D01*
X169498496Y-71457292D02*
X169403258Y-71314435D01*
X169403258Y-71314435D02*
X169355639Y-71123959D01*
X169355639Y-71123959D02*
X169355639Y-70743007D01*
X169355639Y-70743007D02*
X169403258Y-70647769D01*
X169403258Y-70647769D02*
X169450877Y-70600150D01*
X169450877Y-70600150D02*
X169546115Y-70552531D01*
X169546115Y-70552531D02*
X169736591Y-70552531D01*
X169736591Y-70552531D02*
X169831829Y-70600150D01*
X169831829Y-70600150D02*
X169879448Y-70647769D01*
X169879448Y-70647769D02*
X169927067Y-70743007D01*
X169927067Y-70743007D02*
X169927067Y-70981102D01*
X169927067Y-70981102D02*
X169879448Y-71076340D01*
X169879448Y-71076340D02*
X169831829Y-71123959D01*
X169831829Y-71123959D02*
X169736591Y-71171578D01*
X169736591Y-71171578D02*
X169546115Y-71171578D01*
X169546115Y-71171578D02*
X169450877Y-71123959D01*
X169450877Y-71123959D02*
X169403258Y-71076340D01*
X169403258Y-71076340D02*
X169355639Y-70981102D01*
X168879448Y-71552531D02*
X168688972Y-71552531D01*
X168688972Y-71552531D02*
X168593734Y-71504912D01*
X168593734Y-71504912D02*
X168546115Y-71457292D01*
X168546115Y-71457292D02*
X168450877Y-71314435D01*
X168450877Y-71314435D02*
X168403258Y-71123959D01*
X168403258Y-71123959D02*
X168403258Y-70743007D01*
X168403258Y-70743007D02*
X168450877Y-70647769D01*
X168450877Y-70647769D02*
X168498496Y-70600150D01*
X168498496Y-70600150D02*
X168593734Y-70552531D01*
X168593734Y-70552531D02*
X168784210Y-70552531D01*
X168784210Y-70552531D02*
X168879448Y-70600150D01*
X168879448Y-70600150D02*
X168927067Y-70647769D01*
X168927067Y-70647769D02*
X168974686Y-70743007D01*
X168974686Y-70743007D02*
X168974686Y-70981102D01*
X168974686Y-70981102D02*
X168927067Y-71076340D01*
X168927067Y-71076340D02*
X168879448Y-71123959D01*
X168879448Y-71123959D02*
X168784210Y-71171578D01*
X168784210Y-71171578D02*
X168593734Y-71171578D01*
X168593734Y-71171578D02*
X168498496Y-71123959D01*
X168498496Y-71123959D02*
X168450877Y-71076340D01*
X168450877Y-71076340D02*
X168403258Y-70981102D01*
X168069924Y-70552531D02*
X167450877Y-70552531D01*
X167450877Y-70552531D02*
X167784210Y-70933483D01*
X167784210Y-70933483D02*
X167641353Y-70933483D01*
X167641353Y-70933483D02*
X167546115Y-70981102D01*
X167546115Y-70981102D02*
X167498496Y-71028721D01*
X167498496Y-71028721D02*
X167450877Y-71123959D01*
X167450877Y-71123959D02*
X167450877Y-71362054D01*
X167450877Y-71362054D02*
X167498496Y-71457292D01*
X167498496Y-71457292D02*
X167546115Y-71504912D01*
X167546115Y-71504912D02*
X167641353Y-71552531D01*
X167641353Y-71552531D02*
X167927067Y-71552531D01*
X167927067Y-71552531D02*
X168022305Y-71504912D01*
X168022305Y-71504912D02*
X168069924Y-71457292D01*
X166260400Y-70552531D02*
X166260400Y-71362054D01*
X166260400Y-71362054D02*
X166212781Y-71457292D01*
X166212781Y-71457292D02*
X166165162Y-71504912D01*
X166165162Y-71504912D02*
X166069924Y-71552531D01*
X166069924Y-71552531D02*
X165879448Y-71552531D01*
X165879448Y-71552531D02*
X165784210Y-71504912D01*
X165784210Y-71504912D02*
X165736591Y-71457292D01*
X165736591Y-71457292D02*
X165688972Y-71362054D01*
X165688972Y-71362054D02*
X165688972Y-70552531D01*
X165260400Y-71266816D02*
X164784210Y-71266816D01*
X165355638Y-71552531D02*
X165022305Y-70552531D01*
X165022305Y-70552531D02*
X164688972Y-71552531D01*
X163784210Y-71552531D02*
X164117543Y-71076340D01*
X164355638Y-71552531D02*
X164355638Y-70552531D01*
X164355638Y-70552531D02*
X163974686Y-70552531D01*
X163974686Y-70552531D02*
X163879448Y-70600150D01*
X163879448Y-70600150D02*
X163831829Y-70647769D01*
X163831829Y-70647769D02*
X163784210Y-70743007D01*
X163784210Y-70743007D02*
X163784210Y-70885864D01*
X163784210Y-70885864D02*
X163831829Y-70981102D01*
X163831829Y-70981102D02*
X163879448Y-71028721D01*
X163879448Y-71028721D02*
X163974686Y-71076340D01*
X163974686Y-71076340D02*
X164355638Y-71076340D01*
X163498495Y-70552531D02*
X162927067Y-70552531D01*
X163212781Y-71552531D02*
X163212781Y-70552531D01*
X173546115Y-73162475D02*
X173546115Y-72162475D01*
X172879449Y-72162475D02*
X172688973Y-72162475D01*
X172688973Y-72162475D02*
X172593735Y-72210094D01*
X172593735Y-72210094D02*
X172498497Y-72305332D01*
X172498497Y-72305332D02*
X172450878Y-72495808D01*
X172450878Y-72495808D02*
X172450878Y-72829141D01*
X172450878Y-72829141D02*
X172498497Y-73019617D01*
X172498497Y-73019617D02*
X172593735Y-73114856D01*
X172593735Y-73114856D02*
X172688973Y-73162475D01*
X172688973Y-73162475D02*
X172879449Y-73162475D01*
X172879449Y-73162475D02*
X172974687Y-73114856D01*
X172974687Y-73114856D02*
X173069925Y-73019617D01*
X173069925Y-73019617D02*
X173117544Y-72829141D01*
X173117544Y-72829141D02*
X173117544Y-72495808D01*
X173117544Y-72495808D02*
X173069925Y-72305332D01*
X173069925Y-72305332D02*
X172974687Y-72210094D01*
X172974687Y-72210094D02*
X172879449Y-72162475D01*
X171593735Y-72495808D02*
X171593735Y-73162475D01*
X171831830Y-72114856D02*
X172069925Y-72829141D01*
X172069925Y-72829141D02*
X171450878Y-72829141D01*
X171069925Y-72781522D02*
X170308021Y-72781522D01*
X169260402Y-73162475D02*
X169593735Y-72686284D01*
X169831830Y-73162475D02*
X169831830Y-72162475D01*
X169831830Y-72162475D02*
X169450878Y-72162475D01*
X169450878Y-72162475D02*
X169355640Y-72210094D01*
X169355640Y-72210094D02*
X169308021Y-72257713D01*
X169308021Y-72257713D02*
X169260402Y-72352951D01*
X169260402Y-72352951D02*
X169260402Y-72495808D01*
X169260402Y-72495808D02*
X169308021Y-72591046D01*
X169308021Y-72591046D02*
X169355640Y-72638665D01*
X169355640Y-72638665D02*
X169450878Y-72686284D01*
X169450878Y-72686284D02*
X169831830Y-72686284D01*
X168641354Y-72686284D02*
X168641354Y-73162475D01*
X168974687Y-72162475D02*
X168641354Y-72686284D01*
X168641354Y-72686284D02*
X168308021Y-72162475D01*
X167498497Y-73162475D02*
X167974687Y-73162475D01*
X167974687Y-73162475D02*
X167974687Y-72162475D01*
X166593735Y-73162475D02*
X166927068Y-72686284D01*
X167165163Y-73162475D02*
X167165163Y-72162475D01*
X167165163Y-72162475D02*
X166784211Y-72162475D01*
X166784211Y-72162475D02*
X166688973Y-72210094D01*
X166688973Y-72210094D02*
X166641354Y-72257713D01*
X166641354Y-72257713D02*
X166593735Y-72352951D01*
X166593735Y-72352951D02*
X166593735Y-72495808D01*
X166593735Y-72495808D02*
X166641354Y-72591046D01*
X166641354Y-72591046D02*
X166688973Y-72638665D01*
X166688973Y-72638665D02*
X166784211Y-72686284D01*
X166784211Y-72686284D02*
X167165163Y-72686284D01*
X166403259Y-73257713D02*
X165641354Y-73257713D01*
X165546115Y-72162475D02*
X164974687Y-72162475D01*
X165260401Y-73162475D02*
X165260401Y-72162475D01*
X164736591Y-72162475D02*
X164069925Y-73162475D01*
X164069925Y-72162475D02*
X164736591Y-73162475D01*
X173546115Y-74772419D02*
X173546115Y-73772419D01*
X172879449Y-73772419D02*
X172688973Y-73772419D01*
X172688973Y-73772419D02*
X172593735Y-73820038D01*
X172593735Y-73820038D02*
X172498497Y-73915276D01*
X172498497Y-73915276D02*
X172450878Y-74105752D01*
X172450878Y-74105752D02*
X172450878Y-74439085D01*
X172450878Y-74439085D02*
X172498497Y-74629561D01*
X172498497Y-74629561D02*
X172593735Y-74724800D01*
X172593735Y-74724800D02*
X172688973Y-74772419D01*
X172688973Y-74772419D02*
X172879449Y-74772419D01*
X172879449Y-74772419D02*
X172974687Y-74724800D01*
X172974687Y-74724800D02*
X173069925Y-74629561D01*
X173069925Y-74629561D02*
X173117544Y-74439085D01*
X173117544Y-74439085D02*
X173117544Y-74105752D01*
X173117544Y-74105752D02*
X173069925Y-73915276D01*
X173069925Y-73915276D02*
X172974687Y-73820038D01*
X172974687Y-73820038D02*
X172879449Y-73772419D01*
X171546116Y-73772419D02*
X172022306Y-73772419D01*
X172022306Y-73772419D02*
X172069925Y-74248609D01*
X172069925Y-74248609D02*
X172022306Y-74200990D01*
X172022306Y-74200990D02*
X171927068Y-74153371D01*
X171927068Y-74153371D02*
X171688973Y-74153371D01*
X171688973Y-74153371D02*
X171593735Y-74200990D01*
X171593735Y-74200990D02*
X171546116Y-74248609D01*
X171546116Y-74248609D02*
X171498497Y-74343847D01*
X171498497Y-74343847D02*
X171498497Y-74581942D01*
X171498497Y-74581942D02*
X171546116Y-74677180D01*
X171546116Y-74677180D02*
X171593735Y-74724800D01*
X171593735Y-74724800D02*
X171688973Y-74772419D01*
X171688973Y-74772419D02*
X171927068Y-74772419D01*
X171927068Y-74772419D02*
X172022306Y-74724800D01*
X172022306Y-74724800D02*
X172069925Y-74677180D01*
X171069925Y-74391466D02*
X170308021Y-74391466D01*
X169260402Y-74772419D02*
X169593735Y-74296228D01*
X169831830Y-74772419D02*
X169831830Y-73772419D01*
X169831830Y-73772419D02*
X169450878Y-73772419D01*
X169450878Y-73772419D02*
X169355640Y-73820038D01*
X169355640Y-73820038D02*
X169308021Y-73867657D01*
X169308021Y-73867657D02*
X169260402Y-73962895D01*
X169260402Y-73962895D02*
X169260402Y-74105752D01*
X169260402Y-74105752D02*
X169308021Y-74200990D01*
X169308021Y-74200990D02*
X169355640Y-74248609D01*
X169355640Y-74248609D02*
X169450878Y-74296228D01*
X169450878Y-74296228D02*
X169831830Y-74296228D01*
X168641354Y-74296228D02*
X168641354Y-74772419D01*
X168974687Y-73772419D02*
X168641354Y-74296228D01*
X168641354Y-74296228D02*
X168308021Y-73772419D01*
X167498497Y-74772419D02*
X167974687Y-74772419D01*
X167974687Y-74772419D02*
X167974687Y-73772419D01*
X166593735Y-74772419D02*
X166927068Y-74296228D01*
X167165163Y-74772419D02*
X167165163Y-73772419D01*
X167165163Y-73772419D02*
X166784211Y-73772419D01*
X166784211Y-73772419D02*
X166688973Y-73820038D01*
X166688973Y-73820038D02*
X166641354Y-73867657D01*
X166641354Y-73867657D02*
X166593735Y-73962895D01*
X166593735Y-73962895D02*
X166593735Y-74105752D01*
X166593735Y-74105752D02*
X166641354Y-74200990D01*
X166641354Y-74200990D02*
X166688973Y-74248609D01*
X166688973Y-74248609D02*
X166784211Y-74296228D01*
X166784211Y-74296228D02*
X167165163Y-74296228D01*
X166403259Y-74867657D02*
X165641354Y-74867657D01*
X164831830Y-74772419D02*
X165165163Y-74296228D01*
X165403258Y-74772419D02*
X165403258Y-73772419D01*
X165403258Y-73772419D02*
X165022306Y-73772419D01*
X165022306Y-73772419D02*
X164927068Y-73820038D01*
X164927068Y-73820038D02*
X164879449Y-73867657D01*
X164879449Y-73867657D02*
X164831830Y-73962895D01*
X164831830Y-73962895D02*
X164831830Y-74105752D01*
X164831830Y-74105752D02*
X164879449Y-74200990D01*
X164879449Y-74200990D02*
X164927068Y-74248609D01*
X164927068Y-74248609D02*
X165022306Y-74296228D01*
X165022306Y-74296228D02*
X165403258Y-74296228D01*
X164498496Y-73772419D02*
X163831830Y-74772419D01*
X163831830Y-73772419D02*
X164498496Y-74772419D01*
X129172306Y-79075150D02*
X129267544Y-79027531D01*
X129267544Y-79027531D02*
X129410401Y-79027531D01*
X129410401Y-79027531D02*
X129553258Y-79075150D01*
X129553258Y-79075150D02*
X129648496Y-79170388D01*
X129648496Y-79170388D02*
X129696115Y-79265626D01*
X129696115Y-79265626D02*
X129743734Y-79456102D01*
X129743734Y-79456102D02*
X129743734Y-79598959D01*
X129743734Y-79598959D02*
X129696115Y-79789435D01*
X129696115Y-79789435D02*
X129648496Y-79884673D01*
X129648496Y-79884673D02*
X129553258Y-79979912D01*
X129553258Y-79979912D02*
X129410401Y-80027531D01*
X129410401Y-80027531D02*
X129315163Y-80027531D01*
X129315163Y-80027531D02*
X129172306Y-79979912D01*
X129172306Y-79979912D02*
X129124687Y-79932292D01*
X129124687Y-79932292D02*
X129124687Y-79598959D01*
X129124687Y-79598959D02*
X129315163Y-79598959D01*
X128696115Y-80027531D02*
X128696115Y-79027531D01*
X128696115Y-79027531D02*
X128315163Y-79027531D01*
X128315163Y-79027531D02*
X128219925Y-79075150D01*
X128219925Y-79075150D02*
X128172306Y-79122769D01*
X128172306Y-79122769D02*
X128124687Y-79218007D01*
X128124687Y-79218007D02*
X128124687Y-79360864D01*
X128124687Y-79360864D02*
X128172306Y-79456102D01*
X128172306Y-79456102D02*
X128219925Y-79503721D01*
X128219925Y-79503721D02*
X128315163Y-79551340D01*
X128315163Y-79551340D02*
X128696115Y-79551340D01*
X127743734Y-79979912D02*
X127600877Y-80027531D01*
X127600877Y-80027531D02*
X127362782Y-80027531D01*
X127362782Y-80027531D02*
X127267544Y-79979912D01*
X127267544Y-79979912D02*
X127219925Y-79932292D01*
X127219925Y-79932292D02*
X127172306Y-79837054D01*
X127172306Y-79837054D02*
X127172306Y-79741816D01*
X127172306Y-79741816D02*
X127219925Y-79646578D01*
X127219925Y-79646578D02*
X127267544Y-79598959D01*
X127267544Y-79598959D02*
X127362782Y-79551340D01*
X127362782Y-79551340D02*
X127553258Y-79503721D01*
X127553258Y-79503721D02*
X127648496Y-79456102D01*
X127648496Y-79456102D02*
X127696115Y-79408483D01*
X127696115Y-79408483D02*
X127743734Y-79313245D01*
X127743734Y-79313245D02*
X127743734Y-79218007D01*
X127743734Y-79218007D02*
X127696115Y-79122769D01*
X127696115Y-79122769D02*
X127648496Y-79075150D01*
X127648496Y-79075150D02*
X127553258Y-79027531D01*
X127553258Y-79027531D02*
X127315163Y-79027531D01*
X127315163Y-79027531D02*
X127172306Y-79075150D01*
X125981829Y-79027531D02*
X125981829Y-79837054D01*
X125981829Y-79837054D02*
X125934210Y-79932292D01*
X125934210Y-79932292D02*
X125886591Y-79979912D01*
X125886591Y-79979912D02*
X125791353Y-80027531D01*
X125791353Y-80027531D02*
X125600877Y-80027531D01*
X125600877Y-80027531D02*
X125505639Y-79979912D01*
X125505639Y-79979912D02*
X125458020Y-79932292D01*
X125458020Y-79932292D02*
X125410401Y-79837054D01*
X125410401Y-79837054D02*
X125410401Y-79027531D01*
X124981829Y-79741816D02*
X124505639Y-79741816D01*
X125077067Y-80027531D02*
X124743734Y-79027531D01*
X124743734Y-79027531D02*
X124410401Y-80027531D01*
X123505639Y-80027531D02*
X123838972Y-79551340D01*
X124077067Y-80027531D02*
X124077067Y-79027531D01*
X124077067Y-79027531D02*
X123696115Y-79027531D01*
X123696115Y-79027531D02*
X123600877Y-79075150D01*
X123600877Y-79075150D02*
X123553258Y-79122769D01*
X123553258Y-79122769D02*
X123505639Y-79218007D01*
X123505639Y-79218007D02*
X123505639Y-79360864D01*
X123505639Y-79360864D02*
X123553258Y-79456102D01*
X123553258Y-79456102D02*
X123600877Y-79503721D01*
X123600877Y-79503721D02*
X123696115Y-79551340D01*
X123696115Y-79551340D02*
X124077067Y-79551340D01*
X123219924Y-79027531D02*
X122648496Y-79027531D01*
X122934210Y-80027531D02*
X122934210Y-79027531D01*
X129124687Y-81637475D02*
X129458020Y-81161284D01*
X129696115Y-81637475D02*
X129696115Y-80637475D01*
X129696115Y-80637475D02*
X129315163Y-80637475D01*
X129315163Y-80637475D02*
X129219925Y-80685094D01*
X129219925Y-80685094D02*
X129172306Y-80732713D01*
X129172306Y-80732713D02*
X129124687Y-80827951D01*
X129124687Y-80827951D02*
X129124687Y-80970808D01*
X129124687Y-80970808D02*
X129172306Y-81066046D01*
X129172306Y-81066046D02*
X129219925Y-81113665D01*
X129219925Y-81113665D02*
X129315163Y-81161284D01*
X129315163Y-81161284D02*
X129696115Y-81161284D01*
X128791353Y-80637475D02*
X128124687Y-81637475D01*
X128124687Y-80637475D02*
X128791353Y-81637475D01*
X127743734Y-81637475D02*
X127743734Y-80637475D01*
X127743734Y-80637475D02*
X127505639Y-80637475D01*
X127505639Y-80637475D02*
X127362782Y-80685094D01*
X127362782Y-80685094D02*
X127267544Y-80780332D01*
X127267544Y-80780332D02*
X127219925Y-80875570D01*
X127219925Y-80875570D02*
X127172306Y-81066046D01*
X127172306Y-81066046D02*
X127172306Y-81208903D01*
X127172306Y-81208903D02*
X127219925Y-81399379D01*
X127219925Y-81399379D02*
X127267544Y-81494617D01*
X127267544Y-81494617D02*
X127362782Y-81589856D01*
X127362782Y-81589856D02*
X127505639Y-81637475D01*
X127505639Y-81637475D02*
X127743734Y-81637475D01*
X126553258Y-80637475D02*
X126458020Y-80637475D01*
X126458020Y-80637475D02*
X126362782Y-80685094D01*
X126362782Y-80685094D02*
X126315163Y-80732713D01*
X126315163Y-80732713D02*
X126267544Y-80827951D01*
X126267544Y-80827951D02*
X126219925Y-81018427D01*
X126219925Y-81018427D02*
X126219925Y-81256522D01*
X126219925Y-81256522D02*
X126267544Y-81446998D01*
X126267544Y-81446998D02*
X126315163Y-81542236D01*
X126315163Y-81542236D02*
X126362782Y-81589856D01*
X126362782Y-81589856D02*
X126458020Y-81637475D01*
X126458020Y-81637475D02*
X126553258Y-81637475D01*
X126553258Y-81637475D02*
X126648496Y-81589856D01*
X126648496Y-81589856D02*
X126696115Y-81542236D01*
X126696115Y-81542236D02*
X126743734Y-81446998D01*
X126743734Y-81446998D02*
X126791353Y-81256522D01*
X126791353Y-81256522D02*
X126791353Y-81018427D01*
X126791353Y-81018427D02*
X126743734Y-80827951D01*
X126743734Y-80827951D02*
X126696115Y-80732713D01*
X126696115Y-80732713D02*
X126648496Y-80685094D01*
X126648496Y-80685094D02*
X126553258Y-80637475D01*
X125791353Y-81256522D02*
X125029449Y-81256522D01*
X124029449Y-80685094D02*
X124124687Y-80637475D01*
X124124687Y-80637475D02*
X124267544Y-80637475D01*
X124267544Y-80637475D02*
X124410401Y-80685094D01*
X124410401Y-80685094D02*
X124505639Y-80780332D01*
X124505639Y-80780332D02*
X124553258Y-80875570D01*
X124553258Y-80875570D02*
X124600877Y-81066046D01*
X124600877Y-81066046D02*
X124600877Y-81208903D01*
X124600877Y-81208903D02*
X124553258Y-81399379D01*
X124553258Y-81399379D02*
X124505639Y-81494617D01*
X124505639Y-81494617D02*
X124410401Y-81589856D01*
X124410401Y-81589856D02*
X124267544Y-81637475D01*
X124267544Y-81637475D02*
X124172306Y-81637475D01*
X124172306Y-81637475D02*
X124029449Y-81589856D01*
X124029449Y-81589856D02*
X123981830Y-81542236D01*
X123981830Y-81542236D02*
X123981830Y-81208903D01*
X123981830Y-81208903D02*
X124172306Y-81208903D01*
X123553258Y-81637475D02*
X123553258Y-80637475D01*
X123553258Y-80637475D02*
X123172306Y-80637475D01*
X123172306Y-80637475D02*
X123077068Y-80685094D01*
X123077068Y-80685094D02*
X123029449Y-80732713D01*
X123029449Y-80732713D02*
X122981830Y-80827951D01*
X122981830Y-80827951D02*
X122981830Y-80970808D01*
X122981830Y-80970808D02*
X123029449Y-81066046D01*
X123029449Y-81066046D02*
X123077068Y-81113665D01*
X123077068Y-81113665D02*
X123172306Y-81161284D01*
X123172306Y-81161284D02*
X123553258Y-81161284D01*
X122600877Y-81589856D02*
X122458020Y-81637475D01*
X122458020Y-81637475D02*
X122219925Y-81637475D01*
X122219925Y-81637475D02*
X122124687Y-81589856D01*
X122124687Y-81589856D02*
X122077068Y-81542236D01*
X122077068Y-81542236D02*
X122029449Y-81446998D01*
X122029449Y-81446998D02*
X122029449Y-81351760D01*
X122029449Y-81351760D02*
X122077068Y-81256522D01*
X122077068Y-81256522D02*
X122124687Y-81208903D01*
X122124687Y-81208903D02*
X122219925Y-81161284D01*
X122219925Y-81161284D02*
X122410401Y-81113665D01*
X122410401Y-81113665D02*
X122505639Y-81066046D01*
X122505639Y-81066046D02*
X122553258Y-81018427D01*
X122553258Y-81018427D02*
X122600877Y-80923189D01*
X122600877Y-80923189D02*
X122600877Y-80827951D01*
X122600877Y-80827951D02*
X122553258Y-80732713D01*
X122553258Y-80732713D02*
X122505639Y-80685094D01*
X122505639Y-80685094D02*
X122410401Y-80637475D01*
X122410401Y-80637475D02*
X122172306Y-80637475D01*
X122172306Y-80637475D02*
X122029449Y-80685094D01*
X121838973Y-81732713D02*
X121077068Y-81732713D01*
X120981829Y-80637475D02*
X120410401Y-80637475D01*
X120696115Y-81637475D02*
X120696115Y-80637475D01*
X120172305Y-80637475D02*
X119505639Y-81637475D01*
X119505639Y-80637475D02*
X120172305Y-81637475D01*
X129838972Y-82247419D02*
X129267544Y-82247419D01*
X129553258Y-83247419D02*
X129553258Y-82247419D01*
X129029448Y-82247419D02*
X128362782Y-83247419D01*
X128362782Y-82247419D02*
X129029448Y-83247419D01*
X127981829Y-83247419D02*
X127981829Y-82247419D01*
X127981829Y-82247419D02*
X127743734Y-82247419D01*
X127743734Y-82247419D02*
X127600877Y-82295038D01*
X127600877Y-82295038D02*
X127505639Y-82390276D01*
X127505639Y-82390276D02*
X127458020Y-82485514D01*
X127458020Y-82485514D02*
X127410401Y-82675990D01*
X127410401Y-82675990D02*
X127410401Y-82818847D01*
X127410401Y-82818847D02*
X127458020Y-83009323D01*
X127458020Y-83009323D02*
X127505639Y-83104561D01*
X127505639Y-83104561D02*
X127600877Y-83199800D01*
X127600877Y-83199800D02*
X127743734Y-83247419D01*
X127743734Y-83247419D02*
X127981829Y-83247419D01*
X126791353Y-82247419D02*
X126696115Y-82247419D01*
X126696115Y-82247419D02*
X126600877Y-82295038D01*
X126600877Y-82295038D02*
X126553258Y-82342657D01*
X126553258Y-82342657D02*
X126505639Y-82437895D01*
X126505639Y-82437895D02*
X126458020Y-82628371D01*
X126458020Y-82628371D02*
X126458020Y-82866466D01*
X126458020Y-82866466D02*
X126505639Y-83056942D01*
X126505639Y-83056942D02*
X126553258Y-83152180D01*
X126553258Y-83152180D02*
X126600877Y-83199800D01*
X126600877Y-83199800D02*
X126696115Y-83247419D01*
X126696115Y-83247419D02*
X126791353Y-83247419D01*
X126791353Y-83247419D02*
X126886591Y-83199800D01*
X126886591Y-83199800D02*
X126934210Y-83152180D01*
X126934210Y-83152180D02*
X126981829Y-83056942D01*
X126981829Y-83056942D02*
X127029448Y-82866466D01*
X127029448Y-82866466D02*
X127029448Y-82628371D01*
X127029448Y-82628371D02*
X126981829Y-82437895D01*
X126981829Y-82437895D02*
X126934210Y-82342657D01*
X126934210Y-82342657D02*
X126886591Y-82295038D01*
X126886591Y-82295038D02*
X126791353Y-82247419D01*
X126029448Y-82866466D02*
X125267544Y-82866466D01*
X124267544Y-82295038D02*
X124362782Y-82247419D01*
X124362782Y-82247419D02*
X124505639Y-82247419D01*
X124505639Y-82247419D02*
X124648496Y-82295038D01*
X124648496Y-82295038D02*
X124743734Y-82390276D01*
X124743734Y-82390276D02*
X124791353Y-82485514D01*
X124791353Y-82485514D02*
X124838972Y-82675990D01*
X124838972Y-82675990D02*
X124838972Y-82818847D01*
X124838972Y-82818847D02*
X124791353Y-83009323D01*
X124791353Y-83009323D02*
X124743734Y-83104561D01*
X124743734Y-83104561D02*
X124648496Y-83199800D01*
X124648496Y-83199800D02*
X124505639Y-83247419D01*
X124505639Y-83247419D02*
X124410401Y-83247419D01*
X124410401Y-83247419D02*
X124267544Y-83199800D01*
X124267544Y-83199800D02*
X124219925Y-83152180D01*
X124219925Y-83152180D02*
X124219925Y-82818847D01*
X124219925Y-82818847D02*
X124410401Y-82818847D01*
X123791353Y-83247419D02*
X123791353Y-82247419D01*
X123791353Y-82247419D02*
X123410401Y-82247419D01*
X123410401Y-82247419D02*
X123315163Y-82295038D01*
X123315163Y-82295038D02*
X123267544Y-82342657D01*
X123267544Y-82342657D02*
X123219925Y-82437895D01*
X123219925Y-82437895D02*
X123219925Y-82580752D01*
X123219925Y-82580752D02*
X123267544Y-82675990D01*
X123267544Y-82675990D02*
X123315163Y-82723609D01*
X123315163Y-82723609D02*
X123410401Y-82771228D01*
X123410401Y-82771228D02*
X123791353Y-82771228D01*
X122838972Y-83199800D02*
X122696115Y-83247419D01*
X122696115Y-83247419D02*
X122458020Y-83247419D01*
X122458020Y-83247419D02*
X122362782Y-83199800D01*
X122362782Y-83199800D02*
X122315163Y-83152180D01*
X122315163Y-83152180D02*
X122267544Y-83056942D01*
X122267544Y-83056942D02*
X122267544Y-82961704D01*
X122267544Y-82961704D02*
X122315163Y-82866466D01*
X122315163Y-82866466D02*
X122362782Y-82818847D01*
X122362782Y-82818847D02*
X122458020Y-82771228D01*
X122458020Y-82771228D02*
X122648496Y-82723609D01*
X122648496Y-82723609D02*
X122743734Y-82675990D01*
X122743734Y-82675990D02*
X122791353Y-82628371D01*
X122791353Y-82628371D02*
X122838972Y-82533133D01*
X122838972Y-82533133D02*
X122838972Y-82437895D01*
X122838972Y-82437895D02*
X122791353Y-82342657D01*
X122791353Y-82342657D02*
X122743734Y-82295038D01*
X122743734Y-82295038D02*
X122648496Y-82247419D01*
X122648496Y-82247419D02*
X122410401Y-82247419D01*
X122410401Y-82247419D02*
X122267544Y-82295038D01*
X122077068Y-83342657D02*
X121315163Y-83342657D01*
X120505639Y-83247419D02*
X120838972Y-82771228D01*
X121077067Y-83247419D02*
X121077067Y-82247419D01*
X121077067Y-82247419D02*
X120696115Y-82247419D01*
X120696115Y-82247419D02*
X120600877Y-82295038D01*
X120600877Y-82295038D02*
X120553258Y-82342657D01*
X120553258Y-82342657D02*
X120505639Y-82437895D01*
X120505639Y-82437895D02*
X120505639Y-82580752D01*
X120505639Y-82580752D02*
X120553258Y-82675990D01*
X120553258Y-82675990D02*
X120600877Y-82723609D01*
X120600877Y-82723609D02*
X120696115Y-82771228D01*
X120696115Y-82771228D02*
X121077067Y-82771228D01*
X120172305Y-82247419D02*
X119505639Y-83247419D01*
X119505639Y-82247419D02*
X120172305Y-83247419D01*
X147093734Y-88814856D02*
X146950877Y-88862475D01*
X146950877Y-88862475D02*
X146712782Y-88862475D01*
X146712782Y-88862475D02*
X146617544Y-88814856D01*
X146617544Y-88814856D02*
X146569925Y-88767236D01*
X146569925Y-88767236D02*
X146522306Y-88671998D01*
X146522306Y-88671998D02*
X146522306Y-88576760D01*
X146522306Y-88576760D02*
X146569925Y-88481522D01*
X146569925Y-88481522D02*
X146617544Y-88433903D01*
X146617544Y-88433903D02*
X146712782Y-88386284D01*
X146712782Y-88386284D02*
X146903258Y-88338665D01*
X146903258Y-88338665D02*
X146998496Y-88291046D01*
X146998496Y-88291046D02*
X147046115Y-88243427D01*
X147046115Y-88243427D02*
X147093734Y-88148189D01*
X147093734Y-88148189D02*
X147093734Y-88052951D01*
X147093734Y-88052951D02*
X147046115Y-87957713D01*
X147046115Y-87957713D02*
X146998496Y-87910094D01*
X146998496Y-87910094D02*
X146903258Y-87862475D01*
X146903258Y-87862475D02*
X146665163Y-87862475D01*
X146665163Y-87862475D02*
X146522306Y-87910094D01*
X146093734Y-88338665D02*
X145760401Y-88338665D01*
X145617544Y-88862475D02*
X146093734Y-88862475D01*
X146093734Y-88862475D02*
X146093734Y-87862475D01*
X146093734Y-87862475D02*
X145617544Y-87862475D01*
X144617544Y-88862475D02*
X144950877Y-88386284D01*
X145188972Y-88862475D02*
X145188972Y-87862475D01*
X145188972Y-87862475D02*
X144808020Y-87862475D01*
X144808020Y-87862475D02*
X144712782Y-87910094D01*
X144712782Y-87910094D02*
X144665163Y-87957713D01*
X144665163Y-87957713D02*
X144617544Y-88052951D01*
X144617544Y-88052951D02*
X144617544Y-88195808D01*
X144617544Y-88195808D02*
X144665163Y-88291046D01*
X144665163Y-88291046D02*
X144712782Y-88338665D01*
X144712782Y-88338665D02*
X144808020Y-88386284D01*
X144808020Y-88386284D02*
X145188972Y-88386284D01*
X144331829Y-87862475D02*
X143998496Y-88862475D01*
X143998496Y-88862475D02*
X143665163Y-87862475D01*
X143141353Y-87862475D02*
X142950877Y-87862475D01*
X142950877Y-87862475D02*
X142855639Y-87910094D01*
X142855639Y-87910094D02*
X142760401Y-88005332D01*
X142760401Y-88005332D02*
X142712782Y-88195808D01*
X142712782Y-88195808D02*
X142712782Y-88529141D01*
X142712782Y-88529141D02*
X142760401Y-88719617D01*
X142760401Y-88719617D02*
X142855639Y-88814856D01*
X142855639Y-88814856D02*
X142950877Y-88862475D01*
X142950877Y-88862475D02*
X143141353Y-88862475D01*
X143141353Y-88862475D02*
X143236591Y-88814856D01*
X143236591Y-88814856D02*
X143331829Y-88719617D01*
X143331829Y-88719617D02*
X143379448Y-88529141D01*
X143379448Y-88529141D02*
X143379448Y-88195808D01*
X143379448Y-88195808D02*
X143331829Y-88005332D01*
X143331829Y-88005332D02*
X143236591Y-87910094D01*
X143236591Y-87910094D02*
X143141353Y-87862475D01*
X141522305Y-88862475D02*
X141522305Y-87862475D01*
X141522305Y-87862475D02*
X141188972Y-88576760D01*
X141188972Y-88576760D02*
X140855639Y-87862475D01*
X140855639Y-87862475D02*
X140855639Y-88862475D01*
X140188972Y-87862475D02*
X139998496Y-87862475D01*
X139998496Y-87862475D02*
X139903258Y-87910094D01*
X139903258Y-87910094D02*
X139808020Y-88005332D01*
X139808020Y-88005332D02*
X139760401Y-88195808D01*
X139760401Y-88195808D02*
X139760401Y-88529141D01*
X139760401Y-88529141D02*
X139808020Y-88719617D01*
X139808020Y-88719617D02*
X139903258Y-88814856D01*
X139903258Y-88814856D02*
X139998496Y-88862475D01*
X139998496Y-88862475D02*
X140188972Y-88862475D01*
X140188972Y-88862475D02*
X140284210Y-88814856D01*
X140284210Y-88814856D02*
X140379448Y-88719617D01*
X140379448Y-88719617D02*
X140427067Y-88529141D01*
X140427067Y-88529141D02*
X140427067Y-88195808D01*
X140427067Y-88195808D02*
X140379448Y-88005332D01*
X140379448Y-88005332D02*
X140284210Y-87910094D01*
X140284210Y-87910094D02*
X140188972Y-87862475D01*
X139474686Y-87862475D02*
X138903258Y-87862475D01*
X139188972Y-88862475D02*
X139188972Y-87862475D01*
X138379448Y-87862475D02*
X138188972Y-87862475D01*
X138188972Y-87862475D02*
X138093734Y-87910094D01*
X138093734Y-87910094D02*
X137998496Y-88005332D01*
X137998496Y-88005332D02*
X137950877Y-88195808D01*
X137950877Y-88195808D02*
X137950877Y-88529141D01*
X137950877Y-88529141D02*
X137998496Y-88719617D01*
X137998496Y-88719617D02*
X138093734Y-88814856D01*
X138093734Y-88814856D02*
X138188972Y-88862475D01*
X138188972Y-88862475D02*
X138379448Y-88862475D01*
X138379448Y-88862475D02*
X138474686Y-88814856D01*
X138474686Y-88814856D02*
X138569924Y-88719617D01*
X138569924Y-88719617D02*
X138617543Y-88529141D01*
X138617543Y-88529141D02*
X138617543Y-88195808D01*
X138617543Y-88195808D02*
X138569924Y-88005332D01*
X138569924Y-88005332D02*
X138474686Y-87910094D01*
X138474686Y-87910094D02*
X138379448Y-87862475D01*
X136950877Y-88862475D02*
X137284210Y-88386284D01*
X137522305Y-88862475D02*
X137522305Y-87862475D01*
X137522305Y-87862475D02*
X137141353Y-87862475D01*
X137141353Y-87862475D02*
X137046115Y-87910094D01*
X137046115Y-87910094D02*
X136998496Y-87957713D01*
X136998496Y-87957713D02*
X136950877Y-88052951D01*
X136950877Y-88052951D02*
X136950877Y-88195808D01*
X136950877Y-88195808D02*
X136998496Y-88291046D01*
X136998496Y-88291046D02*
X137046115Y-88338665D01*
X137046115Y-88338665D02*
X137141353Y-88386284D01*
X137141353Y-88386284D02*
X137522305Y-88386284D01*
X147046115Y-90472419D02*
X147046115Y-89472419D01*
X147046115Y-89472419D02*
X146712782Y-90186704D01*
X146712782Y-90186704D02*
X146379449Y-89472419D01*
X146379449Y-89472419D02*
X146379449Y-90472419D01*
X145903258Y-90472419D02*
X145903258Y-89472419D01*
X145427068Y-90472419D02*
X145427068Y-89472419D01*
X145427068Y-89472419D02*
X144855640Y-90472419D01*
X144855640Y-90472419D02*
X144855640Y-89472419D01*
X144379449Y-90472419D02*
X144379449Y-89472419D01*
X143141354Y-90472419D02*
X143141354Y-89472419D01*
X142474688Y-89472419D02*
X142284212Y-89472419D01*
X142284212Y-89472419D02*
X142188974Y-89520038D01*
X142188974Y-89520038D02*
X142093736Y-89615276D01*
X142093736Y-89615276D02*
X142046117Y-89805752D01*
X142046117Y-89805752D02*
X142046117Y-90139085D01*
X142046117Y-90139085D02*
X142093736Y-90329561D01*
X142093736Y-90329561D02*
X142188974Y-90424800D01*
X142188974Y-90424800D02*
X142284212Y-90472419D01*
X142284212Y-90472419D02*
X142474688Y-90472419D01*
X142474688Y-90472419D02*
X142569926Y-90424800D01*
X142569926Y-90424800D02*
X142665164Y-90329561D01*
X142665164Y-90329561D02*
X142712783Y-90139085D01*
X142712783Y-90139085D02*
X142712783Y-89805752D01*
X142712783Y-89805752D02*
X142665164Y-89615276D01*
X142665164Y-89615276D02*
X142569926Y-89520038D01*
X142569926Y-89520038D02*
X142474688Y-89472419D01*
X141093736Y-90472419D02*
X141665164Y-90472419D01*
X141379450Y-90472419D02*
X141379450Y-89472419D01*
X141379450Y-89472419D02*
X141474688Y-89615276D01*
X141474688Y-89615276D02*
X141569926Y-89710514D01*
X141569926Y-89710514D02*
X141665164Y-89758133D01*
X140141355Y-90472419D02*
X140712783Y-90472419D01*
X140427069Y-90472419D02*
X140427069Y-89472419D01*
X140427069Y-89472419D02*
X140522307Y-89615276D01*
X140522307Y-89615276D02*
X140617545Y-89710514D01*
X140617545Y-89710514D02*
X140712783Y-89758133D01*
X139712783Y-90091466D02*
X138950879Y-90091466D01*
X138474688Y-90472419D02*
X138474688Y-89472419D01*
X138474688Y-89472419D02*
X138093736Y-89472419D01*
X138093736Y-89472419D02*
X137998498Y-89520038D01*
X137998498Y-89520038D02*
X137950879Y-89567657D01*
X137950879Y-89567657D02*
X137903260Y-89662895D01*
X137903260Y-89662895D02*
X137903260Y-89805752D01*
X137903260Y-89805752D02*
X137950879Y-89900990D01*
X137950879Y-89900990D02*
X137998498Y-89948609D01*
X137998498Y-89948609D02*
X138093736Y-89996228D01*
X138093736Y-89996228D02*
X138474688Y-89996228D01*
X137569926Y-89472419D02*
X137331831Y-90472419D01*
X137331831Y-90472419D02*
X137141355Y-89758133D01*
X137141355Y-89758133D02*
X136950879Y-90472419D01*
X136950879Y-90472419D02*
X136712784Y-89472419D01*
X136331831Y-90472419D02*
X136331831Y-89472419D01*
X136331831Y-89472419D02*
X135998498Y-90186704D01*
X135998498Y-90186704D02*
X135665165Y-89472419D01*
X135665165Y-89472419D02*
X135665165Y-90472419D01*
X148971115Y-51015031D02*
X148971115Y-50015031D01*
X148971115Y-50015031D02*
X148733020Y-50015031D01*
X148733020Y-50015031D02*
X148590163Y-50062650D01*
X148590163Y-50062650D02*
X148494925Y-50157888D01*
X148494925Y-50157888D02*
X148447306Y-50253126D01*
X148447306Y-50253126D02*
X148399687Y-50443602D01*
X148399687Y-50443602D02*
X148399687Y-50586459D01*
X148399687Y-50586459D02*
X148447306Y-50776935D01*
X148447306Y-50776935D02*
X148494925Y-50872173D01*
X148494925Y-50872173D02*
X148590163Y-50967412D01*
X148590163Y-50967412D02*
X148733020Y-51015031D01*
X148733020Y-51015031D02*
X148971115Y-51015031D01*
X147971115Y-51015031D02*
X147971115Y-50015031D01*
X147542544Y-51015031D02*
X147542544Y-50491221D01*
X147542544Y-50491221D02*
X147590163Y-50395983D01*
X147590163Y-50395983D02*
X147685401Y-50348364D01*
X147685401Y-50348364D02*
X147828258Y-50348364D01*
X147828258Y-50348364D02*
X147923496Y-50395983D01*
X147923496Y-50395983D02*
X147971115Y-50443602D01*
X147066353Y-51015031D02*
X147066353Y-50348364D01*
X147066353Y-50538840D02*
X147018734Y-50443602D01*
X147018734Y-50443602D02*
X146971115Y-50395983D01*
X146971115Y-50395983D02*
X146875877Y-50348364D01*
X146875877Y-50348364D02*
X146780639Y-50348364D01*
X146018734Y-50348364D02*
X146018734Y-51015031D01*
X146447305Y-50348364D02*
X146447305Y-50872173D01*
X146447305Y-50872173D02*
X146399686Y-50967412D01*
X146399686Y-50967412D02*
X146304448Y-51015031D01*
X146304448Y-51015031D02*
X146161591Y-51015031D01*
X146161591Y-51015031D02*
X146066353Y-50967412D01*
X146066353Y-50967412D02*
X146018734Y-50919792D01*
X145637781Y-50348364D02*
X145399686Y-51015031D01*
X145399686Y-51015031D02*
X145161591Y-50348364D01*
X144018733Y-51015031D02*
X144018733Y-50015031D01*
X144018733Y-50015031D02*
X143637781Y-50015031D01*
X143637781Y-50015031D02*
X143542543Y-50062650D01*
X143542543Y-50062650D02*
X143494924Y-50110269D01*
X143494924Y-50110269D02*
X143447305Y-50205507D01*
X143447305Y-50205507D02*
X143447305Y-50348364D01*
X143447305Y-50348364D02*
X143494924Y-50443602D01*
X143494924Y-50443602D02*
X143542543Y-50491221D01*
X143542543Y-50491221D02*
X143637781Y-50538840D01*
X143637781Y-50538840D02*
X144018733Y-50538840D01*
X143018733Y-51015031D02*
X143018733Y-50015031D01*
X142590162Y-51015031D02*
X142590162Y-50491221D01*
X142590162Y-50491221D02*
X142637781Y-50395983D01*
X142637781Y-50395983D02*
X142733019Y-50348364D01*
X142733019Y-50348364D02*
X142875876Y-50348364D01*
X142875876Y-50348364D02*
X142971114Y-50395983D01*
X142971114Y-50395983D02*
X143018733Y-50443602D01*
X141685400Y-51015031D02*
X141685400Y-50491221D01*
X141685400Y-50491221D02*
X141733019Y-50395983D01*
X141733019Y-50395983D02*
X141828257Y-50348364D01*
X141828257Y-50348364D02*
X142018733Y-50348364D01*
X142018733Y-50348364D02*
X142113971Y-50395983D01*
X141685400Y-50967412D02*
X141780638Y-51015031D01*
X141780638Y-51015031D02*
X142018733Y-51015031D01*
X142018733Y-51015031D02*
X142113971Y-50967412D01*
X142113971Y-50967412D02*
X142161590Y-50872173D01*
X142161590Y-50872173D02*
X142161590Y-50776935D01*
X142161590Y-50776935D02*
X142113971Y-50681697D01*
X142113971Y-50681697D02*
X142018733Y-50634078D01*
X142018733Y-50634078D02*
X141780638Y-50634078D01*
X141780638Y-50634078D02*
X141685400Y-50586459D01*
X141066352Y-51015031D02*
X141161590Y-50967412D01*
X141161590Y-50967412D02*
X141209209Y-50872173D01*
X141209209Y-50872173D02*
X141209209Y-50015031D01*
X140542542Y-51015031D02*
X140637780Y-50967412D01*
X140637780Y-50967412D02*
X140685399Y-50919792D01*
X140685399Y-50919792D02*
X140733018Y-50824554D01*
X140733018Y-50824554D02*
X140733018Y-50538840D01*
X140733018Y-50538840D02*
X140685399Y-50443602D01*
X140685399Y-50443602D02*
X140637780Y-50395983D01*
X140637780Y-50395983D02*
X140542542Y-50348364D01*
X140542542Y-50348364D02*
X140399685Y-50348364D01*
X140399685Y-50348364D02*
X140304447Y-50395983D01*
X140304447Y-50395983D02*
X140256828Y-50443602D01*
X140256828Y-50443602D02*
X140209209Y-50538840D01*
X140209209Y-50538840D02*
X140209209Y-50824554D01*
X140209209Y-50824554D02*
X140256828Y-50919792D01*
X140256828Y-50919792D02*
X140304447Y-50967412D01*
X140304447Y-50967412D02*
X140399685Y-51015031D01*
X140399685Y-51015031D02*
X140542542Y-51015031D01*
X139352066Y-51015031D02*
X139352066Y-50015031D01*
X139352066Y-50967412D02*
X139447304Y-51015031D01*
X139447304Y-51015031D02*
X139637780Y-51015031D01*
X139637780Y-51015031D02*
X139733018Y-50967412D01*
X139733018Y-50967412D02*
X139780637Y-50919792D01*
X139780637Y-50919792D02*
X139828256Y-50824554D01*
X139828256Y-50824554D02*
X139828256Y-50538840D01*
X139828256Y-50538840D02*
X139780637Y-50443602D01*
X139780637Y-50443602D02*
X139733018Y-50395983D01*
X139733018Y-50395983D02*
X139637780Y-50348364D01*
X139637780Y-50348364D02*
X139447304Y-50348364D01*
X139447304Y-50348364D02*
X139352066Y-50395983D01*
X148971115Y-52624975D02*
X148971115Y-51624975D01*
X148399687Y-52624975D02*
X148828258Y-52053546D01*
X148399687Y-51624975D02*
X148971115Y-52196403D01*
X147971115Y-52624975D02*
X147971115Y-51958308D01*
X147971115Y-52148784D02*
X147923496Y-52053546D01*
X147923496Y-52053546D02*
X147875877Y-52005927D01*
X147875877Y-52005927D02*
X147780639Y-51958308D01*
X147780639Y-51958308D02*
X147685401Y-51958308D01*
X147352067Y-52624975D02*
X147352067Y-51958308D01*
X147352067Y-51624975D02*
X147399686Y-51672594D01*
X147399686Y-51672594D02*
X147352067Y-51720213D01*
X147352067Y-51720213D02*
X147304448Y-51672594D01*
X147304448Y-51672594D02*
X147352067Y-51624975D01*
X147352067Y-51624975D02*
X147352067Y-51720213D01*
X146923496Y-52577356D02*
X146828258Y-52624975D01*
X146828258Y-52624975D02*
X146637782Y-52624975D01*
X146637782Y-52624975D02*
X146542544Y-52577356D01*
X146542544Y-52577356D02*
X146494925Y-52482117D01*
X146494925Y-52482117D02*
X146494925Y-52434498D01*
X146494925Y-52434498D02*
X146542544Y-52339260D01*
X146542544Y-52339260D02*
X146637782Y-52291641D01*
X146637782Y-52291641D02*
X146780639Y-52291641D01*
X146780639Y-52291641D02*
X146875877Y-52244022D01*
X146875877Y-52244022D02*
X146923496Y-52148784D01*
X146923496Y-52148784D02*
X146923496Y-52101165D01*
X146923496Y-52101165D02*
X146875877Y-52005927D01*
X146875877Y-52005927D02*
X146780639Y-51958308D01*
X146780639Y-51958308D02*
X146637782Y-51958308D01*
X146637782Y-51958308D02*
X146542544Y-52005927D01*
X146066353Y-52624975D02*
X146066353Y-51624975D01*
X145637782Y-52624975D02*
X145637782Y-52101165D01*
X145637782Y-52101165D02*
X145685401Y-52005927D01*
X145685401Y-52005927D02*
X145780639Y-51958308D01*
X145780639Y-51958308D02*
X145923496Y-51958308D01*
X145923496Y-51958308D02*
X146018734Y-52005927D01*
X146018734Y-52005927D02*
X146066353Y-52053546D01*
X144733020Y-52624975D02*
X144733020Y-52101165D01*
X144733020Y-52101165D02*
X144780639Y-52005927D01*
X144780639Y-52005927D02*
X144875877Y-51958308D01*
X144875877Y-51958308D02*
X145066353Y-51958308D01*
X145066353Y-51958308D02*
X145161591Y-52005927D01*
X144733020Y-52577356D02*
X144828258Y-52624975D01*
X144828258Y-52624975D02*
X145066353Y-52624975D01*
X145066353Y-52624975D02*
X145161591Y-52577356D01*
X145161591Y-52577356D02*
X145209210Y-52482117D01*
X145209210Y-52482117D02*
X145209210Y-52386879D01*
X145209210Y-52386879D02*
X145161591Y-52291641D01*
X145161591Y-52291641D02*
X145066353Y-52244022D01*
X145066353Y-52244022D02*
X144828258Y-52244022D01*
X144828258Y-52244022D02*
X144733020Y-52196403D01*
X144256829Y-51958308D02*
X144256829Y-52624975D01*
X144256829Y-52053546D02*
X144209210Y-52005927D01*
X144209210Y-52005927D02*
X144113972Y-51958308D01*
X144113972Y-51958308D02*
X143971115Y-51958308D01*
X143971115Y-51958308D02*
X143875877Y-52005927D01*
X143875877Y-52005927D02*
X143828258Y-52101165D01*
X143828258Y-52101165D02*
X143828258Y-52624975D01*
X142923496Y-51958308D02*
X142923496Y-52624975D01*
X143352067Y-51958308D02*
X143352067Y-52482117D01*
X143352067Y-52482117D02*
X143304448Y-52577356D01*
X143304448Y-52577356D02*
X143209210Y-52624975D01*
X143209210Y-52624975D02*
X143066353Y-52624975D01*
X143066353Y-52624975D02*
X142971115Y-52577356D01*
X142971115Y-52577356D02*
X142923496Y-52529736D01*
X141685400Y-52624975D02*
X141685400Y-51624975D01*
X141685400Y-51624975D02*
X141447305Y-51624975D01*
X141447305Y-51624975D02*
X141304448Y-51672594D01*
X141304448Y-51672594D02*
X141209210Y-51767832D01*
X141209210Y-51767832D02*
X141161591Y-51863070D01*
X141161591Y-51863070D02*
X141113972Y-52053546D01*
X141113972Y-52053546D02*
X141113972Y-52196403D01*
X141113972Y-52196403D02*
X141161591Y-52386879D01*
X141161591Y-52386879D02*
X141209210Y-52482117D01*
X141209210Y-52482117D02*
X141304448Y-52577356D01*
X141304448Y-52577356D02*
X141447305Y-52624975D01*
X141447305Y-52624975D02*
X141685400Y-52624975D01*
X140304448Y-52577356D02*
X140399686Y-52624975D01*
X140399686Y-52624975D02*
X140590162Y-52624975D01*
X140590162Y-52624975D02*
X140685400Y-52577356D01*
X140685400Y-52577356D02*
X140733019Y-52482117D01*
X140733019Y-52482117D02*
X140733019Y-52101165D01*
X140733019Y-52101165D02*
X140685400Y-52005927D01*
X140685400Y-52005927D02*
X140590162Y-51958308D01*
X140590162Y-51958308D02*
X140399686Y-51958308D01*
X140399686Y-51958308D02*
X140304448Y-52005927D01*
X140304448Y-52005927D02*
X140256829Y-52101165D01*
X140256829Y-52101165D02*
X140256829Y-52196403D01*
X140256829Y-52196403D02*
X140733019Y-52291641D01*
X139923495Y-51958308D02*
X139685400Y-52624975D01*
X139447305Y-51958308D02*
X139685400Y-52624975D01*
X139685400Y-52624975D02*
X139780638Y-52863070D01*
X139780638Y-52863070D02*
X139828257Y-52910689D01*
X139828257Y-52910689D02*
X139923495Y-52958308D01*
X149113972Y-53234919D02*
X148780639Y-54234919D01*
X148780639Y-54234919D02*
X148447306Y-53234919D01*
X147685401Y-54234919D02*
X147685401Y-53711109D01*
X147685401Y-53711109D02*
X147733020Y-53615871D01*
X147733020Y-53615871D02*
X147828258Y-53568252D01*
X147828258Y-53568252D02*
X148018734Y-53568252D01*
X148018734Y-53568252D02*
X148113972Y-53615871D01*
X147685401Y-54187300D02*
X147780639Y-54234919D01*
X147780639Y-54234919D02*
X148018734Y-54234919D01*
X148018734Y-54234919D02*
X148113972Y-54187300D01*
X148113972Y-54187300D02*
X148161591Y-54092061D01*
X148161591Y-54092061D02*
X148161591Y-53996823D01*
X148161591Y-53996823D02*
X148113972Y-53901585D01*
X148113972Y-53901585D02*
X148018734Y-53853966D01*
X148018734Y-53853966D02*
X147780639Y-53853966D01*
X147780639Y-53853966D02*
X147685401Y-53806347D01*
X147209210Y-53568252D02*
X147209210Y-54234919D01*
X147209210Y-53663490D02*
X147161591Y-53615871D01*
X147161591Y-53615871D02*
X147066353Y-53568252D01*
X147066353Y-53568252D02*
X146923496Y-53568252D01*
X146923496Y-53568252D02*
X146828258Y-53615871D01*
X146828258Y-53615871D02*
X146780639Y-53711109D01*
X146780639Y-53711109D02*
X146780639Y-54234919D01*
X146352067Y-54187300D02*
X146256829Y-54234919D01*
X146256829Y-54234919D02*
X146066353Y-54234919D01*
X146066353Y-54234919D02*
X145971115Y-54187300D01*
X145971115Y-54187300D02*
X145923496Y-54092061D01*
X145923496Y-54092061D02*
X145923496Y-54044442D01*
X145923496Y-54044442D02*
X145971115Y-53949204D01*
X145971115Y-53949204D02*
X146066353Y-53901585D01*
X146066353Y-53901585D02*
X146209210Y-53901585D01*
X146209210Y-53901585D02*
X146304448Y-53853966D01*
X146304448Y-53853966D02*
X146352067Y-53758728D01*
X146352067Y-53758728D02*
X146352067Y-53711109D01*
X146352067Y-53711109D02*
X146304448Y-53615871D01*
X146304448Y-53615871D02*
X146209210Y-53568252D01*
X146209210Y-53568252D02*
X146066353Y-53568252D01*
X146066353Y-53568252D02*
X145971115Y-53615871D01*
X145494924Y-54234919D02*
X145494924Y-53234919D01*
X145066353Y-54234919D02*
X145066353Y-53711109D01*
X145066353Y-53711109D02*
X145113972Y-53615871D01*
X145113972Y-53615871D02*
X145209210Y-53568252D01*
X145209210Y-53568252D02*
X145352067Y-53568252D01*
X145352067Y-53568252D02*
X145447305Y-53615871D01*
X145447305Y-53615871D02*
X145494924Y-53663490D01*
X144161591Y-54234919D02*
X144161591Y-53234919D01*
X144161591Y-54187300D02*
X144256829Y-54234919D01*
X144256829Y-54234919D02*
X144447305Y-54234919D01*
X144447305Y-54234919D02*
X144542543Y-54187300D01*
X144542543Y-54187300D02*
X144590162Y-54139680D01*
X144590162Y-54139680D02*
X144637781Y-54044442D01*
X144637781Y-54044442D02*
X144637781Y-53758728D01*
X144637781Y-53758728D02*
X144590162Y-53663490D01*
X144590162Y-53663490D02*
X144542543Y-53615871D01*
X144542543Y-53615871D02*
X144447305Y-53568252D01*
X144447305Y-53568252D02*
X144256829Y-53568252D01*
X144256829Y-53568252D02*
X144161591Y-53615871D01*
X143304448Y-54187300D02*
X143399686Y-54234919D01*
X143399686Y-54234919D02*
X143590162Y-54234919D01*
X143590162Y-54234919D02*
X143685400Y-54187300D01*
X143685400Y-54187300D02*
X143733019Y-54092061D01*
X143733019Y-54092061D02*
X143733019Y-53711109D01*
X143733019Y-53711109D02*
X143685400Y-53615871D01*
X143685400Y-53615871D02*
X143590162Y-53568252D01*
X143590162Y-53568252D02*
X143399686Y-53568252D01*
X143399686Y-53568252D02*
X143304448Y-53615871D01*
X143304448Y-53615871D02*
X143256829Y-53711109D01*
X143256829Y-53711109D02*
X143256829Y-53806347D01*
X143256829Y-53806347D02*
X143733019Y-53901585D01*
X142447305Y-54187300D02*
X142542543Y-54234919D01*
X142542543Y-54234919D02*
X142733019Y-54234919D01*
X142733019Y-54234919D02*
X142828257Y-54187300D01*
X142828257Y-54187300D02*
X142875876Y-54092061D01*
X142875876Y-54092061D02*
X142875876Y-53711109D01*
X142875876Y-53711109D02*
X142828257Y-53615871D01*
X142828257Y-53615871D02*
X142733019Y-53568252D01*
X142733019Y-53568252D02*
X142542543Y-53568252D01*
X142542543Y-53568252D02*
X142447305Y-53615871D01*
X142447305Y-53615871D02*
X142399686Y-53711109D01*
X142399686Y-53711109D02*
X142399686Y-53806347D01*
X142399686Y-53806347D02*
X142875876Y-53901585D01*
X141971114Y-53568252D02*
X141971114Y-54568252D01*
X141971114Y-53615871D02*
X141875876Y-53568252D01*
X141875876Y-53568252D02*
X141685400Y-53568252D01*
X141685400Y-53568252D02*
X141590162Y-53615871D01*
X141590162Y-53615871D02*
X141542543Y-53663490D01*
X141542543Y-53663490D02*
X141494924Y-53758728D01*
X141494924Y-53758728D02*
X141494924Y-54044442D01*
X141494924Y-54044442D02*
X141542543Y-54139680D01*
X141542543Y-54139680D02*
X141590162Y-54187300D01*
X141590162Y-54187300D02*
X141685400Y-54234919D01*
X141685400Y-54234919D02*
X141875876Y-54234919D01*
X141875876Y-54234919D02*
X141971114Y-54187300D01*
X140447304Y-53234919D02*
X139875876Y-53234919D01*
X140161590Y-54234919D02*
X140161590Y-53234919D01*
X139542542Y-54234919D02*
X139542542Y-53568252D01*
X139542542Y-53758728D02*
X139494923Y-53663490D01*
X139494923Y-53663490D02*
X139447304Y-53615871D01*
X139447304Y-53615871D02*
X139352066Y-53568252D01*
X139352066Y-53568252D02*
X139256828Y-53568252D01*
X138923494Y-54234919D02*
X138923494Y-53568252D01*
X138923494Y-53234919D02*
X138971113Y-53282538D01*
X138971113Y-53282538D02*
X138923494Y-53330157D01*
X138923494Y-53330157D02*
X138875875Y-53282538D01*
X138875875Y-53282538D02*
X138923494Y-53234919D01*
X138923494Y-53234919D02*
X138923494Y-53330157D01*
X138542542Y-53568252D02*
X138304447Y-54234919D01*
X138304447Y-54234919D02*
X138066352Y-53568252D01*
X137304447Y-54187300D02*
X137399685Y-54234919D01*
X137399685Y-54234919D02*
X137590161Y-54234919D01*
X137590161Y-54234919D02*
X137685399Y-54187300D01*
X137685399Y-54187300D02*
X137733018Y-54092061D01*
X137733018Y-54092061D02*
X137733018Y-53711109D01*
X137733018Y-53711109D02*
X137685399Y-53615871D01*
X137685399Y-53615871D02*
X137590161Y-53568252D01*
X137590161Y-53568252D02*
X137399685Y-53568252D01*
X137399685Y-53568252D02*
X137304447Y-53615871D01*
X137304447Y-53615871D02*
X137256828Y-53711109D01*
X137256828Y-53711109D02*
X137256828Y-53806347D01*
X137256828Y-53806347D02*
X137733018Y-53901585D01*
X136399685Y-54234919D02*
X136399685Y-53234919D01*
X136399685Y-54187300D02*
X136494923Y-54234919D01*
X136494923Y-54234919D02*
X136685399Y-54234919D01*
X136685399Y-54234919D02*
X136780637Y-54187300D01*
X136780637Y-54187300D02*
X136828256Y-54139680D01*
X136828256Y-54139680D02*
X136875875Y-54044442D01*
X136875875Y-54044442D02*
X136875875Y-53758728D01*
X136875875Y-53758728D02*
X136828256Y-53663490D01*
X136828256Y-53663490D02*
X136780637Y-53615871D01*
X136780637Y-53615871D02*
X136685399Y-53568252D01*
X136685399Y-53568252D02*
X136494923Y-53568252D01*
X136494923Y-53568252D02*
X136399685Y-53615871D01*
X135923494Y-54234919D02*
X135923494Y-53568252D01*
X135923494Y-53234919D02*
X135971113Y-53282538D01*
X135971113Y-53282538D02*
X135923494Y-53330157D01*
X135923494Y-53330157D02*
X135875875Y-53282538D01*
X135875875Y-53282538D02*
X135923494Y-53234919D01*
X135923494Y-53234919D02*
X135923494Y-53330157D01*
X124621115Y-69732643D02*
X124621115Y-68732643D01*
X124144925Y-69732643D02*
X124144925Y-68732643D01*
X123668735Y-69732643D02*
X123668735Y-68732643D01*
X123668735Y-68732643D02*
X123335402Y-69446928D01*
X123335402Y-69446928D02*
X123002069Y-68732643D01*
X123002069Y-68732643D02*
X123002069Y-69732643D01*
X122525878Y-69351690D02*
X121763974Y-69351690D01*
X120859212Y-69065976D02*
X120859212Y-69732643D01*
X121097307Y-68685024D02*
X121335402Y-69399309D01*
X121335402Y-69399309D02*
X120716355Y-69399309D01*
X120383021Y-68827881D02*
X120335402Y-68780262D01*
X120335402Y-68780262D02*
X120240164Y-68732643D01*
X120240164Y-68732643D02*
X120002069Y-68732643D01*
X120002069Y-68732643D02*
X119906831Y-68780262D01*
X119906831Y-68780262D02*
X119859212Y-68827881D01*
X119859212Y-68827881D02*
X119811593Y-68923119D01*
X119811593Y-68923119D02*
X119811593Y-69018357D01*
X119811593Y-69018357D02*
X119859212Y-69161214D01*
X119859212Y-69161214D02*
X120430640Y-69732643D01*
X120430640Y-69732643D02*
X119811593Y-69732643D01*
X118954450Y-68732643D02*
X119144926Y-68732643D01*
X119144926Y-68732643D02*
X119240164Y-68780262D01*
X119240164Y-68780262D02*
X119287783Y-68827881D01*
X119287783Y-68827881D02*
X119383021Y-68970738D01*
X119383021Y-68970738D02*
X119430640Y-69161214D01*
X119430640Y-69161214D02*
X119430640Y-69542166D01*
X119430640Y-69542166D02*
X119383021Y-69637404D01*
X119383021Y-69637404D02*
X119335402Y-69685024D01*
X119335402Y-69685024D02*
X119240164Y-69732643D01*
X119240164Y-69732643D02*
X119049688Y-69732643D01*
X119049688Y-69732643D02*
X118954450Y-69685024D01*
X118954450Y-69685024D02*
X118906831Y-69637404D01*
X118906831Y-69637404D02*
X118859212Y-69542166D01*
X118859212Y-69542166D02*
X118859212Y-69304071D01*
X118859212Y-69304071D02*
X118906831Y-69208833D01*
X118906831Y-69208833D02*
X118954450Y-69161214D01*
X118954450Y-69161214D02*
X119049688Y-69113595D01*
X119049688Y-69113595D02*
X119240164Y-69113595D01*
X119240164Y-69113595D02*
X119335402Y-69161214D01*
X119335402Y-69161214D02*
X119383021Y-69208833D01*
X119383021Y-69208833D02*
X119430640Y-69304071D01*
X117954450Y-68732643D02*
X118430640Y-68732643D01*
X118430640Y-68732643D02*
X118478259Y-69208833D01*
X118478259Y-69208833D02*
X118430640Y-69161214D01*
X118430640Y-69161214D02*
X118335402Y-69113595D01*
X118335402Y-69113595D02*
X118097307Y-69113595D01*
X118097307Y-69113595D02*
X118002069Y-69161214D01*
X118002069Y-69161214D02*
X117954450Y-69208833D01*
X117954450Y-69208833D02*
X117906831Y-69304071D01*
X117906831Y-69304071D02*
X117906831Y-69542166D01*
X117906831Y-69542166D02*
X117954450Y-69637404D01*
X117954450Y-69637404D02*
X118002069Y-69685024D01*
X118002069Y-69685024D02*
X118097307Y-69732643D01*
X118097307Y-69732643D02*
X118335402Y-69732643D01*
X118335402Y-69732643D02*
X118430640Y-69685024D01*
X118430640Y-69685024D02*
X118478259Y-69637404D01*
X117573497Y-68732643D02*
X116954450Y-68732643D01*
X116954450Y-68732643D02*
X117287783Y-69113595D01*
X117287783Y-69113595D02*
X117144926Y-69113595D01*
X117144926Y-69113595D02*
X117049688Y-69161214D01*
X117049688Y-69161214D02*
X117002069Y-69208833D01*
X117002069Y-69208833D02*
X116954450Y-69304071D01*
X116954450Y-69304071D02*
X116954450Y-69542166D01*
X116954450Y-69542166D02*
X117002069Y-69637404D01*
X117002069Y-69637404D02*
X117049688Y-69685024D01*
X117049688Y-69685024D02*
X117144926Y-69732643D01*
X117144926Y-69732643D02*
X117430640Y-69732643D01*
X117430640Y-69732643D02*
X117525878Y-69685024D01*
X117525878Y-69685024D02*
X117573497Y-69637404D01*
X124621115Y-71342587D02*
X124621115Y-70342587D01*
X123954449Y-70342587D02*
X123763973Y-70342587D01*
X123763973Y-70342587D02*
X123668735Y-70390206D01*
X123668735Y-70390206D02*
X123573497Y-70485444D01*
X123573497Y-70485444D02*
X123525878Y-70675920D01*
X123525878Y-70675920D02*
X123525878Y-71009253D01*
X123525878Y-71009253D02*
X123573497Y-71199729D01*
X123573497Y-71199729D02*
X123668735Y-71294968D01*
X123668735Y-71294968D02*
X123763973Y-71342587D01*
X123763973Y-71342587D02*
X123954449Y-71342587D01*
X123954449Y-71342587D02*
X124049687Y-71294968D01*
X124049687Y-71294968D02*
X124144925Y-71199729D01*
X124144925Y-71199729D02*
X124192544Y-71009253D01*
X124192544Y-71009253D02*
X124192544Y-70675920D01*
X124192544Y-70675920D02*
X124144925Y-70485444D01*
X124144925Y-70485444D02*
X124049687Y-70390206D01*
X124049687Y-70390206D02*
X123954449Y-70342587D01*
X123192544Y-70342587D02*
X122525878Y-70342587D01*
X122525878Y-70342587D02*
X122954449Y-71342587D01*
X122144925Y-70961634D02*
X121383021Y-70961634D01*
X120954449Y-71294968D02*
X120811592Y-71342587D01*
X120811592Y-71342587D02*
X120573497Y-71342587D01*
X120573497Y-71342587D02*
X120478259Y-71294968D01*
X120478259Y-71294968D02*
X120430640Y-71247348D01*
X120430640Y-71247348D02*
X120383021Y-71152110D01*
X120383021Y-71152110D02*
X120383021Y-71056872D01*
X120383021Y-71056872D02*
X120430640Y-70961634D01*
X120430640Y-70961634D02*
X120478259Y-70914015D01*
X120478259Y-70914015D02*
X120573497Y-70866396D01*
X120573497Y-70866396D02*
X120763973Y-70818777D01*
X120763973Y-70818777D02*
X120859211Y-70771158D01*
X120859211Y-70771158D02*
X120906830Y-70723539D01*
X120906830Y-70723539D02*
X120954449Y-70628301D01*
X120954449Y-70628301D02*
X120954449Y-70533063D01*
X120954449Y-70533063D02*
X120906830Y-70437825D01*
X120906830Y-70437825D02*
X120859211Y-70390206D01*
X120859211Y-70390206D02*
X120763973Y-70342587D01*
X120763973Y-70342587D02*
X120525878Y-70342587D01*
X120525878Y-70342587D02*
X120383021Y-70390206D01*
X119954449Y-71342587D02*
X119954449Y-70342587D01*
X119954449Y-70342587D02*
X119573497Y-70342587D01*
X119573497Y-70342587D02*
X119478259Y-70390206D01*
X119478259Y-70390206D02*
X119430640Y-70437825D01*
X119430640Y-70437825D02*
X119383021Y-70533063D01*
X119383021Y-70533063D02*
X119383021Y-70675920D01*
X119383021Y-70675920D02*
X119430640Y-70771158D01*
X119430640Y-70771158D02*
X119478259Y-70818777D01*
X119478259Y-70818777D02*
X119573497Y-70866396D01*
X119573497Y-70866396D02*
X119954449Y-70866396D01*
X118954449Y-71342587D02*
X118954449Y-70342587D01*
X118573497Y-70342587D02*
X117954450Y-70342587D01*
X117954450Y-70342587D02*
X118287783Y-70723539D01*
X118287783Y-70723539D02*
X118144926Y-70723539D01*
X118144926Y-70723539D02*
X118049688Y-70771158D01*
X118049688Y-70771158D02*
X118002069Y-70818777D01*
X118002069Y-70818777D02*
X117954450Y-70914015D01*
X117954450Y-70914015D02*
X117954450Y-71152110D01*
X117954450Y-71152110D02*
X118002069Y-71247348D01*
X118002069Y-71247348D02*
X118049688Y-71294968D01*
X118049688Y-71294968D02*
X118144926Y-71342587D01*
X118144926Y-71342587D02*
X118430640Y-71342587D01*
X118430640Y-71342587D02*
X118525878Y-71294968D01*
X118525878Y-71294968D02*
X118573497Y-71247348D01*
X117763974Y-71437825D02*
X117002069Y-71437825D01*
X116811592Y-71294968D02*
X116668735Y-71342587D01*
X116668735Y-71342587D02*
X116430640Y-71342587D01*
X116430640Y-71342587D02*
X116335402Y-71294968D01*
X116335402Y-71294968D02*
X116287783Y-71247348D01*
X116287783Y-71247348D02*
X116240164Y-71152110D01*
X116240164Y-71152110D02*
X116240164Y-71056872D01*
X116240164Y-71056872D02*
X116287783Y-70961634D01*
X116287783Y-70961634D02*
X116335402Y-70914015D01*
X116335402Y-70914015D02*
X116430640Y-70866396D01*
X116430640Y-70866396D02*
X116621116Y-70818777D01*
X116621116Y-70818777D02*
X116716354Y-70771158D01*
X116716354Y-70771158D02*
X116763973Y-70723539D01*
X116763973Y-70723539D02*
X116811592Y-70628301D01*
X116811592Y-70628301D02*
X116811592Y-70533063D01*
X116811592Y-70533063D02*
X116763973Y-70437825D01*
X116763973Y-70437825D02*
X116716354Y-70390206D01*
X116716354Y-70390206D02*
X116621116Y-70342587D01*
X116621116Y-70342587D02*
X116383021Y-70342587D01*
X116383021Y-70342587D02*
X116240164Y-70390206D01*
X115811592Y-71342587D02*
X115811592Y-70342587D01*
X115811592Y-70342587D02*
X115573497Y-70342587D01*
X115573497Y-70342587D02*
X115430640Y-70390206D01*
X115430640Y-70390206D02*
X115335402Y-70485444D01*
X115335402Y-70485444D02*
X115287783Y-70580682D01*
X115287783Y-70580682D02*
X115240164Y-70771158D01*
X115240164Y-70771158D02*
X115240164Y-70914015D01*
X115240164Y-70914015D02*
X115287783Y-71104491D01*
X115287783Y-71104491D02*
X115335402Y-71199729D01*
X115335402Y-71199729D02*
X115430640Y-71294968D01*
X115430640Y-71294968D02*
X115573497Y-71342587D01*
X115573497Y-71342587D02*
X115811592Y-71342587D01*
X114621116Y-70342587D02*
X114430640Y-70342587D01*
X114430640Y-70342587D02*
X114335402Y-70390206D01*
X114335402Y-70390206D02*
X114240164Y-70485444D01*
X114240164Y-70485444D02*
X114192545Y-70675920D01*
X114192545Y-70675920D02*
X114192545Y-71009253D01*
X114192545Y-71009253D02*
X114240164Y-71199729D01*
X114240164Y-71199729D02*
X114335402Y-71294968D01*
X114335402Y-71294968D02*
X114430640Y-71342587D01*
X114430640Y-71342587D02*
X114621116Y-71342587D01*
X114621116Y-71342587D02*
X114716354Y-71294968D01*
X114716354Y-71294968D02*
X114811592Y-71199729D01*
X114811592Y-71199729D02*
X114859211Y-71009253D01*
X114859211Y-71009253D02*
X114859211Y-70675920D01*
X114859211Y-70675920D02*
X114811592Y-70485444D01*
X114811592Y-70485444D02*
X114716354Y-70390206D01*
X114716354Y-70390206D02*
X114621116Y-70342587D01*
X124621115Y-72952531D02*
X124621115Y-71952531D01*
X123954449Y-71952531D02*
X123763973Y-71952531D01*
X123763973Y-71952531D02*
X123668735Y-72000150D01*
X123668735Y-72000150D02*
X123573497Y-72095388D01*
X123573497Y-72095388D02*
X123525878Y-72285864D01*
X123525878Y-72285864D02*
X123525878Y-72619197D01*
X123525878Y-72619197D02*
X123573497Y-72809673D01*
X123573497Y-72809673D02*
X123668735Y-72904912D01*
X123668735Y-72904912D02*
X123763973Y-72952531D01*
X123763973Y-72952531D02*
X123954449Y-72952531D01*
X123954449Y-72952531D02*
X124049687Y-72904912D01*
X124049687Y-72904912D02*
X124144925Y-72809673D01*
X124144925Y-72809673D02*
X124192544Y-72619197D01*
X124192544Y-72619197D02*
X124192544Y-72285864D01*
X124192544Y-72285864D02*
X124144925Y-72095388D01*
X124144925Y-72095388D02*
X124049687Y-72000150D01*
X124049687Y-72000150D02*
X123954449Y-71952531D01*
X122573497Y-72952531D02*
X123144925Y-72952531D01*
X122859211Y-72952531D02*
X122859211Y-71952531D01*
X122859211Y-71952531D02*
X122954449Y-72095388D01*
X122954449Y-72095388D02*
X123049687Y-72190626D01*
X123049687Y-72190626D02*
X123144925Y-72238245D01*
X121668735Y-71952531D02*
X122144925Y-71952531D01*
X122144925Y-71952531D02*
X122192544Y-72428721D01*
X122192544Y-72428721D02*
X122144925Y-72381102D01*
X122144925Y-72381102D02*
X122049687Y-72333483D01*
X122049687Y-72333483D02*
X121811592Y-72333483D01*
X121811592Y-72333483D02*
X121716354Y-72381102D01*
X121716354Y-72381102D02*
X121668735Y-72428721D01*
X121668735Y-72428721D02*
X121621116Y-72523959D01*
X121621116Y-72523959D02*
X121621116Y-72762054D01*
X121621116Y-72762054D02*
X121668735Y-72857292D01*
X121668735Y-72857292D02*
X121716354Y-72904912D01*
X121716354Y-72904912D02*
X121811592Y-72952531D01*
X121811592Y-72952531D02*
X122049687Y-72952531D01*
X122049687Y-72952531D02*
X122144925Y-72904912D01*
X122144925Y-72904912D02*
X122192544Y-72857292D01*
X121192544Y-72571578D02*
X120430640Y-72571578D01*
X120002068Y-72904912D02*
X119859211Y-72952531D01*
X119859211Y-72952531D02*
X119621116Y-72952531D01*
X119621116Y-72952531D02*
X119525878Y-72904912D01*
X119525878Y-72904912D02*
X119478259Y-72857292D01*
X119478259Y-72857292D02*
X119430640Y-72762054D01*
X119430640Y-72762054D02*
X119430640Y-72666816D01*
X119430640Y-72666816D02*
X119478259Y-72571578D01*
X119478259Y-72571578D02*
X119525878Y-72523959D01*
X119525878Y-72523959D02*
X119621116Y-72476340D01*
X119621116Y-72476340D02*
X119811592Y-72428721D01*
X119811592Y-72428721D02*
X119906830Y-72381102D01*
X119906830Y-72381102D02*
X119954449Y-72333483D01*
X119954449Y-72333483D02*
X120002068Y-72238245D01*
X120002068Y-72238245D02*
X120002068Y-72143007D01*
X120002068Y-72143007D02*
X119954449Y-72047769D01*
X119954449Y-72047769D02*
X119906830Y-72000150D01*
X119906830Y-72000150D02*
X119811592Y-71952531D01*
X119811592Y-71952531D02*
X119573497Y-71952531D01*
X119573497Y-71952531D02*
X119430640Y-72000150D01*
X119002068Y-72952531D02*
X119002068Y-71952531D01*
X119002068Y-71952531D02*
X118621116Y-71952531D01*
X118621116Y-71952531D02*
X118525878Y-72000150D01*
X118525878Y-72000150D02*
X118478259Y-72047769D01*
X118478259Y-72047769D02*
X118430640Y-72143007D01*
X118430640Y-72143007D02*
X118430640Y-72285864D01*
X118430640Y-72285864D02*
X118478259Y-72381102D01*
X118478259Y-72381102D02*
X118525878Y-72428721D01*
X118525878Y-72428721D02*
X118621116Y-72476340D01*
X118621116Y-72476340D02*
X119002068Y-72476340D01*
X118002068Y-72952531D02*
X118002068Y-71952531D01*
X117621116Y-71952531D02*
X117002069Y-71952531D01*
X117002069Y-71952531D02*
X117335402Y-72333483D01*
X117335402Y-72333483D02*
X117192545Y-72333483D01*
X117192545Y-72333483D02*
X117097307Y-72381102D01*
X117097307Y-72381102D02*
X117049688Y-72428721D01*
X117049688Y-72428721D02*
X117002069Y-72523959D01*
X117002069Y-72523959D02*
X117002069Y-72762054D01*
X117002069Y-72762054D02*
X117049688Y-72857292D01*
X117049688Y-72857292D02*
X117097307Y-72904912D01*
X117097307Y-72904912D02*
X117192545Y-72952531D01*
X117192545Y-72952531D02*
X117478259Y-72952531D01*
X117478259Y-72952531D02*
X117573497Y-72904912D01*
X117573497Y-72904912D02*
X117621116Y-72857292D01*
X116811593Y-73047769D02*
X116049688Y-73047769D01*
X115859211Y-72904912D02*
X115716354Y-72952531D01*
X115716354Y-72952531D02*
X115478259Y-72952531D01*
X115478259Y-72952531D02*
X115383021Y-72904912D01*
X115383021Y-72904912D02*
X115335402Y-72857292D01*
X115335402Y-72857292D02*
X115287783Y-72762054D01*
X115287783Y-72762054D02*
X115287783Y-72666816D01*
X115287783Y-72666816D02*
X115335402Y-72571578D01*
X115335402Y-72571578D02*
X115383021Y-72523959D01*
X115383021Y-72523959D02*
X115478259Y-72476340D01*
X115478259Y-72476340D02*
X115668735Y-72428721D01*
X115668735Y-72428721D02*
X115763973Y-72381102D01*
X115763973Y-72381102D02*
X115811592Y-72333483D01*
X115811592Y-72333483D02*
X115859211Y-72238245D01*
X115859211Y-72238245D02*
X115859211Y-72143007D01*
X115859211Y-72143007D02*
X115811592Y-72047769D01*
X115811592Y-72047769D02*
X115763973Y-72000150D01*
X115763973Y-72000150D02*
X115668735Y-71952531D01*
X115668735Y-71952531D02*
X115430640Y-71952531D01*
X115430640Y-71952531D02*
X115287783Y-72000150D01*
X114859211Y-72952531D02*
X114859211Y-71952531D01*
X114859211Y-71952531D02*
X114621116Y-71952531D01*
X114621116Y-71952531D02*
X114478259Y-72000150D01*
X114478259Y-72000150D02*
X114383021Y-72095388D01*
X114383021Y-72095388D02*
X114335402Y-72190626D01*
X114335402Y-72190626D02*
X114287783Y-72381102D01*
X114287783Y-72381102D02*
X114287783Y-72523959D01*
X114287783Y-72523959D02*
X114335402Y-72714435D01*
X114335402Y-72714435D02*
X114383021Y-72809673D01*
X114383021Y-72809673D02*
X114478259Y-72904912D01*
X114478259Y-72904912D02*
X114621116Y-72952531D01*
X114621116Y-72952531D02*
X114859211Y-72952531D01*
X113859211Y-72952531D02*
X113859211Y-71952531D01*
X124621115Y-74562475D02*
X124621115Y-73562475D01*
X123954449Y-73562475D02*
X123763973Y-73562475D01*
X123763973Y-73562475D02*
X123668735Y-73610094D01*
X123668735Y-73610094D02*
X123573497Y-73705332D01*
X123573497Y-73705332D02*
X123525878Y-73895808D01*
X123525878Y-73895808D02*
X123525878Y-74229141D01*
X123525878Y-74229141D02*
X123573497Y-74419617D01*
X123573497Y-74419617D02*
X123668735Y-74514856D01*
X123668735Y-74514856D02*
X123763973Y-74562475D01*
X123763973Y-74562475D02*
X123954449Y-74562475D01*
X123954449Y-74562475D02*
X124049687Y-74514856D01*
X124049687Y-74514856D02*
X124144925Y-74419617D01*
X124144925Y-74419617D02*
X124192544Y-74229141D01*
X124192544Y-74229141D02*
X124192544Y-73895808D01*
X124192544Y-73895808D02*
X124144925Y-73705332D01*
X124144925Y-73705332D02*
X124049687Y-73610094D01*
X124049687Y-73610094D02*
X123954449Y-73562475D01*
X122573497Y-74562475D02*
X123144925Y-74562475D01*
X122859211Y-74562475D02*
X122859211Y-73562475D01*
X122859211Y-73562475D02*
X122954449Y-73705332D01*
X122954449Y-73705332D02*
X123049687Y-73800570D01*
X123049687Y-73800570D02*
X123144925Y-73848189D01*
X121716354Y-73562475D02*
X121906830Y-73562475D01*
X121906830Y-73562475D02*
X122002068Y-73610094D01*
X122002068Y-73610094D02*
X122049687Y-73657713D01*
X122049687Y-73657713D02*
X122144925Y-73800570D01*
X122144925Y-73800570D02*
X122192544Y-73991046D01*
X122192544Y-73991046D02*
X122192544Y-74371998D01*
X122192544Y-74371998D02*
X122144925Y-74467236D01*
X122144925Y-74467236D02*
X122097306Y-74514856D01*
X122097306Y-74514856D02*
X122002068Y-74562475D01*
X122002068Y-74562475D02*
X121811592Y-74562475D01*
X121811592Y-74562475D02*
X121716354Y-74514856D01*
X121716354Y-74514856D02*
X121668735Y-74467236D01*
X121668735Y-74467236D02*
X121621116Y-74371998D01*
X121621116Y-74371998D02*
X121621116Y-74133903D01*
X121621116Y-74133903D02*
X121668735Y-74038665D01*
X121668735Y-74038665D02*
X121716354Y-73991046D01*
X121716354Y-73991046D02*
X121811592Y-73943427D01*
X121811592Y-73943427D02*
X122002068Y-73943427D01*
X122002068Y-73943427D02*
X122097306Y-73991046D01*
X122097306Y-73991046D02*
X122144925Y-74038665D01*
X122144925Y-74038665D02*
X122192544Y-74133903D01*
X121192544Y-74181522D02*
X120430640Y-74181522D01*
X120002068Y-74514856D02*
X119859211Y-74562475D01*
X119859211Y-74562475D02*
X119621116Y-74562475D01*
X119621116Y-74562475D02*
X119525878Y-74514856D01*
X119525878Y-74514856D02*
X119478259Y-74467236D01*
X119478259Y-74467236D02*
X119430640Y-74371998D01*
X119430640Y-74371998D02*
X119430640Y-74276760D01*
X119430640Y-74276760D02*
X119478259Y-74181522D01*
X119478259Y-74181522D02*
X119525878Y-74133903D01*
X119525878Y-74133903D02*
X119621116Y-74086284D01*
X119621116Y-74086284D02*
X119811592Y-74038665D01*
X119811592Y-74038665D02*
X119906830Y-73991046D01*
X119906830Y-73991046D02*
X119954449Y-73943427D01*
X119954449Y-73943427D02*
X120002068Y-73848189D01*
X120002068Y-73848189D02*
X120002068Y-73752951D01*
X120002068Y-73752951D02*
X119954449Y-73657713D01*
X119954449Y-73657713D02*
X119906830Y-73610094D01*
X119906830Y-73610094D02*
X119811592Y-73562475D01*
X119811592Y-73562475D02*
X119573497Y-73562475D01*
X119573497Y-73562475D02*
X119430640Y-73610094D01*
X119002068Y-74562475D02*
X119002068Y-73562475D01*
X119002068Y-73562475D02*
X118621116Y-73562475D01*
X118621116Y-73562475D02*
X118525878Y-73610094D01*
X118525878Y-73610094D02*
X118478259Y-73657713D01*
X118478259Y-73657713D02*
X118430640Y-73752951D01*
X118430640Y-73752951D02*
X118430640Y-73895808D01*
X118430640Y-73895808D02*
X118478259Y-73991046D01*
X118478259Y-73991046D02*
X118525878Y-74038665D01*
X118525878Y-74038665D02*
X118621116Y-74086284D01*
X118621116Y-74086284D02*
X119002068Y-74086284D01*
X118002068Y-74562475D02*
X118002068Y-73562475D01*
X117621116Y-73562475D02*
X117002069Y-73562475D01*
X117002069Y-73562475D02*
X117335402Y-73943427D01*
X117335402Y-73943427D02*
X117192545Y-73943427D01*
X117192545Y-73943427D02*
X117097307Y-73991046D01*
X117097307Y-73991046D02*
X117049688Y-74038665D01*
X117049688Y-74038665D02*
X117002069Y-74133903D01*
X117002069Y-74133903D02*
X117002069Y-74371998D01*
X117002069Y-74371998D02*
X117049688Y-74467236D01*
X117049688Y-74467236D02*
X117097307Y-74514856D01*
X117097307Y-74514856D02*
X117192545Y-74562475D01*
X117192545Y-74562475D02*
X117478259Y-74562475D01*
X117478259Y-74562475D02*
X117573497Y-74514856D01*
X117573497Y-74514856D02*
X117621116Y-74467236D01*
X116811593Y-74657713D02*
X116049688Y-74657713D01*
X115240164Y-74467236D02*
X115287783Y-74514856D01*
X115287783Y-74514856D02*
X115430640Y-74562475D01*
X115430640Y-74562475D02*
X115525878Y-74562475D01*
X115525878Y-74562475D02*
X115668735Y-74514856D01*
X115668735Y-74514856D02*
X115763973Y-74419617D01*
X115763973Y-74419617D02*
X115811592Y-74324379D01*
X115811592Y-74324379D02*
X115859211Y-74133903D01*
X115859211Y-74133903D02*
X115859211Y-73991046D01*
X115859211Y-73991046D02*
X115811592Y-73800570D01*
X115811592Y-73800570D02*
X115763973Y-73705332D01*
X115763973Y-73705332D02*
X115668735Y-73610094D01*
X115668735Y-73610094D02*
X115525878Y-73562475D01*
X115525878Y-73562475D02*
X115430640Y-73562475D01*
X115430640Y-73562475D02*
X115287783Y-73610094D01*
X115287783Y-73610094D02*
X115240164Y-73657713D01*
X114335402Y-74562475D02*
X114811592Y-74562475D01*
X114811592Y-74562475D02*
X114811592Y-73562475D01*
X114002068Y-74562475D02*
X114002068Y-73562475D01*
X113430640Y-74562475D02*
X113859211Y-73991046D01*
X113430640Y-73562475D02*
X114002068Y-74133903D01*
X124621115Y-76172419D02*
X124621115Y-75172419D01*
X123954449Y-75172419D02*
X123763973Y-75172419D01*
X123763973Y-75172419D02*
X123668735Y-75220038D01*
X123668735Y-75220038D02*
X123573497Y-75315276D01*
X123573497Y-75315276D02*
X123525878Y-75505752D01*
X123525878Y-75505752D02*
X123525878Y-75839085D01*
X123525878Y-75839085D02*
X123573497Y-76029561D01*
X123573497Y-76029561D02*
X123668735Y-76124800D01*
X123668735Y-76124800D02*
X123763973Y-76172419D01*
X123763973Y-76172419D02*
X123954449Y-76172419D01*
X123954449Y-76172419D02*
X124049687Y-76124800D01*
X124049687Y-76124800D02*
X124144925Y-76029561D01*
X124144925Y-76029561D02*
X124192544Y-75839085D01*
X124192544Y-75839085D02*
X124192544Y-75505752D01*
X124192544Y-75505752D02*
X124144925Y-75315276D01*
X124144925Y-75315276D02*
X124049687Y-75220038D01*
X124049687Y-75220038D02*
X123954449Y-75172419D01*
X122573497Y-76172419D02*
X123144925Y-76172419D01*
X122859211Y-76172419D02*
X122859211Y-75172419D01*
X122859211Y-75172419D02*
X122954449Y-75315276D01*
X122954449Y-75315276D02*
X123049687Y-75410514D01*
X123049687Y-75410514D02*
X123144925Y-75458133D01*
X122240163Y-75172419D02*
X121573497Y-75172419D01*
X121573497Y-75172419D02*
X122002068Y-76172419D01*
X121192544Y-75791466D02*
X120430640Y-75791466D01*
X120002068Y-76124800D02*
X119859211Y-76172419D01*
X119859211Y-76172419D02*
X119621116Y-76172419D01*
X119621116Y-76172419D02*
X119525878Y-76124800D01*
X119525878Y-76124800D02*
X119478259Y-76077180D01*
X119478259Y-76077180D02*
X119430640Y-75981942D01*
X119430640Y-75981942D02*
X119430640Y-75886704D01*
X119430640Y-75886704D02*
X119478259Y-75791466D01*
X119478259Y-75791466D02*
X119525878Y-75743847D01*
X119525878Y-75743847D02*
X119621116Y-75696228D01*
X119621116Y-75696228D02*
X119811592Y-75648609D01*
X119811592Y-75648609D02*
X119906830Y-75600990D01*
X119906830Y-75600990D02*
X119954449Y-75553371D01*
X119954449Y-75553371D02*
X120002068Y-75458133D01*
X120002068Y-75458133D02*
X120002068Y-75362895D01*
X120002068Y-75362895D02*
X119954449Y-75267657D01*
X119954449Y-75267657D02*
X119906830Y-75220038D01*
X119906830Y-75220038D02*
X119811592Y-75172419D01*
X119811592Y-75172419D02*
X119573497Y-75172419D01*
X119573497Y-75172419D02*
X119430640Y-75220038D01*
X119002068Y-76172419D02*
X119002068Y-75172419D01*
X119002068Y-75172419D02*
X118621116Y-75172419D01*
X118621116Y-75172419D02*
X118525878Y-75220038D01*
X118525878Y-75220038D02*
X118478259Y-75267657D01*
X118478259Y-75267657D02*
X118430640Y-75362895D01*
X118430640Y-75362895D02*
X118430640Y-75505752D01*
X118430640Y-75505752D02*
X118478259Y-75600990D01*
X118478259Y-75600990D02*
X118525878Y-75648609D01*
X118525878Y-75648609D02*
X118621116Y-75696228D01*
X118621116Y-75696228D02*
X119002068Y-75696228D01*
X118002068Y-76172419D02*
X118002068Y-75172419D01*
X117621116Y-75172419D02*
X117002069Y-75172419D01*
X117002069Y-75172419D02*
X117335402Y-75553371D01*
X117335402Y-75553371D02*
X117192545Y-75553371D01*
X117192545Y-75553371D02*
X117097307Y-75600990D01*
X117097307Y-75600990D02*
X117049688Y-75648609D01*
X117049688Y-75648609D02*
X117002069Y-75743847D01*
X117002069Y-75743847D02*
X117002069Y-75981942D01*
X117002069Y-75981942D02*
X117049688Y-76077180D01*
X117049688Y-76077180D02*
X117097307Y-76124800D01*
X117097307Y-76124800D02*
X117192545Y-76172419D01*
X117192545Y-76172419D02*
X117478259Y-76172419D01*
X117478259Y-76172419D02*
X117573497Y-76124800D01*
X117573497Y-76124800D02*
X117621116Y-76077180D01*
X116811593Y-76267657D02*
X116049688Y-76267657D01*
X115240164Y-76077180D02*
X115287783Y-76124800D01*
X115287783Y-76124800D02*
X115430640Y-76172419D01*
X115430640Y-76172419D02*
X115525878Y-76172419D01*
X115525878Y-76172419D02*
X115668735Y-76124800D01*
X115668735Y-76124800D02*
X115763973Y-76029561D01*
X115763973Y-76029561D02*
X115811592Y-75934323D01*
X115811592Y-75934323D02*
X115859211Y-75743847D01*
X115859211Y-75743847D02*
X115859211Y-75600990D01*
X115859211Y-75600990D02*
X115811592Y-75410514D01*
X115811592Y-75410514D02*
X115763973Y-75315276D01*
X115763973Y-75315276D02*
X115668735Y-75220038D01*
X115668735Y-75220038D02*
X115525878Y-75172419D01*
X115525878Y-75172419D02*
X115430640Y-75172419D01*
X115430640Y-75172419D02*
X115287783Y-75220038D01*
X115287783Y-75220038D02*
X115240164Y-75267657D01*
X114859211Y-76124800D02*
X114716354Y-76172419D01*
X114716354Y-76172419D02*
X114478259Y-76172419D01*
X114478259Y-76172419D02*
X114383021Y-76124800D01*
X114383021Y-76124800D02*
X114335402Y-76077180D01*
X114335402Y-76077180D02*
X114287783Y-75981942D01*
X114287783Y-75981942D02*
X114287783Y-75886704D01*
X114287783Y-75886704D02*
X114335402Y-75791466D01*
X114335402Y-75791466D02*
X114383021Y-75743847D01*
X114383021Y-75743847D02*
X114478259Y-75696228D01*
X114478259Y-75696228D02*
X114668735Y-75648609D01*
X114668735Y-75648609D02*
X114763973Y-75600990D01*
X114763973Y-75600990D02*
X114811592Y-75553371D01*
X114811592Y-75553371D02*
X114859211Y-75458133D01*
X114859211Y-75458133D02*
X114859211Y-75362895D01*
X114859211Y-75362895D02*
X114811592Y-75267657D01*
X114811592Y-75267657D02*
X114763973Y-75220038D01*
X114763973Y-75220038D02*
X114668735Y-75172419D01*
X114668735Y-75172419D02*
X114430640Y-75172419D01*
X114430640Y-75172419D02*
X114287783Y-75220038D01*
X151521115Y-46472419D02*
X151521115Y-45472419D01*
X151521115Y-45472419D02*
X151283020Y-45472419D01*
X151283020Y-45472419D02*
X151140163Y-45520038D01*
X151140163Y-45520038D02*
X151044925Y-45615276D01*
X151044925Y-45615276D02*
X150997306Y-45710514D01*
X150997306Y-45710514D02*
X150949687Y-45900990D01*
X150949687Y-45900990D02*
X150949687Y-46043847D01*
X150949687Y-46043847D02*
X150997306Y-46234323D01*
X150997306Y-46234323D02*
X151044925Y-46329561D01*
X151044925Y-46329561D02*
X151140163Y-46424800D01*
X151140163Y-46424800D02*
X151283020Y-46472419D01*
X151283020Y-46472419D02*
X151521115Y-46472419D01*
X150140163Y-46424800D02*
X150235401Y-46472419D01*
X150235401Y-46472419D02*
X150425877Y-46472419D01*
X150425877Y-46472419D02*
X150521115Y-46424800D01*
X150521115Y-46424800D02*
X150568734Y-46329561D01*
X150568734Y-46329561D02*
X150568734Y-45948609D01*
X150568734Y-45948609D02*
X150521115Y-45853371D01*
X150521115Y-45853371D02*
X150425877Y-45805752D01*
X150425877Y-45805752D02*
X150235401Y-45805752D01*
X150235401Y-45805752D02*
X150140163Y-45853371D01*
X150140163Y-45853371D02*
X150092544Y-45948609D01*
X150092544Y-45948609D02*
X150092544Y-46043847D01*
X150092544Y-46043847D02*
X150568734Y-46139085D01*
X149711591Y-46424800D02*
X149616353Y-46472419D01*
X149616353Y-46472419D02*
X149425877Y-46472419D01*
X149425877Y-46472419D02*
X149330639Y-46424800D01*
X149330639Y-46424800D02*
X149283020Y-46329561D01*
X149283020Y-46329561D02*
X149283020Y-46281942D01*
X149283020Y-46281942D02*
X149330639Y-46186704D01*
X149330639Y-46186704D02*
X149425877Y-46139085D01*
X149425877Y-46139085D02*
X149568734Y-46139085D01*
X149568734Y-46139085D02*
X149663972Y-46091466D01*
X149663972Y-46091466D02*
X149711591Y-45996228D01*
X149711591Y-45996228D02*
X149711591Y-45948609D01*
X149711591Y-45948609D02*
X149663972Y-45853371D01*
X149663972Y-45853371D02*
X149568734Y-45805752D01*
X149568734Y-45805752D02*
X149425877Y-45805752D01*
X149425877Y-45805752D02*
X149330639Y-45853371D01*
X148854448Y-46472419D02*
X148854448Y-45805752D01*
X148854448Y-45472419D02*
X148902067Y-45520038D01*
X148902067Y-45520038D02*
X148854448Y-45567657D01*
X148854448Y-45567657D02*
X148806829Y-45520038D01*
X148806829Y-45520038D02*
X148854448Y-45472419D01*
X148854448Y-45472419D02*
X148854448Y-45567657D01*
X147949687Y-45805752D02*
X147949687Y-46615276D01*
X147949687Y-46615276D02*
X147997306Y-46710514D01*
X147997306Y-46710514D02*
X148044925Y-46758133D01*
X148044925Y-46758133D02*
X148140163Y-46805752D01*
X148140163Y-46805752D02*
X148283020Y-46805752D01*
X148283020Y-46805752D02*
X148378258Y-46758133D01*
X147949687Y-46424800D02*
X148044925Y-46472419D01*
X148044925Y-46472419D02*
X148235401Y-46472419D01*
X148235401Y-46472419D02*
X148330639Y-46424800D01*
X148330639Y-46424800D02*
X148378258Y-46377180D01*
X148378258Y-46377180D02*
X148425877Y-46281942D01*
X148425877Y-46281942D02*
X148425877Y-45996228D01*
X148425877Y-45996228D02*
X148378258Y-45900990D01*
X148378258Y-45900990D02*
X148330639Y-45853371D01*
X148330639Y-45853371D02*
X148235401Y-45805752D01*
X148235401Y-45805752D02*
X148044925Y-45805752D01*
X148044925Y-45805752D02*
X147949687Y-45853371D01*
X147473496Y-45805752D02*
X147473496Y-46472419D01*
X147473496Y-45900990D02*
X147425877Y-45853371D01*
X147425877Y-45853371D02*
X147330639Y-45805752D01*
X147330639Y-45805752D02*
X147187782Y-45805752D01*
X147187782Y-45805752D02*
X147092544Y-45853371D01*
X147092544Y-45853371D02*
X147044925Y-45948609D01*
X147044925Y-45948609D02*
X147044925Y-46472419D01*
X146187782Y-46424800D02*
X146283020Y-46472419D01*
X146283020Y-46472419D02*
X146473496Y-46472419D01*
X146473496Y-46472419D02*
X146568734Y-46424800D01*
X146568734Y-46424800D02*
X146616353Y-46329561D01*
X146616353Y-46329561D02*
X146616353Y-45948609D01*
X146616353Y-45948609D02*
X146568734Y-45853371D01*
X146568734Y-45853371D02*
X146473496Y-45805752D01*
X146473496Y-45805752D02*
X146283020Y-45805752D01*
X146283020Y-45805752D02*
X146187782Y-45853371D01*
X146187782Y-45853371D02*
X146140163Y-45948609D01*
X146140163Y-45948609D02*
X146140163Y-46043847D01*
X146140163Y-46043847D02*
X146616353Y-46139085D01*
X145283020Y-46472419D02*
X145283020Y-45472419D01*
X145283020Y-46424800D02*
X145378258Y-46472419D01*
X145378258Y-46472419D02*
X145568734Y-46472419D01*
X145568734Y-46472419D02*
X145663972Y-46424800D01*
X145663972Y-46424800D02*
X145711591Y-46377180D01*
X145711591Y-46377180D02*
X145759210Y-46281942D01*
X145759210Y-46281942D02*
X145759210Y-45996228D01*
X145759210Y-45996228D02*
X145711591Y-45900990D01*
X145711591Y-45900990D02*
X145663972Y-45853371D01*
X145663972Y-45853371D02*
X145568734Y-45805752D01*
X145568734Y-45805752D02*
X145378258Y-45805752D01*
X145378258Y-45805752D02*
X145283020Y-45853371D01*
X144187781Y-45805752D02*
X143806829Y-45805752D01*
X144044924Y-46472419D02*
X144044924Y-45615276D01*
X144044924Y-45615276D02*
X143997305Y-45520038D01*
X143997305Y-45520038D02*
X143902067Y-45472419D01*
X143902067Y-45472419D02*
X143806829Y-45472419D01*
X143330638Y-46472419D02*
X143425876Y-46424800D01*
X143425876Y-46424800D02*
X143473495Y-46377180D01*
X143473495Y-46377180D02*
X143521114Y-46281942D01*
X143521114Y-46281942D02*
X143521114Y-45996228D01*
X143521114Y-45996228D02*
X143473495Y-45900990D01*
X143473495Y-45900990D02*
X143425876Y-45853371D01*
X143425876Y-45853371D02*
X143330638Y-45805752D01*
X143330638Y-45805752D02*
X143187781Y-45805752D01*
X143187781Y-45805752D02*
X143092543Y-45853371D01*
X143092543Y-45853371D02*
X143044924Y-45900990D01*
X143044924Y-45900990D02*
X142997305Y-45996228D01*
X142997305Y-45996228D02*
X142997305Y-46281942D01*
X142997305Y-46281942D02*
X143044924Y-46377180D01*
X143044924Y-46377180D02*
X143092543Y-46424800D01*
X143092543Y-46424800D02*
X143187781Y-46472419D01*
X143187781Y-46472419D02*
X143330638Y-46472419D01*
X142568733Y-46472419D02*
X142568733Y-45805752D01*
X142568733Y-45996228D02*
X142521114Y-45900990D01*
X142521114Y-45900990D02*
X142473495Y-45853371D01*
X142473495Y-45853371D02*
X142378257Y-45805752D01*
X142378257Y-45805752D02*
X142283019Y-45805752D01*
X141330637Y-45472419D02*
X140759209Y-45472419D01*
X141044923Y-46472419D02*
X141044923Y-45472419D01*
X140044923Y-46424800D02*
X140140161Y-46472419D01*
X140140161Y-46472419D02*
X140330637Y-46472419D01*
X140330637Y-46472419D02*
X140425875Y-46424800D01*
X140425875Y-46424800D02*
X140473494Y-46329561D01*
X140473494Y-46329561D02*
X140473494Y-45948609D01*
X140473494Y-45948609D02*
X140425875Y-45853371D01*
X140425875Y-45853371D02*
X140330637Y-45805752D01*
X140330637Y-45805752D02*
X140140161Y-45805752D01*
X140140161Y-45805752D02*
X140044923Y-45853371D01*
X140044923Y-45853371D02*
X139997304Y-45948609D01*
X139997304Y-45948609D02*
X139997304Y-46043847D01*
X139997304Y-46043847D02*
X140473494Y-46139085D01*
X139140161Y-46472419D02*
X139140161Y-45948609D01*
X139140161Y-45948609D02*
X139187780Y-45853371D01*
X139187780Y-45853371D02*
X139283018Y-45805752D01*
X139283018Y-45805752D02*
X139473494Y-45805752D01*
X139473494Y-45805752D02*
X139568732Y-45853371D01*
X139140161Y-46424800D02*
X139235399Y-46472419D01*
X139235399Y-46472419D02*
X139473494Y-46472419D01*
X139473494Y-46472419D02*
X139568732Y-46424800D01*
X139568732Y-46424800D02*
X139616351Y-46329561D01*
X139616351Y-46329561D02*
X139616351Y-46234323D01*
X139616351Y-46234323D02*
X139568732Y-46139085D01*
X139568732Y-46139085D02*
X139473494Y-46091466D01*
X139473494Y-46091466D02*
X139235399Y-46091466D01*
X139235399Y-46091466D02*
X139140161Y-46043847D01*
X138663970Y-46472419D02*
X138663970Y-45805752D01*
X138663970Y-45900990D02*
X138616351Y-45853371D01*
X138616351Y-45853371D02*
X138521113Y-45805752D01*
X138521113Y-45805752D02*
X138378256Y-45805752D01*
X138378256Y-45805752D02*
X138283018Y-45853371D01*
X138283018Y-45853371D02*
X138235399Y-45948609D01*
X138235399Y-45948609D02*
X138235399Y-46472419D01*
X138235399Y-45948609D02*
X138187780Y-45853371D01*
X138187780Y-45853371D02*
X138092542Y-45805752D01*
X138092542Y-45805752D02*
X137949685Y-45805752D01*
X137949685Y-45805752D02*
X137854446Y-45853371D01*
X137854446Y-45853371D02*
X137806827Y-45948609D01*
X137806827Y-45948609D02*
X137806827Y-46472419D01*
X136568732Y-46472419D02*
X136568732Y-45472419D01*
X136092542Y-45805752D02*
X136092542Y-46472419D01*
X136092542Y-45900990D02*
X136044923Y-45853371D01*
X136044923Y-45853371D02*
X135949685Y-45805752D01*
X135949685Y-45805752D02*
X135806828Y-45805752D01*
X135806828Y-45805752D02*
X135711590Y-45853371D01*
X135711590Y-45853371D02*
X135663971Y-45948609D01*
X135663971Y-45948609D02*
X135663971Y-46472419D01*
X134759209Y-46472419D02*
X134759209Y-45472419D01*
X134759209Y-46424800D02*
X134854447Y-46472419D01*
X134854447Y-46472419D02*
X135044923Y-46472419D01*
X135044923Y-46472419D02*
X135140161Y-46424800D01*
X135140161Y-46424800D02*
X135187780Y-46377180D01*
X135187780Y-46377180D02*
X135235399Y-46281942D01*
X135235399Y-46281942D02*
X135235399Y-45996228D01*
X135235399Y-45996228D02*
X135187780Y-45900990D01*
X135187780Y-45900990D02*
X135140161Y-45853371D01*
X135140161Y-45853371D02*
X135044923Y-45805752D01*
X135044923Y-45805752D02*
X134854447Y-45805752D01*
X134854447Y-45805752D02*
X134759209Y-45853371D01*
X134283018Y-46472419D02*
X134283018Y-45805752D01*
X134283018Y-45996228D02*
X134235399Y-45900990D01*
X134235399Y-45900990D02*
X134187780Y-45853371D01*
X134187780Y-45853371D02*
X134092542Y-45805752D01*
X134092542Y-45805752D02*
X133997304Y-45805752D01*
X133235399Y-46472419D02*
X133235399Y-45948609D01*
X133235399Y-45948609D02*
X133283018Y-45853371D01*
X133283018Y-45853371D02*
X133378256Y-45805752D01*
X133378256Y-45805752D02*
X133568732Y-45805752D01*
X133568732Y-45805752D02*
X133663970Y-45853371D01*
X133235399Y-46424800D02*
X133330637Y-46472419D01*
X133330637Y-46472419D02*
X133568732Y-46472419D01*
X133568732Y-46472419D02*
X133663970Y-46424800D01*
X133663970Y-46424800D02*
X133711589Y-46329561D01*
X133711589Y-46329561D02*
X133711589Y-46234323D01*
X133711589Y-46234323D02*
X133663970Y-46139085D01*
X133663970Y-46139085D02*
X133568732Y-46091466D01*
X133568732Y-46091466D02*
X133330637Y-46091466D01*
X133330637Y-46091466D02*
X133235399Y-46043847D01*
X131544925Y-88102531D02*
X132021115Y-88102531D01*
X132021115Y-88102531D02*
X132021115Y-87102531D01*
X131021115Y-87102531D02*
X130830639Y-87102531D01*
X130830639Y-87102531D02*
X130735401Y-87150150D01*
X130735401Y-87150150D02*
X130640163Y-87245388D01*
X130640163Y-87245388D02*
X130592544Y-87435864D01*
X130592544Y-87435864D02*
X130592544Y-87769197D01*
X130592544Y-87769197D02*
X130640163Y-87959673D01*
X130640163Y-87959673D02*
X130735401Y-88054912D01*
X130735401Y-88054912D02*
X130830639Y-88102531D01*
X130830639Y-88102531D02*
X131021115Y-88102531D01*
X131021115Y-88102531D02*
X131116353Y-88054912D01*
X131116353Y-88054912D02*
X131211591Y-87959673D01*
X131211591Y-87959673D02*
X131259210Y-87769197D01*
X131259210Y-87769197D02*
X131259210Y-87435864D01*
X131259210Y-87435864D02*
X131211591Y-87245388D01*
X131211591Y-87245388D02*
X131116353Y-87150150D01*
X131116353Y-87150150D02*
X131021115Y-87102531D01*
X130211591Y-87816816D02*
X129735401Y-87816816D01*
X130306829Y-88102531D02*
X129973496Y-87102531D01*
X129973496Y-87102531D02*
X129640163Y-88102531D01*
X129306829Y-88102531D02*
X129306829Y-87102531D01*
X129306829Y-87102531D02*
X129068734Y-87102531D01*
X129068734Y-87102531D02*
X128925877Y-87150150D01*
X128925877Y-87150150D02*
X128830639Y-87245388D01*
X128830639Y-87245388D02*
X128783020Y-87340626D01*
X128783020Y-87340626D02*
X128735401Y-87531102D01*
X128735401Y-87531102D02*
X128735401Y-87673959D01*
X128735401Y-87673959D02*
X128783020Y-87864435D01*
X128783020Y-87864435D02*
X128830639Y-87959673D01*
X128830639Y-87959673D02*
X128925877Y-88054912D01*
X128925877Y-88054912D02*
X129068734Y-88102531D01*
X129068734Y-88102531D02*
X129306829Y-88102531D01*
X132021115Y-89712475D02*
X132021115Y-88712475D01*
X131354449Y-88712475D02*
X131163973Y-88712475D01*
X131163973Y-88712475D02*
X131068735Y-88760094D01*
X131068735Y-88760094D02*
X130973497Y-88855332D01*
X130973497Y-88855332D02*
X130925878Y-89045808D01*
X130925878Y-89045808D02*
X130925878Y-89379141D01*
X130925878Y-89379141D02*
X130973497Y-89569617D01*
X130973497Y-89569617D02*
X131068735Y-89664856D01*
X131068735Y-89664856D02*
X131163973Y-89712475D01*
X131163973Y-89712475D02*
X131354449Y-89712475D01*
X131354449Y-89712475D02*
X131449687Y-89664856D01*
X131449687Y-89664856D02*
X131544925Y-89569617D01*
X131544925Y-89569617D02*
X131592544Y-89379141D01*
X131592544Y-89379141D02*
X131592544Y-89045808D01*
X131592544Y-89045808D02*
X131544925Y-88855332D01*
X131544925Y-88855332D02*
X131449687Y-88760094D01*
X131449687Y-88760094D02*
X131354449Y-88712475D01*
X130068735Y-88712475D02*
X130259211Y-88712475D01*
X130259211Y-88712475D02*
X130354449Y-88760094D01*
X130354449Y-88760094D02*
X130402068Y-88807713D01*
X130402068Y-88807713D02*
X130497306Y-88950570D01*
X130497306Y-88950570D02*
X130544925Y-89141046D01*
X130544925Y-89141046D02*
X130544925Y-89521998D01*
X130544925Y-89521998D02*
X130497306Y-89617236D01*
X130497306Y-89617236D02*
X130449687Y-89664856D01*
X130449687Y-89664856D02*
X130354449Y-89712475D01*
X130354449Y-89712475D02*
X130163973Y-89712475D01*
X130163973Y-89712475D02*
X130068735Y-89664856D01*
X130068735Y-89664856D02*
X130021116Y-89617236D01*
X130021116Y-89617236D02*
X129973497Y-89521998D01*
X129973497Y-89521998D02*
X129973497Y-89283903D01*
X129973497Y-89283903D02*
X130021116Y-89188665D01*
X130021116Y-89188665D02*
X130068735Y-89141046D01*
X130068735Y-89141046D02*
X130163973Y-89093427D01*
X130163973Y-89093427D02*
X130354449Y-89093427D01*
X130354449Y-89093427D02*
X130449687Y-89141046D01*
X130449687Y-89141046D02*
X130497306Y-89188665D01*
X130497306Y-89188665D02*
X130544925Y-89283903D01*
X129544925Y-89331522D02*
X128783021Y-89331522D01*
X128306830Y-89712475D02*
X128306830Y-88712475D01*
X128306830Y-88712475D02*
X128068735Y-88712475D01*
X128068735Y-88712475D02*
X127925878Y-88760094D01*
X127925878Y-88760094D02*
X127830640Y-88855332D01*
X127830640Y-88855332D02*
X127783021Y-88950570D01*
X127783021Y-88950570D02*
X127735402Y-89141046D01*
X127735402Y-89141046D02*
X127735402Y-89283903D01*
X127735402Y-89283903D02*
X127783021Y-89474379D01*
X127783021Y-89474379D02*
X127830640Y-89569617D01*
X127830640Y-89569617D02*
X127925878Y-89664856D01*
X127925878Y-89664856D02*
X128068735Y-89712475D01*
X128068735Y-89712475D02*
X128306830Y-89712475D01*
X126735402Y-89712475D02*
X127068735Y-89236284D01*
X127306830Y-89712475D02*
X127306830Y-88712475D01*
X127306830Y-88712475D02*
X126925878Y-88712475D01*
X126925878Y-88712475D02*
X126830640Y-88760094D01*
X126830640Y-88760094D02*
X126783021Y-88807713D01*
X126783021Y-88807713D02*
X126735402Y-88902951D01*
X126735402Y-88902951D02*
X126735402Y-89045808D01*
X126735402Y-89045808D02*
X126783021Y-89141046D01*
X126783021Y-89141046D02*
X126830640Y-89188665D01*
X126830640Y-89188665D02*
X126925878Y-89236284D01*
X126925878Y-89236284D02*
X127306830Y-89236284D01*
X126116354Y-88712475D02*
X125925878Y-88712475D01*
X125925878Y-88712475D02*
X125830640Y-88760094D01*
X125830640Y-88760094D02*
X125735402Y-88855332D01*
X125735402Y-88855332D02*
X125687783Y-89045808D01*
X125687783Y-89045808D02*
X125687783Y-89379141D01*
X125687783Y-89379141D02*
X125735402Y-89569617D01*
X125735402Y-89569617D02*
X125830640Y-89664856D01*
X125830640Y-89664856D02*
X125925878Y-89712475D01*
X125925878Y-89712475D02*
X126116354Y-89712475D01*
X126116354Y-89712475D02*
X126211592Y-89664856D01*
X126211592Y-89664856D02*
X126306830Y-89569617D01*
X126306830Y-89569617D02*
X126354449Y-89379141D01*
X126354449Y-89379141D02*
X126354449Y-89045808D01*
X126354449Y-89045808D02*
X126306830Y-88855332D01*
X126306830Y-88855332D02*
X126211592Y-88760094D01*
X126211592Y-88760094D02*
X126116354Y-88712475D01*
X124735402Y-88760094D02*
X124830640Y-88712475D01*
X124830640Y-88712475D02*
X124973497Y-88712475D01*
X124973497Y-88712475D02*
X125116354Y-88760094D01*
X125116354Y-88760094D02*
X125211592Y-88855332D01*
X125211592Y-88855332D02*
X125259211Y-88950570D01*
X125259211Y-88950570D02*
X125306830Y-89141046D01*
X125306830Y-89141046D02*
X125306830Y-89283903D01*
X125306830Y-89283903D02*
X125259211Y-89474379D01*
X125259211Y-89474379D02*
X125211592Y-89569617D01*
X125211592Y-89569617D02*
X125116354Y-89664856D01*
X125116354Y-89664856D02*
X124973497Y-89712475D01*
X124973497Y-89712475D02*
X124878259Y-89712475D01*
X124878259Y-89712475D02*
X124735402Y-89664856D01*
X124735402Y-89664856D02*
X124687783Y-89617236D01*
X124687783Y-89617236D02*
X124687783Y-89283903D01*
X124687783Y-89283903D02*
X124878259Y-89283903D01*
X124259211Y-88712475D02*
X124259211Y-89521998D01*
X124259211Y-89521998D02*
X124211592Y-89617236D01*
X124211592Y-89617236D02*
X124163973Y-89664856D01*
X124163973Y-89664856D02*
X124068735Y-89712475D01*
X124068735Y-89712475D02*
X123878259Y-89712475D01*
X123878259Y-89712475D02*
X123783021Y-89664856D01*
X123783021Y-89664856D02*
X123735402Y-89617236D01*
X123735402Y-89617236D02*
X123687783Y-89521998D01*
X123687783Y-89521998D02*
X123687783Y-88712475D01*
X123211592Y-89188665D02*
X122878259Y-89188665D01*
X122735402Y-89712475D02*
X123211592Y-89712475D01*
X123211592Y-89712475D02*
X123211592Y-88712475D01*
X123211592Y-88712475D02*
X122735402Y-88712475D01*
X132021115Y-91322419D02*
X132021115Y-90322419D01*
X131354449Y-90322419D02*
X131163973Y-90322419D01*
X131163973Y-90322419D02*
X131068735Y-90370038D01*
X131068735Y-90370038D02*
X130973497Y-90465276D01*
X130973497Y-90465276D02*
X130925878Y-90655752D01*
X130925878Y-90655752D02*
X130925878Y-90989085D01*
X130925878Y-90989085D02*
X130973497Y-91179561D01*
X130973497Y-91179561D02*
X131068735Y-91274800D01*
X131068735Y-91274800D02*
X131163973Y-91322419D01*
X131163973Y-91322419D02*
X131354449Y-91322419D01*
X131354449Y-91322419D02*
X131449687Y-91274800D01*
X131449687Y-91274800D02*
X131544925Y-91179561D01*
X131544925Y-91179561D02*
X131592544Y-90989085D01*
X131592544Y-90989085D02*
X131592544Y-90655752D01*
X131592544Y-90655752D02*
X131544925Y-90465276D01*
X131544925Y-90465276D02*
X131449687Y-90370038D01*
X131449687Y-90370038D02*
X131354449Y-90322419D01*
X129973497Y-91322419D02*
X130544925Y-91322419D01*
X130259211Y-91322419D02*
X130259211Y-90322419D01*
X130259211Y-90322419D02*
X130354449Y-90465276D01*
X130354449Y-90465276D02*
X130449687Y-90560514D01*
X130449687Y-90560514D02*
X130544925Y-90608133D01*
X129544925Y-90941466D02*
X128783021Y-90941466D01*
X128449687Y-90322419D02*
X127878259Y-90322419D01*
X128163973Y-91322419D02*
X128163973Y-90322419D01*
X127544925Y-90798609D02*
X127211592Y-90798609D01*
X127068735Y-91322419D02*
X127544925Y-91322419D01*
X127544925Y-91322419D02*
X127544925Y-90322419D01*
X127544925Y-90322419D02*
X127068735Y-90322419D01*
X126640163Y-91322419D02*
X126640163Y-90322419D01*
X126640163Y-90322419D02*
X126068735Y-91322419D01*
X126068735Y-91322419D02*
X126068735Y-90322419D01*
X125592544Y-91322419D02*
X125592544Y-90322419D01*
X125592544Y-90322419D02*
X125354449Y-90322419D01*
X125354449Y-90322419D02*
X125211592Y-90370038D01*
X125211592Y-90370038D02*
X125116354Y-90465276D01*
X125116354Y-90465276D02*
X125068735Y-90560514D01*
X125068735Y-90560514D02*
X125021116Y-90750990D01*
X125021116Y-90750990D02*
X125021116Y-90893847D01*
X125021116Y-90893847D02*
X125068735Y-91084323D01*
X125068735Y-91084323D02*
X125116354Y-91179561D01*
X125116354Y-91179561D02*
X125211592Y-91274800D01*
X125211592Y-91274800D02*
X125354449Y-91322419D01*
X125354449Y-91322419D02*
X125592544Y-91322419D01*
X124592544Y-90798609D02*
X124259211Y-90798609D01*
X124116354Y-91322419D02*
X124592544Y-91322419D01*
X124592544Y-91322419D02*
X124592544Y-90322419D01*
X124592544Y-90322419D02*
X124116354Y-90322419D01*
X123116354Y-91322419D02*
X123449687Y-90846228D01*
X123687782Y-91322419D02*
X123687782Y-90322419D01*
X123687782Y-90322419D02*
X123306830Y-90322419D01*
X123306830Y-90322419D02*
X123211592Y-90370038D01*
X123211592Y-90370038D02*
X123163973Y-90417657D01*
X123163973Y-90417657D02*
X123116354Y-90512895D01*
X123116354Y-90512895D02*
X123116354Y-90655752D01*
X123116354Y-90655752D02*
X123163973Y-90750990D01*
X123163973Y-90750990D02*
X123211592Y-90798609D01*
X123211592Y-90798609D02*
X123306830Y-90846228D01*
X123306830Y-90846228D02*
X123687782Y-90846228D01*
X121925877Y-91322419D02*
X121925877Y-90322419D01*
X121925877Y-90322419D02*
X121687782Y-90322419D01*
X121687782Y-90322419D02*
X121544925Y-90370038D01*
X121544925Y-90370038D02*
X121449687Y-90465276D01*
X121449687Y-90465276D02*
X121402068Y-90560514D01*
X121402068Y-90560514D02*
X121354449Y-90750990D01*
X121354449Y-90750990D02*
X121354449Y-90893847D01*
X121354449Y-90893847D02*
X121402068Y-91084323D01*
X121402068Y-91084323D02*
X121449687Y-91179561D01*
X121449687Y-91179561D02*
X121544925Y-91274800D01*
X121544925Y-91274800D02*
X121687782Y-91322419D01*
X121687782Y-91322419D02*
X121925877Y-91322419D01*
X120925877Y-90798609D02*
X120592544Y-90798609D01*
X120449687Y-91322419D02*
X120925877Y-91322419D01*
X120925877Y-91322419D02*
X120925877Y-90322419D01*
X120925877Y-90322419D02*
X120449687Y-90322419D01*
X120068734Y-91274800D02*
X119925877Y-91322419D01*
X119925877Y-91322419D02*
X119687782Y-91322419D01*
X119687782Y-91322419D02*
X119592544Y-91274800D01*
X119592544Y-91274800D02*
X119544925Y-91227180D01*
X119544925Y-91227180D02*
X119497306Y-91131942D01*
X119497306Y-91131942D02*
X119497306Y-91036704D01*
X119497306Y-91036704D02*
X119544925Y-90941466D01*
X119544925Y-90941466D02*
X119592544Y-90893847D01*
X119592544Y-90893847D02*
X119687782Y-90846228D01*
X119687782Y-90846228D02*
X119878258Y-90798609D01*
X119878258Y-90798609D02*
X119973496Y-90750990D01*
X119973496Y-90750990D02*
X120021115Y-90703371D01*
X120021115Y-90703371D02*
X120068734Y-90608133D01*
X120068734Y-90608133D02*
X120068734Y-90512895D01*
X120068734Y-90512895D02*
X120021115Y-90417657D01*
X120021115Y-90417657D02*
X119973496Y-90370038D01*
X119973496Y-90370038D02*
X119878258Y-90322419D01*
X119878258Y-90322419D02*
X119640163Y-90322419D01*
X119640163Y-90322419D02*
X119497306Y-90370038D01*
X118497306Y-91227180D02*
X118544925Y-91274800D01*
X118544925Y-91274800D02*
X118687782Y-91322419D01*
X118687782Y-91322419D02*
X118783020Y-91322419D01*
X118783020Y-91322419D02*
X118925877Y-91274800D01*
X118925877Y-91274800D02*
X119021115Y-91179561D01*
X119021115Y-91179561D02*
X119068734Y-91084323D01*
X119068734Y-91084323D02*
X119116353Y-90893847D01*
X119116353Y-90893847D02*
X119116353Y-90750990D01*
X119116353Y-90750990D02*
X119068734Y-90560514D01*
X119068734Y-90560514D02*
X119021115Y-90465276D01*
X119021115Y-90465276D02*
X118925877Y-90370038D01*
X118925877Y-90370038D02*
X118783020Y-90322419D01*
X118783020Y-90322419D02*
X118687782Y-90322419D01*
X118687782Y-90322419D02*
X118544925Y-90370038D01*
X118544925Y-90370038D02*
X118497306Y-90417657D01*
X118068734Y-90798609D02*
X117735401Y-90798609D01*
X117592544Y-91322419D02*
X118068734Y-91322419D01*
X118068734Y-91322419D02*
X118068734Y-90322419D01*
X118068734Y-90322419D02*
X117592544Y-90322419D01*
X117163972Y-91322419D02*
X117163972Y-90322419D01*
X117163972Y-90322419D02*
X116592544Y-91322419D01*
X116592544Y-91322419D02*
X116592544Y-90322419D01*
X116116353Y-91322419D02*
X116116353Y-90322419D01*
X116116353Y-90322419D02*
X115878258Y-90322419D01*
X115878258Y-90322419D02*
X115735401Y-90370038D01*
X115735401Y-90370038D02*
X115640163Y-90465276D01*
X115640163Y-90465276D02*
X115592544Y-90560514D01*
X115592544Y-90560514D02*
X115544925Y-90750990D01*
X115544925Y-90750990D02*
X115544925Y-90893847D01*
X115544925Y-90893847D02*
X115592544Y-91084323D01*
X115592544Y-91084323D02*
X115640163Y-91179561D01*
X115640163Y-91179561D02*
X115735401Y-91274800D01*
X115735401Y-91274800D02*
X115878258Y-91322419D01*
X115878258Y-91322419D02*
X116116353Y-91322419D01*
X115116353Y-90798609D02*
X114783020Y-90798609D01*
X114640163Y-91322419D02*
X115116353Y-91322419D01*
X115116353Y-91322419D02*
X115116353Y-90322419D01*
X115116353Y-90322419D02*
X114640163Y-90322419D01*
X113640163Y-91322419D02*
X113973496Y-90846228D01*
X114211591Y-91322419D02*
X114211591Y-90322419D01*
X114211591Y-90322419D02*
X113830639Y-90322419D01*
X113830639Y-90322419D02*
X113735401Y-90370038D01*
X113735401Y-90370038D02*
X113687782Y-90417657D01*
X113687782Y-90417657D02*
X113640163Y-90512895D01*
X113640163Y-90512895D02*
X113640163Y-90655752D01*
X113640163Y-90655752D02*
X113687782Y-90750990D01*
X113687782Y-90750990D02*
X113735401Y-90798609D01*
X113735401Y-90798609D02*
X113830639Y-90846228D01*
X113830639Y-90846228D02*
X114211591Y-90846228D01*
X155343734Y-80329912D02*
X155200877Y-80377531D01*
X155200877Y-80377531D02*
X154962782Y-80377531D01*
X154962782Y-80377531D02*
X154867544Y-80329912D01*
X154867544Y-80329912D02*
X154819925Y-80282292D01*
X154819925Y-80282292D02*
X154772306Y-80187054D01*
X154772306Y-80187054D02*
X154772306Y-80091816D01*
X154772306Y-80091816D02*
X154819925Y-79996578D01*
X154819925Y-79996578D02*
X154867544Y-79948959D01*
X154867544Y-79948959D02*
X154962782Y-79901340D01*
X154962782Y-79901340D02*
X155153258Y-79853721D01*
X155153258Y-79853721D02*
X155248496Y-79806102D01*
X155248496Y-79806102D02*
X155296115Y-79758483D01*
X155296115Y-79758483D02*
X155343734Y-79663245D01*
X155343734Y-79663245D02*
X155343734Y-79568007D01*
X155343734Y-79568007D02*
X155296115Y-79472769D01*
X155296115Y-79472769D02*
X155248496Y-79425150D01*
X155248496Y-79425150D02*
X155153258Y-79377531D01*
X155153258Y-79377531D02*
X154915163Y-79377531D01*
X154915163Y-79377531D02*
X154772306Y-79425150D01*
X154438972Y-79377531D02*
X153819925Y-79377531D01*
X153819925Y-79377531D02*
X154153258Y-79758483D01*
X154153258Y-79758483D02*
X154010401Y-79758483D01*
X154010401Y-79758483D02*
X153915163Y-79806102D01*
X153915163Y-79806102D02*
X153867544Y-79853721D01*
X153867544Y-79853721D02*
X153819925Y-79948959D01*
X153819925Y-79948959D02*
X153819925Y-80187054D01*
X153819925Y-80187054D02*
X153867544Y-80282292D01*
X153867544Y-80282292D02*
X153915163Y-80329912D01*
X153915163Y-80329912D02*
X154010401Y-80377531D01*
X154010401Y-80377531D02*
X154296115Y-80377531D01*
X154296115Y-80377531D02*
X154391353Y-80329912D01*
X154391353Y-80329912D02*
X154438972Y-80282292D01*
X152724686Y-79377531D02*
X152486591Y-80377531D01*
X152486591Y-80377531D02*
X152296115Y-79663245D01*
X152296115Y-79663245D02*
X152105639Y-80377531D01*
X152105639Y-80377531D02*
X151867544Y-79377531D01*
X150915163Y-80377531D02*
X151248496Y-79901340D01*
X151486591Y-80377531D02*
X151486591Y-79377531D01*
X151486591Y-79377531D02*
X151105639Y-79377531D01*
X151105639Y-79377531D02*
X151010401Y-79425150D01*
X151010401Y-79425150D02*
X150962782Y-79472769D01*
X150962782Y-79472769D02*
X150915163Y-79568007D01*
X150915163Y-79568007D02*
X150915163Y-79710864D01*
X150915163Y-79710864D02*
X150962782Y-79806102D01*
X150962782Y-79806102D02*
X151010401Y-79853721D01*
X151010401Y-79853721D02*
X151105639Y-79901340D01*
X151105639Y-79901340D02*
X151486591Y-79901340D01*
X150296115Y-79377531D02*
X150105639Y-79377531D01*
X150105639Y-79377531D02*
X150010401Y-79425150D01*
X150010401Y-79425150D02*
X149915163Y-79520388D01*
X149915163Y-79520388D02*
X149867544Y-79710864D01*
X149867544Y-79710864D02*
X149867544Y-80044197D01*
X149867544Y-80044197D02*
X149915163Y-80234673D01*
X149915163Y-80234673D02*
X150010401Y-80329912D01*
X150010401Y-80329912D02*
X150105639Y-80377531D01*
X150105639Y-80377531D02*
X150296115Y-80377531D01*
X150296115Y-80377531D02*
X150391353Y-80329912D01*
X150391353Y-80329912D02*
X150486591Y-80234673D01*
X150486591Y-80234673D02*
X150534210Y-80044197D01*
X150534210Y-80044197D02*
X150534210Y-79710864D01*
X150534210Y-79710864D02*
X150486591Y-79520388D01*
X150486591Y-79520388D02*
X150391353Y-79425150D01*
X150391353Y-79425150D02*
X150296115Y-79377531D01*
X149248496Y-79377531D02*
X149058020Y-79377531D01*
X149058020Y-79377531D02*
X148962782Y-79425150D01*
X148962782Y-79425150D02*
X148867544Y-79520388D01*
X148867544Y-79520388D02*
X148819925Y-79710864D01*
X148819925Y-79710864D02*
X148819925Y-80044197D01*
X148819925Y-80044197D02*
X148867544Y-80234673D01*
X148867544Y-80234673D02*
X148962782Y-80329912D01*
X148962782Y-80329912D02*
X149058020Y-80377531D01*
X149058020Y-80377531D02*
X149248496Y-80377531D01*
X149248496Y-80377531D02*
X149343734Y-80329912D01*
X149343734Y-80329912D02*
X149438972Y-80234673D01*
X149438972Y-80234673D02*
X149486591Y-80044197D01*
X149486591Y-80044197D02*
X149486591Y-79710864D01*
X149486591Y-79710864D02*
X149438972Y-79520388D01*
X149438972Y-79520388D02*
X149343734Y-79425150D01*
X149343734Y-79425150D02*
X149248496Y-79377531D01*
X148391353Y-80377531D02*
X148391353Y-79377531D01*
X148391353Y-79377531D02*
X148058020Y-80091816D01*
X148058020Y-80091816D02*
X147724687Y-79377531D01*
X147724687Y-79377531D02*
X147724687Y-80377531D01*
X145677067Y-80377531D02*
X145724687Y-80377531D01*
X145724687Y-80377531D02*
X145819925Y-80329912D01*
X145819925Y-80329912D02*
X145962782Y-80187054D01*
X145962782Y-80187054D02*
X146200877Y-79901340D01*
X146200877Y-79901340D02*
X146296115Y-79758483D01*
X146296115Y-79758483D02*
X146343734Y-79615626D01*
X146343734Y-79615626D02*
X146343734Y-79520388D01*
X146343734Y-79520388D02*
X146296115Y-79425150D01*
X146296115Y-79425150D02*
X146200877Y-79377531D01*
X146200877Y-79377531D02*
X146153258Y-79377531D01*
X146153258Y-79377531D02*
X146058020Y-79425150D01*
X146058020Y-79425150D02*
X146010401Y-79520388D01*
X146010401Y-79520388D02*
X146010401Y-79568007D01*
X146010401Y-79568007D02*
X146058020Y-79663245D01*
X146058020Y-79663245D02*
X146105639Y-79710864D01*
X146105639Y-79710864D02*
X146391353Y-79901340D01*
X146391353Y-79901340D02*
X146438972Y-79948959D01*
X146438972Y-79948959D02*
X146486591Y-80044197D01*
X146486591Y-80044197D02*
X146486591Y-80187054D01*
X146486591Y-80187054D02*
X146438972Y-80282292D01*
X146438972Y-80282292D02*
X146391353Y-80329912D01*
X146391353Y-80329912D02*
X146296115Y-80377531D01*
X146296115Y-80377531D02*
X146153258Y-80377531D01*
X146153258Y-80377531D02*
X146058020Y-80329912D01*
X146058020Y-80329912D02*
X146010401Y-80282292D01*
X146010401Y-80282292D02*
X145867544Y-80091816D01*
X145867544Y-80091816D02*
X145819925Y-79948959D01*
X145819925Y-79948959D02*
X145819925Y-79853721D01*
X144486591Y-80377531D02*
X144486591Y-79377531D01*
X144486591Y-79377531D02*
X144153258Y-80091816D01*
X144153258Y-80091816D02*
X143819925Y-79377531D01*
X143819925Y-79377531D02*
X143819925Y-80377531D01*
X143343734Y-80377531D02*
X143343734Y-79377531D01*
X142867544Y-80377531D02*
X142867544Y-79377531D01*
X142867544Y-79377531D02*
X142296116Y-80377531D01*
X142296116Y-80377531D02*
X142296116Y-79377531D01*
X141819925Y-80377531D02*
X141819925Y-79377531D01*
X140581830Y-80377531D02*
X140581830Y-79377531D01*
X140153259Y-79472769D02*
X140105640Y-79425150D01*
X140105640Y-79425150D02*
X140010402Y-79377531D01*
X140010402Y-79377531D02*
X139772307Y-79377531D01*
X139772307Y-79377531D02*
X139677069Y-79425150D01*
X139677069Y-79425150D02*
X139629450Y-79472769D01*
X139629450Y-79472769D02*
X139581831Y-79568007D01*
X139581831Y-79568007D02*
X139581831Y-79663245D01*
X139581831Y-79663245D02*
X139629450Y-79806102D01*
X139629450Y-79806102D02*
X140200878Y-80377531D01*
X140200878Y-80377531D02*
X139581831Y-80377531D01*
X138581831Y-80282292D02*
X138629450Y-80329912D01*
X138629450Y-80329912D02*
X138772307Y-80377531D01*
X138772307Y-80377531D02*
X138867545Y-80377531D01*
X138867545Y-80377531D02*
X139010402Y-80329912D01*
X139010402Y-80329912D02*
X139105640Y-80234673D01*
X139105640Y-80234673D02*
X139153259Y-80139435D01*
X139153259Y-80139435D02*
X139200878Y-79948959D01*
X139200878Y-79948959D02*
X139200878Y-79806102D01*
X139200878Y-79806102D02*
X139153259Y-79615626D01*
X139153259Y-79615626D02*
X139105640Y-79520388D01*
X139105640Y-79520388D02*
X139010402Y-79425150D01*
X139010402Y-79425150D02*
X138867545Y-79377531D01*
X138867545Y-79377531D02*
X138772307Y-79377531D01*
X138772307Y-79377531D02*
X138629450Y-79425150D01*
X138629450Y-79425150D02*
X138581831Y-79472769D01*
X155391353Y-80987475D02*
X155153258Y-81987475D01*
X155153258Y-81987475D02*
X154962782Y-81273189D01*
X154962782Y-81273189D02*
X154772306Y-81987475D01*
X154772306Y-81987475D02*
X154534211Y-80987475D01*
X153581830Y-81987475D02*
X153915163Y-81511284D01*
X154153258Y-81987475D02*
X154153258Y-80987475D01*
X154153258Y-80987475D02*
X153772306Y-80987475D01*
X153772306Y-80987475D02*
X153677068Y-81035094D01*
X153677068Y-81035094D02*
X153629449Y-81082713D01*
X153629449Y-81082713D02*
X153581830Y-81177951D01*
X153581830Y-81177951D02*
X153581830Y-81320808D01*
X153581830Y-81320808D02*
X153629449Y-81416046D01*
X153629449Y-81416046D02*
X153677068Y-81463665D01*
X153677068Y-81463665D02*
X153772306Y-81511284D01*
X153772306Y-81511284D02*
X154153258Y-81511284D01*
X152962782Y-80987475D02*
X152772306Y-80987475D01*
X152772306Y-80987475D02*
X152677068Y-81035094D01*
X152677068Y-81035094D02*
X152581830Y-81130332D01*
X152581830Y-81130332D02*
X152534211Y-81320808D01*
X152534211Y-81320808D02*
X152534211Y-81654141D01*
X152534211Y-81654141D02*
X152581830Y-81844617D01*
X152581830Y-81844617D02*
X152677068Y-81939856D01*
X152677068Y-81939856D02*
X152772306Y-81987475D01*
X152772306Y-81987475D02*
X152962782Y-81987475D01*
X152962782Y-81987475D02*
X153058020Y-81939856D01*
X153058020Y-81939856D02*
X153153258Y-81844617D01*
X153153258Y-81844617D02*
X153200877Y-81654141D01*
X153200877Y-81654141D02*
X153200877Y-81320808D01*
X153200877Y-81320808D02*
X153153258Y-81130332D01*
X153153258Y-81130332D02*
X153058020Y-81035094D01*
X153058020Y-81035094D02*
X152962782Y-80987475D01*
X151915163Y-80987475D02*
X151724687Y-80987475D01*
X151724687Y-80987475D02*
X151629449Y-81035094D01*
X151629449Y-81035094D02*
X151534211Y-81130332D01*
X151534211Y-81130332D02*
X151486592Y-81320808D01*
X151486592Y-81320808D02*
X151486592Y-81654141D01*
X151486592Y-81654141D02*
X151534211Y-81844617D01*
X151534211Y-81844617D02*
X151629449Y-81939856D01*
X151629449Y-81939856D02*
X151724687Y-81987475D01*
X151724687Y-81987475D02*
X151915163Y-81987475D01*
X151915163Y-81987475D02*
X152010401Y-81939856D01*
X152010401Y-81939856D02*
X152105639Y-81844617D01*
X152105639Y-81844617D02*
X152153258Y-81654141D01*
X152153258Y-81654141D02*
X152153258Y-81320808D01*
X152153258Y-81320808D02*
X152105639Y-81130332D01*
X152105639Y-81130332D02*
X152010401Y-81035094D01*
X152010401Y-81035094D02*
X151915163Y-80987475D01*
X151058020Y-81987475D02*
X151058020Y-80987475D01*
X151058020Y-80987475D02*
X150724687Y-81701760D01*
X150724687Y-81701760D02*
X150391354Y-80987475D01*
X150391354Y-80987475D02*
X150391354Y-81987475D01*
X149153258Y-81987475D02*
X149153258Y-80987475D01*
X148486592Y-80987475D02*
X148296116Y-80987475D01*
X148296116Y-80987475D02*
X148200878Y-81035094D01*
X148200878Y-81035094D02*
X148105640Y-81130332D01*
X148105640Y-81130332D02*
X148058021Y-81320808D01*
X148058021Y-81320808D02*
X148058021Y-81654141D01*
X148058021Y-81654141D02*
X148105640Y-81844617D01*
X148105640Y-81844617D02*
X148200878Y-81939856D01*
X148200878Y-81939856D02*
X148296116Y-81987475D01*
X148296116Y-81987475D02*
X148486592Y-81987475D01*
X148486592Y-81987475D02*
X148581830Y-81939856D01*
X148581830Y-81939856D02*
X148677068Y-81844617D01*
X148677068Y-81844617D02*
X148724687Y-81654141D01*
X148724687Y-81654141D02*
X148724687Y-81320808D01*
X148724687Y-81320808D02*
X148677068Y-81130332D01*
X148677068Y-81130332D02*
X148581830Y-81035094D01*
X148581830Y-81035094D02*
X148486592Y-80987475D01*
X147724687Y-80987475D02*
X147105640Y-80987475D01*
X147105640Y-80987475D02*
X147438973Y-81368427D01*
X147438973Y-81368427D02*
X147296116Y-81368427D01*
X147296116Y-81368427D02*
X147200878Y-81416046D01*
X147200878Y-81416046D02*
X147153259Y-81463665D01*
X147153259Y-81463665D02*
X147105640Y-81558903D01*
X147105640Y-81558903D02*
X147105640Y-81796998D01*
X147105640Y-81796998D02*
X147153259Y-81892236D01*
X147153259Y-81892236D02*
X147200878Y-81939856D01*
X147200878Y-81939856D02*
X147296116Y-81987475D01*
X147296116Y-81987475D02*
X147581830Y-81987475D01*
X147581830Y-81987475D02*
X147677068Y-81939856D01*
X147677068Y-81939856D02*
X147724687Y-81892236D01*
X146629449Y-81987475D02*
X146438973Y-81987475D01*
X146438973Y-81987475D02*
X146343735Y-81939856D01*
X146343735Y-81939856D02*
X146296116Y-81892236D01*
X146296116Y-81892236D02*
X146200878Y-81749379D01*
X146200878Y-81749379D02*
X146153259Y-81558903D01*
X146153259Y-81558903D02*
X146153259Y-81177951D01*
X146153259Y-81177951D02*
X146200878Y-81082713D01*
X146200878Y-81082713D02*
X146248497Y-81035094D01*
X146248497Y-81035094D02*
X146343735Y-80987475D01*
X146343735Y-80987475D02*
X146534211Y-80987475D01*
X146534211Y-80987475D02*
X146629449Y-81035094D01*
X146629449Y-81035094D02*
X146677068Y-81082713D01*
X146677068Y-81082713D02*
X146724687Y-81177951D01*
X146724687Y-81177951D02*
X146724687Y-81416046D01*
X146724687Y-81416046D02*
X146677068Y-81511284D01*
X146677068Y-81511284D02*
X146629449Y-81558903D01*
X146629449Y-81558903D02*
X146534211Y-81606522D01*
X146534211Y-81606522D02*
X146343735Y-81606522D01*
X146343735Y-81606522D02*
X146248497Y-81558903D01*
X146248497Y-81558903D02*
X146200878Y-81511284D01*
X146200878Y-81511284D02*
X146153259Y-81416046D01*
X145724687Y-81606522D02*
X144962783Y-81606522D01*
X144486592Y-81987475D02*
X144486592Y-80987475D01*
X144486592Y-80987475D02*
X144153259Y-81701760D01*
X144153259Y-81701760D02*
X143819926Y-80987475D01*
X143819926Y-80987475D02*
X143819926Y-81987475D01*
X143343735Y-81987475D02*
X143343735Y-80987475D01*
X142867545Y-81987475D02*
X142867545Y-80987475D01*
X142867545Y-80987475D02*
X142296117Y-81987475D01*
X142296117Y-81987475D02*
X142296117Y-80987475D01*
X141819926Y-81987475D02*
X141819926Y-80987475D01*
X140581831Y-81987475D02*
X140581831Y-80987475D01*
X139915165Y-80987475D02*
X139724689Y-80987475D01*
X139724689Y-80987475D02*
X139629451Y-81035094D01*
X139629451Y-81035094D02*
X139534213Y-81130332D01*
X139534213Y-81130332D02*
X139486594Y-81320808D01*
X139486594Y-81320808D02*
X139486594Y-81654141D01*
X139486594Y-81654141D02*
X139534213Y-81844617D01*
X139534213Y-81844617D02*
X139629451Y-81939856D01*
X139629451Y-81939856D02*
X139724689Y-81987475D01*
X139724689Y-81987475D02*
X139915165Y-81987475D01*
X139915165Y-81987475D02*
X140010403Y-81939856D01*
X140010403Y-81939856D02*
X140105641Y-81844617D01*
X140105641Y-81844617D02*
X140153260Y-81654141D01*
X140153260Y-81654141D02*
X140153260Y-81320808D01*
X140153260Y-81320808D02*
X140105641Y-81130332D01*
X140105641Y-81130332D02*
X140010403Y-81035094D01*
X140010403Y-81035094D02*
X139915165Y-80987475D01*
X139105641Y-81082713D02*
X139058022Y-81035094D01*
X139058022Y-81035094D02*
X138962784Y-80987475D01*
X138962784Y-80987475D02*
X138724689Y-80987475D01*
X138724689Y-80987475D02*
X138629451Y-81035094D01*
X138629451Y-81035094D02*
X138581832Y-81082713D01*
X138581832Y-81082713D02*
X138534213Y-81177951D01*
X138534213Y-81177951D02*
X138534213Y-81273189D01*
X138534213Y-81273189D02*
X138581832Y-81416046D01*
X138581832Y-81416046D02*
X139153260Y-81987475D01*
X139153260Y-81987475D02*
X138534213Y-81987475D01*
X137058022Y-82368427D02*
X137105641Y-82320808D01*
X137105641Y-82320808D02*
X137200879Y-82177951D01*
X137200879Y-82177951D02*
X137248498Y-82082713D01*
X137248498Y-82082713D02*
X137296117Y-81939856D01*
X137296117Y-81939856D02*
X137343736Y-81701760D01*
X137343736Y-81701760D02*
X137343736Y-81511284D01*
X137343736Y-81511284D02*
X137296117Y-81273189D01*
X137296117Y-81273189D02*
X137248498Y-81130332D01*
X137248498Y-81130332D02*
X137200879Y-81035094D01*
X137200879Y-81035094D02*
X137105641Y-80892236D01*
X137105641Y-80892236D02*
X137058022Y-80844617D01*
X136724688Y-81939856D02*
X136581831Y-81987475D01*
X136581831Y-81987475D02*
X136343736Y-81987475D01*
X136343736Y-81987475D02*
X136248498Y-81939856D01*
X136248498Y-81939856D02*
X136200879Y-81892236D01*
X136200879Y-81892236D02*
X136153260Y-81796998D01*
X136153260Y-81796998D02*
X136153260Y-81701760D01*
X136153260Y-81701760D02*
X136200879Y-81606522D01*
X136200879Y-81606522D02*
X136248498Y-81558903D01*
X136248498Y-81558903D02*
X136343736Y-81511284D01*
X136343736Y-81511284D02*
X136534212Y-81463665D01*
X136534212Y-81463665D02*
X136629450Y-81416046D01*
X136629450Y-81416046D02*
X136677069Y-81368427D01*
X136677069Y-81368427D02*
X136724688Y-81273189D01*
X136724688Y-81273189D02*
X136724688Y-81177951D01*
X136724688Y-81177951D02*
X136677069Y-81082713D01*
X136677069Y-81082713D02*
X136629450Y-81035094D01*
X136629450Y-81035094D02*
X136534212Y-80987475D01*
X136534212Y-80987475D02*
X136296117Y-80987475D01*
X136296117Y-80987475D02*
X136153260Y-81035094D01*
X135153260Y-81892236D02*
X135200879Y-81939856D01*
X135200879Y-81939856D02*
X135343736Y-81987475D01*
X135343736Y-81987475D02*
X135438974Y-81987475D01*
X135438974Y-81987475D02*
X135581831Y-81939856D01*
X135581831Y-81939856D02*
X135677069Y-81844617D01*
X135677069Y-81844617D02*
X135724688Y-81749379D01*
X135724688Y-81749379D02*
X135772307Y-81558903D01*
X135772307Y-81558903D02*
X135772307Y-81416046D01*
X135772307Y-81416046D02*
X135724688Y-81225570D01*
X135724688Y-81225570D02*
X135677069Y-81130332D01*
X135677069Y-81130332D02*
X135581831Y-81035094D01*
X135581831Y-81035094D02*
X135438974Y-80987475D01*
X135438974Y-80987475D02*
X135343736Y-80987475D01*
X135343736Y-80987475D02*
X135200879Y-81035094D01*
X135200879Y-81035094D02*
X135153260Y-81082713D01*
X134248498Y-81987475D02*
X134724688Y-81987475D01*
X134724688Y-81987475D02*
X134724688Y-80987475D01*
X134010402Y-82368427D02*
X133962783Y-82320808D01*
X133962783Y-82320808D02*
X133867545Y-82177951D01*
X133867545Y-82177951D02*
X133819926Y-82082713D01*
X133819926Y-82082713D02*
X133772307Y-81939856D01*
X133772307Y-81939856D02*
X133724688Y-81701760D01*
X133724688Y-81701760D02*
X133724688Y-81511284D01*
X133724688Y-81511284D02*
X133772307Y-81273189D01*
X133772307Y-81273189D02*
X133819926Y-81130332D01*
X133819926Y-81130332D02*
X133867545Y-81035094D01*
X133867545Y-81035094D02*
X133962783Y-80892236D01*
X133962783Y-80892236D02*
X134010402Y-80844617D01*
X155391353Y-82597419D02*
X155153258Y-83597419D01*
X155153258Y-83597419D02*
X154962782Y-82883133D01*
X154962782Y-82883133D02*
X154772306Y-83597419D01*
X154772306Y-83597419D02*
X154534211Y-82597419D01*
X153581830Y-83597419D02*
X153915163Y-83121228D01*
X154153258Y-83597419D02*
X154153258Y-82597419D01*
X154153258Y-82597419D02*
X153772306Y-82597419D01*
X153772306Y-82597419D02*
X153677068Y-82645038D01*
X153677068Y-82645038D02*
X153629449Y-82692657D01*
X153629449Y-82692657D02*
X153581830Y-82787895D01*
X153581830Y-82787895D02*
X153581830Y-82930752D01*
X153581830Y-82930752D02*
X153629449Y-83025990D01*
X153629449Y-83025990D02*
X153677068Y-83073609D01*
X153677068Y-83073609D02*
X153772306Y-83121228D01*
X153772306Y-83121228D02*
X154153258Y-83121228D01*
X152962782Y-82597419D02*
X152772306Y-82597419D01*
X152772306Y-82597419D02*
X152677068Y-82645038D01*
X152677068Y-82645038D02*
X152581830Y-82740276D01*
X152581830Y-82740276D02*
X152534211Y-82930752D01*
X152534211Y-82930752D02*
X152534211Y-83264085D01*
X152534211Y-83264085D02*
X152581830Y-83454561D01*
X152581830Y-83454561D02*
X152677068Y-83549800D01*
X152677068Y-83549800D02*
X152772306Y-83597419D01*
X152772306Y-83597419D02*
X152962782Y-83597419D01*
X152962782Y-83597419D02*
X153058020Y-83549800D01*
X153058020Y-83549800D02*
X153153258Y-83454561D01*
X153153258Y-83454561D02*
X153200877Y-83264085D01*
X153200877Y-83264085D02*
X153200877Y-82930752D01*
X153200877Y-82930752D02*
X153153258Y-82740276D01*
X153153258Y-82740276D02*
X153058020Y-82645038D01*
X153058020Y-82645038D02*
X152962782Y-82597419D01*
X151915163Y-82597419D02*
X151724687Y-82597419D01*
X151724687Y-82597419D02*
X151629449Y-82645038D01*
X151629449Y-82645038D02*
X151534211Y-82740276D01*
X151534211Y-82740276D02*
X151486592Y-82930752D01*
X151486592Y-82930752D02*
X151486592Y-83264085D01*
X151486592Y-83264085D02*
X151534211Y-83454561D01*
X151534211Y-83454561D02*
X151629449Y-83549800D01*
X151629449Y-83549800D02*
X151724687Y-83597419D01*
X151724687Y-83597419D02*
X151915163Y-83597419D01*
X151915163Y-83597419D02*
X152010401Y-83549800D01*
X152010401Y-83549800D02*
X152105639Y-83454561D01*
X152105639Y-83454561D02*
X152153258Y-83264085D01*
X152153258Y-83264085D02*
X152153258Y-82930752D01*
X152153258Y-82930752D02*
X152105639Y-82740276D01*
X152105639Y-82740276D02*
X152010401Y-82645038D01*
X152010401Y-82645038D02*
X151915163Y-82597419D01*
X151058020Y-83597419D02*
X151058020Y-82597419D01*
X151058020Y-82597419D02*
X150724687Y-83311704D01*
X150724687Y-83311704D02*
X150391354Y-82597419D01*
X150391354Y-82597419D02*
X150391354Y-83597419D01*
X149153258Y-83597419D02*
X149153258Y-82597419D01*
X148486592Y-82597419D02*
X148296116Y-82597419D01*
X148296116Y-82597419D02*
X148200878Y-82645038D01*
X148200878Y-82645038D02*
X148105640Y-82740276D01*
X148105640Y-82740276D02*
X148058021Y-82930752D01*
X148058021Y-82930752D02*
X148058021Y-83264085D01*
X148058021Y-83264085D02*
X148105640Y-83454561D01*
X148105640Y-83454561D02*
X148200878Y-83549800D01*
X148200878Y-83549800D02*
X148296116Y-83597419D01*
X148296116Y-83597419D02*
X148486592Y-83597419D01*
X148486592Y-83597419D02*
X148581830Y-83549800D01*
X148581830Y-83549800D02*
X148677068Y-83454561D01*
X148677068Y-83454561D02*
X148724687Y-83264085D01*
X148724687Y-83264085D02*
X148724687Y-82930752D01*
X148724687Y-82930752D02*
X148677068Y-82740276D01*
X148677068Y-82740276D02*
X148581830Y-82645038D01*
X148581830Y-82645038D02*
X148486592Y-82597419D01*
X147200878Y-82930752D02*
X147200878Y-83597419D01*
X147438973Y-82549800D02*
X147677068Y-83264085D01*
X147677068Y-83264085D02*
X147058021Y-83264085D01*
X146486592Y-82597419D02*
X146391354Y-82597419D01*
X146391354Y-82597419D02*
X146296116Y-82645038D01*
X146296116Y-82645038D02*
X146248497Y-82692657D01*
X146248497Y-82692657D02*
X146200878Y-82787895D01*
X146200878Y-82787895D02*
X146153259Y-82978371D01*
X146153259Y-82978371D02*
X146153259Y-83216466D01*
X146153259Y-83216466D02*
X146200878Y-83406942D01*
X146200878Y-83406942D02*
X146248497Y-83502180D01*
X146248497Y-83502180D02*
X146296116Y-83549800D01*
X146296116Y-83549800D02*
X146391354Y-83597419D01*
X146391354Y-83597419D02*
X146486592Y-83597419D01*
X146486592Y-83597419D02*
X146581830Y-83549800D01*
X146581830Y-83549800D02*
X146629449Y-83502180D01*
X146629449Y-83502180D02*
X146677068Y-83406942D01*
X146677068Y-83406942D02*
X146724687Y-83216466D01*
X146724687Y-83216466D02*
X146724687Y-82978371D01*
X146724687Y-82978371D02*
X146677068Y-82787895D01*
X146677068Y-82787895D02*
X146629449Y-82692657D01*
X146629449Y-82692657D02*
X146581830Y-82645038D01*
X146581830Y-82645038D02*
X146486592Y-82597419D01*
X145724687Y-83216466D02*
X144962783Y-83216466D01*
X144486592Y-83597419D02*
X144486592Y-82597419D01*
X144486592Y-82597419D02*
X144153259Y-83311704D01*
X144153259Y-83311704D02*
X143819926Y-82597419D01*
X143819926Y-82597419D02*
X143819926Y-83597419D01*
X143343735Y-83597419D02*
X143343735Y-82597419D01*
X142867545Y-83597419D02*
X142867545Y-82597419D01*
X142867545Y-82597419D02*
X142296117Y-83597419D01*
X142296117Y-83597419D02*
X142296117Y-82597419D01*
X141819926Y-83597419D02*
X141819926Y-82597419D01*
X140581831Y-83597419D02*
X140581831Y-82597419D01*
X139915165Y-82597419D02*
X139724689Y-82597419D01*
X139724689Y-82597419D02*
X139629451Y-82645038D01*
X139629451Y-82645038D02*
X139534213Y-82740276D01*
X139534213Y-82740276D02*
X139486594Y-82930752D01*
X139486594Y-82930752D02*
X139486594Y-83264085D01*
X139486594Y-83264085D02*
X139534213Y-83454561D01*
X139534213Y-83454561D02*
X139629451Y-83549800D01*
X139629451Y-83549800D02*
X139724689Y-83597419D01*
X139724689Y-83597419D02*
X139915165Y-83597419D01*
X139915165Y-83597419D02*
X140010403Y-83549800D01*
X140010403Y-83549800D02*
X140105641Y-83454561D01*
X140105641Y-83454561D02*
X140153260Y-83264085D01*
X140153260Y-83264085D02*
X140153260Y-82930752D01*
X140153260Y-82930752D02*
X140105641Y-82740276D01*
X140105641Y-82740276D02*
X140010403Y-82645038D01*
X140010403Y-82645038D02*
X139915165Y-82597419D01*
X139153260Y-82597419D02*
X138534213Y-82597419D01*
X138534213Y-82597419D02*
X138867546Y-82978371D01*
X138867546Y-82978371D02*
X138724689Y-82978371D01*
X138724689Y-82978371D02*
X138629451Y-83025990D01*
X138629451Y-83025990D02*
X138581832Y-83073609D01*
X138581832Y-83073609D02*
X138534213Y-83168847D01*
X138534213Y-83168847D02*
X138534213Y-83406942D01*
X138534213Y-83406942D02*
X138581832Y-83502180D01*
X138581832Y-83502180D02*
X138629451Y-83549800D01*
X138629451Y-83549800D02*
X138724689Y-83597419D01*
X138724689Y-83597419D02*
X139010403Y-83597419D01*
X139010403Y-83597419D02*
X139105641Y-83549800D01*
X139105641Y-83549800D02*
X139153260Y-83502180D01*
X137058022Y-83978371D02*
X137105641Y-83930752D01*
X137105641Y-83930752D02*
X137200879Y-83787895D01*
X137200879Y-83787895D02*
X137248498Y-83692657D01*
X137248498Y-83692657D02*
X137296117Y-83549800D01*
X137296117Y-83549800D02*
X137343736Y-83311704D01*
X137343736Y-83311704D02*
X137343736Y-83121228D01*
X137343736Y-83121228D02*
X137296117Y-82883133D01*
X137296117Y-82883133D02*
X137248498Y-82740276D01*
X137248498Y-82740276D02*
X137200879Y-82645038D01*
X137200879Y-82645038D02*
X137105641Y-82502180D01*
X137105641Y-82502180D02*
X137058022Y-82454561D01*
X136724688Y-83549800D02*
X136581831Y-83597419D01*
X136581831Y-83597419D02*
X136343736Y-83597419D01*
X136343736Y-83597419D02*
X136248498Y-83549800D01*
X136248498Y-83549800D02*
X136200879Y-83502180D01*
X136200879Y-83502180D02*
X136153260Y-83406942D01*
X136153260Y-83406942D02*
X136153260Y-83311704D01*
X136153260Y-83311704D02*
X136200879Y-83216466D01*
X136200879Y-83216466D02*
X136248498Y-83168847D01*
X136248498Y-83168847D02*
X136343736Y-83121228D01*
X136343736Y-83121228D02*
X136534212Y-83073609D01*
X136534212Y-83073609D02*
X136629450Y-83025990D01*
X136629450Y-83025990D02*
X136677069Y-82978371D01*
X136677069Y-82978371D02*
X136724688Y-82883133D01*
X136724688Y-82883133D02*
X136724688Y-82787895D01*
X136724688Y-82787895D02*
X136677069Y-82692657D01*
X136677069Y-82692657D02*
X136629450Y-82645038D01*
X136629450Y-82645038D02*
X136534212Y-82597419D01*
X136534212Y-82597419D02*
X136296117Y-82597419D01*
X136296117Y-82597419D02*
X136153260Y-82645038D01*
X135724688Y-83597419D02*
X135724688Y-82597419D01*
X135724688Y-82597419D02*
X135486593Y-82597419D01*
X135486593Y-82597419D02*
X135343736Y-82645038D01*
X135343736Y-82645038D02*
X135248498Y-82740276D01*
X135248498Y-82740276D02*
X135200879Y-82835514D01*
X135200879Y-82835514D02*
X135153260Y-83025990D01*
X135153260Y-83025990D02*
X135153260Y-83168847D01*
X135153260Y-83168847D02*
X135200879Y-83359323D01*
X135200879Y-83359323D02*
X135248498Y-83454561D01*
X135248498Y-83454561D02*
X135343736Y-83549800D01*
X135343736Y-83549800D02*
X135486593Y-83597419D01*
X135486593Y-83597419D02*
X135724688Y-83597419D01*
X134772307Y-83311704D02*
X134296117Y-83311704D01*
X134867545Y-83597419D02*
X134534212Y-82597419D01*
X134534212Y-82597419D02*
X134200879Y-83597419D01*
X133962783Y-83978371D02*
X133915164Y-83930752D01*
X133915164Y-83930752D02*
X133819926Y-83787895D01*
X133819926Y-83787895D02*
X133772307Y-83692657D01*
X133772307Y-83692657D02*
X133724688Y-83549800D01*
X133724688Y-83549800D02*
X133677069Y-83311704D01*
X133677069Y-83311704D02*
X133677069Y-83121228D01*
X133677069Y-83121228D02*
X133724688Y-82883133D01*
X133724688Y-82883133D02*
X133772307Y-82740276D01*
X133772307Y-82740276D02*
X133819926Y-82645038D01*
X133819926Y-82645038D02*
X133915164Y-82502180D01*
X133915164Y-82502180D02*
X133962783Y-82454561D01*
X138993734Y-69435024D02*
X138850877Y-69482643D01*
X138850877Y-69482643D02*
X138612782Y-69482643D01*
X138612782Y-69482643D02*
X138517544Y-69435024D01*
X138517544Y-69435024D02*
X138469925Y-69387404D01*
X138469925Y-69387404D02*
X138422306Y-69292166D01*
X138422306Y-69292166D02*
X138422306Y-69196928D01*
X138422306Y-69196928D02*
X138469925Y-69101690D01*
X138469925Y-69101690D02*
X138517544Y-69054071D01*
X138517544Y-69054071D02*
X138612782Y-69006452D01*
X138612782Y-69006452D02*
X138803258Y-68958833D01*
X138803258Y-68958833D02*
X138898496Y-68911214D01*
X138898496Y-68911214D02*
X138946115Y-68863595D01*
X138946115Y-68863595D02*
X138993734Y-68768357D01*
X138993734Y-68768357D02*
X138993734Y-68673119D01*
X138993734Y-68673119D02*
X138946115Y-68577881D01*
X138946115Y-68577881D02*
X138898496Y-68530262D01*
X138898496Y-68530262D02*
X138803258Y-68482643D01*
X138803258Y-68482643D02*
X138565163Y-68482643D01*
X138565163Y-68482643D02*
X138422306Y-68530262D01*
X137993734Y-69482643D02*
X137993734Y-68482643D01*
X137993734Y-68482643D02*
X137755639Y-68482643D01*
X137755639Y-68482643D02*
X137612782Y-68530262D01*
X137612782Y-68530262D02*
X137517544Y-68625500D01*
X137517544Y-68625500D02*
X137469925Y-68720738D01*
X137469925Y-68720738D02*
X137422306Y-68911214D01*
X137422306Y-68911214D02*
X137422306Y-69054071D01*
X137422306Y-69054071D02*
X137469925Y-69244547D01*
X137469925Y-69244547D02*
X137517544Y-69339785D01*
X137517544Y-69339785D02*
X137612782Y-69435024D01*
X137612782Y-69435024D02*
X137755639Y-69482643D01*
X137755639Y-69482643D02*
X137993734Y-69482643D01*
X135660401Y-69387404D02*
X135708020Y-69435024D01*
X135708020Y-69435024D02*
X135850877Y-69482643D01*
X135850877Y-69482643D02*
X135946115Y-69482643D01*
X135946115Y-69482643D02*
X136088972Y-69435024D01*
X136088972Y-69435024D02*
X136184210Y-69339785D01*
X136184210Y-69339785D02*
X136231829Y-69244547D01*
X136231829Y-69244547D02*
X136279448Y-69054071D01*
X136279448Y-69054071D02*
X136279448Y-68911214D01*
X136279448Y-68911214D02*
X136231829Y-68720738D01*
X136231829Y-68720738D02*
X136184210Y-68625500D01*
X136184210Y-68625500D02*
X136088972Y-68530262D01*
X136088972Y-68530262D02*
X135946115Y-68482643D01*
X135946115Y-68482643D02*
X135850877Y-68482643D01*
X135850877Y-68482643D02*
X135708020Y-68530262D01*
X135708020Y-68530262D02*
X135660401Y-68577881D01*
X135279448Y-69196928D02*
X134803258Y-69196928D01*
X135374686Y-69482643D02*
X135041353Y-68482643D01*
X135041353Y-68482643D02*
X134708020Y-69482643D01*
X133803258Y-69482643D02*
X134136591Y-69006452D01*
X134374686Y-69482643D02*
X134374686Y-68482643D01*
X134374686Y-68482643D02*
X133993734Y-68482643D01*
X133993734Y-68482643D02*
X133898496Y-68530262D01*
X133898496Y-68530262D02*
X133850877Y-68577881D01*
X133850877Y-68577881D02*
X133803258Y-68673119D01*
X133803258Y-68673119D02*
X133803258Y-68815976D01*
X133803258Y-68815976D02*
X133850877Y-68911214D01*
X133850877Y-68911214D02*
X133898496Y-68958833D01*
X133898496Y-68958833D02*
X133993734Y-69006452D01*
X133993734Y-69006452D02*
X134374686Y-69006452D01*
X133374686Y-69482643D02*
X133374686Y-68482643D01*
X133374686Y-68482643D02*
X133136591Y-68482643D01*
X133136591Y-68482643D02*
X132993734Y-68530262D01*
X132993734Y-68530262D02*
X132898496Y-68625500D01*
X132898496Y-68625500D02*
X132850877Y-68720738D01*
X132850877Y-68720738D02*
X132803258Y-68911214D01*
X132803258Y-68911214D02*
X132803258Y-69054071D01*
X132803258Y-69054071D02*
X132850877Y-69244547D01*
X132850877Y-69244547D02*
X132898496Y-69339785D01*
X132898496Y-69339785D02*
X132993734Y-69435024D01*
X132993734Y-69435024D02*
X133136591Y-69482643D01*
X133136591Y-69482643D02*
X133374686Y-69482643D01*
X138946115Y-71092587D02*
X138946115Y-70092587D01*
X138279449Y-70092587D02*
X138088973Y-70092587D01*
X138088973Y-70092587D02*
X137993735Y-70140206D01*
X137993735Y-70140206D02*
X137898497Y-70235444D01*
X137898497Y-70235444D02*
X137850878Y-70425920D01*
X137850878Y-70425920D02*
X137850878Y-70759253D01*
X137850878Y-70759253D02*
X137898497Y-70949729D01*
X137898497Y-70949729D02*
X137993735Y-71044968D01*
X137993735Y-71044968D02*
X138088973Y-71092587D01*
X138088973Y-71092587D02*
X138279449Y-71092587D01*
X138279449Y-71092587D02*
X138374687Y-71044968D01*
X138374687Y-71044968D02*
X138469925Y-70949729D01*
X138469925Y-70949729D02*
X138517544Y-70759253D01*
X138517544Y-70759253D02*
X138517544Y-70425920D01*
X138517544Y-70425920D02*
X138469925Y-70235444D01*
X138469925Y-70235444D02*
X138374687Y-70140206D01*
X138374687Y-70140206D02*
X138279449Y-70092587D01*
X136898497Y-71092587D02*
X137469925Y-71092587D01*
X137184211Y-71092587D02*
X137184211Y-70092587D01*
X137184211Y-70092587D02*
X137279449Y-70235444D01*
X137279449Y-70235444D02*
X137374687Y-70330682D01*
X137374687Y-70330682D02*
X137469925Y-70378301D01*
X136279449Y-70092587D02*
X136184211Y-70092587D01*
X136184211Y-70092587D02*
X136088973Y-70140206D01*
X136088973Y-70140206D02*
X136041354Y-70187825D01*
X136041354Y-70187825D02*
X135993735Y-70283063D01*
X135993735Y-70283063D02*
X135946116Y-70473539D01*
X135946116Y-70473539D02*
X135946116Y-70711634D01*
X135946116Y-70711634D02*
X135993735Y-70902110D01*
X135993735Y-70902110D02*
X136041354Y-70997348D01*
X136041354Y-70997348D02*
X136088973Y-71044968D01*
X136088973Y-71044968D02*
X136184211Y-71092587D01*
X136184211Y-71092587D02*
X136279449Y-71092587D01*
X136279449Y-71092587D02*
X136374687Y-71044968D01*
X136374687Y-71044968D02*
X136422306Y-70997348D01*
X136422306Y-70997348D02*
X136469925Y-70902110D01*
X136469925Y-70902110D02*
X136517544Y-70711634D01*
X136517544Y-70711634D02*
X136517544Y-70473539D01*
X136517544Y-70473539D02*
X136469925Y-70283063D01*
X136469925Y-70283063D02*
X136422306Y-70187825D01*
X136422306Y-70187825D02*
X136374687Y-70140206D01*
X136374687Y-70140206D02*
X136279449Y-70092587D01*
X135517544Y-70711634D02*
X134755640Y-70711634D01*
X134327068Y-71044968D02*
X134184211Y-71092587D01*
X134184211Y-71092587D02*
X133946116Y-71092587D01*
X133946116Y-71092587D02*
X133850878Y-71044968D01*
X133850878Y-71044968D02*
X133803259Y-70997348D01*
X133803259Y-70997348D02*
X133755640Y-70902110D01*
X133755640Y-70902110D02*
X133755640Y-70806872D01*
X133755640Y-70806872D02*
X133803259Y-70711634D01*
X133803259Y-70711634D02*
X133850878Y-70664015D01*
X133850878Y-70664015D02*
X133946116Y-70616396D01*
X133946116Y-70616396D02*
X134136592Y-70568777D01*
X134136592Y-70568777D02*
X134231830Y-70521158D01*
X134231830Y-70521158D02*
X134279449Y-70473539D01*
X134279449Y-70473539D02*
X134327068Y-70378301D01*
X134327068Y-70378301D02*
X134327068Y-70283063D01*
X134327068Y-70283063D02*
X134279449Y-70187825D01*
X134279449Y-70187825D02*
X134231830Y-70140206D01*
X134231830Y-70140206D02*
X134136592Y-70092587D01*
X134136592Y-70092587D02*
X133898497Y-70092587D01*
X133898497Y-70092587D02*
X133755640Y-70140206D01*
X133327068Y-71092587D02*
X133327068Y-70092587D01*
X133327068Y-70092587D02*
X132946116Y-70092587D01*
X132946116Y-70092587D02*
X132850878Y-70140206D01*
X132850878Y-70140206D02*
X132803259Y-70187825D01*
X132803259Y-70187825D02*
X132755640Y-70283063D01*
X132755640Y-70283063D02*
X132755640Y-70425920D01*
X132755640Y-70425920D02*
X132803259Y-70521158D01*
X132803259Y-70521158D02*
X132850878Y-70568777D01*
X132850878Y-70568777D02*
X132946116Y-70616396D01*
X132946116Y-70616396D02*
X133327068Y-70616396D01*
X132327068Y-71092587D02*
X132327068Y-70092587D01*
X131898497Y-70187825D02*
X131850878Y-70140206D01*
X131850878Y-70140206D02*
X131755640Y-70092587D01*
X131755640Y-70092587D02*
X131517545Y-70092587D01*
X131517545Y-70092587D02*
X131422307Y-70140206D01*
X131422307Y-70140206D02*
X131374688Y-70187825D01*
X131374688Y-70187825D02*
X131327069Y-70283063D01*
X131327069Y-70283063D02*
X131327069Y-70378301D01*
X131327069Y-70378301D02*
X131374688Y-70521158D01*
X131374688Y-70521158D02*
X131946116Y-71092587D01*
X131946116Y-71092587D02*
X131327069Y-71092587D01*
X131136593Y-71187825D02*
X130374688Y-71187825D01*
X129565164Y-70997348D02*
X129612783Y-71044968D01*
X129612783Y-71044968D02*
X129755640Y-71092587D01*
X129755640Y-71092587D02*
X129850878Y-71092587D01*
X129850878Y-71092587D02*
X129993735Y-71044968D01*
X129993735Y-71044968D02*
X130088973Y-70949729D01*
X130088973Y-70949729D02*
X130136592Y-70854491D01*
X130136592Y-70854491D02*
X130184211Y-70664015D01*
X130184211Y-70664015D02*
X130184211Y-70521158D01*
X130184211Y-70521158D02*
X130136592Y-70330682D01*
X130136592Y-70330682D02*
X130088973Y-70235444D01*
X130088973Y-70235444D02*
X129993735Y-70140206D01*
X129993735Y-70140206D02*
X129850878Y-70092587D01*
X129850878Y-70092587D02*
X129755640Y-70092587D01*
X129755640Y-70092587D02*
X129612783Y-70140206D01*
X129612783Y-70140206D02*
X129565164Y-70187825D01*
X129184211Y-71044968D02*
X129041354Y-71092587D01*
X129041354Y-71092587D02*
X128803259Y-71092587D01*
X128803259Y-71092587D02*
X128708021Y-71044968D01*
X128708021Y-71044968D02*
X128660402Y-70997348D01*
X128660402Y-70997348D02*
X128612783Y-70902110D01*
X128612783Y-70902110D02*
X128612783Y-70806872D01*
X128612783Y-70806872D02*
X128660402Y-70711634D01*
X128660402Y-70711634D02*
X128708021Y-70664015D01*
X128708021Y-70664015D02*
X128803259Y-70616396D01*
X128803259Y-70616396D02*
X128993735Y-70568777D01*
X128993735Y-70568777D02*
X129088973Y-70521158D01*
X129088973Y-70521158D02*
X129136592Y-70473539D01*
X129136592Y-70473539D02*
X129184211Y-70378301D01*
X129184211Y-70378301D02*
X129184211Y-70283063D01*
X129184211Y-70283063D02*
X129136592Y-70187825D01*
X129136592Y-70187825D02*
X129088973Y-70140206D01*
X129088973Y-70140206D02*
X128993735Y-70092587D01*
X128993735Y-70092587D02*
X128755640Y-70092587D01*
X128755640Y-70092587D02*
X128612783Y-70140206D01*
X138946115Y-72702531D02*
X138946115Y-71702531D01*
X138279449Y-71702531D02*
X138088973Y-71702531D01*
X138088973Y-71702531D02*
X137993735Y-71750150D01*
X137993735Y-71750150D02*
X137898497Y-71845388D01*
X137898497Y-71845388D02*
X137850878Y-72035864D01*
X137850878Y-72035864D02*
X137850878Y-72369197D01*
X137850878Y-72369197D02*
X137898497Y-72559673D01*
X137898497Y-72559673D02*
X137993735Y-72654912D01*
X137993735Y-72654912D02*
X138088973Y-72702531D01*
X138088973Y-72702531D02*
X138279449Y-72702531D01*
X138279449Y-72702531D02*
X138374687Y-72654912D01*
X138374687Y-72654912D02*
X138469925Y-72559673D01*
X138469925Y-72559673D02*
X138517544Y-72369197D01*
X138517544Y-72369197D02*
X138517544Y-72035864D01*
X138517544Y-72035864D02*
X138469925Y-71845388D01*
X138469925Y-71845388D02*
X138374687Y-71750150D01*
X138374687Y-71750150D02*
X138279449Y-71702531D01*
X136898497Y-72702531D02*
X137469925Y-72702531D01*
X137184211Y-72702531D02*
X137184211Y-71702531D01*
X137184211Y-71702531D02*
X137279449Y-71845388D01*
X137279449Y-71845388D02*
X137374687Y-71940626D01*
X137374687Y-71940626D02*
X137469925Y-71988245D01*
X135946116Y-72702531D02*
X136517544Y-72702531D01*
X136231830Y-72702531D02*
X136231830Y-71702531D01*
X136231830Y-71702531D02*
X136327068Y-71845388D01*
X136327068Y-71845388D02*
X136422306Y-71940626D01*
X136422306Y-71940626D02*
X136517544Y-71988245D01*
X135517544Y-72321578D02*
X134755640Y-72321578D01*
X134327068Y-72654912D02*
X134184211Y-72702531D01*
X134184211Y-72702531D02*
X133946116Y-72702531D01*
X133946116Y-72702531D02*
X133850878Y-72654912D01*
X133850878Y-72654912D02*
X133803259Y-72607292D01*
X133803259Y-72607292D02*
X133755640Y-72512054D01*
X133755640Y-72512054D02*
X133755640Y-72416816D01*
X133755640Y-72416816D02*
X133803259Y-72321578D01*
X133803259Y-72321578D02*
X133850878Y-72273959D01*
X133850878Y-72273959D02*
X133946116Y-72226340D01*
X133946116Y-72226340D02*
X134136592Y-72178721D01*
X134136592Y-72178721D02*
X134231830Y-72131102D01*
X134231830Y-72131102D02*
X134279449Y-72083483D01*
X134279449Y-72083483D02*
X134327068Y-71988245D01*
X134327068Y-71988245D02*
X134327068Y-71893007D01*
X134327068Y-71893007D02*
X134279449Y-71797769D01*
X134279449Y-71797769D02*
X134231830Y-71750150D01*
X134231830Y-71750150D02*
X134136592Y-71702531D01*
X134136592Y-71702531D02*
X133898497Y-71702531D01*
X133898497Y-71702531D02*
X133755640Y-71750150D01*
X133327068Y-72702531D02*
X133327068Y-71702531D01*
X133327068Y-71702531D02*
X132946116Y-71702531D01*
X132946116Y-71702531D02*
X132850878Y-71750150D01*
X132850878Y-71750150D02*
X132803259Y-71797769D01*
X132803259Y-71797769D02*
X132755640Y-71893007D01*
X132755640Y-71893007D02*
X132755640Y-72035864D01*
X132755640Y-72035864D02*
X132803259Y-72131102D01*
X132803259Y-72131102D02*
X132850878Y-72178721D01*
X132850878Y-72178721D02*
X132946116Y-72226340D01*
X132946116Y-72226340D02*
X133327068Y-72226340D01*
X132327068Y-72702531D02*
X132327068Y-71702531D01*
X131898497Y-71797769D02*
X131850878Y-71750150D01*
X131850878Y-71750150D02*
X131755640Y-71702531D01*
X131755640Y-71702531D02*
X131517545Y-71702531D01*
X131517545Y-71702531D02*
X131422307Y-71750150D01*
X131422307Y-71750150D02*
X131374688Y-71797769D01*
X131374688Y-71797769D02*
X131327069Y-71893007D01*
X131327069Y-71893007D02*
X131327069Y-71988245D01*
X131327069Y-71988245D02*
X131374688Y-72131102D01*
X131374688Y-72131102D02*
X131946116Y-72702531D01*
X131946116Y-72702531D02*
X131327069Y-72702531D01*
X131136593Y-72797769D02*
X130374688Y-72797769D01*
X130136592Y-72702531D02*
X130136592Y-71702531D01*
X130136592Y-71702531D02*
X129803259Y-72416816D01*
X129803259Y-72416816D02*
X129469926Y-71702531D01*
X129469926Y-71702531D02*
X129469926Y-72702531D01*
X128803259Y-71702531D02*
X128612783Y-71702531D01*
X128612783Y-71702531D02*
X128517545Y-71750150D01*
X128517545Y-71750150D02*
X128422307Y-71845388D01*
X128422307Y-71845388D02*
X128374688Y-72035864D01*
X128374688Y-72035864D02*
X128374688Y-72369197D01*
X128374688Y-72369197D02*
X128422307Y-72559673D01*
X128422307Y-72559673D02*
X128517545Y-72654912D01*
X128517545Y-72654912D02*
X128612783Y-72702531D01*
X128612783Y-72702531D02*
X128803259Y-72702531D01*
X128803259Y-72702531D02*
X128898497Y-72654912D01*
X128898497Y-72654912D02*
X128993735Y-72559673D01*
X128993735Y-72559673D02*
X129041354Y-72369197D01*
X129041354Y-72369197D02*
X129041354Y-72035864D01*
X129041354Y-72035864D02*
X128993735Y-71845388D01*
X128993735Y-71845388D02*
X128898497Y-71750150D01*
X128898497Y-71750150D02*
X128803259Y-71702531D01*
X127993735Y-72654912D02*
X127850878Y-72702531D01*
X127850878Y-72702531D02*
X127612783Y-72702531D01*
X127612783Y-72702531D02*
X127517545Y-72654912D01*
X127517545Y-72654912D02*
X127469926Y-72607292D01*
X127469926Y-72607292D02*
X127422307Y-72512054D01*
X127422307Y-72512054D02*
X127422307Y-72416816D01*
X127422307Y-72416816D02*
X127469926Y-72321578D01*
X127469926Y-72321578D02*
X127517545Y-72273959D01*
X127517545Y-72273959D02*
X127612783Y-72226340D01*
X127612783Y-72226340D02*
X127803259Y-72178721D01*
X127803259Y-72178721D02*
X127898497Y-72131102D01*
X127898497Y-72131102D02*
X127946116Y-72083483D01*
X127946116Y-72083483D02*
X127993735Y-71988245D01*
X127993735Y-71988245D02*
X127993735Y-71893007D01*
X127993735Y-71893007D02*
X127946116Y-71797769D01*
X127946116Y-71797769D02*
X127898497Y-71750150D01*
X127898497Y-71750150D02*
X127803259Y-71702531D01*
X127803259Y-71702531D02*
X127565164Y-71702531D01*
X127565164Y-71702531D02*
X127422307Y-71750150D01*
X126993735Y-72702531D02*
X126993735Y-71702531D01*
X138946115Y-74312475D02*
X138946115Y-73312475D01*
X138279449Y-73312475D02*
X138088973Y-73312475D01*
X138088973Y-73312475D02*
X137993735Y-73360094D01*
X137993735Y-73360094D02*
X137898497Y-73455332D01*
X137898497Y-73455332D02*
X137850878Y-73645808D01*
X137850878Y-73645808D02*
X137850878Y-73979141D01*
X137850878Y-73979141D02*
X137898497Y-74169617D01*
X137898497Y-74169617D02*
X137993735Y-74264856D01*
X137993735Y-74264856D02*
X138088973Y-74312475D01*
X138088973Y-74312475D02*
X138279449Y-74312475D01*
X138279449Y-74312475D02*
X138374687Y-74264856D01*
X138374687Y-74264856D02*
X138469925Y-74169617D01*
X138469925Y-74169617D02*
X138517544Y-73979141D01*
X138517544Y-73979141D02*
X138517544Y-73645808D01*
X138517544Y-73645808D02*
X138469925Y-73455332D01*
X138469925Y-73455332D02*
X138374687Y-73360094D01*
X138374687Y-73360094D02*
X138279449Y-73312475D01*
X136898497Y-74312475D02*
X137469925Y-74312475D01*
X137184211Y-74312475D02*
X137184211Y-73312475D01*
X137184211Y-73312475D02*
X137279449Y-73455332D01*
X137279449Y-73455332D02*
X137374687Y-73550570D01*
X137374687Y-73550570D02*
X137469925Y-73598189D01*
X136517544Y-73407713D02*
X136469925Y-73360094D01*
X136469925Y-73360094D02*
X136374687Y-73312475D01*
X136374687Y-73312475D02*
X136136592Y-73312475D01*
X136136592Y-73312475D02*
X136041354Y-73360094D01*
X136041354Y-73360094D02*
X135993735Y-73407713D01*
X135993735Y-73407713D02*
X135946116Y-73502951D01*
X135946116Y-73502951D02*
X135946116Y-73598189D01*
X135946116Y-73598189D02*
X135993735Y-73741046D01*
X135993735Y-73741046D02*
X136565163Y-74312475D01*
X136565163Y-74312475D02*
X135946116Y-74312475D01*
X135517544Y-73931522D02*
X134755640Y-73931522D01*
X134327068Y-74264856D02*
X134184211Y-74312475D01*
X134184211Y-74312475D02*
X133946116Y-74312475D01*
X133946116Y-74312475D02*
X133850878Y-74264856D01*
X133850878Y-74264856D02*
X133803259Y-74217236D01*
X133803259Y-74217236D02*
X133755640Y-74121998D01*
X133755640Y-74121998D02*
X133755640Y-74026760D01*
X133755640Y-74026760D02*
X133803259Y-73931522D01*
X133803259Y-73931522D02*
X133850878Y-73883903D01*
X133850878Y-73883903D02*
X133946116Y-73836284D01*
X133946116Y-73836284D02*
X134136592Y-73788665D01*
X134136592Y-73788665D02*
X134231830Y-73741046D01*
X134231830Y-73741046D02*
X134279449Y-73693427D01*
X134279449Y-73693427D02*
X134327068Y-73598189D01*
X134327068Y-73598189D02*
X134327068Y-73502951D01*
X134327068Y-73502951D02*
X134279449Y-73407713D01*
X134279449Y-73407713D02*
X134231830Y-73360094D01*
X134231830Y-73360094D02*
X134136592Y-73312475D01*
X134136592Y-73312475D02*
X133898497Y-73312475D01*
X133898497Y-73312475D02*
X133755640Y-73360094D01*
X133327068Y-74312475D02*
X133327068Y-73312475D01*
X133327068Y-73312475D02*
X132946116Y-73312475D01*
X132946116Y-73312475D02*
X132850878Y-73360094D01*
X132850878Y-73360094D02*
X132803259Y-73407713D01*
X132803259Y-73407713D02*
X132755640Y-73502951D01*
X132755640Y-73502951D02*
X132755640Y-73645808D01*
X132755640Y-73645808D02*
X132803259Y-73741046D01*
X132803259Y-73741046D02*
X132850878Y-73788665D01*
X132850878Y-73788665D02*
X132946116Y-73836284D01*
X132946116Y-73836284D02*
X133327068Y-73836284D01*
X132327068Y-74312475D02*
X132327068Y-73312475D01*
X131898497Y-73407713D02*
X131850878Y-73360094D01*
X131850878Y-73360094D02*
X131755640Y-73312475D01*
X131755640Y-73312475D02*
X131517545Y-73312475D01*
X131517545Y-73312475D02*
X131422307Y-73360094D01*
X131422307Y-73360094D02*
X131374688Y-73407713D01*
X131374688Y-73407713D02*
X131327069Y-73502951D01*
X131327069Y-73502951D02*
X131327069Y-73598189D01*
X131327069Y-73598189D02*
X131374688Y-73741046D01*
X131374688Y-73741046D02*
X131946116Y-74312475D01*
X131946116Y-74312475D02*
X131327069Y-74312475D01*
X131136593Y-74407713D02*
X130374688Y-74407713D01*
X129565164Y-74217236D02*
X129612783Y-74264856D01*
X129612783Y-74264856D02*
X129755640Y-74312475D01*
X129755640Y-74312475D02*
X129850878Y-74312475D01*
X129850878Y-74312475D02*
X129993735Y-74264856D01*
X129993735Y-74264856D02*
X130088973Y-74169617D01*
X130088973Y-74169617D02*
X130136592Y-74074379D01*
X130136592Y-74074379D02*
X130184211Y-73883903D01*
X130184211Y-73883903D02*
X130184211Y-73741046D01*
X130184211Y-73741046D02*
X130136592Y-73550570D01*
X130136592Y-73550570D02*
X130088973Y-73455332D01*
X130088973Y-73455332D02*
X129993735Y-73360094D01*
X129993735Y-73360094D02*
X129850878Y-73312475D01*
X129850878Y-73312475D02*
X129755640Y-73312475D01*
X129755640Y-73312475D02*
X129612783Y-73360094D01*
X129612783Y-73360094D02*
X129565164Y-73407713D01*
X128660402Y-74312475D02*
X129136592Y-74312475D01*
X129136592Y-74312475D02*
X129136592Y-73312475D01*
X128327068Y-74312475D02*
X128327068Y-73312475D01*
X127755640Y-74312475D02*
X128184211Y-73741046D01*
X127755640Y-73312475D02*
X128327068Y-73883903D01*
X138946115Y-75922419D02*
X138946115Y-74922419D01*
X138279449Y-74922419D02*
X138088973Y-74922419D01*
X138088973Y-74922419D02*
X137993735Y-74970038D01*
X137993735Y-74970038D02*
X137898497Y-75065276D01*
X137898497Y-75065276D02*
X137850878Y-75255752D01*
X137850878Y-75255752D02*
X137850878Y-75589085D01*
X137850878Y-75589085D02*
X137898497Y-75779561D01*
X137898497Y-75779561D02*
X137993735Y-75874800D01*
X137993735Y-75874800D02*
X138088973Y-75922419D01*
X138088973Y-75922419D02*
X138279449Y-75922419D01*
X138279449Y-75922419D02*
X138374687Y-75874800D01*
X138374687Y-75874800D02*
X138469925Y-75779561D01*
X138469925Y-75779561D02*
X138517544Y-75589085D01*
X138517544Y-75589085D02*
X138517544Y-75255752D01*
X138517544Y-75255752D02*
X138469925Y-75065276D01*
X138469925Y-75065276D02*
X138374687Y-74970038D01*
X138374687Y-74970038D02*
X138279449Y-74922419D01*
X136898497Y-75922419D02*
X137469925Y-75922419D01*
X137184211Y-75922419D02*
X137184211Y-74922419D01*
X137184211Y-74922419D02*
X137279449Y-75065276D01*
X137279449Y-75065276D02*
X137374687Y-75160514D01*
X137374687Y-75160514D02*
X137469925Y-75208133D01*
X136565163Y-74922419D02*
X135946116Y-74922419D01*
X135946116Y-74922419D02*
X136279449Y-75303371D01*
X136279449Y-75303371D02*
X136136592Y-75303371D01*
X136136592Y-75303371D02*
X136041354Y-75350990D01*
X136041354Y-75350990D02*
X135993735Y-75398609D01*
X135993735Y-75398609D02*
X135946116Y-75493847D01*
X135946116Y-75493847D02*
X135946116Y-75731942D01*
X135946116Y-75731942D02*
X135993735Y-75827180D01*
X135993735Y-75827180D02*
X136041354Y-75874800D01*
X136041354Y-75874800D02*
X136136592Y-75922419D01*
X136136592Y-75922419D02*
X136422306Y-75922419D01*
X136422306Y-75922419D02*
X136517544Y-75874800D01*
X136517544Y-75874800D02*
X136565163Y-75827180D01*
X135517544Y-75541466D02*
X134755640Y-75541466D01*
X134327068Y-75874800D02*
X134184211Y-75922419D01*
X134184211Y-75922419D02*
X133946116Y-75922419D01*
X133946116Y-75922419D02*
X133850878Y-75874800D01*
X133850878Y-75874800D02*
X133803259Y-75827180D01*
X133803259Y-75827180D02*
X133755640Y-75731942D01*
X133755640Y-75731942D02*
X133755640Y-75636704D01*
X133755640Y-75636704D02*
X133803259Y-75541466D01*
X133803259Y-75541466D02*
X133850878Y-75493847D01*
X133850878Y-75493847D02*
X133946116Y-75446228D01*
X133946116Y-75446228D02*
X134136592Y-75398609D01*
X134136592Y-75398609D02*
X134231830Y-75350990D01*
X134231830Y-75350990D02*
X134279449Y-75303371D01*
X134279449Y-75303371D02*
X134327068Y-75208133D01*
X134327068Y-75208133D02*
X134327068Y-75112895D01*
X134327068Y-75112895D02*
X134279449Y-75017657D01*
X134279449Y-75017657D02*
X134231830Y-74970038D01*
X134231830Y-74970038D02*
X134136592Y-74922419D01*
X134136592Y-74922419D02*
X133898497Y-74922419D01*
X133898497Y-74922419D02*
X133755640Y-74970038D01*
X133327068Y-75922419D02*
X133327068Y-74922419D01*
X133327068Y-74922419D02*
X132946116Y-74922419D01*
X132946116Y-74922419D02*
X132850878Y-74970038D01*
X132850878Y-74970038D02*
X132803259Y-75017657D01*
X132803259Y-75017657D02*
X132755640Y-75112895D01*
X132755640Y-75112895D02*
X132755640Y-75255752D01*
X132755640Y-75255752D02*
X132803259Y-75350990D01*
X132803259Y-75350990D02*
X132850878Y-75398609D01*
X132850878Y-75398609D02*
X132946116Y-75446228D01*
X132946116Y-75446228D02*
X133327068Y-75446228D01*
X132327068Y-75922419D02*
X132327068Y-74922419D01*
X131898497Y-75017657D02*
X131850878Y-74970038D01*
X131850878Y-74970038D02*
X131755640Y-74922419D01*
X131755640Y-74922419D02*
X131517545Y-74922419D01*
X131517545Y-74922419D02*
X131422307Y-74970038D01*
X131422307Y-74970038D02*
X131374688Y-75017657D01*
X131374688Y-75017657D02*
X131327069Y-75112895D01*
X131327069Y-75112895D02*
X131327069Y-75208133D01*
X131327069Y-75208133D02*
X131374688Y-75350990D01*
X131374688Y-75350990D02*
X131946116Y-75922419D01*
X131946116Y-75922419D02*
X131327069Y-75922419D01*
X131136593Y-76017657D02*
X130374688Y-76017657D01*
X130136592Y-75922419D02*
X130136592Y-74922419D01*
X130136592Y-74922419D02*
X129803259Y-75636704D01*
X129803259Y-75636704D02*
X129469926Y-74922419D01*
X129469926Y-74922419D02*
X129469926Y-75922419D01*
X128993735Y-75922419D02*
X128993735Y-74922419D01*
X128565164Y-75874800D02*
X128422307Y-75922419D01*
X128422307Y-75922419D02*
X128184212Y-75922419D01*
X128184212Y-75922419D02*
X128088974Y-75874800D01*
X128088974Y-75874800D02*
X128041355Y-75827180D01*
X128041355Y-75827180D02*
X127993736Y-75731942D01*
X127993736Y-75731942D02*
X127993736Y-75636704D01*
X127993736Y-75636704D02*
X128041355Y-75541466D01*
X128041355Y-75541466D02*
X128088974Y-75493847D01*
X128088974Y-75493847D02*
X128184212Y-75446228D01*
X128184212Y-75446228D02*
X128374688Y-75398609D01*
X128374688Y-75398609D02*
X128469926Y-75350990D01*
X128469926Y-75350990D02*
X128517545Y-75303371D01*
X128517545Y-75303371D02*
X128565164Y-75208133D01*
X128565164Y-75208133D02*
X128565164Y-75112895D01*
X128565164Y-75112895D02*
X128517545Y-75017657D01*
X128517545Y-75017657D02*
X128469926Y-74970038D01*
X128469926Y-74970038D02*
X128374688Y-74922419D01*
X128374688Y-74922419D02*
X128136593Y-74922419D01*
X128136593Y-74922419D02*
X127993736Y-74970038D01*
X127374688Y-74922419D02*
X127184212Y-74922419D01*
X127184212Y-74922419D02*
X127088974Y-74970038D01*
X127088974Y-74970038D02*
X126993736Y-75065276D01*
X126993736Y-75065276D02*
X126946117Y-75255752D01*
X126946117Y-75255752D02*
X126946117Y-75589085D01*
X126946117Y-75589085D02*
X126993736Y-75779561D01*
X126993736Y-75779561D02*
X127088974Y-75874800D01*
X127088974Y-75874800D02*
X127184212Y-75922419D01*
X127184212Y-75922419D02*
X127374688Y-75922419D01*
X127374688Y-75922419D02*
X127469926Y-75874800D01*
X127469926Y-75874800D02*
X127565164Y-75779561D01*
X127565164Y-75779561D02*
X127612783Y-75589085D01*
X127612783Y-75589085D02*
X127612783Y-75255752D01*
X127612783Y-75255752D02*
X127565164Y-75065276D01*
X127565164Y-75065276D02*
X127469926Y-74970038D01*
X127469926Y-74970038D02*
X127374688Y-74922419D01*
M02*
