M48
; DRILL file {KiCad 8.0.3} date 2025-02-14T19:05:42+0530
; FORMAT={-:-/ absolute / metric / decimal}
; #@! TF.CreationDate,2025-02-14T19:05:42+05:30
; #@! TF.GenerationSoftware,Kicad,Pcbnew,8.0.3
; #@! TF.FileFunction,Plated,1,4,PTH
FMAT,2
METRIC
; #@! TA.AperFunction,Plated,PTH,ViaDrill
T1C0.300
; #@! TA.AperFunction,Plated,PTH,ComponentDrill
T2C0.450
; #@! TA.AperFunction,Plated,PTH,ComponentDrill
T3C1.520
; #@! TA.AperFunction,Plated,PTH,ComponentDrill
T4C4.300
%
G90
G05
T1
X107.92Y-59.465
X110.325Y-76.45
X110.325Y-78.7
X110.895Y-55.065
X111.63Y-67.695
X111.895Y-54.315
X119.65Y-66.525
X120.05Y-65.275
X123.65Y-52.05
X125.49Y-65.27
X125.52Y-60.26
X132.525Y-52.475
X141.1Y-63.65
X141.31Y-65.86
X141.41Y-67.65
X141.64Y-72.46
X142.04Y-71.22
X147.96Y-76.85
X148.12Y-75.63
X151.575Y-99.975
X151.575Y-103.525
X153.725Y-65.775
X156.67Y-83.9
X159.775Y-65.725
X169.375Y-97.0
X169.87Y-69.22
X175.04Y-67.85
X178.175Y-69.925
X178.175Y-72.125
X180.18Y-62.8
T3
X110.2Y-97.41
X110.2Y-102.49
X118.42Y-42.0
X123.5Y-42.0
X131.42Y-42.0
X136.5Y-42.0
X144.42Y-42.0
X149.5Y-42.0
X157.42Y-42.0
X161.135Y-109.35
X162.5Y-42.0
X166.215Y-109.35
X177.075Y-96.985
X177.075Y-102.065
T4
X109.69Y-42.51
X109.69Y-110.49
X177.54Y-110.465
X177.57Y-42.51
T2
G00X104.73Y-74.175
M15
G01X105.53Y-74.175
M16
G05
G00X105.53Y-81.325
M15
G01X104.73Y-81.325
M16
G05
G00X181.7Y-67.25
M15
G01X182.5Y-67.25
M16
G05
G00X182.5Y-74.4
M15
G01X181.7Y-74.4
M16
G05
M30
