%TF.GenerationSoftware,KiCad,Pcbnew,8.0.3*%
%TF.CreationDate,2025-02-14T19:05:39+05:30*%
%TF.ProjectId,Cyclohexane,4379636c-6f68-4657-9861-6e652e6b6963,rev?*%
%TF.SameCoordinates,Original*%
%TF.FileFunction,Soldermask,Top*%
%TF.FilePolarity,Negative*%
%FSLAX46Y46*%
G04 Gerber Fmt 4.6, Leading zero omitted, Abs format (unit mm)*
G04 Created by KiCad (PCBNEW 8.0.3) date 2025-02-14 19:05:39*
%MOMM*%
%LPD*%
G01*
G04 APERTURE LIST*
G04 Aperture macros list*
%AMRoundRect*
0 Rectangle with rounded corners*
0 $1 Rounding radius*
0 $2 $3 $4 $5 $6 $7 $8 $9 X,Y pos of 4 corners*
0 Add a 4 corners polygon primitive as box body*
4,1,4,$2,$3,$4,$5,$6,$7,$8,$9,$2,$3,0*
0 Add four circle primitives for the rounded corners*
1,1,$1+$1,$2,$3*
1,1,$1+$1,$4,$5*
1,1,$1+$1,$6,$7*
1,1,$1+$1,$8,$9*
0 Add four rect primitives between the rounded corners*
20,1,$1+$1,$2,$3,$4,$5,0*
20,1,$1+$1,$4,$5,$6,$7,0*
20,1,$1+$1,$6,$7,$8,$9,0*
20,1,$1+$1,$8,$9,$2,$3,0*%
%AMRotRect*
0 Rectangle, with rotation*
0 The origin of the aperture is its center*
0 $1 length*
0 $2 width*
0 $3 Rotation angle, in degrees counterclockwise*
0 Add horizontal line*
21,1,$1,$2,0,0,$3*%
%AMOutline5P*
0 Free polygon, 5 corners , with rotation*
0 The origin of the aperture is its center*
0 number of corners: always 5*
0 $1 to $10 corner X, Y*
0 $11 Rotation angle, in degrees counterclockwise*
0 create outline with 5 corners*
4,1,5,$1,$2,$3,$4,$5,$6,$7,$8,$9,$10,$1,$2,$11*%
%AMOutline6P*
0 Free polygon, 6 corners , with rotation*
0 The origin of the aperture is its center*
0 number of corners: always 6*
0 $1 to $12 corner X, Y*
0 $13 Rotation angle, in degrees counterclockwise*
0 create outline with 6 corners*
4,1,6,$1,$2,$3,$4,$5,$6,$7,$8,$9,$10,$11,$12,$1,$2,$13*%
%AMOutline7P*
0 Free polygon, 7 corners , with rotation*
0 The origin of the aperture is its center*
0 number of corners: always 7*
0 $1 to $14 corner X, Y*
0 $15 Rotation angle, in degrees counterclockwise*
0 create outline with 7 corners*
4,1,7,$1,$2,$3,$4,$5,$6,$7,$8,$9,$10,$11,$12,$13,$14,$1,$2,$15*%
%AMOutline8P*
0 Free polygon, 8 corners , with rotation*
0 The origin of the aperture is its center*
0 number of corners: always 8*
0 $1 to $16 corner X, Y*
0 $17 Rotation angle, in degrees counterclockwise*
0 create outline with 8 corners*
4,1,8,$1,$2,$3,$4,$5,$6,$7,$8,$9,$10,$11,$12,$13,$14,$15,$16,$1,$2,$17*%
G04 Aperture macros list end*
%ADD10RoundRect,0.250000X0.262500X0.450000X-0.262500X0.450000X-0.262500X-0.450000X0.262500X-0.450000X0*%
%ADD11R,1.400000X0.400000*%
%ADD12O,1.900000X1.050000*%
%ADD13R,1.450000X1.150000*%
%ADD14R,1.900000X1.750000*%
%ADD15RoundRect,0.250000X-0.450000X0.262500X-0.450000X-0.262500X0.450000X-0.262500X0.450000X0.262500X0*%
%ADD16RoundRect,0.250000X-0.475000X0.250000X-0.475000X-0.250000X0.475000X-0.250000X0.475000X0.250000X0*%
%ADD17RoundRect,0.375000X0.375000X-0.625000X0.375000X0.625000X-0.375000X0.625000X-0.375000X-0.625000X0*%
%ADD18RoundRect,0.500000X1.400000X-0.500000X1.400000X0.500000X-1.400000X0.500000X-1.400000X-0.500000X0*%
%ADD19C,1.000000*%
%ADD20R,0.700000X1.400000*%
%ADD21R,0.700000X1.200000*%
%ADD22R,1.200000X0.800000*%
%ADD23R,1.500000X1.900000*%
%ADD24RotRect,0.200000X0.200000X45.000000*%
%ADD25R,0.500000X0.500000*%
%ADD26R,1.000000X1.400000*%
%ADD27R,1.200000X1.200000*%
%ADD28R,1.200000X3.200000*%
%ADD29RoundRect,0.243750X-0.456250X0.243750X-0.456250X-0.243750X0.456250X-0.243750X0.456250X0.243750X0*%
%ADD30RoundRect,0.250000X0.250000X0.475000X-0.250000X0.475000X-0.250000X-0.475000X0.250000X-0.475000X0*%
%ADD31R,2.540000X1.520000*%
%ADD32RoundRect,0.250000X0.450000X-0.262500X0.450000X0.262500X-0.450000X0.262500X-0.450000X-0.262500X0*%
%ADD33R,0.254000X0.838200*%
%ADD34R,0.838200X0.254000*%
%ADD35RoundRect,0.250000X-0.250000X-0.475000X0.250000X-0.475000X0.250000X0.475000X-0.250000X0.475000X0*%
%ADD36RoundRect,0.243750X0.456250X-0.243750X0.456250X0.243750X-0.456250X0.243750X-0.456250X-0.243750X0*%
%ADD37C,7.500000*%
%ADD38R,3.000000X3.000000*%
%ADD39C,3.000000*%
%ADD40R,1.520000X2.540000*%
%ADD41R,1.500000X0.900000*%
%ADD42R,0.900000X1.500000*%
%ADD43R,0.900000X0.900000*%
%ADD44RoundRect,0.243750X0.243750X0.456250X-0.243750X0.456250X-0.243750X-0.456250X0.243750X-0.456250X0*%
%ADD45RoundRect,0.250000X0.475000X-0.250000X0.475000X0.250000X-0.475000X0.250000X-0.475000X-0.250000X0*%
%ADD46RoundRect,0.250000X-0.262500X-0.450000X0.262500X-0.450000X0.262500X0.450000X-0.262500X0.450000X0*%
%ADD47R,0.625000X0.250000*%
%ADD48R,0.700000X0.450000*%
%ADD49R,0.575000X0.450000*%
%ADD50R,0.939800X2.489200*%
%ADD51R,4.368800X5.918200*%
%ADD52R,0.700000X2.000000*%
%ADD53RoundRect,0.101600X-1.000000X0.350000X-1.000000X-0.350000X1.000000X-0.350000X1.000000X0.350000X0*%
%ADD54R,2.000000X0.700000*%
%ADD55R,1.250000X1.000000*%
%ADD56RoundRect,0.218750X0.218750X0.381250X-0.218750X0.381250X-0.218750X-0.381250X0.218750X-0.381250X0*%
%ADD57RoundRect,0.102000X-0.525000X-1.100000X0.525000X-1.100000X0.525000X1.100000X-0.525000X1.100000X0*%
%ADD58RoundRect,0.102000X-0.500000X-0.525000X0.500000X-0.525000X0.500000X0.525000X-0.500000X0.525000X0*%
%ADD59R,0.400000X0.800000*%
%ADD60R,0.800000X0.400000*%
%ADD61Outline5P,-0.600000X0.204000X-0.204000X0.600000X0.600000X0.600000X0.600000X-0.600000X-0.600000X-0.600000X90.000000*%
%ADD62R,0.800000X0.800000*%
%ADD63RoundRect,0.375000X-0.375000X0.625000X-0.375000X-0.625000X0.375000X-0.625000X0.375000X0.625000X0*%
%ADD64RoundRect,0.500000X-1.400000X0.500000X-1.400000X-0.500000X1.400000X-0.500000X1.400000X0.500000X0*%
%ADD65RoundRect,0.375000X0.625000X0.375000X-0.625000X0.375000X-0.625000X-0.375000X0.625000X-0.375000X0*%
%ADD66RoundRect,0.500000X0.500000X1.400000X-0.500000X1.400000X-0.500000X-1.400000X0.500000X-1.400000X0*%
%ADD67RoundRect,0.243750X-0.243750X-0.456250X0.243750X-0.456250X0.243750X0.456250X-0.243750X0.456250X0*%
%ADD68R,0.304800X0.330200*%
%ADD69R,0.330200X0.304800*%
%ADD70R,1.800000X0.800000*%
%ADD71R,0.800000X1.800000*%
%ADD72RoundRect,0.218750X-0.218750X-0.381250X0.218750X-0.381250X0.218750X0.381250X-0.218750X0.381250X0*%
G04 APERTURE END LIST*
D10*
%TO.C,R6*%
X182050000Y-49125000D03*
X180225000Y-49125000D03*
%TD*%
D11*
%TO.C,J7*%
X179450000Y-72125000D03*
X179450000Y-71475000D03*
X179450000Y-70825000D03*
X179450000Y-70175000D03*
X179450000Y-69525000D03*
D12*
X182100000Y-74400000D03*
D13*
X179870000Y-73145000D03*
D14*
X182100000Y-71950000D03*
X182100000Y-69700000D03*
D13*
X179870000Y-68505000D03*
D12*
X182100000Y-67250000D03*
%TD*%
D15*
%TO.C,R12*%
X158725000Y-58512500D03*
X158725000Y-60337500D03*
%TD*%
D16*
%TO.C,C31*%
X146850000Y-81625000D03*
X146850000Y-83525000D03*
%TD*%
D17*
%TO.C,U8*%
X160100000Y-102950000D03*
X162400000Y-102950000D03*
D18*
X162400000Y-96650000D03*
D17*
X164700000Y-102950000D03*
%TD*%
D19*
%TO.C,TP2*%
X121070000Y-83520000D03*
%TD*%
D20*
%TO.C,J2*%
X124025000Y-87225000D03*
X125125000Y-87225000D03*
X126225000Y-87225000D03*
X127325000Y-87225000D03*
X128425000Y-87225000D03*
X129525000Y-87225000D03*
X130625000Y-87225000D03*
X131725000Y-87225000D03*
D21*
X132675000Y-87125000D03*
D22*
X133525000Y-97625000D03*
D23*
X120225000Y-102225000D03*
D24*
X120975000Y-102675000D03*
D25*
X121225000Y-102925000D03*
D26*
X122125000Y-87225000D03*
D27*
X133525000Y-91425000D03*
D28*
X133525000Y-101225000D03*
%TD*%
D29*
%TO.C,D6*%
X161100000Y-58512500D03*
X161100000Y-60387500D03*
%TD*%
D30*
%TO.C,C24*%
X151990000Y-48880000D03*
X150090000Y-48880000D03*
%TD*%
D19*
%TO.C,TP8*%
X113420000Y-93300000D03*
%TD*%
D30*
%TO.C,C5*%
X108552500Y-83820000D03*
X106652500Y-83820000D03*
%TD*%
D31*
%TO.C,IC1*%
X155280000Y-112410000D03*
X155280000Y-109870000D03*
X155280000Y-107330000D03*
X155280000Y-104790000D03*
X138520000Y-104790000D03*
X138520000Y-107330000D03*
X138520000Y-109870000D03*
X138520000Y-112410000D03*
%TD*%
D32*
%TO.C,R9*%
X111650000Y-70772500D03*
X111650000Y-68947500D03*
%TD*%
D33*
%TO.C,U2*%
X117590000Y-69148600D03*
X117089999Y-69148600D03*
X116589999Y-69148600D03*
X116089998Y-69148600D03*
D34*
X115704299Y-70034301D03*
X115704299Y-70534300D03*
X115704299Y-71034299D03*
D33*
X116089998Y-71920000D03*
X116589999Y-71920000D03*
X117089999Y-71920000D03*
X117590000Y-71920000D03*
D34*
X117975699Y-71034299D03*
X117975699Y-70534300D03*
X117975699Y-70034301D03*
%TD*%
D35*
%TO.C,C23*%
X120525000Y-52025000D03*
X122425000Y-52025000D03*
%TD*%
D36*
%TO.C,D7*%
X156450000Y-60362500D03*
X156450000Y-58487500D03*
%TD*%
D30*
%TO.C,C13*%
X177810000Y-49130000D03*
X175910000Y-49130000D03*
%TD*%
D37*
%TO.C,H2*%
X177569592Y-42510408D03*
%TD*%
D19*
%TO.C,TP14*%
X152500000Y-54250000D03*
%TD*%
D38*
%TO.C,J11*%
X110200000Y-97410000D03*
D39*
X110200000Y-102490000D03*
%TD*%
D19*
%TO.C,TP12*%
X162550000Y-49500000D03*
%TD*%
D40*
%TO.C,IC2*%
X176601500Y-75345000D03*
X174061500Y-75345000D03*
X171521500Y-75345000D03*
X168981500Y-75345000D03*
X168981500Y-92105000D03*
X171521500Y-92105000D03*
X174061500Y-92105000D03*
X176601500Y-92105000D03*
%TD*%
D30*
%TO.C,C3*%
X115330000Y-81320000D03*
X113430000Y-81320000D03*
%TD*%
D38*
%TO.C,J8*%
X177075000Y-102065000D03*
D39*
X177075000Y-96985000D03*
%TD*%
D41*
%TO.C,U5*%
X121750000Y-61490000D03*
X121750000Y-62760000D03*
X121750000Y-64030000D03*
X121750000Y-65300000D03*
X121750000Y-66570000D03*
X121750000Y-67840000D03*
X121750000Y-69110000D03*
X121750000Y-70380000D03*
X121750000Y-71650000D03*
X121750000Y-72920000D03*
X121750000Y-74190000D03*
X121750000Y-75460000D03*
X121750000Y-76730000D03*
X121750000Y-78000000D03*
D42*
X123515000Y-79250000D03*
X124785000Y-79250000D03*
X126055000Y-79250000D03*
X127325000Y-79250000D03*
X128595000Y-79250000D03*
X129865000Y-79250000D03*
X131135000Y-79250000D03*
X132405000Y-79250000D03*
X133675000Y-79250000D03*
X134945000Y-79250000D03*
X136215000Y-79250000D03*
X137485000Y-79250000D03*
D41*
X139250000Y-78000000D03*
X139250000Y-76730000D03*
X139250000Y-75460000D03*
X139250000Y-74190000D03*
X139250000Y-72920000D03*
X139250000Y-71650000D03*
X139250000Y-70380000D03*
X139250000Y-69110000D03*
X139250000Y-67840000D03*
X139250000Y-66570000D03*
X139250000Y-65300000D03*
X139250000Y-64030000D03*
X139250000Y-62760000D03*
X139250000Y-61490000D03*
D43*
X127600000Y-67810000D03*
X127600000Y-69210000D03*
X127600000Y-70610000D03*
X129000000Y-67810000D03*
X129000000Y-69210000D03*
X129000000Y-70610000D03*
X130400000Y-67810000D03*
X130400000Y-69210000D03*
X130400000Y-70610000D03*
%TD*%
D44*
%TO.C,D4*%
X138650000Y-50875000D03*
X136775000Y-50875000D03*
%TD*%
D45*
%TO.C,C15*%
X171800000Y-49650000D03*
X171800000Y-47750000D03*
%TD*%
D46*
%TO.C,R8*%
X136870000Y-47775000D03*
X138695000Y-47775000D03*
%TD*%
D16*
%TO.C,C21*%
X157350000Y-99425000D03*
X157350000Y-101325000D03*
%TD*%
D10*
%TO.C,R2*%
X108600000Y-90600000D03*
X106775000Y-90600000D03*
%TD*%
D15*
%TO.C,R7*%
X117800000Y-109287500D03*
X117800000Y-111112500D03*
%TD*%
D47*
%TO.C,U3*%
X111485000Y-77170000D03*
X111485000Y-77670000D03*
D48*
X111522500Y-78170000D03*
D47*
X111485000Y-78670000D03*
X111485000Y-79170000D03*
X112260000Y-79170000D03*
X112260000Y-78670000D03*
D49*
X112285000Y-78170000D03*
D47*
X112260000Y-77670000D03*
X112260000Y-77170000D03*
%TD*%
D15*
%TO.C,R1*%
X130400000Y-83137500D03*
X130400000Y-84962500D03*
%TD*%
D16*
%TO.C,C32*%
X143800000Y-81575000D03*
X143800000Y-83475000D03*
%TD*%
%TO.C,C8*%
X117230000Y-73570000D03*
X117230000Y-75470000D03*
%TD*%
D45*
%TO.C,C22*%
X154475000Y-101300000D03*
X154475000Y-99400000D03*
%TD*%
D37*
%TO.C,H4*%
X177539592Y-110464592D03*
%TD*%
D16*
%TO.C,C1*%
X117525000Y-93350000D03*
X117525000Y-95250000D03*
%TD*%
D38*
%TO.C,J6*%
X162500000Y-42000000D03*
D39*
X157420000Y-42000000D03*
%TD*%
D46*
%TO.C,R5*%
X134555000Y-81490000D03*
X136380000Y-81490000D03*
%TD*%
D10*
%TO.C,R3*%
X138825000Y-58225000D03*
X137000000Y-58225000D03*
%TD*%
D19*
%TO.C,TP16*%
X167310000Y-98830000D03*
%TD*%
D50*
%TO.C,U10*%
X142650000Y-57581900D03*
X147222000Y-57581900D03*
D51*
X144936000Y-50482600D03*
%TD*%
D19*
%TO.C,TP3*%
X158800000Y-62240000D03*
%TD*%
D45*
%TO.C,C14*%
X169175000Y-49700000D03*
X169175000Y-47800000D03*
%TD*%
D35*
%TO.C,C20*%
X167125000Y-101450000D03*
X169025000Y-101450000D03*
%TD*%
D30*
%TO.C,C10*%
X123200000Y-58500000D03*
X121300000Y-58500000D03*
%TD*%
%TO.C,C17*%
X171740000Y-66160000D03*
X169840000Y-66160000D03*
%TD*%
D47*
%TO.C,U13*%
X177225000Y-71425000D03*
X177225000Y-70925000D03*
D48*
X177187500Y-70425000D03*
D47*
X177225000Y-69925000D03*
X177225000Y-69425000D03*
X176450000Y-69425000D03*
X176450000Y-69925000D03*
D49*
X176425000Y-70425000D03*
D47*
X176450000Y-70925000D03*
X176450000Y-71425000D03*
%TD*%
D52*
%TO.C,U6*%
X182340000Y-52321990D03*
X181240030Y-52321990D03*
X180140000Y-52321990D03*
X179040030Y-52321990D03*
X177940010Y-52321990D03*
X176840030Y-52321990D03*
X175740010Y-52321990D03*
X174640040Y-52321990D03*
X173540010Y-52321990D03*
X172440040Y-52321990D03*
X171340020Y-52321990D03*
D53*
X169540020Y-53876020D03*
D54*
X169540020Y-54975990D03*
X169540020Y-56076010D03*
X169540020Y-57175990D03*
X169540020Y-58276010D03*
X169540020Y-59375980D03*
D52*
X171340020Y-60958000D03*
X172440040Y-60958000D03*
X173540010Y-60958000D03*
X174640040Y-60958000D03*
X175740010Y-60958000D03*
X176840030Y-60958000D03*
X177940010Y-60958000D03*
X179040030Y-60958000D03*
X180140000Y-60958000D03*
X181240030Y-60958000D03*
X182340000Y-60958000D03*
%TD*%
D55*
%TO.C,SW1*%
X140275000Y-54850000D03*
X132525000Y-54850000D03*
%TD*%
D44*
%TO.C,D1*%
X108650000Y-92825000D03*
X106775000Y-92825000D03*
%TD*%
D56*
%TO.C,L2*%
X171780000Y-63840000D03*
X169655000Y-63840000D03*
%TD*%
D57*
%TO.C,J10*%
X105475000Y-48575000D03*
D58*
X106950000Y-50100000D03*
D57*
X108425000Y-48575000D03*
%TD*%
D45*
%TO.C,C11*%
X138440000Y-85030000D03*
X138440000Y-83130000D03*
%TD*%
D59*
%TO.C,U15*%
X144770000Y-78550000D03*
X145620000Y-78550000D03*
X146470000Y-78550000D03*
X147320000Y-78550000D03*
X148170000Y-78550000D03*
X149020000Y-78550000D03*
X149870000Y-78550000D03*
X150720000Y-78550000D03*
X151570000Y-78550000D03*
X152420000Y-78550000D03*
X153270000Y-78550000D03*
X154120000Y-78550000D03*
X154970000Y-78550000D03*
X155820000Y-78550000D03*
X156670000Y-78550000D03*
D60*
X157720000Y-77500000D03*
X157720000Y-76650000D03*
X157720000Y-75800000D03*
X157720000Y-74950000D03*
X157720000Y-74100000D03*
X157720000Y-73250000D03*
X157720000Y-72400000D03*
X157720000Y-71550000D03*
X157720000Y-70700000D03*
X157720000Y-69850000D03*
X157720000Y-69000000D03*
X157720000Y-68150000D03*
X157720000Y-67300000D03*
X157720000Y-66450000D03*
X157720000Y-65600000D03*
D59*
X156670000Y-64550000D03*
X155820000Y-64550000D03*
X154970000Y-64550000D03*
X154120000Y-64550000D03*
X153270000Y-64550000D03*
X152420000Y-64550000D03*
X151570000Y-64550000D03*
X150720000Y-64550000D03*
X149870000Y-64550000D03*
X149020000Y-64550000D03*
X148170000Y-64550000D03*
X147320000Y-64550000D03*
X146470000Y-64550000D03*
X145620000Y-64550000D03*
X144770000Y-64550000D03*
D60*
X143720000Y-65600000D03*
X143720000Y-66450000D03*
X143720000Y-67300000D03*
X143720000Y-68150000D03*
X143720000Y-69000000D03*
X143720000Y-69850000D03*
X143720000Y-70700000D03*
X143720000Y-71550000D03*
X143720000Y-72400000D03*
X143720000Y-73250000D03*
X143720000Y-74100000D03*
X143720000Y-74950000D03*
X143720000Y-75800000D03*
X143720000Y-76650000D03*
X143720000Y-77500000D03*
D61*
X149070000Y-73200000D03*
D27*
X150720000Y-73200000D03*
X152370000Y-73200000D03*
X149070000Y-71550000D03*
X150720000Y-71550000D03*
X152370000Y-71550000D03*
X149070000Y-69900000D03*
X150720000Y-69900000D03*
X152370000Y-69900000D03*
D62*
X143720000Y-78550000D03*
X157720000Y-78550000D03*
X157720000Y-64550000D03*
X143720000Y-64550000D03*
%TD*%
D63*
%TO.C,U12*%
X159417500Y-49685000D03*
X157117500Y-49685000D03*
D64*
X157117500Y-55985000D03*
D63*
X154817500Y-49685000D03*
%TD*%
D19*
%TO.C,TP1*%
X118320000Y-83550000D03*
%TD*%
D30*
%TO.C,C9*%
X123125000Y-56150000D03*
X121225000Y-56150000D03*
%TD*%
D11*
%TO.C,J1*%
X107780000Y-76450000D03*
X107780000Y-77100000D03*
X107780000Y-77750000D03*
X107780000Y-78400000D03*
X107780000Y-79050000D03*
D12*
X105130000Y-74175000D03*
D13*
X107360000Y-75430000D03*
D14*
X105130000Y-76625000D03*
X105130000Y-78875000D03*
D13*
X107360000Y-80070000D03*
D12*
X105130000Y-81325000D03*
%TD*%
D50*
%TO.C,U7*%
X125539000Y-57756900D03*
X130111000Y-57756900D03*
D51*
X127825000Y-50657600D03*
%TD*%
D30*
%TO.C,C4*%
X108602500Y-86070000D03*
X106702500Y-86070000D03*
%TD*%
D65*
%TO.C,U1*%
X117240000Y-90752500D03*
X117240000Y-88452500D03*
D66*
X110940000Y-88452500D03*
D65*
X117240000Y-86152500D03*
%TD*%
D55*
%TO.C,SW2*%
X167675000Y-67075000D03*
X159925000Y-67075000D03*
%TD*%
D35*
%TO.C,C12*%
X132975000Y-58200000D03*
X134875000Y-58200000D03*
%TD*%
D37*
%TO.C,H1*%
X109690408Y-42510408D03*
%TD*%
D67*
%TO.C,D5*%
X106750000Y-88400000D03*
X108625000Y-88400000D03*
%TD*%
%TO.C,D3*%
X132862500Y-47775000D03*
X134737500Y-47775000D03*
%TD*%
D16*
%TO.C,C16*%
X166050000Y-53950000D03*
X166050000Y-55850000D03*
%TD*%
D68*
%TO.C,U4*%
X135520126Y-83385200D03*
X135020000Y-83385200D03*
D69*
X134482663Y-83672474D03*
X134482663Y-84172600D03*
X134482663Y-84672726D03*
D68*
X135020000Y-84960000D03*
X135520126Y-84960000D03*
D69*
X136057463Y-84672726D03*
X136057463Y-84172600D03*
X136057463Y-83672474D03*
%TD*%
D16*
%TO.C,C30*%
X154115000Y-58480000D03*
X154115000Y-60380000D03*
%TD*%
D29*
%TO.C,D2*%
X115350000Y-106712500D03*
X115350000Y-108587500D03*
%TD*%
D37*
%TO.C,H3*%
X109690408Y-110489592D03*
%TD*%
D16*
%TO.C,C28*%
X151720000Y-58447500D03*
X151720000Y-60347500D03*
%TD*%
D30*
%TO.C,C25*%
X164700000Y-63700000D03*
X162800000Y-63700000D03*
%TD*%
D19*
%TO.C,TP18*%
X157010000Y-95800000D03*
%TD*%
D30*
%TO.C,C26*%
X151930000Y-52130000D03*
X150030000Y-52130000D03*
%TD*%
D35*
%TO.C,C18*%
X174200000Y-65920000D03*
X176100000Y-65920000D03*
%TD*%
D16*
%TO.C,C6*%
X114920000Y-73560000D03*
X114920000Y-75460000D03*
%TD*%
D70*
%TO.C,U9*%
X106190000Y-54370000D03*
X106190000Y-55370000D03*
X106190000Y-56370000D03*
X106190000Y-57370000D03*
X106190000Y-58370000D03*
X106190000Y-59370000D03*
X106190000Y-60370000D03*
X106190000Y-61370000D03*
X106190000Y-62370000D03*
X106190000Y-63370000D03*
D71*
X106890000Y-65070000D03*
X107890000Y-65070000D03*
X108890000Y-65070000D03*
X109890000Y-65070000D03*
X110890000Y-65070000D03*
X111890000Y-65070000D03*
X112890000Y-65070000D03*
X113890000Y-65070000D03*
X114890000Y-65070000D03*
X115890000Y-65070000D03*
X116890000Y-65070000D03*
X117890000Y-65070000D03*
D70*
X118590000Y-63370000D03*
X118590000Y-62370000D03*
X118590000Y-61370000D03*
X118590000Y-60370000D03*
X118590000Y-59370000D03*
X118590000Y-58370000D03*
X118590000Y-57370000D03*
X118590000Y-56370000D03*
X118590000Y-55370000D03*
X118590000Y-54370000D03*
D71*
X117890000Y-52670000D03*
X116890000Y-52670000D03*
X115890000Y-52670000D03*
X114890000Y-52670000D03*
X113890000Y-52670000D03*
X112890000Y-52670000D03*
X111890000Y-52670000D03*
X110890000Y-52670000D03*
X109890000Y-52670000D03*
X108890000Y-52670000D03*
X107890000Y-52670000D03*
X106890000Y-52670000D03*
%TD*%
D30*
%TO.C,C2*%
X115330000Y-83570000D03*
X113430000Y-83570000D03*
%TD*%
D38*
%TO.C,J4*%
X123500000Y-42000000D03*
D39*
X118420000Y-42000000D03*
%TD*%
D38*
%TO.C,J3*%
X136500000Y-42000000D03*
D39*
X131420000Y-42000000D03*
%TD*%
D56*
%TO.C,L1*%
X180930000Y-64570000D03*
X178805000Y-64570000D03*
%TD*%
D19*
%TO.C,TP17*%
X167375000Y-95100000D03*
%TD*%
D10*
%TO.C,R10*%
X134587500Y-50850000D03*
X132762500Y-50850000D03*
%TD*%
D38*
%TO.C,J9*%
X161135000Y-109350000D03*
D39*
X166215000Y-109350000D03*
%TD*%
D35*
%TO.C,C19*%
X167100000Y-103850000D03*
X169000000Y-103850000D03*
%TD*%
D38*
%TO.C,J5*%
X149500000Y-42000000D03*
D39*
X144420000Y-42000000D03*
%TD*%
D16*
%TO.C,C7*%
X113840000Y-68125000D03*
X113840000Y-70025000D03*
%TD*%
D72*
%TO.C,L3*%
X174247500Y-63830000D03*
X176372500Y-63830000D03*
%TD*%
D32*
%TO.C,R4*%
X132490000Y-84992500D03*
X132490000Y-83167500D03*
%TD*%
M02*
