%TF.GenerationSoftware,KiCad,Pcbnew,8.0.3*%
%TF.CreationDate,2025-02-14T19:05:39+05:30*%
%TF.ProjectId,Cyclohexane,4379636c-6f68-4657-9861-6e652e6b6963,rev?*%
%TF.SameCoordinates,Original*%
%TF.FileFunction,Copper,L2,Inr*%
%TF.FilePolarity,Positive*%
%FSLAX46Y46*%
G04 Gerber Fmt 4.6, Leading zero omitted, Abs format (unit mm)*
G04 Created by KiCad (PCBNEW 8.0.3) date 2025-02-14 19:05:39*
%MOMM*%
%LPD*%
G01*
G04 APERTURE LIST*
%TA.AperFunction,ComponentPad*%
%ADD10O,1.900000X1.050000*%
%TD*%
%TA.AperFunction,ComponentPad*%
%ADD11C,7.500000*%
%TD*%
%TA.AperFunction,ComponentPad*%
%ADD12R,3.000000X3.000000*%
%TD*%
%TA.AperFunction,ComponentPad*%
%ADD13C,3.000000*%
%TD*%
%TA.AperFunction,ViaPad*%
%ADD14C,0.600000*%
%TD*%
G04 APERTURE END LIST*
D10*
%TO.N,GND*%
%TO.C,J7*%
X182100000Y-74400000D03*
X182100000Y-67250000D03*
%TD*%
D11*
%TO.N,GND*%
%TO.C,H2*%
X177569592Y-42510408D03*
%TD*%
D12*
%TO.N,GND*%
%TO.C,J11*%
X110200000Y-97410000D03*
D13*
%TO.N,5Vout_Cam*%
X110200000Y-102490000D03*
%TD*%
D12*
%TO.N,GND*%
%TO.C,J8*%
X177075000Y-102065000D03*
D13*
%TO.N,Servo_PWM*%
X177075000Y-96985000D03*
%TD*%
D11*
%TO.N,GND*%
%TO.C,H4*%
X177539592Y-110464592D03*
%TD*%
D12*
%TO.N,GND*%
%TO.C,J6*%
X162500000Y-42000000D03*
D13*
%TO.N,3.7Vin*%
X157420000Y-42000000D03*
%TD*%
D10*
%TO.N,GND*%
%TO.C,J1*%
X105130000Y-74175000D03*
X105130000Y-81325000D03*
%TD*%
D11*
%TO.N,GND*%
%TO.C,H1*%
X109690408Y-42510408D03*
%TD*%
%TO.N,GND*%
%TO.C,H3*%
X109690408Y-110489592D03*
%TD*%
D12*
%TO.N,Net-(D3-K)*%
%TO.C,J4*%
X123500000Y-42000000D03*
D13*
%TO.N,Net-(J4-Pin_2)*%
X118420000Y-42000000D03*
%TD*%
D12*
%TO.N,Net-(J3-Pin_1)*%
%TO.C,J3*%
X136500000Y-42000000D03*
D13*
%TO.N,GND*%
X131420000Y-42000000D03*
%TD*%
D12*
%TO.N,GND*%
%TO.C,J9*%
X161135000Y-109350000D03*
D13*
%TO.N,7.4Vin_Cam*%
X166215000Y-109350000D03*
%TD*%
D12*
%TO.N,Net-(D4-K)*%
%TO.C,J5*%
X149500000Y-42000000D03*
D13*
%TO.N,Net-(J5-Pin_2)*%
X144420000Y-42000000D03*
%TD*%
D14*
%TO.N,3.3V_OUT*%
X140375000Y-58225000D03*
X156450000Y-62075000D03*
X140620000Y-83140000D03*
X107875000Y-67200000D03*
X166050000Y-51700000D03*
X123225000Y-62725000D03*
X113850000Y-71700000D03*
X134550000Y-86000000D03*
X115400000Y-93350000D03*
X105175000Y-88425000D03*
X123175000Y-93350000D03*
X146475000Y-80175000D03*
%TO.N,GND*%
X134900000Y-111525000D03*
X160400000Y-82425000D03*
X105930000Y-53080000D03*
X110950000Y-61950000D03*
X105930000Y-64760000D03*
X143650000Y-86150000D03*
X118900000Y-64760000D03*
X109925000Y-50325000D03*
X114700000Y-71225000D03*
X118900000Y-53080000D03*
X114275000Y-45875000D03*
X140775000Y-59775000D03*
X114800000Y-56000000D03*
X138400000Y-96475000D03*
X169400000Y-44200000D03*
X148775000Y-86625000D03*
X116925000Y-48550000D03*
X125250000Y-111500000D03*
X141575000Y-76550000D03*
X172550000Y-105775000D03*
X107550000Y-69600000D03*
X162025000Y-77525000D03*
X150550000Y-55650000D03*
%TO.N,5V_USB*%
X110325000Y-78700000D03*
X110325000Y-76450000D03*
%TO.N,TX_GPS*%
X169870000Y-69220000D03*
X141410000Y-67650000D03*
%TO.N,RX_GPS*%
X141310000Y-65860000D03*
X175040000Y-67850000D03*
%TO.N,GPS_STDB*%
X180180000Y-62800000D03*
X141100000Y-63650000D03*
%TO.N,DRG*%
X125520000Y-60260000D03*
X125490000Y-65270000D03*
%TO.N,RYLR_TX*%
X120050000Y-65275000D03*
X111895000Y-54315000D03*
%TO.N,RYLR_RX*%
X110895000Y-55065000D03*
X119650000Y-66525000D03*
%TO.N,Net-(U9-PH3)*%
X111630000Y-67695000D03*
X107920000Y-59465000D03*
%TO.N,5V_USB2*%
X178175000Y-72125000D03*
X178175000Y-69925000D03*
%TO.N,Servo_PWM*%
X169375000Y-97000000D03*
X156670000Y-83900000D03*
%TO.N,Pitot_1*%
X151575000Y-103525000D03*
X151575000Y-99975000D03*
%TO.N,RST*%
X132525000Y-52475000D03*
X123650000Y-52050000D03*
%TO.N,RST_1*%
X153725000Y-65775000D03*
X159775000Y-65725000D03*
%TO.N,S3_COMMS_SDA*%
X148120000Y-75630000D03*
X142040000Y-71220000D03*
%TO.N,S3_COMMS_SCL*%
X141640000Y-72460000D03*
X147960000Y-76850000D03*
%TD*%
%TA.AperFunction,Conductor*%
%TO.N,GND*%
G36*
X176082239Y-37000579D02*
G01*
X176574858Y-37018173D01*
X176583804Y-37018814D01*
X177071678Y-37071266D01*
X177080540Y-37072540D01*
X177563425Y-37159662D01*
X177572212Y-37161574D01*
X178047626Y-37282916D01*
X178056255Y-37285450D01*
X178521803Y-37440398D01*
X178530219Y-37443536D01*
X178983551Y-37631313D01*
X178991718Y-37635044D01*
X179430474Y-37854669D01*
X179438368Y-37858979D01*
X179860344Y-38109349D01*
X179867907Y-38114209D01*
X180270958Y-38394053D01*
X180278140Y-38399429D01*
X180660189Y-38707303D01*
X180666987Y-38713193D01*
X181026100Y-39047539D01*
X181032458Y-39053897D01*
X181366806Y-39413012D01*
X181372696Y-39419810D01*
X181680563Y-39801850D01*
X181685953Y-39809050D01*
X181965787Y-40212088D01*
X181970650Y-40219655D01*
X182221020Y-40641631D01*
X182225330Y-40649525D01*
X182444952Y-41088274D01*
X182448689Y-41096456D01*
X182636458Y-41549768D01*
X182639601Y-41558196D01*
X182794549Y-42023744D01*
X182797083Y-42032373D01*
X182918425Y-42507787D01*
X182920337Y-42516576D01*
X183007456Y-42999439D01*
X183008736Y-43008342D01*
X183061184Y-43496182D01*
X183061826Y-43505154D01*
X183079420Y-43997760D01*
X183079500Y-44002257D01*
X183079500Y-108997742D01*
X183079420Y-109002239D01*
X183061826Y-109494845D01*
X183061184Y-109503817D01*
X183008736Y-109991657D01*
X183007456Y-110000560D01*
X182920337Y-110483423D01*
X182918425Y-110492212D01*
X182797083Y-110967626D01*
X182794549Y-110976255D01*
X182639601Y-111441803D01*
X182636458Y-111450231D01*
X182448689Y-111903543D01*
X182444952Y-111911725D01*
X182225330Y-112350474D01*
X182221020Y-112358368D01*
X181970650Y-112780344D01*
X181965787Y-112787911D01*
X181685953Y-113190949D01*
X181680563Y-113198149D01*
X181372696Y-113580189D01*
X181366806Y-113586987D01*
X181032460Y-113946100D01*
X181026100Y-113952460D01*
X180666987Y-114286806D01*
X180660189Y-114292696D01*
X180278149Y-114600563D01*
X180270949Y-114605953D01*
X179867911Y-114885787D01*
X179860344Y-114890650D01*
X179438368Y-115141020D01*
X179430474Y-115145330D01*
X178991725Y-115364952D01*
X178983543Y-115368689D01*
X178530231Y-115556458D01*
X178521803Y-115559601D01*
X178056255Y-115714549D01*
X178047626Y-115717083D01*
X177572212Y-115838425D01*
X177563423Y-115840337D01*
X177080560Y-115927456D01*
X177071657Y-115928736D01*
X176583817Y-115981184D01*
X176574845Y-115981826D01*
X176082240Y-115999420D01*
X176077743Y-115999500D01*
X111182257Y-115999500D01*
X111177760Y-115999420D01*
X110685154Y-115981826D01*
X110676182Y-115981184D01*
X110188342Y-115928736D01*
X110179439Y-115927456D01*
X109696576Y-115840337D01*
X109687787Y-115838425D01*
X109212373Y-115717083D01*
X109203744Y-115714549D01*
X108738196Y-115559601D01*
X108729768Y-115556458D01*
X108276456Y-115368689D01*
X108268274Y-115364952D01*
X107829525Y-115145330D01*
X107821631Y-115141020D01*
X107399655Y-114890650D01*
X107392088Y-114885787D01*
X106989050Y-114605953D01*
X106981850Y-114600563D01*
X106599810Y-114292696D01*
X106593012Y-114286806D01*
X106233899Y-113952460D01*
X106227539Y-113946100D01*
X106125975Y-113837013D01*
X105893190Y-113586984D01*
X105887303Y-113580189D01*
X105734401Y-113390449D01*
X105579429Y-113198140D01*
X105574053Y-113190958D01*
X105294209Y-112787907D01*
X105289349Y-112780344D01*
X105086278Y-112438087D01*
X105038976Y-112358363D01*
X105034669Y-112350474D01*
X104815047Y-111911725D01*
X104811310Y-111903543D01*
X104623541Y-111450231D01*
X104620398Y-111441803D01*
X104465450Y-110976255D01*
X104462916Y-110967626D01*
X104341574Y-110492212D01*
X104339662Y-110483423D01*
X104310188Y-110320060D01*
X104252540Y-110000540D01*
X104251266Y-109991678D01*
X104198814Y-109503804D01*
X104198173Y-109494845D01*
X104193000Y-109350000D01*
X164564632Y-109350000D01*
X164584951Y-109608173D01*
X164645406Y-109859990D01*
X164645407Y-109859992D01*
X164744511Y-110099251D01*
X164879824Y-110320062D01*
X165048014Y-110516986D01*
X165244938Y-110685176D01*
X165465749Y-110820489D01*
X165705008Y-110919593D01*
X165956826Y-110980049D01*
X166215000Y-111000368D01*
X166473174Y-110980049D01*
X166724992Y-110919593D01*
X166964251Y-110820489D01*
X167185062Y-110685176D01*
X167381986Y-110516986D01*
X167550176Y-110320062D01*
X167685489Y-110099251D01*
X167784593Y-109859992D01*
X167845049Y-109608174D01*
X167865368Y-109350000D01*
X167845049Y-109091826D01*
X167784593Y-108840008D01*
X167685489Y-108600749D01*
X167550176Y-108379938D01*
X167381986Y-108183014D01*
X167185062Y-108014824D01*
X166964251Y-107879511D01*
X166724992Y-107780407D01*
X166724990Y-107780406D01*
X166552728Y-107739050D01*
X166473174Y-107719951D01*
X166215000Y-107699632D01*
X165956826Y-107719951D01*
X165705009Y-107780406D01*
X165465750Y-107879510D01*
X165244939Y-108014823D01*
X165048014Y-108183014D01*
X164879823Y-108379939D01*
X164744510Y-108600750D01*
X164645406Y-108840009D01*
X164584951Y-109091826D01*
X164564632Y-109350000D01*
X104193000Y-109350000D01*
X104180580Y-109002239D01*
X104180500Y-108997742D01*
X104180500Y-102490000D01*
X108549632Y-102490000D01*
X108569951Y-102748173D01*
X108630406Y-102999990D01*
X108707047Y-103185017D01*
X108729511Y-103239251D01*
X108864824Y-103460062D01*
X109033014Y-103656986D01*
X109229938Y-103825176D01*
X109450749Y-103960489D01*
X109690008Y-104059593D01*
X109941826Y-104120049D01*
X110200000Y-104140368D01*
X110458174Y-104120049D01*
X110709992Y-104059593D01*
X110949251Y-103960489D01*
X111170062Y-103825176D01*
X111366986Y-103656986D01*
X111479713Y-103525000D01*
X151125141Y-103525000D01*
X151143363Y-103651742D01*
X151196553Y-103768209D01*
X151196555Y-103768212D01*
X151280406Y-103864982D01*
X151334263Y-103899593D01*
X151388122Y-103934206D01*
X151477633Y-103960489D01*
X151510974Y-103970279D01*
X151510975Y-103970279D01*
X151510978Y-103970280D01*
X151510981Y-103970280D01*
X151639019Y-103970280D01*
X151639022Y-103970280D01*
X151761878Y-103934206D01*
X151869595Y-103864981D01*
X151953445Y-103768212D01*
X152006637Y-103651740D01*
X152024859Y-103525000D01*
X152006637Y-103398260D01*
X151953445Y-103281788D01*
X151869595Y-103185019D01*
X151869594Y-103185018D01*
X151869593Y-103185017D01*
X151761878Y-103115794D01*
X151639025Y-103079720D01*
X151639022Y-103079720D01*
X151510978Y-103079720D01*
X151510974Y-103079720D01*
X151388121Y-103115794D01*
X151280406Y-103185017D01*
X151196555Y-103281787D01*
X151196553Y-103281790D01*
X151143363Y-103398257D01*
X151125141Y-103525000D01*
X111479713Y-103525000D01*
X111535176Y-103460062D01*
X111670489Y-103239251D01*
X111769593Y-102999992D01*
X111830049Y-102748174D01*
X111850368Y-102490000D01*
X111830049Y-102231826D01*
X111769593Y-101980008D01*
X111670489Y-101740749D01*
X111535176Y-101519938D01*
X111366986Y-101323014D01*
X111170062Y-101154824D01*
X110949251Y-101019511D01*
X110709992Y-100920407D01*
X110709990Y-100920406D01*
X110537728Y-100879050D01*
X110458174Y-100859951D01*
X110200000Y-100839632D01*
X109941826Y-100859951D01*
X109690009Y-100920406D01*
X109450750Y-101019510D01*
X109229939Y-101154823D01*
X109033014Y-101323014D01*
X108864823Y-101519939D01*
X108729510Y-101740750D01*
X108630406Y-101980009D01*
X108569951Y-102231826D01*
X108549632Y-102490000D01*
X104180500Y-102490000D01*
X104180500Y-99975000D01*
X151125141Y-99975000D01*
X151143363Y-100101742D01*
X151196553Y-100218209D01*
X151196555Y-100218212D01*
X151280406Y-100314982D01*
X151334263Y-100349593D01*
X151388122Y-100384206D01*
X151486635Y-100413132D01*
X151510974Y-100420279D01*
X151510975Y-100420279D01*
X151510978Y-100420280D01*
X151510981Y-100420280D01*
X151639019Y-100420280D01*
X151639022Y-100420280D01*
X151761878Y-100384206D01*
X151869595Y-100314981D01*
X151953445Y-100218212D01*
X152006637Y-100101740D01*
X152024859Y-99975000D01*
X152006637Y-99848260D01*
X151953445Y-99731788D01*
X151869595Y-99635019D01*
X151869594Y-99635018D01*
X151869593Y-99635017D01*
X151761878Y-99565794D01*
X151639025Y-99529720D01*
X151639022Y-99529720D01*
X151510978Y-99529720D01*
X151510974Y-99529720D01*
X151388121Y-99565794D01*
X151280406Y-99635017D01*
X151196555Y-99731787D01*
X151196553Y-99731790D01*
X151143363Y-99848257D01*
X151125141Y-99975000D01*
X104180500Y-99975000D01*
X104180500Y-97000000D01*
X168925141Y-97000000D01*
X168943363Y-97126742D01*
X168996553Y-97243209D01*
X168996555Y-97243212D01*
X169080406Y-97339982D01*
X169134263Y-97374593D01*
X169188122Y-97409206D01*
X169286635Y-97438132D01*
X169310974Y-97445279D01*
X169310975Y-97445279D01*
X169310978Y-97445280D01*
X169310981Y-97445280D01*
X169439019Y-97445280D01*
X169439022Y-97445280D01*
X169561878Y-97409206D01*
X169669595Y-97339981D01*
X169753445Y-97243212D01*
X169806637Y-97126740D01*
X169824859Y-97000000D01*
X169822702Y-96985000D01*
X175424632Y-96985000D01*
X175444951Y-97243174D01*
X175444960Y-97243212D01*
X175505406Y-97494990D01*
X175505407Y-97494992D01*
X175604511Y-97734251D01*
X175739824Y-97955062D01*
X175908014Y-98151986D01*
X176104938Y-98320176D01*
X176325749Y-98455489D01*
X176565008Y-98554593D01*
X176816826Y-98615049D01*
X177075000Y-98635368D01*
X177333174Y-98615049D01*
X177584992Y-98554593D01*
X177824251Y-98455489D01*
X178045062Y-98320176D01*
X178241986Y-98151986D01*
X178410176Y-97955062D01*
X178545489Y-97734251D01*
X178644593Y-97494992D01*
X178705049Y-97243174D01*
X178725368Y-96985000D01*
X178705049Y-96726826D01*
X178644593Y-96475008D01*
X178545489Y-96235749D01*
X178410176Y-96014938D01*
X178241986Y-95818014D01*
X178045062Y-95649824D01*
X177824251Y-95514511D01*
X177584992Y-95415407D01*
X177584990Y-95415406D01*
X177412728Y-95374050D01*
X177333174Y-95354951D01*
X177075000Y-95334632D01*
X176816826Y-95354951D01*
X176565009Y-95415406D01*
X176325750Y-95514510D01*
X176104939Y-95649823D01*
X175908014Y-95818014D01*
X175739823Y-96014939D01*
X175604510Y-96235750D01*
X175505406Y-96475009D01*
X175477609Y-96590794D01*
X175444951Y-96726826D01*
X175424632Y-96985000D01*
X169822702Y-96985000D01*
X169806637Y-96873260D01*
X169753445Y-96756788D01*
X169669595Y-96660019D01*
X169669594Y-96660018D01*
X169669593Y-96660017D01*
X169561878Y-96590794D01*
X169439025Y-96554720D01*
X169439022Y-96554720D01*
X169310978Y-96554720D01*
X169310974Y-96554720D01*
X169188121Y-96590794D01*
X169080406Y-96660017D01*
X168996555Y-96756787D01*
X168996553Y-96756790D01*
X168943363Y-96873257D01*
X168925141Y-97000000D01*
X104180500Y-97000000D01*
X104180500Y-93350000D01*
X114950141Y-93350000D01*
X114968363Y-93476742D01*
X115021553Y-93593209D01*
X115021555Y-93593212D01*
X115105406Y-93689982D01*
X115159263Y-93724593D01*
X115213122Y-93759206D01*
X115311635Y-93788132D01*
X115335974Y-93795279D01*
X115335975Y-93795279D01*
X115335978Y-93795280D01*
X115335981Y-93795280D01*
X115464019Y-93795280D01*
X115464022Y-93795280D01*
X115586878Y-93759206D01*
X115694595Y-93689981D01*
X115778445Y-93593212D01*
X115831637Y-93476740D01*
X115849859Y-93350000D01*
X122725141Y-93350000D01*
X122743363Y-93476742D01*
X122796553Y-93593209D01*
X122796555Y-93593212D01*
X122880406Y-93689982D01*
X122934263Y-93724593D01*
X122988122Y-93759206D01*
X123086635Y-93788132D01*
X123110974Y-93795279D01*
X123110975Y-93795279D01*
X123110978Y-93795280D01*
X123110981Y-93795280D01*
X123239019Y-93795280D01*
X123239022Y-93795280D01*
X123361878Y-93759206D01*
X123469595Y-93689981D01*
X123553445Y-93593212D01*
X123606637Y-93476740D01*
X123624859Y-93350000D01*
X123606637Y-93223260D01*
X123553445Y-93106788D01*
X123469595Y-93010019D01*
X123469594Y-93010018D01*
X123469593Y-93010017D01*
X123361878Y-92940794D01*
X123239025Y-92904720D01*
X123239022Y-92904720D01*
X123110978Y-92904720D01*
X123110974Y-92904720D01*
X122988121Y-92940794D01*
X122880406Y-93010017D01*
X122796555Y-93106787D01*
X122796553Y-93106790D01*
X122743363Y-93223257D01*
X122725141Y-93350000D01*
X115849859Y-93350000D01*
X115831637Y-93223260D01*
X115778445Y-93106788D01*
X115694595Y-93010019D01*
X115694594Y-93010018D01*
X115694593Y-93010017D01*
X115586878Y-92940794D01*
X115464025Y-92904720D01*
X115464022Y-92904720D01*
X115335978Y-92904720D01*
X115335974Y-92904720D01*
X115213121Y-92940794D01*
X115105406Y-93010017D01*
X115021555Y-93106787D01*
X115021553Y-93106790D01*
X114968363Y-93223257D01*
X114950141Y-93350000D01*
X104180500Y-93350000D01*
X104180500Y-88425000D01*
X104725141Y-88425000D01*
X104743363Y-88551742D01*
X104796553Y-88668209D01*
X104796555Y-88668212D01*
X104880406Y-88764982D01*
X104934263Y-88799593D01*
X104988122Y-88834206D01*
X105086635Y-88863132D01*
X105110974Y-88870279D01*
X105110975Y-88870279D01*
X105110978Y-88870280D01*
X105110981Y-88870280D01*
X105239019Y-88870280D01*
X105239022Y-88870280D01*
X105361878Y-88834206D01*
X105469595Y-88764981D01*
X105553445Y-88668212D01*
X105606637Y-88551740D01*
X105624859Y-88425000D01*
X105606637Y-88298260D01*
X105553445Y-88181788D01*
X105469595Y-88085019D01*
X105469594Y-88085018D01*
X105469593Y-88085017D01*
X105361878Y-88015794D01*
X105239025Y-87979720D01*
X105239022Y-87979720D01*
X105110978Y-87979720D01*
X105110974Y-87979720D01*
X104988121Y-88015794D01*
X104880406Y-88085017D01*
X104796555Y-88181787D01*
X104796553Y-88181790D01*
X104743363Y-88298257D01*
X104725141Y-88425000D01*
X104180500Y-88425000D01*
X104180500Y-86000000D01*
X134100141Y-86000000D01*
X134118363Y-86126742D01*
X134171553Y-86243209D01*
X134171555Y-86243212D01*
X134255406Y-86339982D01*
X134309263Y-86374593D01*
X134363122Y-86409206D01*
X134461635Y-86438132D01*
X134485974Y-86445279D01*
X134485975Y-86445279D01*
X134485978Y-86445280D01*
X134485981Y-86445280D01*
X134614019Y-86445280D01*
X134614022Y-86445280D01*
X134736878Y-86409206D01*
X134844595Y-86339981D01*
X134928445Y-86243212D01*
X134981637Y-86126740D01*
X134999859Y-86000000D01*
X134981637Y-85873260D01*
X134928445Y-85756788D01*
X134844595Y-85660019D01*
X134844594Y-85660018D01*
X134844593Y-85660017D01*
X134736878Y-85590794D01*
X134614025Y-85554720D01*
X134614022Y-85554720D01*
X134485978Y-85554720D01*
X134485974Y-85554720D01*
X134363121Y-85590794D01*
X134255406Y-85660017D01*
X134171555Y-85756787D01*
X134171553Y-85756790D01*
X134118363Y-85873257D01*
X134100141Y-86000000D01*
X104180500Y-86000000D01*
X104180500Y-83900000D01*
X156220141Y-83900000D01*
X156238363Y-84026742D01*
X156291553Y-84143209D01*
X156291555Y-84143212D01*
X156375406Y-84239982D01*
X156429263Y-84274593D01*
X156483122Y-84309206D01*
X156581635Y-84338132D01*
X156605974Y-84345279D01*
X156605975Y-84345279D01*
X156605978Y-84345280D01*
X156605981Y-84345280D01*
X156734019Y-84345280D01*
X156734022Y-84345280D01*
X156856878Y-84309206D01*
X156964595Y-84239981D01*
X157048445Y-84143212D01*
X157101637Y-84026740D01*
X157119859Y-83900000D01*
X157101637Y-83773260D01*
X157048445Y-83656788D01*
X156964595Y-83560019D01*
X156964594Y-83560018D01*
X156964593Y-83560017D01*
X156856878Y-83490794D01*
X156734025Y-83454720D01*
X156734022Y-83454720D01*
X156605978Y-83454720D01*
X156605974Y-83454720D01*
X156483121Y-83490794D01*
X156375406Y-83560017D01*
X156291555Y-83656787D01*
X156291553Y-83656790D01*
X156238363Y-83773257D01*
X156220141Y-83900000D01*
X104180500Y-83900000D01*
X104180500Y-83140000D01*
X140170141Y-83140000D01*
X140188363Y-83266742D01*
X140241553Y-83383209D01*
X140241555Y-83383212D01*
X140303516Y-83454720D01*
X140325406Y-83479982D01*
X140342230Y-83490794D01*
X140433122Y-83549206D01*
X140531635Y-83578132D01*
X140555974Y-83585279D01*
X140555975Y-83585279D01*
X140555978Y-83585280D01*
X140555981Y-83585280D01*
X140684019Y-83585280D01*
X140684022Y-83585280D01*
X140806878Y-83549206D01*
X140914595Y-83479981D01*
X140998445Y-83383212D01*
X141051637Y-83266740D01*
X141069859Y-83140000D01*
X141051637Y-83013260D01*
X140998445Y-82896788D01*
X140914595Y-82800019D01*
X140914594Y-82800018D01*
X140914593Y-82800017D01*
X140806878Y-82730794D01*
X140684025Y-82694720D01*
X140684022Y-82694720D01*
X140555978Y-82694720D01*
X140555974Y-82694720D01*
X140433121Y-82730794D01*
X140325406Y-82800017D01*
X140241555Y-82896787D01*
X140241553Y-82896790D01*
X140188363Y-83013257D01*
X140170141Y-83140000D01*
X104180500Y-83140000D01*
X104180500Y-80175000D01*
X146025141Y-80175000D01*
X146043363Y-80301742D01*
X146096553Y-80418209D01*
X146096555Y-80418212D01*
X146180406Y-80514982D01*
X146234263Y-80549593D01*
X146288122Y-80584206D01*
X146386635Y-80613132D01*
X146410974Y-80620279D01*
X146410975Y-80620279D01*
X146410978Y-80620280D01*
X146410981Y-80620280D01*
X146539019Y-80620280D01*
X146539022Y-80620280D01*
X146661878Y-80584206D01*
X146769595Y-80514981D01*
X146853445Y-80418212D01*
X146906637Y-80301740D01*
X146924859Y-80175000D01*
X146906637Y-80048260D01*
X146853445Y-79931788D01*
X146769595Y-79835019D01*
X146769594Y-79835018D01*
X146769593Y-79835017D01*
X146661878Y-79765794D01*
X146539025Y-79729720D01*
X146539022Y-79729720D01*
X146410978Y-79729720D01*
X146410974Y-79729720D01*
X146288121Y-79765794D01*
X146180406Y-79835017D01*
X146096555Y-79931787D01*
X146096553Y-79931790D01*
X146043363Y-80048257D01*
X146025141Y-80175000D01*
X104180500Y-80175000D01*
X104180500Y-78700000D01*
X109875141Y-78700000D01*
X109893363Y-78826742D01*
X109946553Y-78943209D01*
X109946555Y-78943212D01*
X110030406Y-79039982D01*
X110084263Y-79074593D01*
X110138122Y-79109206D01*
X110236635Y-79138132D01*
X110260974Y-79145279D01*
X110260975Y-79145279D01*
X110260978Y-79145280D01*
X110260981Y-79145280D01*
X110389019Y-79145280D01*
X110389022Y-79145280D01*
X110511878Y-79109206D01*
X110619595Y-79039981D01*
X110703445Y-78943212D01*
X110756637Y-78826740D01*
X110774859Y-78700000D01*
X110756637Y-78573260D01*
X110703445Y-78456788D01*
X110619595Y-78360019D01*
X110619594Y-78360018D01*
X110619593Y-78360017D01*
X110511878Y-78290794D01*
X110389025Y-78254720D01*
X110389022Y-78254720D01*
X110260978Y-78254720D01*
X110260974Y-78254720D01*
X110138121Y-78290794D01*
X110030406Y-78360017D01*
X109946555Y-78456787D01*
X109946553Y-78456790D01*
X109893363Y-78573257D01*
X109875141Y-78700000D01*
X104180500Y-78700000D01*
X104180500Y-76450000D01*
X109875141Y-76450000D01*
X109893363Y-76576742D01*
X109946553Y-76693209D01*
X109946555Y-76693212D01*
X109972591Y-76723260D01*
X110030406Y-76789982D01*
X110084263Y-76824593D01*
X110138122Y-76859206D01*
X110236635Y-76888132D01*
X110260974Y-76895279D01*
X110260975Y-76895279D01*
X110260978Y-76895280D01*
X110260981Y-76895280D01*
X110389019Y-76895280D01*
X110389022Y-76895280D01*
X110511878Y-76859206D01*
X110526203Y-76850000D01*
X147510141Y-76850000D01*
X147528363Y-76976742D01*
X147581553Y-77093209D01*
X147581555Y-77093212D01*
X147665406Y-77189982D01*
X147719263Y-77224593D01*
X147773122Y-77259206D01*
X147871635Y-77288132D01*
X147895974Y-77295279D01*
X147895975Y-77295279D01*
X147895978Y-77295280D01*
X147895981Y-77295280D01*
X148024019Y-77295280D01*
X148024022Y-77295280D01*
X148146878Y-77259206D01*
X148254595Y-77189981D01*
X148338445Y-77093212D01*
X148391637Y-76976740D01*
X148409859Y-76850000D01*
X148391637Y-76723260D01*
X148377914Y-76693212D01*
X148338446Y-76606790D01*
X148338444Y-76606787D01*
X148312410Y-76576742D01*
X148254595Y-76510019D01*
X148254594Y-76510018D01*
X148254593Y-76510017D01*
X148146878Y-76440794D01*
X148024025Y-76404720D01*
X148024022Y-76404720D01*
X147895978Y-76404720D01*
X147895974Y-76404720D01*
X147773121Y-76440794D01*
X147665406Y-76510017D01*
X147581555Y-76606787D01*
X147581553Y-76606790D01*
X147528363Y-76723257D01*
X147510141Y-76850000D01*
X110526203Y-76850000D01*
X110619595Y-76789981D01*
X110703445Y-76693212D01*
X110756637Y-76576740D01*
X110774859Y-76450000D01*
X110756637Y-76323260D01*
X110703445Y-76206788D01*
X110619595Y-76110019D01*
X110619594Y-76110018D01*
X110619593Y-76110017D01*
X110511878Y-76040794D01*
X110389025Y-76004720D01*
X110389022Y-76004720D01*
X110260978Y-76004720D01*
X110260974Y-76004720D01*
X110138121Y-76040794D01*
X110030406Y-76110017D01*
X109946555Y-76206787D01*
X109946553Y-76206790D01*
X109893363Y-76323257D01*
X109875141Y-76450000D01*
X104180500Y-76450000D01*
X104180500Y-75630000D01*
X147670141Y-75630000D01*
X147688363Y-75756742D01*
X147741553Y-75873209D01*
X147741555Y-75873212D01*
X147825406Y-75969982D01*
X147879263Y-76004593D01*
X147933122Y-76039206D01*
X148031635Y-76068132D01*
X148055974Y-76075279D01*
X148055975Y-76075279D01*
X148055978Y-76075280D01*
X148055981Y-76075280D01*
X148184019Y-76075280D01*
X148184022Y-76075280D01*
X148306878Y-76039206D01*
X148414595Y-75969981D01*
X148498445Y-75873212D01*
X148551637Y-75756740D01*
X148569859Y-75630000D01*
X148551637Y-75503260D01*
X148498445Y-75386788D01*
X148414595Y-75290019D01*
X148414594Y-75290018D01*
X148414593Y-75290017D01*
X148306878Y-75220794D01*
X148184025Y-75184720D01*
X148184022Y-75184720D01*
X148055978Y-75184720D01*
X148055974Y-75184720D01*
X147933121Y-75220794D01*
X147825406Y-75290017D01*
X147741555Y-75386787D01*
X147741553Y-75386790D01*
X147688363Y-75503257D01*
X147670141Y-75630000D01*
X104180500Y-75630000D01*
X104180500Y-72460000D01*
X141190141Y-72460000D01*
X141208363Y-72586742D01*
X141261553Y-72703209D01*
X141261555Y-72703212D01*
X141345406Y-72799982D01*
X141399263Y-72834593D01*
X141453122Y-72869206D01*
X141551635Y-72898132D01*
X141575974Y-72905279D01*
X141575975Y-72905279D01*
X141575978Y-72905280D01*
X141575981Y-72905280D01*
X141704019Y-72905280D01*
X141704022Y-72905280D01*
X141826878Y-72869206D01*
X141934595Y-72799981D01*
X142018445Y-72703212D01*
X142071637Y-72586740D01*
X142089859Y-72460000D01*
X142071637Y-72333260D01*
X142034407Y-72251740D01*
X142018446Y-72216790D01*
X142018444Y-72216787D01*
X141938911Y-72125000D01*
X177725141Y-72125000D01*
X177743363Y-72251742D01*
X177796553Y-72368209D01*
X177796555Y-72368212D01*
X177880406Y-72464982D01*
X177934263Y-72499593D01*
X177988122Y-72534206D01*
X178086635Y-72563132D01*
X178110974Y-72570279D01*
X178110975Y-72570279D01*
X178110978Y-72570280D01*
X178110981Y-72570280D01*
X178239019Y-72570280D01*
X178239022Y-72570280D01*
X178361878Y-72534206D01*
X178469595Y-72464981D01*
X178553445Y-72368212D01*
X178606637Y-72251740D01*
X178624859Y-72125000D01*
X178606637Y-71998260D01*
X178553445Y-71881788D01*
X178469595Y-71785019D01*
X178469594Y-71785018D01*
X178469593Y-71785017D01*
X178361878Y-71715794D01*
X178239025Y-71679720D01*
X178239022Y-71679720D01*
X178110978Y-71679720D01*
X178110974Y-71679720D01*
X177988121Y-71715794D01*
X177880406Y-71785017D01*
X177796555Y-71881787D01*
X177796553Y-71881790D01*
X177743363Y-71998257D01*
X177725141Y-72125000D01*
X141938911Y-72125000D01*
X141934595Y-72120019D01*
X141934594Y-72120018D01*
X141934593Y-72120017D01*
X141826878Y-72050794D01*
X141704025Y-72014720D01*
X141704022Y-72014720D01*
X141575978Y-72014720D01*
X141575974Y-72014720D01*
X141453121Y-72050794D01*
X141345406Y-72120017D01*
X141261555Y-72216787D01*
X141261553Y-72216790D01*
X141208363Y-72333257D01*
X141190141Y-72460000D01*
X104180500Y-72460000D01*
X104180500Y-71700000D01*
X113400141Y-71700000D01*
X113418363Y-71826742D01*
X113471553Y-71943209D01*
X113471555Y-71943212D01*
X113533516Y-72014720D01*
X113555406Y-72039982D01*
X113572230Y-72050794D01*
X113663122Y-72109206D01*
X113761635Y-72138132D01*
X113785974Y-72145279D01*
X113785975Y-72145279D01*
X113785978Y-72145280D01*
X113785981Y-72145280D01*
X113914019Y-72145280D01*
X113914022Y-72145280D01*
X114036878Y-72109206D01*
X114144595Y-72039981D01*
X114228445Y-71943212D01*
X114281637Y-71826740D01*
X114299859Y-71700000D01*
X114281637Y-71573260D01*
X114231377Y-71463209D01*
X114228446Y-71456790D01*
X114228444Y-71456787D01*
X114144593Y-71360017D01*
X114036878Y-71290794D01*
X113914025Y-71254720D01*
X113914022Y-71254720D01*
X113785978Y-71254720D01*
X113785974Y-71254720D01*
X113663121Y-71290794D01*
X113555406Y-71360017D01*
X113471555Y-71456787D01*
X113471553Y-71456790D01*
X113418363Y-71573257D01*
X113400141Y-71700000D01*
X104180500Y-71700000D01*
X104180500Y-71220000D01*
X141590141Y-71220000D01*
X141608363Y-71346742D01*
X141661553Y-71463209D01*
X141661555Y-71463212D01*
X141745406Y-71559982D01*
X141799263Y-71594593D01*
X141853122Y-71629206D01*
X141951635Y-71658132D01*
X141975974Y-71665279D01*
X141975975Y-71665279D01*
X141975978Y-71665280D01*
X141975981Y-71665280D01*
X142104019Y-71665280D01*
X142104022Y-71665280D01*
X142226878Y-71629206D01*
X142334595Y-71559981D01*
X142418445Y-71463212D01*
X142471637Y-71346740D01*
X142489859Y-71220000D01*
X142471637Y-71093260D01*
X142418445Y-70976788D01*
X142334595Y-70880019D01*
X142334594Y-70880018D01*
X142334593Y-70880017D01*
X142226878Y-70810794D01*
X142104025Y-70774720D01*
X142104022Y-70774720D01*
X141975978Y-70774720D01*
X141975974Y-70774720D01*
X141853121Y-70810794D01*
X141745406Y-70880017D01*
X141661555Y-70976787D01*
X141661553Y-70976790D01*
X141608363Y-71093257D01*
X141590141Y-71220000D01*
X104180500Y-71220000D01*
X104180500Y-69925000D01*
X177725141Y-69925000D01*
X177743363Y-70051742D01*
X177796553Y-70168209D01*
X177796555Y-70168212D01*
X177880406Y-70264982D01*
X177934263Y-70299593D01*
X177988122Y-70334206D01*
X178086635Y-70363132D01*
X178110974Y-70370279D01*
X178110975Y-70370279D01*
X178110978Y-70370280D01*
X178110981Y-70370280D01*
X178239019Y-70370280D01*
X178239022Y-70370280D01*
X178361878Y-70334206D01*
X178469595Y-70264981D01*
X178553445Y-70168212D01*
X178606637Y-70051740D01*
X178624859Y-69925000D01*
X178606637Y-69798260D01*
X178553445Y-69681788D01*
X178469595Y-69585019D01*
X178469594Y-69585018D01*
X178469593Y-69585017D01*
X178361878Y-69515794D01*
X178239025Y-69479720D01*
X178239022Y-69479720D01*
X178110978Y-69479720D01*
X178110974Y-69479720D01*
X177988121Y-69515794D01*
X177880406Y-69585017D01*
X177796555Y-69681787D01*
X177796553Y-69681790D01*
X177743363Y-69798257D01*
X177725141Y-69925000D01*
X104180500Y-69925000D01*
X104180500Y-69220000D01*
X169420141Y-69220000D01*
X169438363Y-69346742D01*
X169491553Y-69463209D01*
X169491555Y-69463212D01*
X169575406Y-69559982D01*
X169614362Y-69585017D01*
X169683122Y-69629206D01*
X169781635Y-69658132D01*
X169805974Y-69665279D01*
X169805975Y-69665279D01*
X169805978Y-69665280D01*
X169805981Y-69665280D01*
X169934019Y-69665280D01*
X169934022Y-69665280D01*
X170056878Y-69629206D01*
X170164595Y-69559981D01*
X170248445Y-69463212D01*
X170301637Y-69346740D01*
X170319859Y-69220000D01*
X170301637Y-69093260D01*
X170248445Y-68976788D01*
X170164595Y-68880019D01*
X170164594Y-68880018D01*
X170164593Y-68880017D01*
X170056878Y-68810794D01*
X169934025Y-68774720D01*
X169934022Y-68774720D01*
X169805978Y-68774720D01*
X169805974Y-68774720D01*
X169683121Y-68810794D01*
X169575406Y-68880017D01*
X169491555Y-68976787D01*
X169491553Y-68976790D01*
X169438363Y-69093257D01*
X169420141Y-69220000D01*
X104180500Y-69220000D01*
X104180500Y-67695000D01*
X111180141Y-67695000D01*
X111198363Y-67821742D01*
X111251553Y-67938209D01*
X111251555Y-67938212D01*
X111335406Y-68034982D01*
X111373100Y-68059206D01*
X111443122Y-68104206D01*
X111541635Y-68133132D01*
X111565974Y-68140279D01*
X111565975Y-68140279D01*
X111565978Y-68140280D01*
X111565981Y-68140280D01*
X111694019Y-68140280D01*
X111694022Y-68140280D01*
X111816878Y-68104206D01*
X111924595Y-68034981D01*
X112008445Y-67938212D01*
X112061637Y-67821740D01*
X112079859Y-67695000D01*
X112073389Y-67650000D01*
X140960141Y-67650000D01*
X140978363Y-67776742D01*
X141031553Y-67893209D01*
X141031555Y-67893212D01*
X141103933Y-67976742D01*
X141115406Y-67989982D01*
X141169263Y-68024593D01*
X141223122Y-68059206D01*
X141321635Y-68088132D01*
X141345974Y-68095279D01*
X141345975Y-68095279D01*
X141345978Y-68095280D01*
X141345981Y-68095280D01*
X141474019Y-68095280D01*
X141474022Y-68095280D01*
X141596878Y-68059206D01*
X141704595Y-67989981D01*
X141788445Y-67893212D01*
X141808180Y-67850000D01*
X174590141Y-67850000D01*
X174608363Y-67976742D01*
X174661553Y-68093209D01*
X174661555Y-68093212D01*
X174745406Y-68189982D01*
X174799263Y-68224593D01*
X174853122Y-68259206D01*
X174951635Y-68288132D01*
X174975974Y-68295279D01*
X174975975Y-68295279D01*
X174975978Y-68295280D01*
X174975981Y-68295280D01*
X175104019Y-68295280D01*
X175104022Y-68295280D01*
X175226878Y-68259206D01*
X175334595Y-68189981D01*
X175418445Y-68093212D01*
X175471637Y-67976740D01*
X175489859Y-67850000D01*
X175471637Y-67723260D01*
X175418445Y-67606788D01*
X175334595Y-67510019D01*
X175334594Y-67510018D01*
X175334593Y-67510017D01*
X175226878Y-67440794D01*
X175104025Y-67404720D01*
X175104022Y-67404720D01*
X174975978Y-67404720D01*
X174975974Y-67404720D01*
X174853121Y-67440794D01*
X174745406Y-67510017D01*
X174661555Y-67606787D01*
X174661553Y-67606790D01*
X174608363Y-67723257D01*
X174590141Y-67850000D01*
X141808180Y-67850000D01*
X141841637Y-67776740D01*
X141859859Y-67650000D01*
X141841637Y-67523260D01*
X141788445Y-67406788D01*
X141704595Y-67310019D01*
X141704594Y-67310018D01*
X141704593Y-67310017D01*
X141596878Y-67240794D01*
X141474025Y-67204720D01*
X141474022Y-67204720D01*
X141345978Y-67204720D01*
X141345974Y-67204720D01*
X141223121Y-67240794D01*
X141115406Y-67310017D01*
X141031555Y-67406787D01*
X141031553Y-67406790D01*
X140978363Y-67523257D01*
X140960141Y-67650000D01*
X112073389Y-67650000D01*
X112061637Y-67568260D01*
X112041084Y-67523257D01*
X112008446Y-67451790D01*
X112008444Y-67451787D01*
X111969454Y-67406790D01*
X111924595Y-67355019D01*
X111924594Y-67355018D01*
X111924593Y-67355017D01*
X111816878Y-67285794D01*
X111694025Y-67249720D01*
X111694022Y-67249720D01*
X111565978Y-67249720D01*
X111565974Y-67249720D01*
X111443121Y-67285794D01*
X111335406Y-67355017D01*
X111251555Y-67451787D01*
X111251553Y-67451790D01*
X111198363Y-67568257D01*
X111180141Y-67695000D01*
X104180500Y-67695000D01*
X104180500Y-67200000D01*
X107425141Y-67200000D01*
X107443363Y-67326742D01*
X107496553Y-67443209D01*
X107496555Y-67443212D01*
X107580406Y-67539982D01*
X107624404Y-67568257D01*
X107688122Y-67609206D01*
X107786635Y-67638132D01*
X107810974Y-67645279D01*
X107810975Y-67645279D01*
X107810978Y-67645280D01*
X107810981Y-67645280D01*
X107939019Y-67645280D01*
X107939022Y-67645280D01*
X108061878Y-67609206D01*
X108169595Y-67539981D01*
X108253445Y-67443212D01*
X108306637Y-67326740D01*
X108324859Y-67200000D01*
X108306637Y-67073260D01*
X108253445Y-66956788D01*
X108169595Y-66860019D01*
X108169594Y-66860018D01*
X108169593Y-66860017D01*
X108061878Y-66790794D01*
X107939025Y-66754720D01*
X107939022Y-66754720D01*
X107810978Y-66754720D01*
X107810974Y-66754720D01*
X107688121Y-66790794D01*
X107580406Y-66860017D01*
X107496555Y-66956787D01*
X107496553Y-66956790D01*
X107443363Y-67073257D01*
X107425141Y-67200000D01*
X104180500Y-67200000D01*
X104180500Y-66525000D01*
X119200141Y-66525000D01*
X119218363Y-66651742D01*
X119271553Y-66768209D01*
X119271555Y-66768212D01*
X119351105Y-66860019D01*
X119355406Y-66864982D01*
X119409263Y-66899593D01*
X119463122Y-66934206D01*
X119540029Y-66956788D01*
X119585974Y-66970279D01*
X119585975Y-66970279D01*
X119585978Y-66970280D01*
X119585981Y-66970280D01*
X119714019Y-66970280D01*
X119714022Y-66970280D01*
X119836878Y-66934206D01*
X119944595Y-66864981D01*
X120028445Y-66768212D01*
X120081637Y-66651740D01*
X120099859Y-66525000D01*
X120081637Y-66398260D01*
X120028445Y-66281788D01*
X119944595Y-66185019D01*
X119944594Y-66185018D01*
X119944593Y-66185017D01*
X119836878Y-66115794D01*
X119714025Y-66079720D01*
X119714022Y-66079720D01*
X119585978Y-66079720D01*
X119585974Y-66079720D01*
X119463121Y-66115794D01*
X119355406Y-66185017D01*
X119271555Y-66281787D01*
X119271553Y-66281790D01*
X119218363Y-66398257D01*
X119200141Y-66525000D01*
X104180500Y-66525000D01*
X104180500Y-65860000D01*
X140860141Y-65860000D01*
X140878363Y-65986742D01*
X140931553Y-66103209D01*
X140931555Y-66103212D01*
X141002440Y-66185019D01*
X141015406Y-66199982D01*
X141046991Y-66220280D01*
X141123122Y-66269206D01*
X141221635Y-66298132D01*
X141245974Y-66305279D01*
X141245975Y-66305279D01*
X141245978Y-66305280D01*
X141245981Y-66305280D01*
X141374019Y-66305280D01*
X141374022Y-66305280D01*
X141496878Y-66269206D01*
X141604595Y-66199981D01*
X141688445Y-66103212D01*
X141741637Y-65986740D01*
X141759859Y-65860000D01*
X141747638Y-65775000D01*
X153275141Y-65775000D01*
X153293363Y-65901742D01*
X153346553Y-66018209D01*
X153346555Y-66018212D01*
X153399851Y-66079720D01*
X153430406Y-66114982D01*
X153431670Y-66115794D01*
X153538122Y-66184206D01*
X153636635Y-66213132D01*
X153660974Y-66220279D01*
X153660975Y-66220279D01*
X153660978Y-66220280D01*
X153660981Y-66220280D01*
X153789019Y-66220280D01*
X153789022Y-66220280D01*
X153911878Y-66184206D01*
X154019595Y-66114981D01*
X154103445Y-66018212D01*
X154156637Y-65901740D01*
X154174859Y-65775000D01*
X154167670Y-65725000D01*
X159325141Y-65725000D01*
X159343363Y-65851742D01*
X159396553Y-65968209D01*
X159396555Y-65968212D01*
X159480406Y-66064982D01*
X159534263Y-66099593D01*
X159588122Y-66134206D01*
X159686635Y-66163132D01*
X159710974Y-66170279D01*
X159710975Y-66170279D01*
X159710978Y-66170280D01*
X159710981Y-66170280D01*
X159839019Y-66170280D01*
X159839022Y-66170280D01*
X159961878Y-66134206D01*
X160069595Y-66064981D01*
X160153445Y-65968212D01*
X160206637Y-65851740D01*
X160224859Y-65725000D01*
X160206637Y-65598260D01*
X160153445Y-65481788D01*
X160069595Y-65385019D01*
X160069594Y-65385018D01*
X160069593Y-65385017D01*
X159961878Y-65315794D01*
X159839025Y-65279720D01*
X159839022Y-65279720D01*
X159710978Y-65279720D01*
X159710974Y-65279720D01*
X159588121Y-65315794D01*
X159480406Y-65385017D01*
X159396555Y-65481787D01*
X159396553Y-65481790D01*
X159343363Y-65598257D01*
X159325141Y-65725000D01*
X154167670Y-65725000D01*
X154156637Y-65648260D01*
X154142263Y-65616787D01*
X154103446Y-65531790D01*
X154103444Y-65531787D01*
X154019593Y-65435017D01*
X153911878Y-65365794D01*
X153789025Y-65329720D01*
X153789022Y-65329720D01*
X153660978Y-65329720D01*
X153660974Y-65329720D01*
X153538121Y-65365794D01*
X153430406Y-65435017D01*
X153346555Y-65531787D01*
X153346553Y-65531790D01*
X153293363Y-65648257D01*
X153275141Y-65775000D01*
X141747638Y-65775000D01*
X141741637Y-65733260D01*
X141733425Y-65715279D01*
X141688446Y-65616790D01*
X141688444Y-65616787D01*
X141686879Y-65614981D01*
X141604595Y-65520019D01*
X141604594Y-65520018D01*
X141604593Y-65520017D01*
X141496878Y-65450794D01*
X141374025Y-65414720D01*
X141374022Y-65414720D01*
X141245978Y-65414720D01*
X141245974Y-65414720D01*
X141123121Y-65450794D01*
X141015406Y-65520017D01*
X140931555Y-65616787D01*
X140931553Y-65616790D01*
X140878363Y-65733257D01*
X140860141Y-65860000D01*
X104180500Y-65860000D01*
X104180500Y-65275000D01*
X119600141Y-65275000D01*
X119618363Y-65401742D01*
X119671553Y-65518209D01*
X119671555Y-65518212D01*
X119751073Y-65609982D01*
X119755406Y-65614982D01*
X119809263Y-65649593D01*
X119863122Y-65684206D01*
X119961635Y-65713132D01*
X119985974Y-65720279D01*
X119985975Y-65720279D01*
X119985978Y-65720280D01*
X119985981Y-65720280D01*
X120114019Y-65720280D01*
X120114022Y-65720280D01*
X120236878Y-65684206D01*
X120344595Y-65614981D01*
X120428445Y-65518212D01*
X120481637Y-65401740D01*
X120499859Y-65275000D01*
X120499140Y-65270000D01*
X125040141Y-65270000D01*
X125058363Y-65396742D01*
X125111553Y-65513209D01*
X125111555Y-65513212D01*
X125195406Y-65609982D01*
X125205995Y-65616787D01*
X125303122Y-65679206D01*
X125401635Y-65708132D01*
X125425974Y-65715279D01*
X125425975Y-65715279D01*
X125425978Y-65715280D01*
X125425981Y-65715280D01*
X125554019Y-65715280D01*
X125554022Y-65715280D01*
X125676878Y-65679206D01*
X125784595Y-65609981D01*
X125868445Y-65513212D01*
X125921637Y-65396740D01*
X125939859Y-65270000D01*
X125921637Y-65143260D01*
X125870728Y-65031788D01*
X125868446Y-65026790D01*
X125868444Y-65026787D01*
X125788927Y-64935019D01*
X125784595Y-64930019D01*
X125784594Y-64930018D01*
X125784593Y-64930017D01*
X125676878Y-64860794D01*
X125554025Y-64824720D01*
X125554022Y-64824720D01*
X125425978Y-64824720D01*
X125425974Y-64824720D01*
X125303121Y-64860794D01*
X125195406Y-64930017D01*
X125111555Y-65026787D01*
X125111553Y-65026790D01*
X125058363Y-65143257D01*
X125040141Y-65270000D01*
X120499140Y-65270000D01*
X120481637Y-65148260D01*
X120479352Y-65143257D01*
X120428446Y-65031790D01*
X120428444Y-65031787D01*
X120424114Y-65026790D01*
X120344595Y-64935019D01*
X120344594Y-64935018D01*
X120344593Y-64935017D01*
X120236878Y-64865794D01*
X120114025Y-64829720D01*
X120114022Y-64829720D01*
X119985978Y-64829720D01*
X119985974Y-64829720D01*
X119863121Y-64865794D01*
X119755406Y-64935017D01*
X119671555Y-65031787D01*
X119671553Y-65031790D01*
X119618363Y-65148257D01*
X119600141Y-65275000D01*
X104180500Y-65275000D01*
X104180500Y-63650000D01*
X140650141Y-63650000D01*
X140668363Y-63776742D01*
X140721553Y-63893209D01*
X140721555Y-63893212D01*
X140805406Y-63989982D01*
X140859263Y-64024593D01*
X140913122Y-64059206D01*
X141011635Y-64088132D01*
X141035974Y-64095279D01*
X141035975Y-64095279D01*
X141035978Y-64095280D01*
X141035981Y-64095280D01*
X141164019Y-64095280D01*
X141164022Y-64095280D01*
X141286878Y-64059206D01*
X141394595Y-63989981D01*
X141478445Y-63893212D01*
X141531637Y-63776740D01*
X141549859Y-63650000D01*
X141531637Y-63523260D01*
X141478445Y-63406788D01*
X141394595Y-63310019D01*
X141394594Y-63310018D01*
X141394593Y-63310017D01*
X141286878Y-63240794D01*
X141164025Y-63204720D01*
X141164022Y-63204720D01*
X141035978Y-63204720D01*
X141035974Y-63204720D01*
X140913121Y-63240794D01*
X140805406Y-63310017D01*
X140721555Y-63406787D01*
X140721553Y-63406790D01*
X140668363Y-63523257D01*
X140650141Y-63650000D01*
X104180500Y-63650000D01*
X104180500Y-62725000D01*
X122775141Y-62725000D01*
X122793363Y-62851742D01*
X122846553Y-62968209D01*
X122846555Y-62968212D01*
X122930406Y-63064982D01*
X122984263Y-63099593D01*
X123038122Y-63134206D01*
X123136635Y-63163132D01*
X123160974Y-63170279D01*
X123160975Y-63170279D01*
X123160978Y-63170280D01*
X123160981Y-63170280D01*
X123289019Y-63170280D01*
X123289022Y-63170280D01*
X123411878Y-63134206D01*
X123519595Y-63064981D01*
X123603445Y-62968212D01*
X123656637Y-62851740D01*
X123664076Y-62800000D01*
X179730141Y-62800000D01*
X179748363Y-62926742D01*
X179801553Y-63043209D01*
X179801555Y-63043212D01*
X179885406Y-63139982D01*
X179939263Y-63174593D01*
X179993122Y-63209206D01*
X180091635Y-63238132D01*
X180115974Y-63245279D01*
X180115975Y-63245279D01*
X180115978Y-63245280D01*
X180115981Y-63245280D01*
X180244019Y-63245280D01*
X180244022Y-63245280D01*
X180366878Y-63209206D01*
X180474595Y-63139981D01*
X180558445Y-63043212D01*
X180611637Y-62926740D01*
X180629859Y-62800000D01*
X180611637Y-62673260D01*
X180558445Y-62556788D01*
X180474595Y-62460019D01*
X180474594Y-62460018D01*
X180474593Y-62460017D01*
X180366878Y-62390794D01*
X180244025Y-62354720D01*
X180244022Y-62354720D01*
X180115978Y-62354720D01*
X180115974Y-62354720D01*
X179993121Y-62390794D01*
X179885406Y-62460017D01*
X179801555Y-62556787D01*
X179801553Y-62556790D01*
X179748363Y-62673257D01*
X179730141Y-62800000D01*
X123664076Y-62800000D01*
X123674859Y-62725000D01*
X123656637Y-62598260D01*
X123603445Y-62481788D01*
X123519595Y-62385019D01*
X123519594Y-62385018D01*
X123519593Y-62385017D01*
X123411878Y-62315794D01*
X123289025Y-62279720D01*
X123289022Y-62279720D01*
X123160978Y-62279720D01*
X123160974Y-62279720D01*
X123038121Y-62315794D01*
X122930406Y-62385017D01*
X122846555Y-62481787D01*
X122846553Y-62481790D01*
X122793363Y-62598257D01*
X122775141Y-62725000D01*
X104180500Y-62725000D01*
X104180500Y-62075000D01*
X156000141Y-62075000D01*
X156018363Y-62201742D01*
X156071553Y-62318209D01*
X156071555Y-62318212D01*
X156155406Y-62414982D01*
X156209263Y-62449593D01*
X156263122Y-62484206D01*
X156361635Y-62513132D01*
X156385974Y-62520279D01*
X156385975Y-62520279D01*
X156385978Y-62520280D01*
X156385981Y-62520280D01*
X156514019Y-62520280D01*
X156514022Y-62520280D01*
X156636878Y-62484206D01*
X156744595Y-62414981D01*
X156828445Y-62318212D01*
X156881637Y-62201740D01*
X156899859Y-62075000D01*
X156881637Y-61948260D01*
X156828445Y-61831788D01*
X156744595Y-61735019D01*
X156744594Y-61735018D01*
X156744593Y-61735017D01*
X156636878Y-61665794D01*
X156514025Y-61629720D01*
X156514022Y-61629720D01*
X156385978Y-61629720D01*
X156385974Y-61629720D01*
X156263121Y-61665794D01*
X156155406Y-61735017D01*
X156071555Y-61831787D01*
X156071553Y-61831790D01*
X156018363Y-61948257D01*
X156000141Y-62075000D01*
X104180500Y-62075000D01*
X104180500Y-60260000D01*
X125070141Y-60260000D01*
X125088363Y-60386742D01*
X125141553Y-60503209D01*
X125141555Y-60503212D01*
X125225406Y-60599982D01*
X125279263Y-60634593D01*
X125333122Y-60669206D01*
X125431635Y-60698132D01*
X125455974Y-60705279D01*
X125455975Y-60705279D01*
X125455978Y-60705280D01*
X125455981Y-60705280D01*
X125584019Y-60705280D01*
X125584022Y-60705280D01*
X125706878Y-60669206D01*
X125814595Y-60599981D01*
X125898445Y-60503212D01*
X125951637Y-60386740D01*
X125969859Y-60260000D01*
X125951637Y-60133260D01*
X125898445Y-60016788D01*
X125814595Y-59920019D01*
X125814594Y-59920018D01*
X125814593Y-59920017D01*
X125706878Y-59850794D01*
X125584025Y-59814720D01*
X125584022Y-59814720D01*
X125455978Y-59814720D01*
X125455974Y-59814720D01*
X125333121Y-59850794D01*
X125225406Y-59920017D01*
X125141555Y-60016787D01*
X125141553Y-60016790D01*
X125088363Y-60133257D01*
X125070141Y-60260000D01*
X104180500Y-60260000D01*
X104180500Y-59465000D01*
X107470141Y-59465000D01*
X107488363Y-59591742D01*
X107541553Y-59708209D01*
X107541555Y-59708212D01*
X107625406Y-59804982D01*
X107640559Y-59814720D01*
X107733122Y-59874206D01*
X107831635Y-59903132D01*
X107855974Y-59910279D01*
X107855975Y-59910279D01*
X107855978Y-59910280D01*
X107855981Y-59910280D01*
X107984019Y-59910280D01*
X107984022Y-59910280D01*
X108106878Y-59874206D01*
X108214595Y-59804981D01*
X108298445Y-59708212D01*
X108313613Y-59675000D01*
X177925000Y-59675000D01*
X182825000Y-59675000D01*
X182825000Y-53475000D01*
X177925000Y-53475000D01*
X177925000Y-59675000D01*
X108313613Y-59675000D01*
X108351637Y-59591740D01*
X108369859Y-59465000D01*
X108351637Y-59338260D01*
X108298445Y-59221788D01*
X108214595Y-59125019D01*
X108214594Y-59125018D01*
X108214593Y-59125017D01*
X108106878Y-59055794D01*
X107984025Y-59019720D01*
X107984022Y-59019720D01*
X107855978Y-59019720D01*
X107855974Y-59019720D01*
X107733121Y-59055794D01*
X107625406Y-59125017D01*
X107541555Y-59221787D01*
X107541553Y-59221790D01*
X107488363Y-59338257D01*
X107470141Y-59465000D01*
X104180500Y-59465000D01*
X104180500Y-58225000D01*
X139925141Y-58225000D01*
X139943363Y-58351742D01*
X139996553Y-58468209D01*
X139996555Y-58468212D01*
X140080406Y-58564982D01*
X140134263Y-58599593D01*
X140188122Y-58634206D01*
X140286635Y-58663132D01*
X140310974Y-58670279D01*
X140310975Y-58670279D01*
X140310978Y-58670280D01*
X140310981Y-58670280D01*
X140439019Y-58670280D01*
X140439022Y-58670280D01*
X140561878Y-58634206D01*
X140669595Y-58564981D01*
X140753445Y-58468212D01*
X140806637Y-58351740D01*
X140824859Y-58225000D01*
X140806637Y-58098260D01*
X140753445Y-57981788D01*
X140669595Y-57885019D01*
X140669594Y-57885018D01*
X140669593Y-57885017D01*
X140561878Y-57815794D01*
X140439025Y-57779720D01*
X140439022Y-57779720D01*
X140310978Y-57779720D01*
X140310974Y-57779720D01*
X140188121Y-57815794D01*
X140080406Y-57885017D01*
X139996555Y-57981787D01*
X139996553Y-57981790D01*
X139943363Y-58098257D01*
X139925141Y-58225000D01*
X104180500Y-58225000D01*
X104180500Y-55065000D01*
X110445141Y-55065000D01*
X110463363Y-55191742D01*
X110516553Y-55308209D01*
X110516555Y-55308212D01*
X110600406Y-55404982D01*
X110654263Y-55439593D01*
X110708122Y-55474206D01*
X110806635Y-55503132D01*
X110830974Y-55510279D01*
X110830975Y-55510279D01*
X110830978Y-55510280D01*
X110830981Y-55510280D01*
X110959019Y-55510280D01*
X110959022Y-55510280D01*
X111081878Y-55474206D01*
X111189595Y-55404981D01*
X111273445Y-55308212D01*
X111326637Y-55191740D01*
X111344859Y-55065000D01*
X111326637Y-54938260D01*
X111273445Y-54821788D01*
X111189595Y-54725019D01*
X111189594Y-54725018D01*
X111189593Y-54725017D01*
X111081878Y-54655794D01*
X110959025Y-54619720D01*
X110959022Y-54619720D01*
X110830978Y-54619720D01*
X110830974Y-54619720D01*
X110708121Y-54655794D01*
X110600406Y-54725017D01*
X110516555Y-54821787D01*
X110516553Y-54821790D01*
X110463363Y-54938257D01*
X110445141Y-55065000D01*
X104180500Y-55065000D01*
X104180500Y-54315000D01*
X111445141Y-54315000D01*
X111463363Y-54441742D01*
X111516553Y-54558209D01*
X111516555Y-54558212D01*
X111569851Y-54619720D01*
X111600406Y-54654982D01*
X111601670Y-54655794D01*
X111708122Y-54724206D01*
X111806635Y-54753132D01*
X111830974Y-54760279D01*
X111830975Y-54760279D01*
X111830978Y-54760280D01*
X111830981Y-54760280D01*
X111959019Y-54760280D01*
X111959022Y-54760280D01*
X112081878Y-54724206D01*
X112189595Y-54654981D01*
X112273445Y-54558212D01*
X112326637Y-54441740D01*
X112344859Y-54315000D01*
X112326637Y-54188260D01*
X112273445Y-54071788D01*
X112189595Y-53975019D01*
X112189594Y-53975018D01*
X112189593Y-53975017D01*
X112081878Y-53905794D01*
X111959025Y-53869720D01*
X111959022Y-53869720D01*
X111830978Y-53869720D01*
X111830974Y-53869720D01*
X111708121Y-53905794D01*
X111600406Y-53975017D01*
X111516555Y-54071787D01*
X111516553Y-54071790D01*
X111463363Y-54188257D01*
X111445141Y-54315000D01*
X104180500Y-54315000D01*
X104180500Y-52050000D01*
X123200141Y-52050000D01*
X123218363Y-52176742D01*
X123271553Y-52293209D01*
X123271555Y-52293212D01*
X123355406Y-52389982D01*
X123409263Y-52424593D01*
X123463122Y-52459206D01*
X123561635Y-52488132D01*
X123585974Y-52495279D01*
X123585975Y-52495279D01*
X123585978Y-52495280D01*
X123585981Y-52495280D01*
X123714019Y-52495280D01*
X123714022Y-52495280D01*
X123783089Y-52475000D01*
X132075141Y-52475000D01*
X132093363Y-52601742D01*
X132146553Y-52718209D01*
X132146555Y-52718212D01*
X132230406Y-52814982D01*
X132284263Y-52849593D01*
X132338122Y-52884206D01*
X132436635Y-52913132D01*
X132460974Y-52920279D01*
X132460975Y-52920279D01*
X132460978Y-52920280D01*
X132460981Y-52920280D01*
X132589019Y-52920280D01*
X132589022Y-52920280D01*
X132711878Y-52884206D01*
X132819595Y-52814981D01*
X132903445Y-52718212D01*
X132956637Y-52601740D01*
X132974859Y-52475000D01*
X132956637Y-52348260D01*
X132903445Y-52231788D01*
X132819595Y-52135019D01*
X132819594Y-52135018D01*
X132819593Y-52135017D01*
X132711878Y-52065794D01*
X132589025Y-52029720D01*
X132589022Y-52029720D01*
X132460978Y-52029720D01*
X132460974Y-52029720D01*
X132338121Y-52065794D01*
X132230406Y-52135017D01*
X132146555Y-52231787D01*
X132146553Y-52231790D01*
X132093363Y-52348257D01*
X132075141Y-52475000D01*
X123783089Y-52475000D01*
X123836878Y-52459206D01*
X123944595Y-52389981D01*
X124028445Y-52293212D01*
X124081637Y-52176740D01*
X124099859Y-52050000D01*
X124081637Y-51923260D01*
X124028445Y-51806788D01*
X123944595Y-51710019D01*
X123944594Y-51710018D01*
X123944593Y-51710017D01*
X123929006Y-51700000D01*
X165600141Y-51700000D01*
X165618363Y-51826742D01*
X165671553Y-51943209D01*
X165671555Y-51943212D01*
X165755406Y-52039982D01*
X165770995Y-52050000D01*
X165863122Y-52109206D01*
X165961635Y-52138132D01*
X165985974Y-52145279D01*
X165985975Y-52145279D01*
X165985978Y-52145280D01*
X165985981Y-52145280D01*
X166114019Y-52145280D01*
X166114022Y-52145280D01*
X166236878Y-52109206D01*
X166344595Y-52039981D01*
X166428445Y-51943212D01*
X166481637Y-51826740D01*
X166499859Y-51700000D01*
X166481637Y-51573260D01*
X166428445Y-51456788D01*
X166344595Y-51360019D01*
X166344594Y-51360018D01*
X166344593Y-51360017D01*
X166236878Y-51290794D01*
X166114025Y-51254720D01*
X166114022Y-51254720D01*
X165985978Y-51254720D01*
X165985974Y-51254720D01*
X165863121Y-51290794D01*
X165755406Y-51360017D01*
X165671555Y-51456787D01*
X165671553Y-51456790D01*
X165618363Y-51573257D01*
X165600141Y-51700000D01*
X123929006Y-51700000D01*
X123836878Y-51640794D01*
X123714025Y-51604720D01*
X123714022Y-51604720D01*
X123585978Y-51604720D01*
X123585974Y-51604720D01*
X123463121Y-51640794D01*
X123355406Y-51710017D01*
X123271555Y-51806787D01*
X123271553Y-51806790D01*
X123218363Y-51923257D01*
X123200141Y-52050000D01*
X104180500Y-52050000D01*
X104180500Y-49575170D01*
X105999842Y-49575170D01*
X107900000Y-49575170D01*
X107900000Y-47475000D01*
X105999842Y-47475000D01*
X105999842Y-49575170D01*
X104180500Y-49575170D01*
X104180500Y-44002257D01*
X104180580Y-43997760D01*
X104193470Y-43636850D01*
X104198174Y-43505139D01*
X104198813Y-43496197D01*
X104251266Y-43008317D01*
X104252539Y-42999463D01*
X104339663Y-42516568D01*
X104341574Y-42507787D01*
X104462916Y-42032373D01*
X104465450Y-42023744D01*
X104473353Y-42000000D01*
X116769632Y-42000000D01*
X116789951Y-42258173D01*
X116850406Y-42509990D01*
X116850407Y-42509992D01*
X116949511Y-42749251D01*
X117084824Y-42970062D01*
X117253014Y-43166986D01*
X117449938Y-43335176D01*
X117670749Y-43470489D01*
X117910008Y-43569593D01*
X118161826Y-43630049D01*
X118420000Y-43650368D01*
X118678174Y-43630049D01*
X118929992Y-43569593D01*
X119169251Y-43470489D01*
X119390062Y-43335176D01*
X119586986Y-43166986D01*
X119755176Y-42970062D01*
X119890489Y-42749251D01*
X119989593Y-42509992D01*
X120050049Y-42258174D01*
X120070368Y-42000000D01*
X120050049Y-41741826D01*
X119989593Y-41490008D01*
X119890489Y-41250749D01*
X119755176Y-41029938D01*
X119586986Y-40833014D01*
X119390062Y-40664824D01*
X119169251Y-40529511D01*
X119063463Y-40485692D01*
X119063456Y-40485689D01*
X121854720Y-40485689D01*
X121854720Y-43514310D01*
X121863149Y-43556685D01*
X121895258Y-43604741D01*
X121927368Y-43626195D01*
X121943315Y-43636851D01*
X121985692Y-43645280D01*
X121985693Y-43645280D01*
X125014307Y-43645280D01*
X125014308Y-43645280D01*
X125056685Y-43636851D01*
X125104741Y-43604741D01*
X125136851Y-43556685D01*
X125145280Y-43514308D01*
X125145280Y-40485692D01*
X125145279Y-40485689D01*
X134854720Y-40485689D01*
X134854720Y-43514310D01*
X134863149Y-43556685D01*
X134895258Y-43604741D01*
X134927368Y-43626195D01*
X134943315Y-43636851D01*
X134985692Y-43645280D01*
X134985693Y-43645280D01*
X138014307Y-43645280D01*
X138014308Y-43645280D01*
X138056685Y-43636851D01*
X138104741Y-43604741D01*
X138136851Y-43556685D01*
X138145280Y-43514308D01*
X138145280Y-42000000D01*
X142769632Y-42000000D01*
X142789951Y-42258173D01*
X142850406Y-42509990D01*
X142850407Y-42509992D01*
X142949511Y-42749251D01*
X143084824Y-42970062D01*
X143253014Y-43166986D01*
X143449938Y-43335176D01*
X143670749Y-43470489D01*
X143910008Y-43569593D01*
X144161826Y-43630049D01*
X144420000Y-43650368D01*
X144678174Y-43630049D01*
X144929992Y-43569593D01*
X145169251Y-43470489D01*
X145390062Y-43335176D01*
X145586986Y-43166986D01*
X145755176Y-42970062D01*
X145890489Y-42749251D01*
X145989593Y-42509992D01*
X146050049Y-42258174D01*
X146070368Y-42000000D01*
X146050049Y-41741826D01*
X145989593Y-41490008D01*
X145890489Y-41250749D01*
X145755176Y-41029938D01*
X145586986Y-40833014D01*
X145390062Y-40664824D01*
X145169251Y-40529511D01*
X145063463Y-40485692D01*
X145063456Y-40485689D01*
X147854720Y-40485689D01*
X147854720Y-43514310D01*
X147863149Y-43556685D01*
X147895258Y-43604741D01*
X147927368Y-43626195D01*
X147943315Y-43636851D01*
X147985692Y-43645280D01*
X147985693Y-43645280D01*
X151014307Y-43645280D01*
X151014308Y-43645280D01*
X151056685Y-43636851D01*
X151104741Y-43604741D01*
X151136851Y-43556685D01*
X151145280Y-43514308D01*
X151145280Y-42000000D01*
X155769632Y-42000000D01*
X155789951Y-42258173D01*
X155850406Y-42509990D01*
X155850407Y-42509992D01*
X155949511Y-42749251D01*
X156084824Y-42970062D01*
X156253014Y-43166986D01*
X156449938Y-43335176D01*
X156670749Y-43470489D01*
X156910008Y-43569593D01*
X157161826Y-43630049D01*
X157420000Y-43650368D01*
X157678174Y-43630049D01*
X157929992Y-43569593D01*
X158169251Y-43470489D01*
X158390062Y-43335176D01*
X158586986Y-43166986D01*
X158755176Y-42970062D01*
X158890489Y-42749251D01*
X158989593Y-42509992D01*
X159050049Y-42258174D01*
X159070368Y-42000000D01*
X159050049Y-41741826D01*
X158989593Y-41490008D01*
X158890489Y-41250749D01*
X158755176Y-41029938D01*
X158586986Y-40833014D01*
X158390062Y-40664824D01*
X158169251Y-40529511D01*
X158063463Y-40485692D01*
X157929990Y-40430406D01*
X157757728Y-40389050D01*
X157678174Y-40369951D01*
X157420000Y-40349632D01*
X157161826Y-40369951D01*
X156910009Y-40430406D01*
X156670750Y-40529510D01*
X156449939Y-40664823D01*
X156253014Y-40833014D01*
X156084823Y-41029939D01*
X155949510Y-41250750D01*
X155850406Y-41490009D01*
X155789951Y-41741826D01*
X155769632Y-42000000D01*
X151145280Y-42000000D01*
X151145280Y-40485692D01*
X151136851Y-40443315D01*
X151126195Y-40427368D01*
X151104741Y-40395258D01*
X151056685Y-40363149D01*
X151014310Y-40354720D01*
X151014308Y-40354720D01*
X147985692Y-40354720D01*
X147985689Y-40354720D01*
X147943314Y-40363149D01*
X147895258Y-40395258D01*
X147863149Y-40443314D01*
X147854720Y-40485689D01*
X145063456Y-40485689D01*
X144929990Y-40430406D01*
X144757728Y-40389050D01*
X144678174Y-40369951D01*
X144420000Y-40349632D01*
X144161826Y-40369951D01*
X143910009Y-40430406D01*
X143670750Y-40529510D01*
X143449939Y-40664823D01*
X143253014Y-40833014D01*
X143084823Y-41029939D01*
X142949510Y-41250750D01*
X142850406Y-41490009D01*
X142789951Y-41741826D01*
X142769632Y-42000000D01*
X138145280Y-42000000D01*
X138145280Y-40485692D01*
X138136851Y-40443315D01*
X138126195Y-40427368D01*
X138104741Y-40395258D01*
X138056685Y-40363149D01*
X138014310Y-40354720D01*
X138014308Y-40354720D01*
X134985692Y-40354720D01*
X134985689Y-40354720D01*
X134943314Y-40363149D01*
X134895258Y-40395258D01*
X134863149Y-40443314D01*
X134854720Y-40485689D01*
X125145279Y-40485689D01*
X125136851Y-40443315D01*
X125126195Y-40427368D01*
X125104741Y-40395258D01*
X125056685Y-40363149D01*
X125014310Y-40354720D01*
X125014308Y-40354720D01*
X121985692Y-40354720D01*
X121985689Y-40354720D01*
X121943314Y-40363149D01*
X121895258Y-40395258D01*
X121863149Y-40443314D01*
X121854720Y-40485689D01*
X119063456Y-40485689D01*
X118929990Y-40430406D01*
X118757728Y-40389050D01*
X118678174Y-40369951D01*
X118420000Y-40349632D01*
X118161826Y-40369951D01*
X117910009Y-40430406D01*
X117670750Y-40529510D01*
X117449939Y-40664823D01*
X117253014Y-40833014D01*
X117084823Y-41029939D01*
X116949510Y-41250750D01*
X116850406Y-41490009D01*
X116789951Y-41741826D01*
X116769632Y-42000000D01*
X104473353Y-42000000D01*
X104620398Y-41558196D01*
X104623532Y-41549789D01*
X104811318Y-41096438D01*
X104815038Y-41088291D01*
X105034677Y-40649508D01*
X105038969Y-40641647D01*
X105289359Y-40219638D01*
X105294201Y-40212104D01*
X105574062Y-39809027D01*
X105579418Y-39801872D01*
X105887318Y-39419792D01*
X105893178Y-39413028D01*
X106227555Y-39053882D01*
X106233882Y-39047555D01*
X106593028Y-38713178D01*
X106599792Y-38707318D01*
X106981872Y-38399418D01*
X106989027Y-38394062D01*
X107392104Y-38114201D01*
X107399638Y-38109359D01*
X107821647Y-37858969D01*
X107829508Y-37854677D01*
X108268291Y-37635038D01*
X108276438Y-37631318D01*
X108729789Y-37443532D01*
X108738184Y-37440402D01*
X109095180Y-37321583D01*
X109203744Y-37285450D01*
X109212368Y-37282917D01*
X109687795Y-37161572D01*
X109696568Y-37159663D01*
X110179463Y-37072539D01*
X110188317Y-37071266D01*
X110676197Y-37018813D01*
X110685139Y-37018174D01*
X111177760Y-37000579D01*
X111182257Y-37000500D01*
X111245892Y-37000500D01*
X176014108Y-37000500D01*
X176077743Y-37000500D01*
X176082239Y-37000579D01*
G37*
%TD.AperFunction*%
%TD*%
M02*
