%TF.GenerationSoftware,KiCad,Pcbnew,8.0.3*%
%TF.CreationDate,2025-02-14T19:05:39+05:30*%
%TF.ProjectId,Cyclohexane,4379636c-6f68-4657-9861-6e652e6b6963,rev?*%
%TF.SameCoordinates,Original*%
%TF.FileFunction,Legend,Top*%
%TF.FilePolarity,Positive*%
%FSLAX46Y46*%
G04 Gerber Fmt 4.6, Leading zero omitted, Abs format (unit mm)*
G04 Created by KiCad (PCBNEW 8.0.3) date 2025-02-14 19:05:39*
%MOMM*%
%LPD*%
G01*
G04 APERTURE LIST*
%ADD10C,0.125000*%
%ADD11C,0.300000*%
%ADD12C,0.000000*%
%ADD13C,0.120000*%
%ADD14C,0.100000*%
%ADD15C,0.200000*%
%ADD16C,0.152400*%
%ADD17C,0.127000*%
G04 APERTURE END LIST*
D10*
X166917857Y-96298642D02*
X166860715Y-96270071D01*
X166860715Y-96270071D02*
X166775000Y-96270071D01*
X166775000Y-96270071D02*
X166689286Y-96298642D01*
X166689286Y-96298642D02*
X166632143Y-96355785D01*
X166632143Y-96355785D02*
X166603572Y-96412928D01*
X166603572Y-96412928D02*
X166575000Y-96527214D01*
X166575000Y-96527214D02*
X166575000Y-96612928D01*
X166575000Y-96612928D02*
X166603572Y-96727214D01*
X166603572Y-96727214D02*
X166632143Y-96784357D01*
X166632143Y-96784357D02*
X166689286Y-96841500D01*
X166689286Y-96841500D02*
X166775000Y-96870071D01*
X166775000Y-96870071D02*
X166832143Y-96870071D01*
X166832143Y-96870071D02*
X166917857Y-96841500D01*
X166917857Y-96841500D02*
X166946429Y-96812928D01*
X166946429Y-96812928D02*
X166946429Y-96612928D01*
X166946429Y-96612928D02*
X166832143Y-96612928D01*
X167203572Y-96870071D02*
X167203572Y-96270071D01*
X167203572Y-96270071D02*
X167546429Y-96870071D01*
X167546429Y-96870071D02*
X167546429Y-96270071D01*
X167832143Y-96870071D02*
X167832143Y-96270071D01*
X167832143Y-96270071D02*
X167975000Y-96270071D01*
X167975000Y-96270071D02*
X168060714Y-96298642D01*
X168060714Y-96298642D02*
X168117857Y-96355785D01*
X168117857Y-96355785D02*
X168146428Y-96412928D01*
X168146428Y-96412928D02*
X168175000Y-96527214D01*
X168175000Y-96527214D02*
X168175000Y-96612928D01*
X168175000Y-96612928D02*
X168146428Y-96727214D01*
X168146428Y-96727214D02*
X168117857Y-96784357D01*
X168117857Y-96784357D02*
X168060714Y-96841500D01*
X168060714Y-96841500D02*
X167975000Y-96870071D01*
X167975000Y-96870071D02*
X167832143Y-96870071D01*
X170699928Y-106087142D02*
X170699928Y-106487142D01*
X170699928Y-106487142D02*
X170099928Y-106229999D01*
X170157071Y-106715714D02*
X170128500Y-106744285D01*
X170128500Y-106744285D02*
X170099928Y-106715714D01*
X170099928Y-106715714D02*
X170128500Y-106687142D01*
X170128500Y-106687142D02*
X170157071Y-106715714D01*
X170157071Y-106715714D02*
X170099928Y-106715714D01*
X170499928Y-107258571D02*
X170099928Y-107258571D01*
X170728500Y-107115713D02*
X170299928Y-106972856D01*
X170299928Y-106972856D02*
X170299928Y-107344285D01*
X170699928Y-107487142D02*
X170099928Y-107687142D01*
X170099928Y-107687142D02*
X170699928Y-107887142D01*
X170414214Y-108744286D02*
X170385642Y-108830000D01*
X170385642Y-108830000D02*
X170357071Y-108858571D01*
X170357071Y-108858571D02*
X170299928Y-108887143D01*
X170299928Y-108887143D02*
X170214214Y-108887143D01*
X170214214Y-108887143D02*
X170157071Y-108858571D01*
X170157071Y-108858571D02*
X170128500Y-108830000D01*
X170128500Y-108830000D02*
X170099928Y-108772857D01*
X170099928Y-108772857D02*
X170099928Y-108544286D01*
X170099928Y-108544286D02*
X170699928Y-108544286D01*
X170699928Y-108544286D02*
X170699928Y-108744286D01*
X170699928Y-108744286D02*
X170671357Y-108801429D01*
X170671357Y-108801429D02*
X170642785Y-108830000D01*
X170642785Y-108830000D02*
X170585642Y-108858571D01*
X170585642Y-108858571D02*
X170528500Y-108858571D01*
X170528500Y-108858571D02*
X170471357Y-108830000D01*
X170471357Y-108830000D02*
X170442785Y-108801429D01*
X170442785Y-108801429D02*
X170414214Y-108744286D01*
X170414214Y-108744286D02*
X170414214Y-108544286D01*
X170271357Y-109115714D02*
X170271357Y-109401429D01*
X170099928Y-109058571D02*
X170699928Y-109258571D01*
X170699928Y-109258571D02*
X170099928Y-109458571D01*
X170699928Y-109572857D02*
X170699928Y-109915715D01*
X170099928Y-109744286D02*
X170699928Y-109744286D01*
X170699928Y-110030000D02*
X170699928Y-110372858D01*
X170099928Y-110201429D02*
X170699928Y-110201429D01*
X170414214Y-110572858D02*
X170414214Y-110772858D01*
X170099928Y-110858572D02*
X170099928Y-110572858D01*
X170099928Y-110572858D02*
X170699928Y-110572858D01*
X170699928Y-110572858D02*
X170699928Y-110858572D01*
X170099928Y-111458572D02*
X170385642Y-111258572D01*
X170099928Y-111115715D02*
X170699928Y-111115715D01*
X170699928Y-111115715D02*
X170699928Y-111344286D01*
X170699928Y-111344286D02*
X170671357Y-111401429D01*
X170671357Y-111401429D02*
X170642785Y-111430000D01*
X170642785Y-111430000D02*
X170585642Y-111458572D01*
X170585642Y-111458572D02*
X170499928Y-111458572D01*
X170499928Y-111458572D02*
X170442785Y-111430000D01*
X170442785Y-111430000D02*
X170414214Y-111401429D01*
X170414214Y-111401429D02*
X170385642Y-111344286D01*
X170385642Y-111344286D02*
X170385642Y-111115715D01*
X170385642Y-111830000D02*
X170099928Y-111830000D01*
X170699928Y-111630000D02*
X170385642Y-111830000D01*
X170385642Y-111830000D02*
X170699928Y-112030000D01*
X170042785Y-112087144D02*
X170042785Y-112544286D01*
X170099928Y-112687144D02*
X170699928Y-112687144D01*
X170099928Y-112972858D02*
X170699928Y-112972858D01*
X170699928Y-112972858D02*
X170099928Y-113315715D01*
X170099928Y-113315715D02*
X170699928Y-113315715D01*
X104795093Y-72040071D02*
X104795093Y-72525785D01*
X104795093Y-72525785D02*
X104823664Y-72582928D01*
X104823664Y-72582928D02*
X104852236Y-72611500D01*
X104852236Y-72611500D02*
X104909378Y-72640071D01*
X104909378Y-72640071D02*
X105023664Y-72640071D01*
X105023664Y-72640071D02*
X105080807Y-72611500D01*
X105080807Y-72611500D02*
X105109378Y-72582928D01*
X105109378Y-72582928D02*
X105137950Y-72525785D01*
X105137950Y-72525785D02*
X105137950Y-72040071D01*
X105395092Y-72611500D02*
X105480807Y-72640071D01*
X105480807Y-72640071D02*
X105623664Y-72640071D01*
X105623664Y-72640071D02*
X105680807Y-72611500D01*
X105680807Y-72611500D02*
X105709378Y-72582928D01*
X105709378Y-72582928D02*
X105737949Y-72525785D01*
X105737949Y-72525785D02*
X105737949Y-72468642D01*
X105737949Y-72468642D02*
X105709378Y-72411500D01*
X105709378Y-72411500D02*
X105680807Y-72382928D01*
X105680807Y-72382928D02*
X105623664Y-72354357D01*
X105623664Y-72354357D02*
X105509378Y-72325785D01*
X105509378Y-72325785D02*
X105452235Y-72297214D01*
X105452235Y-72297214D02*
X105423664Y-72268642D01*
X105423664Y-72268642D02*
X105395092Y-72211500D01*
X105395092Y-72211500D02*
X105395092Y-72154357D01*
X105395092Y-72154357D02*
X105423664Y-72097214D01*
X105423664Y-72097214D02*
X105452235Y-72068642D01*
X105452235Y-72068642D02*
X105509378Y-72040071D01*
X105509378Y-72040071D02*
X105652235Y-72040071D01*
X105652235Y-72040071D02*
X105737949Y-72068642D01*
X106195093Y-72325785D02*
X106280807Y-72354357D01*
X106280807Y-72354357D02*
X106309378Y-72382928D01*
X106309378Y-72382928D02*
X106337950Y-72440071D01*
X106337950Y-72440071D02*
X106337950Y-72525785D01*
X106337950Y-72525785D02*
X106309378Y-72582928D01*
X106309378Y-72582928D02*
X106280807Y-72611500D01*
X106280807Y-72611500D02*
X106223664Y-72640071D01*
X106223664Y-72640071D02*
X105995093Y-72640071D01*
X105995093Y-72640071D02*
X105995093Y-72040071D01*
X105995093Y-72040071D02*
X106195093Y-72040071D01*
X106195093Y-72040071D02*
X106252236Y-72068642D01*
X106252236Y-72068642D02*
X106280807Y-72097214D01*
X106280807Y-72097214D02*
X106309378Y-72154357D01*
X106309378Y-72154357D02*
X106309378Y-72211500D01*
X106309378Y-72211500D02*
X106280807Y-72268642D01*
X106280807Y-72268642D02*
X106252236Y-72297214D01*
X106252236Y-72297214D02*
X106195093Y-72325785D01*
X106195093Y-72325785D02*
X105995093Y-72325785D01*
X106452236Y-72697214D02*
X106909378Y-72697214D01*
X106995093Y-72040071D02*
X107137950Y-72640071D01*
X107137950Y-72640071D02*
X107252236Y-72211500D01*
X107252236Y-72211500D02*
X107366521Y-72640071D01*
X107366521Y-72640071D02*
X107509379Y-72040071D01*
X108080807Y-72640071D02*
X107880807Y-72354357D01*
X107737950Y-72640071D02*
X107737950Y-72040071D01*
X107737950Y-72040071D02*
X107966521Y-72040071D01*
X107966521Y-72040071D02*
X108023664Y-72068642D01*
X108023664Y-72068642D02*
X108052235Y-72097214D01*
X108052235Y-72097214D02*
X108080807Y-72154357D01*
X108080807Y-72154357D02*
X108080807Y-72240071D01*
X108080807Y-72240071D02*
X108052235Y-72297214D01*
X108052235Y-72297214D02*
X108023664Y-72325785D01*
X108023664Y-72325785D02*
X107966521Y-72354357D01*
X107966521Y-72354357D02*
X107737950Y-72354357D01*
X108452235Y-72040071D02*
X108566521Y-72040071D01*
X108566521Y-72040071D02*
X108623664Y-72068642D01*
X108623664Y-72068642D02*
X108680807Y-72125785D01*
X108680807Y-72125785D02*
X108709378Y-72240071D01*
X108709378Y-72240071D02*
X108709378Y-72440071D01*
X108709378Y-72440071D02*
X108680807Y-72554357D01*
X108680807Y-72554357D02*
X108623664Y-72611500D01*
X108623664Y-72611500D02*
X108566521Y-72640071D01*
X108566521Y-72640071D02*
X108452235Y-72640071D01*
X108452235Y-72640071D02*
X108395093Y-72611500D01*
X108395093Y-72611500D02*
X108337950Y-72554357D01*
X108337950Y-72554357D02*
X108309378Y-72440071D01*
X108309378Y-72440071D02*
X108309378Y-72240071D01*
X108309378Y-72240071D02*
X108337950Y-72125785D01*
X108337950Y-72125785D02*
X108395093Y-72068642D01*
X108395093Y-72068642D02*
X108452235Y-72040071D01*
X109080806Y-72040071D02*
X109195092Y-72040071D01*
X109195092Y-72040071D02*
X109252235Y-72068642D01*
X109252235Y-72068642D02*
X109309378Y-72125785D01*
X109309378Y-72125785D02*
X109337949Y-72240071D01*
X109337949Y-72240071D02*
X109337949Y-72440071D01*
X109337949Y-72440071D02*
X109309378Y-72554357D01*
X109309378Y-72554357D02*
X109252235Y-72611500D01*
X109252235Y-72611500D02*
X109195092Y-72640071D01*
X109195092Y-72640071D02*
X109080806Y-72640071D01*
X109080806Y-72640071D02*
X109023664Y-72611500D01*
X109023664Y-72611500D02*
X108966521Y-72554357D01*
X108966521Y-72554357D02*
X108937949Y-72440071D01*
X108937949Y-72440071D02*
X108937949Y-72240071D01*
X108937949Y-72240071D02*
X108966521Y-72125785D01*
X108966521Y-72125785D02*
X109023664Y-72068642D01*
X109023664Y-72068642D02*
X109080806Y-72040071D01*
X109595092Y-72640071D02*
X109595092Y-72040071D01*
X109595092Y-72040071D02*
X109795092Y-72468642D01*
X109795092Y-72468642D02*
X109995092Y-72040071D01*
X109995092Y-72040071D02*
X109995092Y-72640071D01*
X115415093Y-68050071D02*
X115415093Y-67450071D01*
X115700807Y-68050071D02*
X115700807Y-67450071D01*
X115986521Y-68050071D02*
X115986521Y-67450071D01*
X115986521Y-67450071D02*
X116186521Y-67878642D01*
X116186521Y-67878642D02*
X116386521Y-67450071D01*
X116386521Y-67450071D02*
X116386521Y-68050071D01*
X116672235Y-67821500D02*
X117129378Y-67821500D01*
X117672235Y-67650071D02*
X117672235Y-68050071D01*
X117529377Y-67421500D02*
X117386520Y-67850071D01*
X117386520Y-67850071D02*
X117757949Y-67850071D01*
X117957949Y-67507214D02*
X117986521Y-67478642D01*
X117986521Y-67478642D02*
X118043664Y-67450071D01*
X118043664Y-67450071D02*
X118186521Y-67450071D01*
X118186521Y-67450071D02*
X118243664Y-67478642D01*
X118243664Y-67478642D02*
X118272235Y-67507214D01*
X118272235Y-67507214D02*
X118300806Y-67564357D01*
X118300806Y-67564357D02*
X118300806Y-67621500D01*
X118300806Y-67621500D02*
X118272235Y-67707214D01*
X118272235Y-67707214D02*
X117929378Y-68050071D01*
X117929378Y-68050071D02*
X118300806Y-68050071D01*
X118815093Y-67450071D02*
X118700807Y-67450071D01*
X118700807Y-67450071D02*
X118643664Y-67478642D01*
X118643664Y-67478642D02*
X118615093Y-67507214D01*
X118615093Y-67507214D02*
X118557950Y-67592928D01*
X118557950Y-67592928D02*
X118529378Y-67707214D01*
X118529378Y-67707214D02*
X118529378Y-67935785D01*
X118529378Y-67935785D02*
X118557950Y-67992928D01*
X118557950Y-67992928D02*
X118586521Y-68021500D01*
X118586521Y-68021500D02*
X118643664Y-68050071D01*
X118643664Y-68050071D02*
X118757950Y-68050071D01*
X118757950Y-68050071D02*
X118815093Y-68021500D01*
X118815093Y-68021500D02*
X118843664Y-67992928D01*
X118843664Y-67992928D02*
X118872235Y-67935785D01*
X118872235Y-67935785D02*
X118872235Y-67792928D01*
X118872235Y-67792928D02*
X118843664Y-67735785D01*
X118843664Y-67735785D02*
X118815093Y-67707214D01*
X118815093Y-67707214D02*
X118757950Y-67678642D01*
X118757950Y-67678642D02*
X118643664Y-67678642D01*
X118643664Y-67678642D02*
X118586521Y-67707214D01*
X118586521Y-67707214D02*
X118557950Y-67735785D01*
X118557950Y-67735785D02*
X118529378Y-67792928D01*
X119415093Y-67450071D02*
X119129379Y-67450071D01*
X119129379Y-67450071D02*
X119100807Y-67735785D01*
X119100807Y-67735785D02*
X119129379Y-67707214D01*
X119129379Y-67707214D02*
X119186522Y-67678642D01*
X119186522Y-67678642D02*
X119329379Y-67678642D01*
X119329379Y-67678642D02*
X119386522Y-67707214D01*
X119386522Y-67707214D02*
X119415093Y-67735785D01*
X119415093Y-67735785D02*
X119443664Y-67792928D01*
X119443664Y-67792928D02*
X119443664Y-67935785D01*
X119443664Y-67935785D02*
X119415093Y-67992928D01*
X119415093Y-67992928D02*
X119386522Y-68021500D01*
X119386522Y-68021500D02*
X119329379Y-68050071D01*
X119329379Y-68050071D02*
X119186522Y-68050071D01*
X119186522Y-68050071D02*
X119129379Y-68021500D01*
X119129379Y-68021500D02*
X119100807Y-67992928D01*
X119643665Y-67450071D02*
X120015093Y-67450071D01*
X120015093Y-67450071D02*
X119815093Y-67678642D01*
X119815093Y-67678642D02*
X119900808Y-67678642D01*
X119900808Y-67678642D02*
X119957951Y-67707214D01*
X119957951Y-67707214D02*
X119986522Y-67735785D01*
X119986522Y-67735785D02*
X120015093Y-67792928D01*
X120015093Y-67792928D02*
X120015093Y-67935785D01*
X120015093Y-67935785D02*
X119986522Y-67992928D01*
X119986522Y-67992928D02*
X119957951Y-68021500D01*
X119957951Y-68021500D02*
X119900808Y-68050071D01*
X119900808Y-68050071D02*
X119729379Y-68050071D01*
X119729379Y-68050071D02*
X119672236Y-68021500D01*
X119672236Y-68021500D02*
X119643665Y-67992928D01*
X167129928Y-57155093D02*
X167729928Y-57155093D01*
X167729928Y-57155093D02*
X167301357Y-57355093D01*
X167301357Y-57355093D02*
X167729928Y-57555093D01*
X167729928Y-57555093D02*
X167129928Y-57555093D01*
X167672785Y-57812235D02*
X167701357Y-57840807D01*
X167701357Y-57840807D02*
X167729928Y-57897950D01*
X167729928Y-57897950D02*
X167729928Y-58040807D01*
X167729928Y-58040807D02*
X167701357Y-58097950D01*
X167701357Y-58097950D02*
X167672785Y-58126521D01*
X167672785Y-58126521D02*
X167615642Y-58155092D01*
X167615642Y-58155092D02*
X167558500Y-58155092D01*
X167558500Y-58155092D02*
X167472785Y-58126521D01*
X167472785Y-58126521D02*
X167129928Y-57783664D01*
X167129928Y-57783664D02*
X167129928Y-58155092D01*
X167729928Y-58526521D02*
X167729928Y-58583664D01*
X167729928Y-58583664D02*
X167701357Y-58640807D01*
X167701357Y-58640807D02*
X167672785Y-58669379D01*
X167672785Y-58669379D02*
X167615642Y-58697950D01*
X167615642Y-58697950D02*
X167501357Y-58726521D01*
X167501357Y-58726521D02*
X167358500Y-58726521D01*
X167358500Y-58726521D02*
X167244214Y-58697950D01*
X167244214Y-58697950D02*
X167187071Y-58669379D01*
X167187071Y-58669379D02*
X167158500Y-58640807D01*
X167158500Y-58640807D02*
X167129928Y-58583664D01*
X167129928Y-58583664D02*
X167129928Y-58526521D01*
X167129928Y-58526521D02*
X167158500Y-58469379D01*
X167158500Y-58469379D02*
X167187071Y-58440807D01*
X167187071Y-58440807D02*
X167244214Y-58412236D01*
X167244214Y-58412236D02*
X167358500Y-58383664D01*
X167358500Y-58383664D02*
X167501357Y-58383664D01*
X167501357Y-58383664D02*
X167615642Y-58412236D01*
X167615642Y-58412236D02*
X167672785Y-58440807D01*
X167672785Y-58440807D02*
X167701357Y-58469379D01*
X167701357Y-58469379D02*
X167729928Y-58526521D01*
X167729928Y-59097950D02*
X167729928Y-59155093D01*
X167729928Y-59155093D02*
X167701357Y-59212236D01*
X167701357Y-59212236D02*
X167672785Y-59240808D01*
X167672785Y-59240808D02*
X167615642Y-59269379D01*
X167615642Y-59269379D02*
X167501357Y-59297950D01*
X167501357Y-59297950D02*
X167358500Y-59297950D01*
X167358500Y-59297950D02*
X167244214Y-59269379D01*
X167244214Y-59269379D02*
X167187071Y-59240808D01*
X167187071Y-59240808D02*
X167158500Y-59212236D01*
X167158500Y-59212236D02*
X167129928Y-59155093D01*
X167129928Y-59155093D02*
X167129928Y-59097950D01*
X167129928Y-59097950D02*
X167158500Y-59040808D01*
X167158500Y-59040808D02*
X167187071Y-59012236D01*
X167187071Y-59012236D02*
X167244214Y-58983665D01*
X167244214Y-58983665D02*
X167358500Y-58955093D01*
X167358500Y-58955093D02*
X167501357Y-58955093D01*
X167501357Y-58955093D02*
X167615642Y-58983665D01*
X167615642Y-58983665D02*
X167672785Y-59012236D01*
X167672785Y-59012236D02*
X167701357Y-59040808D01*
X167701357Y-59040808D02*
X167729928Y-59097950D01*
X167729928Y-59840808D02*
X167729928Y-59555094D01*
X167729928Y-59555094D02*
X167444214Y-59526522D01*
X167444214Y-59526522D02*
X167472785Y-59555094D01*
X167472785Y-59555094D02*
X167501357Y-59612237D01*
X167501357Y-59612237D02*
X167501357Y-59755094D01*
X167501357Y-59755094D02*
X167472785Y-59812237D01*
X167472785Y-59812237D02*
X167444214Y-59840808D01*
X167444214Y-59840808D02*
X167387071Y-59869379D01*
X167387071Y-59869379D02*
X167244214Y-59869379D01*
X167244214Y-59869379D02*
X167187071Y-59840808D01*
X167187071Y-59840808D02*
X167158500Y-59812237D01*
X167158500Y-59812237D02*
X167129928Y-59755094D01*
X167129928Y-59755094D02*
X167129928Y-59612237D01*
X167129928Y-59612237D02*
X167158500Y-59555094D01*
X167158500Y-59555094D02*
X167187071Y-59526522D01*
X167729928Y-60240808D02*
X167729928Y-60297951D01*
X167729928Y-60297951D02*
X167701357Y-60355094D01*
X167701357Y-60355094D02*
X167672785Y-60383666D01*
X167672785Y-60383666D02*
X167615642Y-60412237D01*
X167615642Y-60412237D02*
X167501357Y-60440808D01*
X167501357Y-60440808D02*
X167358500Y-60440808D01*
X167358500Y-60440808D02*
X167244214Y-60412237D01*
X167244214Y-60412237D02*
X167187071Y-60383666D01*
X167187071Y-60383666D02*
X167158500Y-60355094D01*
X167158500Y-60355094D02*
X167129928Y-60297951D01*
X167129928Y-60297951D02*
X167129928Y-60240808D01*
X167129928Y-60240808D02*
X167158500Y-60183666D01*
X167158500Y-60183666D02*
X167187071Y-60155094D01*
X167187071Y-60155094D02*
X167244214Y-60126523D01*
X167244214Y-60126523D02*
X167358500Y-60097951D01*
X167358500Y-60097951D02*
X167501357Y-60097951D01*
X167501357Y-60097951D02*
X167615642Y-60126523D01*
X167615642Y-60126523D02*
X167672785Y-60155094D01*
X167672785Y-60155094D02*
X167701357Y-60183666D01*
X167701357Y-60183666D02*
X167729928Y-60240808D01*
X167358500Y-60697952D02*
X167358500Y-61155095D01*
X167129928Y-61755094D02*
X167129928Y-61412237D01*
X167129928Y-61583666D02*
X167729928Y-61583666D01*
X167729928Y-61583666D02*
X167644214Y-61526523D01*
X167644214Y-61526523D02*
X167587071Y-61469380D01*
X167587071Y-61469380D02*
X167558500Y-61412237D01*
X148997142Y-37239928D02*
X149282856Y-37239928D01*
X149282856Y-37239928D02*
X149282856Y-37839928D01*
X148682857Y-37839928D02*
X148568571Y-37839928D01*
X148568571Y-37839928D02*
X148511428Y-37811357D01*
X148511428Y-37811357D02*
X148454285Y-37754214D01*
X148454285Y-37754214D02*
X148425714Y-37639928D01*
X148425714Y-37639928D02*
X148425714Y-37439928D01*
X148425714Y-37439928D02*
X148454285Y-37325642D01*
X148454285Y-37325642D02*
X148511428Y-37268500D01*
X148511428Y-37268500D02*
X148568571Y-37239928D01*
X148568571Y-37239928D02*
X148682857Y-37239928D01*
X148682857Y-37239928D02*
X148740000Y-37268500D01*
X148740000Y-37268500D02*
X148797142Y-37325642D01*
X148797142Y-37325642D02*
X148825714Y-37439928D01*
X148825714Y-37439928D02*
X148825714Y-37639928D01*
X148825714Y-37639928D02*
X148797142Y-37754214D01*
X148797142Y-37754214D02*
X148740000Y-37811357D01*
X148740000Y-37811357D02*
X148682857Y-37839928D01*
X148197143Y-37411357D02*
X147911429Y-37411357D01*
X148254286Y-37239928D02*
X148054286Y-37839928D01*
X148054286Y-37839928D02*
X147854286Y-37239928D01*
X147654285Y-37239928D02*
X147654285Y-37839928D01*
X147654285Y-37839928D02*
X147511428Y-37839928D01*
X147511428Y-37839928D02*
X147425714Y-37811357D01*
X147425714Y-37811357D02*
X147368571Y-37754214D01*
X147368571Y-37754214D02*
X147340000Y-37697071D01*
X147340000Y-37697071D02*
X147311428Y-37582785D01*
X147311428Y-37582785D02*
X147311428Y-37497071D01*
X147311428Y-37497071D02*
X147340000Y-37382785D01*
X147340000Y-37382785D02*
X147368571Y-37325642D01*
X147368571Y-37325642D02*
X147425714Y-37268500D01*
X147425714Y-37268500D02*
X147511428Y-37239928D01*
X147511428Y-37239928D02*
X147654285Y-37239928D01*
X146625714Y-37782785D02*
X146597142Y-37811357D01*
X146597142Y-37811357D02*
X146540000Y-37839928D01*
X146540000Y-37839928D02*
X146397142Y-37839928D01*
X146397142Y-37839928D02*
X146340000Y-37811357D01*
X146340000Y-37811357D02*
X146311428Y-37782785D01*
X146311428Y-37782785D02*
X146282857Y-37725642D01*
X146282857Y-37725642D02*
X146282857Y-37668500D01*
X146282857Y-37668500D02*
X146311428Y-37582785D01*
X146311428Y-37582785D02*
X146654285Y-37239928D01*
X146654285Y-37239928D02*
X146282857Y-37239928D01*
X145397142Y-37011357D02*
X145425713Y-37039928D01*
X145425713Y-37039928D02*
X145482856Y-37125642D01*
X145482856Y-37125642D02*
X145511428Y-37182785D01*
X145511428Y-37182785D02*
X145539999Y-37268500D01*
X145539999Y-37268500D02*
X145568570Y-37411357D01*
X145568570Y-37411357D02*
X145568570Y-37525642D01*
X145568570Y-37525642D02*
X145539999Y-37668500D01*
X145539999Y-37668500D02*
X145511428Y-37754214D01*
X145511428Y-37754214D02*
X145482856Y-37811357D01*
X145482856Y-37811357D02*
X145425713Y-37897071D01*
X145425713Y-37897071D02*
X145397142Y-37925642D01*
X145254285Y-37839928D02*
X144911428Y-37839928D01*
X145082856Y-37239928D02*
X145082856Y-37839928D01*
X144711427Y-37239928D02*
X144711427Y-37839928D01*
X144711427Y-37839928D02*
X144568570Y-37839928D01*
X144568570Y-37839928D02*
X144482856Y-37811357D01*
X144482856Y-37811357D02*
X144425713Y-37754214D01*
X144425713Y-37754214D02*
X144397142Y-37697071D01*
X144397142Y-37697071D02*
X144368570Y-37582785D01*
X144368570Y-37582785D02*
X144368570Y-37497071D01*
X144368570Y-37497071D02*
X144397142Y-37382785D01*
X144397142Y-37382785D02*
X144425713Y-37325642D01*
X144425713Y-37325642D02*
X144482856Y-37268500D01*
X144482856Y-37268500D02*
X144568570Y-37239928D01*
X144568570Y-37239928D02*
X144711427Y-37239928D01*
X144168570Y-37011357D02*
X144139999Y-37039928D01*
X144139999Y-37039928D02*
X144082856Y-37125642D01*
X144082856Y-37125642D02*
X144054285Y-37182785D01*
X144054285Y-37182785D02*
X144025713Y-37268500D01*
X144025713Y-37268500D02*
X143997142Y-37411357D01*
X143997142Y-37411357D02*
X143997142Y-37525642D01*
X143997142Y-37525642D02*
X144025713Y-37668500D01*
X144025713Y-37668500D02*
X144054285Y-37754214D01*
X144054285Y-37754214D02*
X144082856Y-37811357D01*
X144082856Y-37811357D02*
X144139999Y-37897071D01*
X144139999Y-37897071D02*
X144168570Y-37925642D01*
X105726357Y-97267857D02*
X105754928Y-97210715D01*
X105754928Y-97210715D02*
X105754928Y-97125000D01*
X105754928Y-97125000D02*
X105726357Y-97039286D01*
X105726357Y-97039286D02*
X105669214Y-96982143D01*
X105669214Y-96982143D02*
X105612071Y-96953572D01*
X105612071Y-96953572D02*
X105497785Y-96925000D01*
X105497785Y-96925000D02*
X105412071Y-96925000D01*
X105412071Y-96925000D02*
X105297785Y-96953572D01*
X105297785Y-96953572D02*
X105240642Y-96982143D01*
X105240642Y-96982143D02*
X105183500Y-97039286D01*
X105183500Y-97039286D02*
X105154928Y-97125000D01*
X105154928Y-97125000D02*
X105154928Y-97182143D01*
X105154928Y-97182143D02*
X105183500Y-97267857D01*
X105183500Y-97267857D02*
X105212071Y-97296429D01*
X105212071Y-97296429D02*
X105412071Y-97296429D01*
X105412071Y-97296429D02*
X105412071Y-97182143D01*
X105154928Y-97553572D02*
X105754928Y-97553572D01*
X105754928Y-97553572D02*
X105154928Y-97896429D01*
X105154928Y-97896429D02*
X105754928Y-97896429D01*
X105154928Y-98182143D02*
X105754928Y-98182143D01*
X105754928Y-98182143D02*
X105754928Y-98325000D01*
X105754928Y-98325000D02*
X105726357Y-98410714D01*
X105726357Y-98410714D02*
X105669214Y-98467857D01*
X105669214Y-98467857D02*
X105612071Y-98496428D01*
X105612071Y-98496428D02*
X105497785Y-98525000D01*
X105497785Y-98525000D02*
X105412071Y-98525000D01*
X105412071Y-98525000D02*
X105297785Y-98496428D01*
X105297785Y-98496428D02*
X105240642Y-98467857D01*
X105240642Y-98467857D02*
X105183500Y-98410714D01*
X105183500Y-98410714D02*
X105154928Y-98325000D01*
X105154928Y-98325000D02*
X105154928Y-98182143D01*
X168300000Y-98470071D02*
X168700000Y-98470071D01*
X168700000Y-98470071D02*
X168442857Y-99070071D01*
X168928572Y-99012928D02*
X168957143Y-99041500D01*
X168957143Y-99041500D02*
X168928572Y-99070071D01*
X168928572Y-99070071D02*
X168900000Y-99041500D01*
X168900000Y-99041500D02*
X168928572Y-99012928D01*
X168928572Y-99012928D02*
X168928572Y-99070071D01*
X169471429Y-98670071D02*
X169471429Y-99070071D01*
X169328571Y-98441500D02*
X169185714Y-98870071D01*
X169185714Y-98870071D02*
X169557143Y-98870071D01*
X169700000Y-98470071D02*
X169900000Y-99070071D01*
X169900000Y-99070071D02*
X170100000Y-98470071D01*
X170300001Y-99070071D02*
X170300001Y-98670071D01*
X170300001Y-98470071D02*
X170271429Y-98498642D01*
X170271429Y-98498642D02*
X170300001Y-98527214D01*
X170300001Y-98527214D02*
X170328572Y-98498642D01*
X170328572Y-98498642D02*
X170300001Y-98470071D01*
X170300001Y-98470071D02*
X170300001Y-98527214D01*
X170585715Y-98670071D02*
X170585715Y-99070071D01*
X170585715Y-98727214D02*
X170614286Y-98698642D01*
X170614286Y-98698642D02*
X170671429Y-98670071D01*
X170671429Y-98670071D02*
X170757143Y-98670071D01*
X170757143Y-98670071D02*
X170814286Y-98698642D01*
X170814286Y-98698642D02*
X170842858Y-98755785D01*
X170842858Y-98755785D02*
X170842858Y-99070071D01*
X139569928Y-38624286D02*
X140169928Y-38624286D01*
X140169928Y-38624286D02*
X140169928Y-38852857D01*
X140169928Y-38852857D02*
X140141357Y-38910000D01*
X140141357Y-38910000D02*
X140112785Y-38938571D01*
X140112785Y-38938571D02*
X140055642Y-38967143D01*
X140055642Y-38967143D02*
X139969928Y-38967143D01*
X139969928Y-38967143D02*
X139912785Y-38938571D01*
X139912785Y-38938571D02*
X139884214Y-38910000D01*
X139884214Y-38910000D02*
X139855642Y-38852857D01*
X139855642Y-38852857D02*
X139855642Y-38624286D01*
X139855642Y-39338571D02*
X139569928Y-39338571D01*
X140169928Y-39138571D02*
X139855642Y-39338571D01*
X139855642Y-39338571D02*
X140169928Y-39538571D01*
X139569928Y-40081429D02*
X139855642Y-39881429D01*
X139569928Y-39738572D02*
X140169928Y-39738572D01*
X140169928Y-39738572D02*
X140169928Y-39967143D01*
X140169928Y-39967143D02*
X140141357Y-40024286D01*
X140141357Y-40024286D02*
X140112785Y-40052857D01*
X140112785Y-40052857D02*
X140055642Y-40081429D01*
X140055642Y-40081429D02*
X139969928Y-40081429D01*
X139969928Y-40081429D02*
X139912785Y-40052857D01*
X139912785Y-40052857D02*
X139884214Y-40024286D01*
X139884214Y-40024286D02*
X139855642Y-39967143D01*
X139855642Y-39967143D02*
X139855642Y-39738572D01*
X140169928Y-40452857D02*
X140169928Y-40567143D01*
X140169928Y-40567143D02*
X140141357Y-40624286D01*
X140141357Y-40624286D02*
X140084214Y-40681429D01*
X140084214Y-40681429D02*
X139969928Y-40710000D01*
X139969928Y-40710000D02*
X139769928Y-40710000D01*
X139769928Y-40710000D02*
X139655642Y-40681429D01*
X139655642Y-40681429D02*
X139598500Y-40624286D01*
X139598500Y-40624286D02*
X139569928Y-40567143D01*
X139569928Y-40567143D02*
X139569928Y-40452857D01*
X139569928Y-40452857D02*
X139598500Y-40395715D01*
X139598500Y-40395715D02*
X139655642Y-40338572D01*
X139655642Y-40338572D02*
X139769928Y-40310000D01*
X139769928Y-40310000D02*
X139969928Y-40310000D01*
X139969928Y-40310000D02*
X140084214Y-40338572D01*
X140084214Y-40338572D02*
X140141357Y-40395715D01*
X140141357Y-40395715D02*
X140169928Y-40452857D01*
X139884214Y-41624286D02*
X139855642Y-41710000D01*
X139855642Y-41710000D02*
X139827071Y-41738571D01*
X139827071Y-41738571D02*
X139769928Y-41767143D01*
X139769928Y-41767143D02*
X139684214Y-41767143D01*
X139684214Y-41767143D02*
X139627071Y-41738571D01*
X139627071Y-41738571D02*
X139598500Y-41710000D01*
X139598500Y-41710000D02*
X139569928Y-41652857D01*
X139569928Y-41652857D02*
X139569928Y-41424286D01*
X139569928Y-41424286D02*
X140169928Y-41424286D01*
X140169928Y-41424286D02*
X140169928Y-41624286D01*
X140169928Y-41624286D02*
X140141357Y-41681429D01*
X140141357Y-41681429D02*
X140112785Y-41710000D01*
X140112785Y-41710000D02*
X140055642Y-41738571D01*
X140055642Y-41738571D02*
X139998500Y-41738571D01*
X139998500Y-41738571D02*
X139941357Y-41710000D01*
X139941357Y-41710000D02*
X139912785Y-41681429D01*
X139912785Y-41681429D02*
X139884214Y-41624286D01*
X139884214Y-41624286D02*
X139884214Y-41424286D01*
X139741357Y-41995714D02*
X139741357Y-42281429D01*
X139569928Y-41938571D02*
X140169928Y-42138571D01*
X140169928Y-42138571D02*
X139569928Y-42338571D01*
X140169928Y-42452857D02*
X140169928Y-42795715D01*
X139569928Y-42624286D02*
X140169928Y-42624286D01*
X140169928Y-42910000D02*
X140169928Y-43252858D01*
X139569928Y-43081429D02*
X140169928Y-43081429D01*
X139884214Y-43452858D02*
X139884214Y-43652858D01*
X139569928Y-43738572D02*
X139569928Y-43452858D01*
X139569928Y-43452858D02*
X140169928Y-43452858D01*
X140169928Y-43452858D02*
X140169928Y-43738572D01*
X139569928Y-44338572D02*
X139855642Y-44138572D01*
X139569928Y-43995715D02*
X140169928Y-43995715D01*
X140169928Y-43995715D02*
X140169928Y-44224286D01*
X140169928Y-44224286D02*
X140141357Y-44281429D01*
X140141357Y-44281429D02*
X140112785Y-44310000D01*
X140112785Y-44310000D02*
X140055642Y-44338572D01*
X140055642Y-44338572D02*
X139969928Y-44338572D01*
X139969928Y-44338572D02*
X139912785Y-44310000D01*
X139912785Y-44310000D02*
X139884214Y-44281429D01*
X139884214Y-44281429D02*
X139855642Y-44224286D01*
X139855642Y-44224286D02*
X139855642Y-43995715D01*
X139855642Y-44710000D02*
X139569928Y-44710000D01*
X140169928Y-44510000D02*
X139855642Y-44710000D01*
X139855642Y-44710000D02*
X140169928Y-44910000D01*
X139512785Y-44967144D02*
X139512785Y-45424286D01*
X139569928Y-45567144D02*
X140169928Y-45567144D01*
X139569928Y-45852858D02*
X140169928Y-45852858D01*
X140169928Y-45852858D02*
X139569928Y-46195715D01*
X139569928Y-46195715D02*
X140169928Y-46195715D01*
X178614285Y-105318500D02*
X178528571Y-105289928D01*
X178528571Y-105289928D02*
X178385713Y-105289928D01*
X178385713Y-105289928D02*
X178328571Y-105318500D01*
X178328571Y-105318500D02*
X178299999Y-105347071D01*
X178299999Y-105347071D02*
X178271428Y-105404214D01*
X178271428Y-105404214D02*
X178271428Y-105461357D01*
X178271428Y-105461357D02*
X178299999Y-105518500D01*
X178299999Y-105518500D02*
X178328571Y-105547071D01*
X178328571Y-105547071D02*
X178385713Y-105575642D01*
X178385713Y-105575642D02*
X178499999Y-105604214D01*
X178499999Y-105604214D02*
X178557142Y-105632785D01*
X178557142Y-105632785D02*
X178585713Y-105661357D01*
X178585713Y-105661357D02*
X178614285Y-105718500D01*
X178614285Y-105718500D02*
X178614285Y-105775642D01*
X178614285Y-105775642D02*
X178585713Y-105832785D01*
X178585713Y-105832785D02*
X178557142Y-105861357D01*
X178557142Y-105861357D02*
X178499999Y-105889928D01*
X178499999Y-105889928D02*
X178357142Y-105889928D01*
X178357142Y-105889928D02*
X178271428Y-105861357D01*
X178014284Y-105604214D02*
X177814284Y-105604214D01*
X177728570Y-105289928D02*
X178014284Y-105289928D01*
X178014284Y-105289928D02*
X178014284Y-105889928D01*
X178014284Y-105889928D02*
X177728570Y-105889928D01*
X177128570Y-105289928D02*
X177328570Y-105575642D01*
X177471427Y-105289928D02*
X177471427Y-105889928D01*
X177471427Y-105889928D02*
X177242856Y-105889928D01*
X177242856Y-105889928D02*
X177185713Y-105861357D01*
X177185713Y-105861357D02*
X177157142Y-105832785D01*
X177157142Y-105832785D02*
X177128570Y-105775642D01*
X177128570Y-105775642D02*
X177128570Y-105689928D01*
X177128570Y-105689928D02*
X177157142Y-105632785D01*
X177157142Y-105632785D02*
X177185713Y-105604214D01*
X177185713Y-105604214D02*
X177242856Y-105575642D01*
X177242856Y-105575642D02*
X177471427Y-105575642D01*
X176957142Y-105889928D02*
X176757142Y-105289928D01*
X176757142Y-105289928D02*
X176557142Y-105889928D01*
X176242856Y-105889928D02*
X176128570Y-105889928D01*
X176128570Y-105889928D02*
X176071427Y-105861357D01*
X176071427Y-105861357D02*
X176014284Y-105804214D01*
X176014284Y-105804214D02*
X175985713Y-105689928D01*
X175985713Y-105689928D02*
X175985713Y-105489928D01*
X175985713Y-105489928D02*
X176014284Y-105375642D01*
X176014284Y-105375642D02*
X176071427Y-105318500D01*
X176071427Y-105318500D02*
X176128570Y-105289928D01*
X176128570Y-105289928D02*
X176242856Y-105289928D01*
X176242856Y-105289928D02*
X176299999Y-105318500D01*
X176299999Y-105318500D02*
X176357141Y-105375642D01*
X176357141Y-105375642D02*
X176385713Y-105489928D01*
X176385713Y-105489928D02*
X176385713Y-105689928D01*
X176385713Y-105689928D02*
X176357141Y-105804214D01*
X176357141Y-105804214D02*
X176299999Y-105861357D01*
X176299999Y-105861357D02*
X176242856Y-105889928D01*
X161227474Y-70118500D02*
X161298902Y-70142309D01*
X161298902Y-70142309D02*
X161417950Y-70142309D01*
X161417950Y-70142309D02*
X161465569Y-70118500D01*
X161465569Y-70118500D02*
X161489378Y-70094690D01*
X161489378Y-70094690D02*
X161513188Y-70047071D01*
X161513188Y-70047071D02*
X161513188Y-69999452D01*
X161513188Y-69999452D02*
X161489378Y-69951833D01*
X161489378Y-69951833D02*
X161465569Y-69928023D01*
X161465569Y-69928023D02*
X161417950Y-69904214D01*
X161417950Y-69904214D02*
X161322712Y-69880404D01*
X161322712Y-69880404D02*
X161275093Y-69856595D01*
X161275093Y-69856595D02*
X161251283Y-69832785D01*
X161251283Y-69832785D02*
X161227474Y-69785166D01*
X161227474Y-69785166D02*
X161227474Y-69737547D01*
X161227474Y-69737547D02*
X161251283Y-69689928D01*
X161251283Y-69689928D02*
X161275093Y-69666119D01*
X161275093Y-69666119D02*
X161322712Y-69642309D01*
X161322712Y-69642309D02*
X161441759Y-69642309D01*
X161441759Y-69642309D02*
X161513188Y-69666119D01*
X161679854Y-69642309D02*
X161989378Y-69642309D01*
X161989378Y-69642309D02*
X161822711Y-69832785D01*
X161822711Y-69832785D02*
X161894140Y-69832785D01*
X161894140Y-69832785D02*
X161941759Y-69856595D01*
X161941759Y-69856595D02*
X161965568Y-69880404D01*
X161965568Y-69880404D02*
X161989378Y-69928023D01*
X161989378Y-69928023D02*
X161989378Y-70047071D01*
X161989378Y-70047071D02*
X161965568Y-70094690D01*
X161965568Y-70094690D02*
X161941759Y-70118500D01*
X161941759Y-70118500D02*
X161894140Y-70142309D01*
X161894140Y-70142309D02*
X161751283Y-70142309D01*
X161751283Y-70142309D02*
X161703664Y-70118500D01*
X161703664Y-70118500D02*
X161679854Y-70094690D01*
X162584615Y-70142309D02*
X162584615Y-69642309D01*
X162584615Y-69642309D02*
X162751282Y-69999452D01*
X162751282Y-69999452D02*
X162917948Y-69642309D01*
X162917948Y-69642309D02*
X162917948Y-70142309D01*
X163156044Y-70142309D02*
X163156044Y-69642309D01*
X163394139Y-70142309D02*
X163394139Y-69642309D01*
X163394139Y-69642309D02*
X163679853Y-70142309D01*
X163679853Y-70142309D02*
X163679853Y-69642309D01*
X163917949Y-70142309D02*
X163917949Y-69642309D01*
X164822710Y-70142309D02*
X164656044Y-69904214D01*
X164536996Y-70142309D02*
X164536996Y-69642309D01*
X164536996Y-69642309D02*
X164727472Y-69642309D01*
X164727472Y-69642309D02*
X164775091Y-69666119D01*
X164775091Y-69666119D02*
X164798901Y-69689928D01*
X164798901Y-69689928D02*
X164822710Y-69737547D01*
X164822710Y-69737547D02*
X164822710Y-69808976D01*
X164822710Y-69808976D02*
X164798901Y-69856595D01*
X164798901Y-69856595D02*
X164775091Y-69880404D01*
X164775091Y-69880404D02*
X164727472Y-69904214D01*
X164727472Y-69904214D02*
X164536996Y-69904214D01*
X165036996Y-69880404D02*
X165203663Y-69880404D01*
X165275091Y-70142309D02*
X165036996Y-70142309D01*
X165036996Y-70142309D02*
X165036996Y-69642309D01*
X165036996Y-69642309D02*
X165275091Y-69642309D01*
X165465568Y-70118500D02*
X165536996Y-70142309D01*
X165536996Y-70142309D02*
X165656044Y-70142309D01*
X165656044Y-70142309D02*
X165703663Y-70118500D01*
X165703663Y-70118500D02*
X165727472Y-70094690D01*
X165727472Y-70094690D02*
X165751282Y-70047071D01*
X165751282Y-70047071D02*
X165751282Y-69999452D01*
X165751282Y-69999452D02*
X165727472Y-69951833D01*
X165727472Y-69951833D02*
X165703663Y-69928023D01*
X165703663Y-69928023D02*
X165656044Y-69904214D01*
X165656044Y-69904214D02*
X165560806Y-69880404D01*
X165560806Y-69880404D02*
X165513187Y-69856595D01*
X165513187Y-69856595D02*
X165489377Y-69832785D01*
X165489377Y-69832785D02*
X165465568Y-69785166D01*
X165465568Y-69785166D02*
X165465568Y-69737547D01*
X165465568Y-69737547D02*
X165489377Y-69689928D01*
X165489377Y-69689928D02*
X165513187Y-69666119D01*
X165513187Y-69666119D02*
X165560806Y-69642309D01*
X165560806Y-69642309D02*
X165679853Y-69642309D01*
X165679853Y-69642309D02*
X165751282Y-69666119D01*
X165965567Y-69880404D02*
X166132234Y-69880404D01*
X166203662Y-70142309D02*
X165965567Y-70142309D01*
X165965567Y-70142309D02*
X165965567Y-69642309D01*
X165965567Y-69642309D02*
X166203662Y-69642309D01*
X166346520Y-69642309D02*
X166632234Y-69642309D01*
X166489377Y-70142309D02*
X166489377Y-69642309D01*
X159925000Y-61620071D02*
X160296428Y-61620071D01*
X160296428Y-61620071D02*
X160096428Y-61848642D01*
X160096428Y-61848642D02*
X160182143Y-61848642D01*
X160182143Y-61848642D02*
X160239286Y-61877214D01*
X160239286Y-61877214D02*
X160267857Y-61905785D01*
X160267857Y-61905785D02*
X160296428Y-61962928D01*
X160296428Y-61962928D02*
X160296428Y-62105785D01*
X160296428Y-62105785D02*
X160267857Y-62162928D01*
X160267857Y-62162928D02*
X160239286Y-62191500D01*
X160239286Y-62191500D02*
X160182143Y-62220071D01*
X160182143Y-62220071D02*
X160010714Y-62220071D01*
X160010714Y-62220071D02*
X159953571Y-62191500D01*
X159953571Y-62191500D02*
X159925000Y-62162928D01*
X160553572Y-62162928D02*
X160582143Y-62191500D01*
X160582143Y-62191500D02*
X160553572Y-62220071D01*
X160553572Y-62220071D02*
X160525000Y-62191500D01*
X160525000Y-62191500D02*
X160553572Y-62162928D01*
X160553572Y-62162928D02*
X160553572Y-62220071D01*
X160782143Y-61620071D02*
X161153571Y-61620071D01*
X161153571Y-61620071D02*
X160953571Y-61848642D01*
X160953571Y-61848642D02*
X161039286Y-61848642D01*
X161039286Y-61848642D02*
X161096429Y-61877214D01*
X161096429Y-61877214D02*
X161125000Y-61905785D01*
X161125000Y-61905785D02*
X161153571Y-61962928D01*
X161153571Y-61962928D02*
X161153571Y-62105785D01*
X161153571Y-62105785D02*
X161125000Y-62162928D01*
X161125000Y-62162928D02*
X161096429Y-62191500D01*
X161096429Y-62191500D02*
X161039286Y-62220071D01*
X161039286Y-62220071D02*
X160867857Y-62220071D01*
X160867857Y-62220071D02*
X160810714Y-62191500D01*
X160810714Y-62191500D02*
X160782143Y-62162928D01*
X161325000Y-61620071D02*
X161525000Y-62220071D01*
X161525000Y-62220071D02*
X161725000Y-61620071D01*
X162010715Y-62220071D02*
X161953572Y-62191500D01*
X161953572Y-62191500D02*
X161925001Y-62162928D01*
X161925001Y-62162928D02*
X161896429Y-62105785D01*
X161896429Y-62105785D02*
X161896429Y-61934357D01*
X161896429Y-61934357D02*
X161925001Y-61877214D01*
X161925001Y-61877214D02*
X161953572Y-61848642D01*
X161953572Y-61848642D02*
X162010715Y-61820071D01*
X162010715Y-61820071D02*
X162096429Y-61820071D01*
X162096429Y-61820071D02*
X162153572Y-61848642D01*
X162153572Y-61848642D02*
X162182144Y-61877214D01*
X162182144Y-61877214D02*
X162210715Y-61934357D01*
X162210715Y-61934357D02*
X162210715Y-62105785D01*
X162210715Y-62105785D02*
X162182144Y-62162928D01*
X162182144Y-62162928D02*
X162153572Y-62191500D01*
X162153572Y-62191500D02*
X162096429Y-62220071D01*
X162096429Y-62220071D02*
X162010715Y-62220071D01*
X162725001Y-61820071D02*
X162725001Y-62220071D01*
X162467858Y-61820071D02*
X162467858Y-62134357D01*
X162467858Y-62134357D02*
X162496429Y-62191500D01*
X162496429Y-62191500D02*
X162553572Y-62220071D01*
X162553572Y-62220071D02*
X162639286Y-62220071D01*
X162639286Y-62220071D02*
X162696429Y-62191500D01*
X162696429Y-62191500D02*
X162725001Y-62162928D01*
X162925000Y-61820071D02*
X163153572Y-61820071D01*
X163010715Y-61620071D02*
X163010715Y-62134357D01*
X163010715Y-62134357D02*
X163039286Y-62191500D01*
X163039286Y-62191500D02*
X163096429Y-62220071D01*
X163096429Y-62220071D02*
X163153572Y-62220071D01*
X155796428Y-96970071D02*
X155510714Y-96970071D01*
X155510714Y-96970071D02*
X155482142Y-97255785D01*
X155482142Y-97255785D02*
X155510714Y-97227214D01*
X155510714Y-97227214D02*
X155567857Y-97198642D01*
X155567857Y-97198642D02*
X155710714Y-97198642D01*
X155710714Y-97198642D02*
X155767857Y-97227214D01*
X155767857Y-97227214D02*
X155796428Y-97255785D01*
X155796428Y-97255785D02*
X155824999Y-97312928D01*
X155824999Y-97312928D02*
X155824999Y-97455785D01*
X155824999Y-97455785D02*
X155796428Y-97512928D01*
X155796428Y-97512928D02*
X155767857Y-97541500D01*
X155767857Y-97541500D02*
X155710714Y-97570071D01*
X155710714Y-97570071D02*
X155567857Y-97570071D01*
X155567857Y-97570071D02*
X155510714Y-97541500D01*
X155510714Y-97541500D02*
X155482142Y-97512928D01*
X155996428Y-96970071D02*
X156196428Y-97570071D01*
X156196428Y-97570071D02*
X156396428Y-96970071D01*
X156682143Y-97570071D02*
X156625000Y-97541500D01*
X156625000Y-97541500D02*
X156596429Y-97512928D01*
X156596429Y-97512928D02*
X156567857Y-97455785D01*
X156567857Y-97455785D02*
X156567857Y-97284357D01*
X156567857Y-97284357D02*
X156596429Y-97227214D01*
X156596429Y-97227214D02*
X156625000Y-97198642D01*
X156625000Y-97198642D02*
X156682143Y-97170071D01*
X156682143Y-97170071D02*
X156767857Y-97170071D01*
X156767857Y-97170071D02*
X156825000Y-97198642D01*
X156825000Y-97198642D02*
X156853572Y-97227214D01*
X156853572Y-97227214D02*
X156882143Y-97284357D01*
X156882143Y-97284357D02*
X156882143Y-97455785D01*
X156882143Y-97455785D02*
X156853572Y-97512928D01*
X156853572Y-97512928D02*
X156825000Y-97541500D01*
X156825000Y-97541500D02*
X156767857Y-97570071D01*
X156767857Y-97570071D02*
X156682143Y-97570071D01*
X157396429Y-97170071D02*
X157396429Y-97570071D01*
X157139286Y-97170071D02*
X157139286Y-97484357D01*
X157139286Y-97484357D02*
X157167857Y-97541500D01*
X157167857Y-97541500D02*
X157225000Y-97570071D01*
X157225000Y-97570071D02*
X157310714Y-97570071D01*
X157310714Y-97570071D02*
X157367857Y-97541500D01*
X157367857Y-97541500D02*
X157396429Y-97512928D01*
X157596428Y-97170071D02*
X157825000Y-97170071D01*
X157682143Y-96970071D02*
X157682143Y-97484357D01*
X157682143Y-97484357D02*
X157710714Y-97541500D01*
X157710714Y-97541500D02*
X157767857Y-97570071D01*
X157767857Y-97570071D02*
X157825000Y-97570071D01*
X144025093Y-100520071D02*
X144025093Y-99920071D01*
X144025093Y-99920071D02*
X144225093Y-100348642D01*
X144225093Y-100348642D02*
X144425093Y-99920071D01*
X144425093Y-99920071D02*
X144425093Y-100520071D01*
X144710807Y-100520071D02*
X144710807Y-99920071D01*
X144710807Y-99920071D02*
X144939378Y-99920071D01*
X144939378Y-99920071D02*
X144996521Y-99948642D01*
X144996521Y-99948642D02*
X145025092Y-99977214D01*
X145025092Y-99977214D02*
X145053664Y-100034357D01*
X145053664Y-100034357D02*
X145053664Y-100120071D01*
X145053664Y-100120071D02*
X145025092Y-100177214D01*
X145025092Y-100177214D02*
X144996521Y-100205785D01*
X144996521Y-100205785D02*
X144939378Y-100234357D01*
X144939378Y-100234357D02*
X144710807Y-100234357D01*
X145282235Y-100491500D02*
X145367950Y-100520071D01*
X145367950Y-100520071D02*
X145510807Y-100520071D01*
X145510807Y-100520071D02*
X145567950Y-100491500D01*
X145567950Y-100491500D02*
X145596521Y-100462928D01*
X145596521Y-100462928D02*
X145625092Y-100405785D01*
X145625092Y-100405785D02*
X145625092Y-100348642D01*
X145625092Y-100348642D02*
X145596521Y-100291500D01*
X145596521Y-100291500D02*
X145567950Y-100262928D01*
X145567950Y-100262928D02*
X145510807Y-100234357D01*
X145510807Y-100234357D02*
X145396521Y-100205785D01*
X145396521Y-100205785D02*
X145339378Y-100177214D01*
X145339378Y-100177214D02*
X145310807Y-100148642D01*
X145310807Y-100148642D02*
X145282235Y-100091500D01*
X145282235Y-100091500D02*
X145282235Y-100034357D01*
X145282235Y-100034357D02*
X145310807Y-99977214D01*
X145310807Y-99977214D02*
X145339378Y-99948642D01*
X145339378Y-99948642D02*
X145396521Y-99920071D01*
X145396521Y-99920071D02*
X145539378Y-99920071D01*
X145539378Y-99920071D02*
X145625092Y-99948642D01*
X145796521Y-99920071D02*
X145996521Y-100520071D01*
X145996521Y-100520071D02*
X146196521Y-99920071D01*
X146682236Y-99920071D02*
X146396522Y-99920071D01*
X146396522Y-99920071D02*
X146367950Y-100205785D01*
X146367950Y-100205785D02*
X146396522Y-100177214D01*
X146396522Y-100177214D02*
X146453665Y-100148642D01*
X146453665Y-100148642D02*
X146596522Y-100148642D01*
X146596522Y-100148642D02*
X146653665Y-100177214D01*
X146653665Y-100177214D02*
X146682236Y-100205785D01*
X146682236Y-100205785D02*
X146710807Y-100262928D01*
X146710807Y-100262928D02*
X146710807Y-100405785D01*
X146710807Y-100405785D02*
X146682236Y-100462928D01*
X146682236Y-100462928D02*
X146653665Y-100491500D01*
X146653665Y-100491500D02*
X146596522Y-100520071D01*
X146596522Y-100520071D02*
X146453665Y-100520071D01*
X146453665Y-100520071D02*
X146396522Y-100491500D01*
X146396522Y-100491500D02*
X146367950Y-100462928D01*
X147282236Y-100520071D02*
X146939379Y-100520071D01*
X147110808Y-100520071D02*
X147110808Y-99920071D01*
X147110808Y-99920071D02*
X147053665Y-100005785D01*
X147053665Y-100005785D02*
X146996522Y-100062928D01*
X146996522Y-100062928D02*
X146939379Y-100091500D01*
X147653665Y-99920071D02*
X147710808Y-99920071D01*
X147710808Y-99920071D02*
X147767951Y-99948642D01*
X147767951Y-99948642D02*
X147796523Y-99977214D01*
X147796523Y-99977214D02*
X147825094Y-100034357D01*
X147825094Y-100034357D02*
X147853665Y-100148642D01*
X147853665Y-100148642D02*
X147853665Y-100291500D01*
X147853665Y-100291500D02*
X147825094Y-100405785D01*
X147825094Y-100405785D02*
X147796523Y-100462928D01*
X147796523Y-100462928D02*
X147767951Y-100491500D01*
X147767951Y-100491500D02*
X147710808Y-100520071D01*
X147710808Y-100520071D02*
X147653665Y-100520071D01*
X147653665Y-100520071D02*
X147596523Y-100491500D01*
X147596523Y-100491500D02*
X147567951Y-100462928D01*
X147567951Y-100462928D02*
X147539380Y-100405785D01*
X147539380Y-100405785D02*
X147510808Y-100291500D01*
X147510808Y-100291500D02*
X147510808Y-100148642D01*
X147510808Y-100148642D02*
X147539380Y-100034357D01*
X147539380Y-100034357D02*
X147567951Y-99977214D01*
X147567951Y-99977214D02*
X147596523Y-99948642D01*
X147596523Y-99948642D02*
X147653665Y-99920071D01*
X148225094Y-99920071D02*
X148282237Y-99920071D01*
X148282237Y-99920071D02*
X148339380Y-99948642D01*
X148339380Y-99948642D02*
X148367952Y-99977214D01*
X148367952Y-99977214D02*
X148396523Y-100034357D01*
X148396523Y-100034357D02*
X148425094Y-100148642D01*
X148425094Y-100148642D02*
X148425094Y-100291500D01*
X148425094Y-100291500D02*
X148396523Y-100405785D01*
X148396523Y-100405785D02*
X148367952Y-100462928D01*
X148367952Y-100462928D02*
X148339380Y-100491500D01*
X148339380Y-100491500D02*
X148282237Y-100520071D01*
X148282237Y-100520071D02*
X148225094Y-100520071D01*
X148225094Y-100520071D02*
X148167952Y-100491500D01*
X148167952Y-100491500D02*
X148139380Y-100462928D01*
X148139380Y-100462928D02*
X148110809Y-100405785D01*
X148110809Y-100405785D02*
X148082237Y-100291500D01*
X148082237Y-100291500D02*
X148082237Y-100148642D01*
X148082237Y-100148642D02*
X148110809Y-100034357D01*
X148110809Y-100034357D02*
X148139380Y-99977214D01*
X148139380Y-99977214D02*
X148167952Y-99948642D01*
X148167952Y-99948642D02*
X148225094Y-99920071D01*
X148682238Y-100520071D02*
X148682238Y-99920071D01*
X148682238Y-99920071D02*
X148825095Y-99920071D01*
X148825095Y-99920071D02*
X148910809Y-99948642D01*
X148910809Y-99948642D02*
X148967952Y-100005785D01*
X148967952Y-100005785D02*
X148996523Y-100062928D01*
X148996523Y-100062928D02*
X149025095Y-100177214D01*
X149025095Y-100177214D02*
X149025095Y-100262928D01*
X149025095Y-100262928D02*
X148996523Y-100377214D01*
X148996523Y-100377214D02*
X148967952Y-100434357D01*
X148967952Y-100434357D02*
X148910809Y-100491500D01*
X148910809Y-100491500D02*
X148825095Y-100520071D01*
X148825095Y-100520071D02*
X148682238Y-100520071D01*
X149282238Y-100520071D02*
X149282238Y-99920071D01*
X149282238Y-99920071D02*
X149510809Y-99920071D01*
X149510809Y-99920071D02*
X149567952Y-99948642D01*
X149567952Y-99948642D02*
X149596523Y-99977214D01*
X149596523Y-99977214D02*
X149625095Y-100034357D01*
X149625095Y-100034357D02*
X149625095Y-100120071D01*
X149625095Y-100120071D02*
X149596523Y-100177214D01*
X149596523Y-100177214D02*
X149567952Y-100205785D01*
X149567952Y-100205785D02*
X149510809Y-100234357D01*
X149510809Y-100234357D02*
X149282238Y-100234357D01*
X149739381Y-100577214D02*
X150196523Y-100577214D01*
X150653666Y-100520071D02*
X150310809Y-100520071D01*
X150482238Y-100520071D02*
X150482238Y-99920071D01*
X150482238Y-99920071D02*
X150425095Y-100005785D01*
X150425095Y-100005785D02*
X150367952Y-100062928D01*
X150367952Y-100062928D02*
X150310809Y-100091500D01*
X182090071Y-98112856D02*
X181490071Y-98112856D01*
X181490071Y-98112856D02*
X181490071Y-97884285D01*
X181490071Y-97884285D02*
X181518642Y-97827142D01*
X181518642Y-97827142D02*
X181547214Y-97798571D01*
X181547214Y-97798571D02*
X181604357Y-97769999D01*
X181604357Y-97769999D02*
X181690071Y-97769999D01*
X181690071Y-97769999D02*
X181747214Y-97798571D01*
X181747214Y-97798571D02*
X181775785Y-97827142D01*
X181775785Y-97827142D02*
X181804357Y-97884285D01*
X181804357Y-97884285D02*
X181804357Y-98112856D01*
X181490071Y-97569999D02*
X182090071Y-97427142D01*
X182090071Y-97427142D02*
X181661500Y-97312856D01*
X181661500Y-97312856D02*
X182090071Y-97198571D01*
X182090071Y-97198571D02*
X181490071Y-97055714D01*
X182090071Y-96827142D02*
X181490071Y-96827142D01*
X181490071Y-96827142D02*
X181918642Y-96627142D01*
X181918642Y-96627142D02*
X181490071Y-96427142D01*
X181490071Y-96427142D02*
X182090071Y-96427142D01*
X137414285Y-37584214D02*
X137328571Y-37555642D01*
X137328571Y-37555642D02*
X137300000Y-37527071D01*
X137300000Y-37527071D02*
X137271428Y-37469928D01*
X137271428Y-37469928D02*
X137271428Y-37384214D01*
X137271428Y-37384214D02*
X137300000Y-37327071D01*
X137300000Y-37327071D02*
X137328571Y-37298500D01*
X137328571Y-37298500D02*
X137385714Y-37269928D01*
X137385714Y-37269928D02*
X137614285Y-37269928D01*
X137614285Y-37269928D02*
X137614285Y-37869928D01*
X137614285Y-37869928D02*
X137414285Y-37869928D01*
X137414285Y-37869928D02*
X137357143Y-37841357D01*
X137357143Y-37841357D02*
X137328571Y-37812785D01*
X137328571Y-37812785D02*
X137300000Y-37755642D01*
X137300000Y-37755642D02*
X137300000Y-37698500D01*
X137300000Y-37698500D02*
X137328571Y-37641357D01*
X137328571Y-37641357D02*
X137357143Y-37612785D01*
X137357143Y-37612785D02*
X137414285Y-37584214D01*
X137414285Y-37584214D02*
X137614285Y-37584214D01*
X137042857Y-37441357D02*
X136757143Y-37441357D01*
X137100000Y-37269928D02*
X136900000Y-37869928D01*
X136900000Y-37869928D02*
X136700000Y-37269928D01*
X136585714Y-37869928D02*
X136242857Y-37869928D01*
X136414285Y-37269928D02*
X136414285Y-37869928D01*
X136042856Y-37498500D02*
X135585714Y-37498500D01*
X135814285Y-37269928D02*
X135814285Y-37727071D01*
X165004928Y-78175093D02*
X165604928Y-78175093D01*
X165604928Y-78175093D02*
X165176357Y-78375093D01*
X165176357Y-78375093D02*
X165604928Y-78575093D01*
X165604928Y-78575093D02*
X165004928Y-78575093D01*
X165004928Y-78860807D02*
X165604928Y-78860807D01*
X165604928Y-78860807D02*
X165604928Y-79089378D01*
X165604928Y-79089378D02*
X165576357Y-79146521D01*
X165576357Y-79146521D02*
X165547785Y-79175092D01*
X165547785Y-79175092D02*
X165490642Y-79203664D01*
X165490642Y-79203664D02*
X165404928Y-79203664D01*
X165404928Y-79203664D02*
X165347785Y-79175092D01*
X165347785Y-79175092D02*
X165319214Y-79146521D01*
X165319214Y-79146521D02*
X165290642Y-79089378D01*
X165290642Y-79089378D02*
X165290642Y-78860807D01*
X165033500Y-79432235D02*
X165004928Y-79517950D01*
X165004928Y-79517950D02*
X165004928Y-79660807D01*
X165004928Y-79660807D02*
X165033500Y-79717950D01*
X165033500Y-79717950D02*
X165062071Y-79746521D01*
X165062071Y-79746521D02*
X165119214Y-79775092D01*
X165119214Y-79775092D02*
X165176357Y-79775092D01*
X165176357Y-79775092D02*
X165233500Y-79746521D01*
X165233500Y-79746521D02*
X165262071Y-79717950D01*
X165262071Y-79717950D02*
X165290642Y-79660807D01*
X165290642Y-79660807D02*
X165319214Y-79546521D01*
X165319214Y-79546521D02*
X165347785Y-79489378D01*
X165347785Y-79489378D02*
X165376357Y-79460807D01*
X165376357Y-79460807D02*
X165433500Y-79432235D01*
X165433500Y-79432235D02*
X165490642Y-79432235D01*
X165490642Y-79432235D02*
X165547785Y-79460807D01*
X165547785Y-79460807D02*
X165576357Y-79489378D01*
X165576357Y-79489378D02*
X165604928Y-79546521D01*
X165604928Y-79546521D02*
X165604928Y-79689378D01*
X165604928Y-79689378D02*
X165576357Y-79775092D01*
X165604928Y-79946521D02*
X165004928Y-80146521D01*
X165004928Y-80146521D02*
X165604928Y-80346521D01*
X165604928Y-80832236D02*
X165604928Y-80546522D01*
X165604928Y-80546522D02*
X165319214Y-80517950D01*
X165319214Y-80517950D02*
X165347785Y-80546522D01*
X165347785Y-80546522D02*
X165376357Y-80603665D01*
X165376357Y-80603665D02*
X165376357Y-80746522D01*
X165376357Y-80746522D02*
X165347785Y-80803665D01*
X165347785Y-80803665D02*
X165319214Y-80832236D01*
X165319214Y-80832236D02*
X165262071Y-80860807D01*
X165262071Y-80860807D02*
X165119214Y-80860807D01*
X165119214Y-80860807D02*
X165062071Y-80832236D01*
X165062071Y-80832236D02*
X165033500Y-80803665D01*
X165033500Y-80803665D02*
X165004928Y-80746522D01*
X165004928Y-80746522D02*
X165004928Y-80603665D01*
X165004928Y-80603665D02*
X165033500Y-80546522D01*
X165033500Y-80546522D02*
X165062071Y-80517950D01*
X165004928Y-81432236D02*
X165004928Y-81089379D01*
X165004928Y-81260808D02*
X165604928Y-81260808D01*
X165604928Y-81260808D02*
X165519214Y-81203665D01*
X165519214Y-81203665D02*
X165462071Y-81146522D01*
X165462071Y-81146522D02*
X165433500Y-81089379D01*
X165604928Y-81803665D02*
X165604928Y-81860808D01*
X165604928Y-81860808D02*
X165576357Y-81917951D01*
X165576357Y-81917951D02*
X165547785Y-81946523D01*
X165547785Y-81946523D02*
X165490642Y-81975094D01*
X165490642Y-81975094D02*
X165376357Y-82003665D01*
X165376357Y-82003665D02*
X165233500Y-82003665D01*
X165233500Y-82003665D02*
X165119214Y-81975094D01*
X165119214Y-81975094D02*
X165062071Y-81946523D01*
X165062071Y-81946523D02*
X165033500Y-81917951D01*
X165033500Y-81917951D02*
X165004928Y-81860808D01*
X165004928Y-81860808D02*
X165004928Y-81803665D01*
X165004928Y-81803665D02*
X165033500Y-81746523D01*
X165033500Y-81746523D02*
X165062071Y-81717951D01*
X165062071Y-81717951D02*
X165119214Y-81689380D01*
X165119214Y-81689380D02*
X165233500Y-81660808D01*
X165233500Y-81660808D02*
X165376357Y-81660808D01*
X165376357Y-81660808D02*
X165490642Y-81689380D01*
X165490642Y-81689380D02*
X165547785Y-81717951D01*
X165547785Y-81717951D02*
X165576357Y-81746523D01*
X165576357Y-81746523D02*
X165604928Y-81803665D01*
X165604928Y-82375094D02*
X165604928Y-82432237D01*
X165604928Y-82432237D02*
X165576357Y-82489380D01*
X165576357Y-82489380D02*
X165547785Y-82517952D01*
X165547785Y-82517952D02*
X165490642Y-82546523D01*
X165490642Y-82546523D02*
X165376357Y-82575094D01*
X165376357Y-82575094D02*
X165233500Y-82575094D01*
X165233500Y-82575094D02*
X165119214Y-82546523D01*
X165119214Y-82546523D02*
X165062071Y-82517952D01*
X165062071Y-82517952D02*
X165033500Y-82489380D01*
X165033500Y-82489380D02*
X165004928Y-82432237D01*
X165004928Y-82432237D02*
X165004928Y-82375094D01*
X165004928Y-82375094D02*
X165033500Y-82317952D01*
X165033500Y-82317952D02*
X165062071Y-82289380D01*
X165062071Y-82289380D02*
X165119214Y-82260809D01*
X165119214Y-82260809D02*
X165233500Y-82232237D01*
X165233500Y-82232237D02*
X165376357Y-82232237D01*
X165376357Y-82232237D02*
X165490642Y-82260809D01*
X165490642Y-82260809D02*
X165547785Y-82289380D01*
X165547785Y-82289380D02*
X165576357Y-82317952D01*
X165576357Y-82317952D02*
X165604928Y-82375094D01*
X165004928Y-82832238D02*
X165604928Y-82832238D01*
X165604928Y-82832238D02*
X165604928Y-82975095D01*
X165604928Y-82975095D02*
X165576357Y-83060809D01*
X165576357Y-83060809D02*
X165519214Y-83117952D01*
X165519214Y-83117952D02*
X165462071Y-83146523D01*
X165462071Y-83146523D02*
X165347785Y-83175095D01*
X165347785Y-83175095D02*
X165262071Y-83175095D01*
X165262071Y-83175095D02*
X165147785Y-83146523D01*
X165147785Y-83146523D02*
X165090642Y-83117952D01*
X165090642Y-83117952D02*
X165033500Y-83060809D01*
X165033500Y-83060809D02*
X165004928Y-82975095D01*
X165004928Y-82975095D02*
X165004928Y-82832238D01*
X165004928Y-83432238D02*
X165604928Y-83432238D01*
X165604928Y-83432238D02*
X165604928Y-83660809D01*
X165604928Y-83660809D02*
X165576357Y-83717952D01*
X165576357Y-83717952D02*
X165547785Y-83746523D01*
X165547785Y-83746523D02*
X165490642Y-83775095D01*
X165490642Y-83775095D02*
X165404928Y-83775095D01*
X165404928Y-83775095D02*
X165347785Y-83746523D01*
X165347785Y-83746523D02*
X165319214Y-83717952D01*
X165319214Y-83717952D02*
X165290642Y-83660809D01*
X165290642Y-83660809D02*
X165290642Y-83432238D01*
X164947785Y-83889381D02*
X164947785Y-84346523D01*
X165547785Y-84460809D02*
X165576357Y-84489381D01*
X165576357Y-84489381D02*
X165604928Y-84546524D01*
X165604928Y-84546524D02*
X165604928Y-84689381D01*
X165604928Y-84689381D02*
X165576357Y-84746524D01*
X165576357Y-84746524D02*
X165547785Y-84775095D01*
X165547785Y-84775095D02*
X165490642Y-84803666D01*
X165490642Y-84803666D02*
X165433500Y-84803666D01*
X165433500Y-84803666D02*
X165347785Y-84775095D01*
X165347785Y-84775095D02*
X165004928Y-84432238D01*
X165004928Y-84432238D02*
X165004928Y-84803666D01*
X149921428Y-53429105D02*
X150292856Y-53429105D01*
X150292856Y-53429105D02*
X150092856Y-53657676D01*
X150092856Y-53657676D02*
X150178571Y-53657676D01*
X150178571Y-53657676D02*
X150235714Y-53686248D01*
X150235714Y-53686248D02*
X150264285Y-53714819D01*
X150264285Y-53714819D02*
X150292856Y-53771962D01*
X150292856Y-53771962D02*
X150292856Y-53914819D01*
X150292856Y-53914819D02*
X150264285Y-53971962D01*
X150264285Y-53971962D02*
X150235714Y-54000534D01*
X150235714Y-54000534D02*
X150178571Y-54029105D01*
X150178571Y-54029105D02*
X150007142Y-54029105D01*
X150007142Y-54029105D02*
X149949999Y-54000534D01*
X149949999Y-54000534D02*
X149921428Y-53971962D01*
X150550000Y-53971962D02*
X150578571Y-54000534D01*
X150578571Y-54000534D02*
X150550000Y-54029105D01*
X150550000Y-54029105D02*
X150521428Y-54000534D01*
X150521428Y-54000534D02*
X150550000Y-53971962D01*
X150550000Y-53971962D02*
X150550000Y-54029105D01*
X150778571Y-53429105D02*
X151178571Y-53429105D01*
X151178571Y-53429105D02*
X150921428Y-54029105D01*
X149935714Y-54395071D02*
X150135714Y-54995071D01*
X150135714Y-54995071D02*
X150335714Y-54395071D01*
X150535715Y-54995071D02*
X150535715Y-54595071D01*
X150535715Y-54395071D02*
X150507143Y-54423642D01*
X150507143Y-54423642D02*
X150535715Y-54452214D01*
X150535715Y-54452214D02*
X150564286Y-54423642D01*
X150564286Y-54423642D02*
X150535715Y-54395071D01*
X150535715Y-54395071D02*
X150535715Y-54452214D01*
X150821429Y-54595071D02*
X150821429Y-54995071D01*
X150821429Y-54652214D02*
X150850000Y-54623642D01*
X150850000Y-54623642D02*
X150907143Y-54595071D01*
X150907143Y-54595071D02*
X150992857Y-54595071D01*
X150992857Y-54595071D02*
X151050000Y-54623642D01*
X151050000Y-54623642D02*
X151078572Y-54680785D01*
X151078572Y-54680785D02*
X151078572Y-54995071D01*
X111797950Y-51160071D02*
X111597950Y-50874357D01*
X111455093Y-51160071D02*
X111455093Y-50560071D01*
X111455093Y-50560071D02*
X111683664Y-50560071D01*
X111683664Y-50560071D02*
X111740807Y-50588642D01*
X111740807Y-50588642D02*
X111769378Y-50617214D01*
X111769378Y-50617214D02*
X111797950Y-50674357D01*
X111797950Y-50674357D02*
X111797950Y-50760071D01*
X111797950Y-50760071D02*
X111769378Y-50817214D01*
X111769378Y-50817214D02*
X111740807Y-50845785D01*
X111740807Y-50845785D02*
X111683664Y-50874357D01*
X111683664Y-50874357D02*
X111455093Y-50874357D01*
X112169378Y-50874357D02*
X112169378Y-51160071D01*
X111969378Y-50560071D02*
X112169378Y-50874357D01*
X112169378Y-50874357D02*
X112369378Y-50560071D01*
X112855093Y-51160071D02*
X112569379Y-51160071D01*
X112569379Y-51160071D02*
X112569379Y-50560071D01*
X113397950Y-51160071D02*
X113197950Y-50874357D01*
X113055093Y-51160071D02*
X113055093Y-50560071D01*
X113055093Y-50560071D02*
X113283664Y-50560071D01*
X113283664Y-50560071D02*
X113340807Y-50588642D01*
X113340807Y-50588642D02*
X113369378Y-50617214D01*
X113369378Y-50617214D02*
X113397950Y-50674357D01*
X113397950Y-50674357D02*
X113397950Y-50760071D01*
X113397950Y-50760071D02*
X113369378Y-50817214D01*
X113369378Y-50817214D02*
X113340807Y-50845785D01*
X113340807Y-50845785D02*
X113283664Y-50874357D01*
X113283664Y-50874357D02*
X113055093Y-50874357D01*
X113683664Y-51160071D02*
X113797950Y-51160071D01*
X113797950Y-51160071D02*
X113855093Y-51131500D01*
X113855093Y-51131500D02*
X113883664Y-51102928D01*
X113883664Y-51102928D02*
X113940807Y-51017214D01*
X113940807Y-51017214D02*
X113969378Y-50902928D01*
X113969378Y-50902928D02*
X113969378Y-50674357D01*
X113969378Y-50674357D02*
X113940807Y-50617214D01*
X113940807Y-50617214D02*
X113912236Y-50588642D01*
X113912236Y-50588642D02*
X113855093Y-50560071D01*
X113855093Y-50560071D02*
X113740807Y-50560071D01*
X113740807Y-50560071D02*
X113683664Y-50588642D01*
X113683664Y-50588642D02*
X113655093Y-50617214D01*
X113655093Y-50617214D02*
X113626521Y-50674357D01*
X113626521Y-50674357D02*
X113626521Y-50817214D01*
X113626521Y-50817214D02*
X113655093Y-50874357D01*
X113655093Y-50874357D02*
X113683664Y-50902928D01*
X113683664Y-50902928D02*
X113740807Y-50931500D01*
X113740807Y-50931500D02*
X113855093Y-50931500D01*
X113855093Y-50931500D02*
X113912236Y-50902928D01*
X113912236Y-50902928D02*
X113940807Y-50874357D01*
X113940807Y-50874357D02*
X113969378Y-50817214D01*
X114255093Y-51160071D02*
X114369379Y-51160071D01*
X114369379Y-51160071D02*
X114426522Y-51131500D01*
X114426522Y-51131500D02*
X114455093Y-51102928D01*
X114455093Y-51102928D02*
X114512236Y-51017214D01*
X114512236Y-51017214D02*
X114540807Y-50902928D01*
X114540807Y-50902928D02*
X114540807Y-50674357D01*
X114540807Y-50674357D02*
X114512236Y-50617214D01*
X114512236Y-50617214D02*
X114483665Y-50588642D01*
X114483665Y-50588642D02*
X114426522Y-50560071D01*
X114426522Y-50560071D02*
X114312236Y-50560071D01*
X114312236Y-50560071D02*
X114255093Y-50588642D01*
X114255093Y-50588642D02*
X114226522Y-50617214D01*
X114226522Y-50617214D02*
X114197950Y-50674357D01*
X114197950Y-50674357D02*
X114197950Y-50817214D01*
X114197950Y-50817214D02*
X114226522Y-50874357D01*
X114226522Y-50874357D02*
X114255093Y-50902928D01*
X114255093Y-50902928D02*
X114312236Y-50931500D01*
X114312236Y-50931500D02*
X114426522Y-50931500D01*
X114426522Y-50931500D02*
X114483665Y-50902928D01*
X114483665Y-50902928D02*
X114512236Y-50874357D01*
X114512236Y-50874357D02*
X114540807Y-50817214D01*
X114740808Y-50560071D02*
X115112236Y-50560071D01*
X115112236Y-50560071D02*
X114912236Y-50788642D01*
X114912236Y-50788642D02*
X114997951Y-50788642D01*
X114997951Y-50788642D02*
X115055094Y-50817214D01*
X115055094Y-50817214D02*
X115083665Y-50845785D01*
X115083665Y-50845785D02*
X115112236Y-50902928D01*
X115112236Y-50902928D02*
X115112236Y-51045785D01*
X115112236Y-51045785D02*
X115083665Y-51102928D01*
X115083665Y-51102928D02*
X115055094Y-51131500D01*
X115055094Y-51131500D02*
X114997951Y-51160071D01*
X114997951Y-51160071D02*
X114826522Y-51160071D01*
X114826522Y-51160071D02*
X114769379Y-51131500D01*
X114769379Y-51131500D02*
X114740808Y-51102928D01*
X120667857Y-84773642D02*
X120610715Y-84745071D01*
X120610715Y-84745071D02*
X120525000Y-84745071D01*
X120525000Y-84745071D02*
X120439286Y-84773642D01*
X120439286Y-84773642D02*
X120382143Y-84830785D01*
X120382143Y-84830785D02*
X120353572Y-84887928D01*
X120353572Y-84887928D02*
X120325000Y-85002214D01*
X120325000Y-85002214D02*
X120325000Y-85087928D01*
X120325000Y-85087928D02*
X120353572Y-85202214D01*
X120353572Y-85202214D02*
X120382143Y-85259357D01*
X120382143Y-85259357D02*
X120439286Y-85316500D01*
X120439286Y-85316500D02*
X120525000Y-85345071D01*
X120525000Y-85345071D02*
X120582143Y-85345071D01*
X120582143Y-85345071D02*
X120667857Y-85316500D01*
X120667857Y-85316500D02*
X120696429Y-85287928D01*
X120696429Y-85287928D02*
X120696429Y-85087928D01*
X120696429Y-85087928D02*
X120582143Y-85087928D01*
X120953572Y-85345071D02*
X120953572Y-84745071D01*
X120953572Y-84745071D02*
X121296429Y-85345071D01*
X121296429Y-85345071D02*
X121296429Y-84745071D01*
X121582143Y-85345071D02*
X121582143Y-84745071D01*
X121582143Y-84745071D02*
X121725000Y-84745071D01*
X121725000Y-84745071D02*
X121810714Y-84773642D01*
X121810714Y-84773642D02*
X121867857Y-84830785D01*
X121867857Y-84830785D02*
X121896428Y-84887928D01*
X121896428Y-84887928D02*
X121925000Y-85002214D01*
X121925000Y-85002214D02*
X121925000Y-85087928D01*
X121925000Y-85087928D02*
X121896428Y-85202214D01*
X121896428Y-85202214D02*
X121867857Y-85259357D01*
X121867857Y-85259357D02*
X121810714Y-85316500D01*
X121810714Y-85316500D02*
X121725000Y-85345071D01*
X121725000Y-85345071D02*
X121582143Y-85345071D01*
X105779928Y-102310714D02*
X105779928Y-102025000D01*
X105779928Y-102025000D02*
X105494214Y-101996428D01*
X105494214Y-101996428D02*
X105522785Y-102025000D01*
X105522785Y-102025000D02*
X105551357Y-102082143D01*
X105551357Y-102082143D02*
X105551357Y-102225000D01*
X105551357Y-102225000D02*
X105522785Y-102282143D01*
X105522785Y-102282143D02*
X105494214Y-102310714D01*
X105494214Y-102310714D02*
X105437071Y-102339285D01*
X105437071Y-102339285D02*
X105294214Y-102339285D01*
X105294214Y-102339285D02*
X105237071Y-102310714D01*
X105237071Y-102310714D02*
X105208500Y-102282143D01*
X105208500Y-102282143D02*
X105179928Y-102225000D01*
X105179928Y-102225000D02*
X105179928Y-102082143D01*
X105179928Y-102082143D02*
X105208500Y-102025000D01*
X105208500Y-102025000D02*
X105237071Y-101996428D01*
X105779928Y-102510714D02*
X105179928Y-102710714D01*
X105179928Y-102710714D02*
X105779928Y-102910714D01*
X157704285Y-37644214D02*
X157618571Y-37615642D01*
X157618571Y-37615642D02*
X157590000Y-37587071D01*
X157590000Y-37587071D02*
X157561428Y-37529928D01*
X157561428Y-37529928D02*
X157561428Y-37444214D01*
X157561428Y-37444214D02*
X157590000Y-37387071D01*
X157590000Y-37387071D02*
X157618571Y-37358500D01*
X157618571Y-37358500D02*
X157675714Y-37329928D01*
X157675714Y-37329928D02*
X157904285Y-37329928D01*
X157904285Y-37329928D02*
X157904285Y-37929928D01*
X157904285Y-37929928D02*
X157704285Y-37929928D01*
X157704285Y-37929928D02*
X157647143Y-37901357D01*
X157647143Y-37901357D02*
X157618571Y-37872785D01*
X157618571Y-37872785D02*
X157590000Y-37815642D01*
X157590000Y-37815642D02*
X157590000Y-37758500D01*
X157590000Y-37758500D02*
X157618571Y-37701357D01*
X157618571Y-37701357D02*
X157647143Y-37672785D01*
X157647143Y-37672785D02*
X157704285Y-37644214D01*
X157704285Y-37644214D02*
X157904285Y-37644214D01*
X157332857Y-37501357D02*
X157047143Y-37501357D01*
X157390000Y-37329928D02*
X157190000Y-37929928D01*
X157190000Y-37929928D02*
X156990000Y-37329928D01*
X156875714Y-37929928D02*
X156532857Y-37929928D01*
X156704285Y-37329928D02*
X156704285Y-37929928D01*
X156332856Y-37558500D02*
X155875714Y-37558500D01*
X156104285Y-37329928D02*
X156104285Y-37787071D01*
X178825093Y-75870071D02*
X178825093Y-76355785D01*
X178825093Y-76355785D02*
X178853664Y-76412928D01*
X178853664Y-76412928D02*
X178882236Y-76441500D01*
X178882236Y-76441500D02*
X178939378Y-76470071D01*
X178939378Y-76470071D02*
X179053664Y-76470071D01*
X179053664Y-76470071D02*
X179110807Y-76441500D01*
X179110807Y-76441500D02*
X179139378Y-76412928D01*
X179139378Y-76412928D02*
X179167950Y-76355785D01*
X179167950Y-76355785D02*
X179167950Y-75870071D01*
X179425092Y-76441500D02*
X179510807Y-76470071D01*
X179510807Y-76470071D02*
X179653664Y-76470071D01*
X179653664Y-76470071D02*
X179710807Y-76441500D01*
X179710807Y-76441500D02*
X179739378Y-76412928D01*
X179739378Y-76412928D02*
X179767949Y-76355785D01*
X179767949Y-76355785D02*
X179767949Y-76298642D01*
X179767949Y-76298642D02*
X179739378Y-76241500D01*
X179739378Y-76241500D02*
X179710807Y-76212928D01*
X179710807Y-76212928D02*
X179653664Y-76184357D01*
X179653664Y-76184357D02*
X179539378Y-76155785D01*
X179539378Y-76155785D02*
X179482235Y-76127214D01*
X179482235Y-76127214D02*
X179453664Y-76098642D01*
X179453664Y-76098642D02*
X179425092Y-76041500D01*
X179425092Y-76041500D02*
X179425092Y-75984357D01*
X179425092Y-75984357D02*
X179453664Y-75927214D01*
X179453664Y-75927214D02*
X179482235Y-75898642D01*
X179482235Y-75898642D02*
X179539378Y-75870071D01*
X179539378Y-75870071D02*
X179682235Y-75870071D01*
X179682235Y-75870071D02*
X179767949Y-75898642D01*
X180225093Y-76155785D02*
X180310807Y-76184357D01*
X180310807Y-76184357D02*
X180339378Y-76212928D01*
X180339378Y-76212928D02*
X180367950Y-76270071D01*
X180367950Y-76270071D02*
X180367950Y-76355785D01*
X180367950Y-76355785D02*
X180339378Y-76412928D01*
X180339378Y-76412928D02*
X180310807Y-76441500D01*
X180310807Y-76441500D02*
X180253664Y-76470071D01*
X180253664Y-76470071D02*
X180025093Y-76470071D01*
X180025093Y-76470071D02*
X180025093Y-75870071D01*
X180025093Y-75870071D02*
X180225093Y-75870071D01*
X180225093Y-75870071D02*
X180282236Y-75898642D01*
X180282236Y-75898642D02*
X180310807Y-75927214D01*
X180310807Y-75927214D02*
X180339378Y-75984357D01*
X180339378Y-75984357D02*
X180339378Y-76041500D01*
X180339378Y-76041500D02*
X180310807Y-76098642D01*
X180310807Y-76098642D02*
X180282236Y-76127214D01*
X180282236Y-76127214D02*
X180225093Y-76155785D01*
X180225093Y-76155785D02*
X180025093Y-76155785D01*
X180482236Y-76527214D02*
X180939378Y-76527214D01*
X181082236Y-76470071D02*
X181082236Y-75870071D01*
X181082236Y-75870071D02*
X181282236Y-76298642D01*
X181282236Y-76298642D02*
X181482236Y-75870071D01*
X181482236Y-75870071D02*
X181482236Y-76470071D01*
X181767950Y-76470071D02*
X181767950Y-75870071D01*
X182053664Y-76470071D02*
X182053664Y-75870071D01*
X182053664Y-75870071D02*
X182396521Y-76470071D01*
X182396521Y-76470071D02*
X182396521Y-75870071D01*
X182682235Y-76470071D02*
X182682235Y-75870071D01*
X124248570Y-37239928D02*
X124534284Y-37239928D01*
X124534284Y-37239928D02*
X124534284Y-37839928D01*
X123934285Y-37839928D02*
X123819999Y-37839928D01*
X123819999Y-37839928D02*
X123762856Y-37811357D01*
X123762856Y-37811357D02*
X123705713Y-37754214D01*
X123705713Y-37754214D02*
X123677142Y-37639928D01*
X123677142Y-37639928D02*
X123677142Y-37439928D01*
X123677142Y-37439928D02*
X123705713Y-37325642D01*
X123705713Y-37325642D02*
X123762856Y-37268500D01*
X123762856Y-37268500D02*
X123819999Y-37239928D01*
X123819999Y-37239928D02*
X123934285Y-37239928D01*
X123934285Y-37239928D02*
X123991428Y-37268500D01*
X123991428Y-37268500D02*
X124048570Y-37325642D01*
X124048570Y-37325642D02*
X124077142Y-37439928D01*
X124077142Y-37439928D02*
X124077142Y-37639928D01*
X124077142Y-37639928D02*
X124048570Y-37754214D01*
X124048570Y-37754214D02*
X123991428Y-37811357D01*
X123991428Y-37811357D02*
X123934285Y-37839928D01*
X123448571Y-37411357D02*
X123162857Y-37411357D01*
X123505714Y-37239928D02*
X123305714Y-37839928D01*
X123305714Y-37839928D02*
X123105714Y-37239928D01*
X122905713Y-37239928D02*
X122905713Y-37839928D01*
X122905713Y-37839928D02*
X122762856Y-37839928D01*
X122762856Y-37839928D02*
X122677142Y-37811357D01*
X122677142Y-37811357D02*
X122619999Y-37754214D01*
X122619999Y-37754214D02*
X122591428Y-37697071D01*
X122591428Y-37697071D02*
X122562856Y-37582785D01*
X122562856Y-37582785D02*
X122562856Y-37497071D01*
X122562856Y-37497071D02*
X122591428Y-37382785D01*
X122591428Y-37382785D02*
X122619999Y-37325642D01*
X122619999Y-37325642D02*
X122677142Y-37268500D01*
X122677142Y-37268500D02*
X122762856Y-37239928D01*
X122762856Y-37239928D02*
X122905713Y-37239928D01*
X121534285Y-37239928D02*
X121877142Y-37239928D01*
X121705713Y-37239928D02*
X121705713Y-37839928D01*
X121705713Y-37839928D02*
X121762856Y-37754214D01*
X121762856Y-37754214D02*
X121819999Y-37697071D01*
X121819999Y-37697071D02*
X121877142Y-37668500D01*
X120648570Y-37011357D02*
X120677141Y-37039928D01*
X120677141Y-37039928D02*
X120734284Y-37125642D01*
X120734284Y-37125642D02*
X120762856Y-37182785D01*
X120762856Y-37182785D02*
X120791427Y-37268500D01*
X120791427Y-37268500D02*
X120819998Y-37411357D01*
X120819998Y-37411357D02*
X120819998Y-37525642D01*
X120819998Y-37525642D02*
X120791427Y-37668500D01*
X120791427Y-37668500D02*
X120762856Y-37754214D01*
X120762856Y-37754214D02*
X120734284Y-37811357D01*
X120734284Y-37811357D02*
X120677141Y-37897071D01*
X120677141Y-37897071D02*
X120648570Y-37925642D01*
X120419998Y-37239928D02*
X120419998Y-37839928D01*
X120419998Y-37839928D02*
X120277141Y-37839928D01*
X120277141Y-37839928D02*
X120191427Y-37811357D01*
X120191427Y-37811357D02*
X120134284Y-37754214D01*
X120134284Y-37754214D02*
X120105713Y-37697071D01*
X120105713Y-37697071D02*
X120077141Y-37582785D01*
X120077141Y-37582785D02*
X120077141Y-37497071D01*
X120077141Y-37497071D02*
X120105713Y-37382785D01*
X120105713Y-37382785D02*
X120134284Y-37325642D01*
X120134284Y-37325642D02*
X120191427Y-37268500D01*
X120191427Y-37268500D02*
X120277141Y-37239928D01*
X120277141Y-37239928D02*
X120419998Y-37239928D01*
X119477141Y-37239928D02*
X119677141Y-37525642D01*
X119819998Y-37239928D02*
X119819998Y-37839928D01*
X119819998Y-37839928D02*
X119591427Y-37839928D01*
X119591427Y-37839928D02*
X119534284Y-37811357D01*
X119534284Y-37811357D02*
X119505713Y-37782785D01*
X119505713Y-37782785D02*
X119477141Y-37725642D01*
X119477141Y-37725642D02*
X119477141Y-37639928D01*
X119477141Y-37639928D02*
X119505713Y-37582785D01*
X119505713Y-37582785D02*
X119534284Y-37554214D01*
X119534284Y-37554214D02*
X119591427Y-37525642D01*
X119591427Y-37525642D02*
X119819998Y-37525642D01*
X119105713Y-37839928D02*
X118991427Y-37839928D01*
X118991427Y-37839928D02*
X118934284Y-37811357D01*
X118934284Y-37811357D02*
X118877141Y-37754214D01*
X118877141Y-37754214D02*
X118848570Y-37639928D01*
X118848570Y-37639928D02*
X118848570Y-37439928D01*
X118848570Y-37439928D02*
X118877141Y-37325642D01*
X118877141Y-37325642D02*
X118934284Y-37268500D01*
X118934284Y-37268500D02*
X118991427Y-37239928D01*
X118991427Y-37239928D02*
X119105713Y-37239928D01*
X119105713Y-37239928D02*
X119162856Y-37268500D01*
X119162856Y-37268500D02*
X119219998Y-37325642D01*
X119219998Y-37325642D02*
X119248570Y-37439928D01*
X119248570Y-37439928D02*
X119248570Y-37639928D01*
X119248570Y-37639928D02*
X119219998Y-37754214D01*
X119219998Y-37754214D02*
X119162856Y-37811357D01*
X119162856Y-37811357D02*
X119105713Y-37839928D01*
X118277142Y-37811357D02*
X118334285Y-37839928D01*
X118334285Y-37839928D02*
X118419999Y-37839928D01*
X118419999Y-37839928D02*
X118505713Y-37811357D01*
X118505713Y-37811357D02*
X118562856Y-37754214D01*
X118562856Y-37754214D02*
X118591427Y-37697071D01*
X118591427Y-37697071D02*
X118619999Y-37582785D01*
X118619999Y-37582785D02*
X118619999Y-37497071D01*
X118619999Y-37497071D02*
X118591427Y-37382785D01*
X118591427Y-37382785D02*
X118562856Y-37325642D01*
X118562856Y-37325642D02*
X118505713Y-37268500D01*
X118505713Y-37268500D02*
X118419999Y-37239928D01*
X118419999Y-37239928D02*
X118362856Y-37239928D01*
X118362856Y-37239928D02*
X118277142Y-37268500D01*
X118277142Y-37268500D02*
X118248570Y-37297071D01*
X118248570Y-37297071D02*
X118248570Y-37497071D01*
X118248570Y-37497071D02*
X118362856Y-37497071D01*
X117991427Y-37839928D02*
X117991427Y-37354214D01*
X117991427Y-37354214D02*
X117962856Y-37297071D01*
X117962856Y-37297071D02*
X117934285Y-37268500D01*
X117934285Y-37268500D02*
X117877142Y-37239928D01*
X117877142Y-37239928D02*
X117762856Y-37239928D01*
X117762856Y-37239928D02*
X117705713Y-37268500D01*
X117705713Y-37268500D02*
X117677142Y-37297071D01*
X117677142Y-37297071D02*
X117648570Y-37354214D01*
X117648570Y-37354214D02*
X117648570Y-37839928D01*
X117362856Y-37554214D02*
X117162856Y-37554214D01*
X117077142Y-37239928D02*
X117362856Y-37239928D01*
X117362856Y-37239928D02*
X117362856Y-37839928D01*
X117362856Y-37839928D02*
X117077142Y-37839928D01*
X116877142Y-37011357D02*
X116848571Y-37039928D01*
X116848571Y-37039928D02*
X116791428Y-37125642D01*
X116791428Y-37125642D02*
X116762857Y-37182785D01*
X116762857Y-37182785D02*
X116734285Y-37268500D01*
X116734285Y-37268500D02*
X116705714Y-37411357D01*
X116705714Y-37411357D02*
X116705714Y-37525642D01*
X116705714Y-37525642D02*
X116734285Y-37668500D01*
X116734285Y-37668500D02*
X116762857Y-37754214D01*
X116762857Y-37754214D02*
X116791428Y-37811357D01*
X116791428Y-37811357D02*
X116848571Y-37897071D01*
X116848571Y-37897071D02*
X116877142Y-37925642D01*
X133171521Y-52591500D02*
X133257236Y-52620071D01*
X133257236Y-52620071D02*
X133400093Y-52620071D01*
X133400093Y-52620071D02*
X133457236Y-52591500D01*
X133457236Y-52591500D02*
X133485807Y-52562928D01*
X133485807Y-52562928D02*
X133514378Y-52505785D01*
X133514378Y-52505785D02*
X133514378Y-52448642D01*
X133514378Y-52448642D02*
X133485807Y-52391500D01*
X133485807Y-52391500D02*
X133457236Y-52362928D01*
X133457236Y-52362928D02*
X133400093Y-52334357D01*
X133400093Y-52334357D02*
X133285807Y-52305785D01*
X133285807Y-52305785D02*
X133228664Y-52277214D01*
X133228664Y-52277214D02*
X133200093Y-52248642D01*
X133200093Y-52248642D02*
X133171521Y-52191500D01*
X133171521Y-52191500D02*
X133171521Y-52134357D01*
X133171521Y-52134357D02*
X133200093Y-52077214D01*
X133200093Y-52077214D02*
X133228664Y-52048642D01*
X133228664Y-52048642D02*
X133285807Y-52020071D01*
X133285807Y-52020071D02*
X133428664Y-52020071D01*
X133428664Y-52020071D02*
X133514378Y-52048642D01*
X133714379Y-52020071D02*
X134085807Y-52020071D01*
X134085807Y-52020071D02*
X133885807Y-52248642D01*
X133885807Y-52248642D02*
X133971522Y-52248642D01*
X133971522Y-52248642D02*
X134028665Y-52277214D01*
X134028665Y-52277214D02*
X134057236Y-52305785D01*
X134057236Y-52305785D02*
X134085807Y-52362928D01*
X134085807Y-52362928D02*
X134085807Y-52505785D01*
X134085807Y-52505785D02*
X134057236Y-52562928D01*
X134057236Y-52562928D02*
X134028665Y-52591500D01*
X134028665Y-52591500D02*
X133971522Y-52620071D01*
X133971522Y-52620071D02*
X133800093Y-52620071D01*
X133800093Y-52620071D02*
X133742950Y-52591500D01*
X133742950Y-52591500D02*
X133714379Y-52562928D01*
X134742951Y-52020071D02*
X134885808Y-52620071D01*
X134885808Y-52620071D02*
X135000094Y-52191500D01*
X135000094Y-52191500D02*
X135114379Y-52620071D01*
X135114379Y-52620071D02*
X135257237Y-52020071D01*
X135828665Y-52620071D02*
X135628665Y-52334357D01*
X135485808Y-52620071D02*
X135485808Y-52020071D01*
X135485808Y-52020071D02*
X135714379Y-52020071D01*
X135714379Y-52020071D02*
X135771522Y-52048642D01*
X135771522Y-52048642D02*
X135800093Y-52077214D01*
X135800093Y-52077214D02*
X135828665Y-52134357D01*
X135828665Y-52134357D02*
X135828665Y-52220071D01*
X135828665Y-52220071D02*
X135800093Y-52277214D01*
X135800093Y-52277214D02*
X135771522Y-52305785D01*
X135771522Y-52305785D02*
X135714379Y-52334357D01*
X135714379Y-52334357D02*
X135485808Y-52334357D01*
X136200093Y-52020071D02*
X136314379Y-52020071D01*
X136314379Y-52020071D02*
X136371522Y-52048642D01*
X136371522Y-52048642D02*
X136428665Y-52105785D01*
X136428665Y-52105785D02*
X136457236Y-52220071D01*
X136457236Y-52220071D02*
X136457236Y-52420071D01*
X136457236Y-52420071D02*
X136428665Y-52534357D01*
X136428665Y-52534357D02*
X136371522Y-52591500D01*
X136371522Y-52591500D02*
X136314379Y-52620071D01*
X136314379Y-52620071D02*
X136200093Y-52620071D01*
X136200093Y-52620071D02*
X136142951Y-52591500D01*
X136142951Y-52591500D02*
X136085808Y-52534357D01*
X136085808Y-52534357D02*
X136057236Y-52420071D01*
X136057236Y-52420071D02*
X136057236Y-52220071D01*
X136057236Y-52220071D02*
X136085808Y-52105785D01*
X136085808Y-52105785D02*
X136142951Y-52048642D01*
X136142951Y-52048642D02*
X136200093Y-52020071D01*
X136828664Y-52020071D02*
X136942950Y-52020071D01*
X136942950Y-52020071D02*
X137000093Y-52048642D01*
X137000093Y-52048642D02*
X137057236Y-52105785D01*
X137057236Y-52105785D02*
X137085807Y-52220071D01*
X137085807Y-52220071D02*
X137085807Y-52420071D01*
X137085807Y-52420071D02*
X137057236Y-52534357D01*
X137057236Y-52534357D02*
X137000093Y-52591500D01*
X137000093Y-52591500D02*
X136942950Y-52620071D01*
X136942950Y-52620071D02*
X136828664Y-52620071D01*
X136828664Y-52620071D02*
X136771522Y-52591500D01*
X136771522Y-52591500D02*
X136714379Y-52534357D01*
X136714379Y-52534357D02*
X136685807Y-52420071D01*
X136685807Y-52420071D02*
X136685807Y-52220071D01*
X136685807Y-52220071D02*
X136714379Y-52105785D01*
X136714379Y-52105785D02*
X136771522Y-52048642D01*
X136771522Y-52048642D02*
X136828664Y-52020071D01*
X137342950Y-52620071D02*
X137342950Y-52020071D01*
X137342950Y-52020071D02*
X137542950Y-52448642D01*
X137542950Y-52448642D02*
X137742950Y-52020071D01*
X137742950Y-52020071D02*
X137742950Y-52620071D01*
X138828664Y-52620071D02*
X138628664Y-52334357D01*
X138485807Y-52620071D02*
X138485807Y-52020071D01*
X138485807Y-52020071D02*
X138714378Y-52020071D01*
X138714378Y-52020071D02*
X138771521Y-52048642D01*
X138771521Y-52048642D02*
X138800092Y-52077214D01*
X138800092Y-52077214D02*
X138828664Y-52134357D01*
X138828664Y-52134357D02*
X138828664Y-52220071D01*
X138828664Y-52220071D02*
X138800092Y-52277214D01*
X138800092Y-52277214D02*
X138771521Y-52305785D01*
X138771521Y-52305785D02*
X138714378Y-52334357D01*
X138714378Y-52334357D02*
X138485807Y-52334357D01*
X139085807Y-52305785D02*
X139285807Y-52305785D01*
X139371521Y-52620071D02*
X139085807Y-52620071D01*
X139085807Y-52620071D02*
X139085807Y-52020071D01*
X139085807Y-52020071D02*
X139371521Y-52020071D01*
X139600092Y-52591500D02*
X139685807Y-52620071D01*
X139685807Y-52620071D02*
X139828664Y-52620071D01*
X139828664Y-52620071D02*
X139885807Y-52591500D01*
X139885807Y-52591500D02*
X139914378Y-52562928D01*
X139914378Y-52562928D02*
X139942949Y-52505785D01*
X139942949Y-52505785D02*
X139942949Y-52448642D01*
X139942949Y-52448642D02*
X139914378Y-52391500D01*
X139914378Y-52391500D02*
X139885807Y-52362928D01*
X139885807Y-52362928D02*
X139828664Y-52334357D01*
X139828664Y-52334357D02*
X139714378Y-52305785D01*
X139714378Y-52305785D02*
X139657235Y-52277214D01*
X139657235Y-52277214D02*
X139628664Y-52248642D01*
X139628664Y-52248642D02*
X139600092Y-52191500D01*
X139600092Y-52191500D02*
X139600092Y-52134357D01*
X139600092Y-52134357D02*
X139628664Y-52077214D01*
X139628664Y-52077214D02*
X139657235Y-52048642D01*
X139657235Y-52048642D02*
X139714378Y-52020071D01*
X139714378Y-52020071D02*
X139857235Y-52020071D01*
X139857235Y-52020071D02*
X139942949Y-52048642D01*
X140200093Y-52305785D02*
X140400093Y-52305785D01*
X140485807Y-52620071D02*
X140200093Y-52620071D01*
X140200093Y-52620071D02*
X140200093Y-52020071D01*
X140200093Y-52020071D02*
X140485807Y-52020071D01*
X140657235Y-52020071D02*
X141000093Y-52020071D01*
X140828664Y-52620071D02*
X140828664Y-52020071D01*
X164042857Y-49223642D02*
X163985715Y-49195071D01*
X163985715Y-49195071D02*
X163900000Y-49195071D01*
X163900000Y-49195071D02*
X163814286Y-49223642D01*
X163814286Y-49223642D02*
X163757143Y-49280785D01*
X163757143Y-49280785D02*
X163728572Y-49337928D01*
X163728572Y-49337928D02*
X163700000Y-49452214D01*
X163700000Y-49452214D02*
X163700000Y-49537928D01*
X163700000Y-49537928D02*
X163728572Y-49652214D01*
X163728572Y-49652214D02*
X163757143Y-49709357D01*
X163757143Y-49709357D02*
X163814286Y-49766500D01*
X163814286Y-49766500D02*
X163900000Y-49795071D01*
X163900000Y-49795071D02*
X163957143Y-49795071D01*
X163957143Y-49795071D02*
X164042857Y-49766500D01*
X164042857Y-49766500D02*
X164071429Y-49737928D01*
X164071429Y-49737928D02*
X164071429Y-49537928D01*
X164071429Y-49537928D02*
X163957143Y-49537928D01*
X164328572Y-49795071D02*
X164328572Y-49195071D01*
X164328572Y-49195071D02*
X164671429Y-49795071D01*
X164671429Y-49795071D02*
X164671429Y-49195071D01*
X164957143Y-49795071D02*
X164957143Y-49195071D01*
X164957143Y-49195071D02*
X165100000Y-49195071D01*
X165100000Y-49195071D02*
X165185714Y-49223642D01*
X165185714Y-49223642D02*
X165242857Y-49280785D01*
X165242857Y-49280785D02*
X165271428Y-49337928D01*
X165271428Y-49337928D02*
X165300000Y-49452214D01*
X165300000Y-49452214D02*
X165300000Y-49537928D01*
X165300000Y-49537928D02*
X165271428Y-49652214D01*
X165271428Y-49652214D02*
X165242857Y-49709357D01*
X165242857Y-49709357D02*
X165185714Y-49766500D01*
X165185714Y-49766500D02*
X165100000Y-49795071D01*
X165100000Y-49795071D02*
X164957143Y-49795071D01*
X135510807Y-86640071D02*
X135225093Y-86640071D01*
X135225093Y-86640071D02*
X135225093Y-86040071D01*
X135710807Y-86640071D02*
X135710807Y-86040071D01*
X135710807Y-86040071D02*
X135939378Y-86040071D01*
X135939378Y-86040071D02*
X135996521Y-86068642D01*
X135996521Y-86068642D02*
X136025092Y-86097214D01*
X136025092Y-86097214D02*
X136053664Y-86154357D01*
X136053664Y-86154357D02*
X136053664Y-86240071D01*
X136053664Y-86240071D02*
X136025092Y-86297214D01*
X136025092Y-86297214D02*
X135996521Y-86325785D01*
X135996521Y-86325785D02*
X135939378Y-86354357D01*
X135939378Y-86354357D02*
X135710807Y-86354357D01*
X136282235Y-86611500D02*
X136367950Y-86640071D01*
X136367950Y-86640071D02*
X136510807Y-86640071D01*
X136510807Y-86640071D02*
X136567950Y-86611500D01*
X136567950Y-86611500D02*
X136596521Y-86582928D01*
X136596521Y-86582928D02*
X136625092Y-86525785D01*
X136625092Y-86525785D02*
X136625092Y-86468642D01*
X136625092Y-86468642D02*
X136596521Y-86411500D01*
X136596521Y-86411500D02*
X136567950Y-86382928D01*
X136567950Y-86382928D02*
X136510807Y-86354357D01*
X136510807Y-86354357D02*
X136396521Y-86325785D01*
X136396521Y-86325785D02*
X136339378Y-86297214D01*
X136339378Y-86297214D02*
X136310807Y-86268642D01*
X136310807Y-86268642D02*
X136282235Y-86211500D01*
X136282235Y-86211500D02*
X136282235Y-86154357D01*
X136282235Y-86154357D02*
X136310807Y-86097214D01*
X136310807Y-86097214D02*
X136339378Y-86068642D01*
X136339378Y-86068642D02*
X136396521Y-86040071D01*
X136396521Y-86040071D02*
X136539378Y-86040071D01*
X136539378Y-86040071D02*
X136625092Y-86068642D01*
X136853664Y-86097214D02*
X136882236Y-86068642D01*
X136882236Y-86068642D02*
X136939379Y-86040071D01*
X136939379Y-86040071D02*
X137082236Y-86040071D01*
X137082236Y-86040071D02*
X137139379Y-86068642D01*
X137139379Y-86068642D02*
X137167950Y-86097214D01*
X137167950Y-86097214D02*
X137196521Y-86154357D01*
X137196521Y-86154357D02*
X137196521Y-86211500D01*
X137196521Y-86211500D02*
X137167950Y-86297214D01*
X137167950Y-86297214D02*
X136825093Y-86640071D01*
X136825093Y-86640071D02*
X137196521Y-86640071D01*
X137425093Y-86097214D02*
X137453665Y-86068642D01*
X137453665Y-86068642D02*
X137510808Y-86040071D01*
X137510808Y-86040071D02*
X137653665Y-86040071D01*
X137653665Y-86040071D02*
X137710808Y-86068642D01*
X137710808Y-86068642D02*
X137739379Y-86097214D01*
X137739379Y-86097214D02*
X137767950Y-86154357D01*
X137767950Y-86154357D02*
X137767950Y-86211500D01*
X137767950Y-86211500D02*
X137739379Y-86297214D01*
X137739379Y-86297214D02*
X137396522Y-86640071D01*
X137396522Y-86640071D02*
X137767950Y-86640071D01*
X138025094Y-86640071D02*
X138025094Y-86040071D01*
X138025094Y-86325785D02*
X138367951Y-86325785D01*
X138367951Y-86640071D02*
X138367951Y-86040071D01*
X138653665Y-86640071D02*
X138653665Y-86040071D01*
X138653665Y-86325785D02*
X138996522Y-86325785D01*
X138996522Y-86640071D02*
X138996522Y-86040071D01*
X139196521Y-86040071D02*
X139539379Y-86040071D01*
X139367950Y-86640071D02*
X139367950Y-86040071D01*
X140082236Y-86640071D02*
X139882236Y-86354357D01*
X139739379Y-86640071D02*
X139739379Y-86040071D01*
X139739379Y-86040071D02*
X139967950Y-86040071D01*
X139967950Y-86040071D02*
X140025093Y-86068642D01*
X140025093Y-86068642D02*
X140053664Y-86097214D01*
X140053664Y-86097214D02*
X140082236Y-86154357D01*
X140082236Y-86154357D02*
X140082236Y-86240071D01*
X140082236Y-86240071D02*
X140053664Y-86297214D01*
X140053664Y-86297214D02*
X140025093Y-86325785D01*
X140025093Y-86325785D02*
X139967950Y-86354357D01*
X139967950Y-86354357D02*
X139739379Y-86354357D01*
X109486521Y-47488642D02*
X109772236Y-47488642D01*
X109429378Y-47660071D02*
X109629378Y-47060071D01*
X109629378Y-47060071D02*
X109829378Y-47660071D01*
X110029379Y-47660071D02*
X110029379Y-47060071D01*
X110029379Y-47060071D02*
X110372236Y-47660071D01*
X110372236Y-47660071D02*
X110372236Y-47060071D01*
X110572235Y-47060071D02*
X110915093Y-47060071D01*
X110743664Y-47660071D02*
X110743664Y-47060071D01*
X111115093Y-47345785D02*
X111315093Y-47345785D01*
X111400807Y-47660071D02*
X111115093Y-47660071D01*
X111115093Y-47660071D02*
X111115093Y-47060071D01*
X111115093Y-47060071D02*
X111400807Y-47060071D01*
X111657950Y-47660071D02*
X111657950Y-47060071D01*
X111657950Y-47060071D02*
X112000807Y-47660071D01*
X112000807Y-47660071D02*
X112000807Y-47060071D01*
X112286521Y-47660071D02*
X112286521Y-47060071D01*
X112286521Y-47060071D02*
X112629378Y-47660071D01*
X112629378Y-47660071D02*
X112629378Y-47060071D01*
X112886520Y-47488642D02*
X113172235Y-47488642D01*
X112829377Y-47660071D02*
X113029377Y-47060071D01*
X113029377Y-47060071D02*
X113229377Y-47660071D01*
X113886521Y-47660071D02*
X113886521Y-47060071D01*
X114172235Y-47660071D02*
X114172235Y-47060071D01*
X114172235Y-47060071D02*
X114515092Y-47660071D01*
X114515092Y-47660071D02*
X114515092Y-47060071D01*
X112578571Y-106204928D02*
X112864285Y-106204928D01*
X112864285Y-106204928D02*
X112892857Y-105919214D01*
X112892857Y-105919214D02*
X112864285Y-105947785D01*
X112864285Y-105947785D02*
X112807143Y-105976357D01*
X112807143Y-105976357D02*
X112664285Y-105976357D01*
X112664285Y-105976357D02*
X112607143Y-105947785D01*
X112607143Y-105947785D02*
X112578571Y-105919214D01*
X112578571Y-105919214D02*
X112550000Y-105862071D01*
X112550000Y-105862071D02*
X112550000Y-105719214D01*
X112550000Y-105719214D02*
X112578571Y-105662071D01*
X112578571Y-105662071D02*
X112607143Y-105633500D01*
X112607143Y-105633500D02*
X112664285Y-105604928D01*
X112664285Y-105604928D02*
X112807143Y-105604928D01*
X112807143Y-105604928D02*
X112864285Y-105633500D01*
X112864285Y-105633500D02*
X112892857Y-105662071D01*
X112378571Y-106204928D02*
X112178571Y-105604928D01*
X112178571Y-105604928D02*
X111978571Y-106204928D01*
X111207142Y-106204928D02*
X111092856Y-106204928D01*
X111092856Y-106204928D02*
X111035713Y-106176357D01*
X111035713Y-106176357D02*
X110978570Y-106119214D01*
X110978570Y-106119214D02*
X110949999Y-106004928D01*
X110949999Y-106004928D02*
X110949999Y-105804928D01*
X110949999Y-105804928D02*
X110978570Y-105690642D01*
X110978570Y-105690642D02*
X111035713Y-105633500D01*
X111035713Y-105633500D02*
X111092856Y-105604928D01*
X111092856Y-105604928D02*
X111207142Y-105604928D01*
X111207142Y-105604928D02*
X111264285Y-105633500D01*
X111264285Y-105633500D02*
X111321427Y-105690642D01*
X111321427Y-105690642D02*
X111349999Y-105804928D01*
X111349999Y-105804928D02*
X111349999Y-106004928D01*
X111349999Y-106004928D02*
X111321427Y-106119214D01*
X111321427Y-106119214D02*
X111264285Y-106176357D01*
X111264285Y-106176357D02*
X111207142Y-106204928D01*
X110692856Y-106204928D02*
X110692856Y-105719214D01*
X110692856Y-105719214D02*
X110664285Y-105662071D01*
X110664285Y-105662071D02*
X110635714Y-105633500D01*
X110635714Y-105633500D02*
X110578571Y-105604928D01*
X110578571Y-105604928D02*
X110464285Y-105604928D01*
X110464285Y-105604928D02*
X110407142Y-105633500D01*
X110407142Y-105633500D02*
X110378571Y-105662071D01*
X110378571Y-105662071D02*
X110349999Y-105719214D01*
X110349999Y-105719214D02*
X110349999Y-106204928D01*
X110150000Y-106204928D02*
X109807143Y-106204928D01*
X109978571Y-105604928D02*
X109978571Y-106204928D01*
X109750000Y-105547785D02*
X109292857Y-105547785D01*
X108807142Y-105662071D02*
X108835714Y-105633500D01*
X108835714Y-105633500D02*
X108921428Y-105604928D01*
X108921428Y-105604928D02*
X108978571Y-105604928D01*
X108978571Y-105604928D02*
X109064285Y-105633500D01*
X109064285Y-105633500D02*
X109121428Y-105690642D01*
X109121428Y-105690642D02*
X109149999Y-105747785D01*
X109149999Y-105747785D02*
X109178571Y-105862071D01*
X109178571Y-105862071D02*
X109178571Y-105947785D01*
X109178571Y-105947785D02*
X109149999Y-106062071D01*
X109149999Y-106062071D02*
X109121428Y-106119214D01*
X109121428Y-106119214D02*
X109064285Y-106176357D01*
X109064285Y-106176357D02*
X108978571Y-106204928D01*
X108978571Y-106204928D02*
X108921428Y-106204928D01*
X108921428Y-106204928D02*
X108835714Y-106176357D01*
X108835714Y-106176357D02*
X108807142Y-106147785D01*
X108578571Y-105776357D02*
X108292857Y-105776357D01*
X108635714Y-105604928D02*
X108435714Y-106204928D01*
X108435714Y-106204928D02*
X108235714Y-105604928D01*
X108035713Y-105604928D02*
X108035713Y-106204928D01*
X108035713Y-106204928D02*
X107835713Y-105776357D01*
X107835713Y-105776357D02*
X107635713Y-106204928D01*
X107635713Y-106204928D02*
X107635713Y-105604928D01*
X143192857Y-60104105D02*
X143192857Y-59504105D01*
X143192857Y-59504105D02*
X143421428Y-59504105D01*
X143421428Y-59504105D02*
X143478571Y-59532676D01*
X143478571Y-59532676D02*
X143507142Y-59561248D01*
X143507142Y-59561248D02*
X143535714Y-59618391D01*
X143535714Y-59618391D02*
X143535714Y-59704105D01*
X143535714Y-59704105D02*
X143507142Y-59761248D01*
X143507142Y-59761248D02*
X143478571Y-59789819D01*
X143478571Y-59789819D02*
X143421428Y-59818391D01*
X143421428Y-59818391D02*
X143192857Y-59818391D01*
X143907142Y-59818391D02*
X143907142Y-60104105D01*
X143707142Y-59504105D02*
X143907142Y-59818391D01*
X143907142Y-59818391D02*
X144107142Y-59504105D01*
X144650000Y-60104105D02*
X144450000Y-59818391D01*
X144307143Y-60104105D02*
X144307143Y-59504105D01*
X144307143Y-59504105D02*
X144535714Y-59504105D01*
X144535714Y-59504105D02*
X144592857Y-59532676D01*
X144592857Y-59532676D02*
X144621428Y-59561248D01*
X144621428Y-59561248D02*
X144650000Y-59618391D01*
X144650000Y-59618391D02*
X144650000Y-59704105D01*
X144650000Y-59704105D02*
X144621428Y-59761248D01*
X144621428Y-59761248D02*
X144592857Y-59789819D01*
X144592857Y-59789819D02*
X144535714Y-59818391D01*
X144535714Y-59818391D02*
X144307143Y-59818391D01*
X145021428Y-59504105D02*
X145135714Y-59504105D01*
X145135714Y-59504105D02*
X145192857Y-59532676D01*
X145192857Y-59532676D02*
X145250000Y-59589819D01*
X145250000Y-59589819D02*
X145278571Y-59704105D01*
X145278571Y-59704105D02*
X145278571Y-59904105D01*
X145278571Y-59904105D02*
X145250000Y-60018391D01*
X145250000Y-60018391D02*
X145192857Y-60075534D01*
X145192857Y-60075534D02*
X145135714Y-60104105D01*
X145135714Y-60104105D02*
X145021428Y-60104105D01*
X145021428Y-60104105D02*
X144964286Y-60075534D01*
X144964286Y-60075534D02*
X144907143Y-60018391D01*
X144907143Y-60018391D02*
X144878571Y-59904105D01*
X144878571Y-59904105D02*
X144878571Y-59704105D01*
X144878571Y-59704105D02*
X144907143Y-59589819D01*
X144907143Y-59589819D02*
X144964286Y-59532676D01*
X144964286Y-59532676D02*
X145021428Y-59504105D01*
X145992857Y-60104105D02*
X145992857Y-59504105D01*
X145992857Y-59504105D02*
X146192857Y-59932676D01*
X146192857Y-59932676D02*
X146392857Y-59504105D01*
X146392857Y-59504105D02*
X146392857Y-60104105D01*
X146792856Y-59504105D02*
X146907142Y-59504105D01*
X146907142Y-59504105D02*
X146964285Y-59532676D01*
X146964285Y-59532676D02*
X147021428Y-59589819D01*
X147021428Y-59589819D02*
X147049999Y-59704105D01*
X147049999Y-59704105D02*
X147049999Y-59904105D01*
X147049999Y-59904105D02*
X147021428Y-60018391D01*
X147021428Y-60018391D02*
X146964285Y-60075534D01*
X146964285Y-60075534D02*
X146907142Y-60104105D01*
X146907142Y-60104105D02*
X146792856Y-60104105D01*
X146792856Y-60104105D02*
X146735714Y-60075534D01*
X146735714Y-60075534D02*
X146678571Y-60018391D01*
X146678571Y-60018391D02*
X146649999Y-59904105D01*
X146649999Y-59904105D02*
X146649999Y-59704105D01*
X146649999Y-59704105D02*
X146678571Y-59589819D01*
X146678571Y-59589819D02*
X146735714Y-59532676D01*
X146735714Y-59532676D02*
X146792856Y-59504105D01*
X147278570Y-60075534D02*
X147364285Y-60104105D01*
X147364285Y-60104105D02*
X147507142Y-60104105D01*
X147507142Y-60104105D02*
X147564285Y-60075534D01*
X147564285Y-60075534D02*
X147592856Y-60046962D01*
X147592856Y-60046962D02*
X147621427Y-59989819D01*
X147621427Y-59989819D02*
X147621427Y-59932676D01*
X147621427Y-59932676D02*
X147592856Y-59875534D01*
X147592856Y-59875534D02*
X147564285Y-59846962D01*
X147564285Y-59846962D02*
X147507142Y-59818391D01*
X147507142Y-59818391D02*
X147392856Y-59789819D01*
X147392856Y-59789819D02*
X147335713Y-59761248D01*
X147335713Y-59761248D02*
X147307142Y-59732676D01*
X147307142Y-59732676D02*
X147278570Y-59675534D01*
X147278570Y-59675534D02*
X147278570Y-59618391D01*
X147278570Y-59618391D02*
X147307142Y-59561248D01*
X147307142Y-59561248D02*
X147335713Y-59532676D01*
X147335713Y-59532676D02*
X147392856Y-59504105D01*
X147392856Y-59504105D02*
X147535713Y-59504105D01*
X147535713Y-59504105D02*
X147621427Y-59532676D01*
X148078571Y-59789819D02*
X147878571Y-59789819D01*
X147878571Y-60104105D02*
X147878571Y-59504105D01*
X147878571Y-59504105D02*
X148164285Y-59504105D01*
X148392857Y-59789819D02*
X148592857Y-59789819D01*
X148678571Y-60104105D02*
X148392857Y-60104105D01*
X148392857Y-60104105D02*
X148392857Y-59504105D01*
X148392857Y-59504105D02*
X148678571Y-59504105D01*
X148849999Y-59504105D02*
X149192857Y-59504105D01*
X149021428Y-60104105D02*
X149021428Y-59504105D01*
X145678571Y-60470071D02*
X146021429Y-60470071D01*
X145850000Y-61070071D02*
X145850000Y-60470071D01*
X146221429Y-61070071D02*
X146221429Y-60470071D01*
X146221429Y-60470071D02*
X146364286Y-60470071D01*
X146364286Y-60470071D02*
X146450000Y-60498642D01*
X146450000Y-60498642D02*
X146507143Y-60555785D01*
X146507143Y-60555785D02*
X146535714Y-60612928D01*
X146535714Y-60612928D02*
X146564286Y-60727214D01*
X146564286Y-60727214D02*
X146564286Y-60812928D01*
X146564286Y-60812928D02*
X146535714Y-60927214D01*
X146535714Y-60927214D02*
X146507143Y-60984357D01*
X146507143Y-60984357D02*
X146450000Y-61041500D01*
X146450000Y-61041500D02*
X146364286Y-61070071D01*
X146364286Y-61070071D02*
X146221429Y-61070071D01*
X166249928Y-38588572D02*
X166849928Y-38588572D01*
X166849928Y-38588572D02*
X166421357Y-38788572D01*
X166421357Y-38788572D02*
X166849928Y-38988572D01*
X166849928Y-38988572D02*
X166249928Y-38988572D01*
X166421357Y-39245714D02*
X166421357Y-39531429D01*
X166249928Y-39188571D02*
X166849928Y-39388571D01*
X166849928Y-39388571D02*
X166249928Y-39588571D01*
X166249928Y-39788572D02*
X166849928Y-39788572D01*
X166249928Y-40074286D02*
X166849928Y-40074286D01*
X166849928Y-40074286D02*
X166249928Y-40417143D01*
X166249928Y-40417143D02*
X166849928Y-40417143D01*
X166564214Y-41360000D02*
X166535642Y-41445714D01*
X166535642Y-41445714D02*
X166507071Y-41474285D01*
X166507071Y-41474285D02*
X166449928Y-41502857D01*
X166449928Y-41502857D02*
X166364214Y-41502857D01*
X166364214Y-41502857D02*
X166307071Y-41474285D01*
X166307071Y-41474285D02*
X166278500Y-41445714D01*
X166278500Y-41445714D02*
X166249928Y-41388571D01*
X166249928Y-41388571D02*
X166249928Y-41160000D01*
X166249928Y-41160000D02*
X166849928Y-41160000D01*
X166849928Y-41160000D02*
X166849928Y-41360000D01*
X166849928Y-41360000D02*
X166821357Y-41417143D01*
X166821357Y-41417143D02*
X166792785Y-41445714D01*
X166792785Y-41445714D02*
X166735642Y-41474285D01*
X166735642Y-41474285D02*
X166678500Y-41474285D01*
X166678500Y-41474285D02*
X166621357Y-41445714D01*
X166621357Y-41445714D02*
X166592785Y-41417143D01*
X166592785Y-41417143D02*
X166564214Y-41360000D01*
X166564214Y-41360000D02*
X166564214Y-41160000D01*
X166421357Y-41731428D02*
X166421357Y-42017143D01*
X166249928Y-41674285D02*
X166849928Y-41874285D01*
X166849928Y-41874285D02*
X166249928Y-42074285D01*
X166849928Y-42188571D02*
X166849928Y-42531429D01*
X166249928Y-42360000D02*
X166849928Y-42360000D01*
X166849928Y-42645714D02*
X166849928Y-42988572D01*
X166249928Y-42817143D02*
X166849928Y-42817143D01*
X166564214Y-43188572D02*
X166564214Y-43388572D01*
X166249928Y-43474286D02*
X166249928Y-43188572D01*
X166249928Y-43188572D02*
X166849928Y-43188572D01*
X166849928Y-43188572D02*
X166849928Y-43474286D01*
X166249928Y-44074286D02*
X166535642Y-43874286D01*
X166249928Y-43731429D02*
X166849928Y-43731429D01*
X166849928Y-43731429D02*
X166849928Y-43960000D01*
X166849928Y-43960000D02*
X166821357Y-44017143D01*
X166821357Y-44017143D02*
X166792785Y-44045714D01*
X166792785Y-44045714D02*
X166735642Y-44074286D01*
X166735642Y-44074286D02*
X166649928Y-44074286D01*
X166649928Y-44074286D02*
X166592785Y-44045714D01*
X166592785Y-44045714D02*
X166564214Y-44017143D01*
X166564214Y-44017143D02*
X166535642Y-43960000D01*
X166535642Y-43960000D02*
X166535642Y-43731429D01*
X166535642Y-44445714D02*
X166249928Y-44445714D01*
X166849928Y-44245714D02*
X166535642Y-44445714D01*
X166535642Y-44445714D02*
X166849928Y-44645714D01*
X166192785Y-44702858D02*
X166192785Y-45160000D01*
X166249928Y-45302858D02*
X166849928Y-45302858D01*
X166249928Y-45588572D02*
X166849928Y-45588572D01*
X166849928Y-45588572D02*
X166249928Y-45931429D01*
X166249928Y-45931429D02*
X166849928Y-45931429D01*
X122875093Y-105786000D02*
X122982236Y-105821714D01*
X122982236Y-105821714D02*
X123160807Y-105821714D01*
X123160807Y-105821714D02*
X123232236Y-105786000D01*
X123232236Y-105786000D02*
X123267950Y-105750285D01*
X123267950Y-105750285D02*
X123303664Y-105678857D01*
X123303664Y-105678857D02*
X123303664Y-105607428D01*
X123303664Y-105607428D02*
X123267950Y-105536000D01*
X123267950Y-105536000D02*
X123232236Y-105500285D01*
X123232236Y-105500285D02*
X123160807Y-105464571D01*
X123160807Y-105464571D02*
X123017950Y-105428857D01*
X123017950Y-105428857D02*
X122946521Y-105393142D01*
X122946521Y-105393142D02*
X122910807Y-105357428D01*
X122910807Y-105357428D02*
X122875093Y-105286000D01*
X122875093Y-105286000D02*
X122875093Y-105214571D01*
X122875093Y-105214571D02*
X122910807Y-105143142D01*
X122910807Y-105143142D02*
X122946521Y-105107428D01*
X122946521Y-105107428D02*
X123017950Y-105071714D01*
X123017950Y-105071714D02*
X123196521Y-105071714D01*
X123196521Y-105071714D02*
X123303664Y-105107428D01*
X123625093Y-105821714D02*
X123625093Y-105071714D01*
X123625093Y-105071714D02*
X123803664Y-105071714D01*
X123803664Y-105071714D02*
X123910807Y-105107428D01*
X123910807Y-105107428D02*
X123982236Y-105178857D01*
X123982236Y-105178857D02*
X124017950Y-105250285D01*
X124017950Y-105250285D02*
X124053664Y-105393142D01*
X124053664Y-105393142D02*
X124053664Y-105500285D01*
X124053664Y-105500285D02*
X124017950Y-105643142D01*
X124017950Y-105643142D02*
X123982236Y-105714571D01*
X123982236Y-105714571D02*
X123910807Y-105786000D01*
X123910807Y-105786000D02*
X123803664Y-105821714D01*
X123803664Y-105821714D02*
X123625093Y-105821714D01*
X125375093Y-105750285D02*
X125339379Y-105786000D01*
X125339379Y-105786000D02*
X125232236Y-105821714D01*
X125232236Y-105821714D02*
X125160808Y-105821714D01*
X125160808Y-105821714D02*
X125053665Y-105786000D01*
X125053665Y-105786000D02*
X124982236Y-105714571D01*
X124982236Y-105714571D02*
X124946522Y-105643142D01*
X124946522Y-105643142D02*
X124910808Y-105500285D01*
X124910808Y-105500285D02*
X124910808Y-105393142D01*
X124910808Y-105393142D02*
X124946522Y-105250285D01*
X124946522Y-105250285D02*
X124982236Y-105178857D01*
X124982236Y-105178857D02*
X125053665Y-105107428D01*
X125053665Y-105107428D02*
X125160808Y-105071714D01*
X125160808Y-105071714D02*
X125232236Y-105071714D01*
X125232236Y-105071714D02*
X125339379Y-105107428D01*
X125339379Y-105107428D02*
X125375093Y-105143142D01*
X125660808Y-105607428D02*
X126017951Y-105607428D01*
X125589379Y-105821714D02*
X125839379Y-105071714D01*
X125839379Y-105071714D02*
X126089379Y-105821714D01*
X126767950Y-105821714D02*
X126517950Y-105464571D01*
X126339379Y-105821714D02*
X126339379Y-105071714D01*
X126339379Y-105071714D02*
X126625093Y-105071714D01*
X126625093Y-105071714D02*
X126696522Y-105107428D01*
X126696522Y-105107428D02*
X126732236Y-105143142D01*
X126732236Y-105143142D02*
X126767950Y-105214571D01*
X126767950Y-105214571D02*
X126767950Y-105321714D01*
X126767950Y-105321714D02*
X126732236Y-105393142D01*
X126732236Y-105393142D02*
X126696522Y-105428857D01*
X126696522Y-105428857D02*
X126625093Y-105464571D01*
X126625093Y-105464571D02*
X126339379Y-105464571D01*
X127089379Y-105821714D02*
X127089379Y-105071714D01*
X127089379Y-105071714D02*
X127267950Y-105071714D01*
X127267950Y-105071714D02*
X127375093Y-105107428D01*
X127375093Y-105107428D02*
X127446522Y-105178857D01*
X127446522Y-105178857D02*
X127482236Y-105250285D01*
X127482236Y-105250285D02*
X127517950Y-105393142D01*
X127517950Y-105393142D02*
X127517950Y-105500285D01*
X127517950Y-105500285D02*
X127482236Y-105643142D01*
X127482236Y-105643142D02*
X127446522Y-105714571D01*
X127446522Y-105714571D02*
X127375093Y-105786000D01*
X127375093Y-105786000D02*
X127267950Y-105821714D01*
X127267950Y-105821714D02*
X127089379Y-105821714D01*
X128410808Y-105821714D02*
X128410808Y-105071714D01*
X128767951Y-105821714D02*
X128767951Y-105071714D01*
X128767951Y-105071714D02*
X129196522Y-105821714D01*
X129196522Y-105821714D02*
X129196522Y-105071714D01*
X165415714Y-113965785D02*
X165501428Y-113994357D01*
X165501428Y-113994357D02*
X165529999Y-114022928D01*
X165529999Y-114022928D02*
X165558571Y-114080071D01*
X165558571Y-114080071D02*
X165558571Y-114165785D01*
X165558571Y-114165785D02*
X165529999Y-114222928D01*
X165529999Y-114222928D02*
X165501428Y-114251500D01*
X165501428Y-114251500D02*
X165444285Y-114280071D01*
X165444285Y-114280071D02*
X165215714Y-114280071D01*
X165215714Y-114280071D02*
X165215714Y-113680071D01*
X165215714Y-113680071D02*
X165415714Y-113680071D01*
X165415714Y-113680071D02*
X165472857Y-113708642D01*
X165472857Y-113708642D02*
X165501428Y-113737214D01*
X165501428Y-113737214D02*
X165529999Y-113794357D01*
X165529999Y-113794357D02*
X165529999Y-113851500D01*
X165529999Y-113851500D02*
X165501428Y-113908642D01*
X165501428Y-113908642D02*
X165472857Y-113937214D01*
X165472857Y-113937214D02*
X165415714Y-113965785D01*
X165415714Y-113965785D02*
X165215714Y-113965785D01*
X165787142Y-114108642D02*
X166072857Y-114108642D01*
X165729999Y-114280071D02*
X165929999Y-113680071D01*
X165929999Y-113680071D02*
X166129999Y-114280071D01*
X166244285Y-113680071D02*
X166587143Y-113680071D01*
X166415714Y-114280071D02*
X166415714Y-113680071D01*
X166787143Y-114051500D02*
X167244286Y-114051500D01*
X167015714Y-114280071D02*
X167015714Y-113822928D01*
X120050093Y-80889819D02*
X120250093Y-80889819D01*
X120335807Y-81204105D02*
X120050093Y-81204105D01*
X120050093Y-81204105D02*
X120050093Y-80604105D01*
X120050093Y-80604105D02*
X120335807Y-80604105D01*
X120564378Y-81175534D02*
X120650093Y-81204105D01*
X120650093Y-81204105D02*
X120792950Y-81204105D01*
X120792950Y-81204105D02*
X120850093Y-81175534D01*
X120850093Y-81175534D02*
X120878664Y-81146962D01*
X120878664Y-81146962D02*
X120907235Y-81089819D01*
X120907235Y-81089819D02*
X120907235Y-81032676D01*
X120907235Y-81032676D02*
X120878664Y-80975534D01*
X120878664Y-80975534D02*
X120850093Y-80946962D01*
X120850093Y-80946962D02*
X120792950Y-80918391D01*
X120792950Y-80918391D02*
X120678664Y-80889819D01*
X120678664Y-80889819D02*
X120621521Y-80861248D01*
X120621521Y-80861248D02*
X120592950Y-80832676D01*
X120592950Y-80832676D02*
X120564378Y-80775534D01*
X120564378Y-80775534D02*
X120564378Y-80718391D01*
X120564378Y-80718391D02*
X120592950Y-80661248D01*
X120592950Y-80661248D02*
X120621521Y-80632676D01*
X120621521Y-80632676D02*
X120678664Y-80604105D01*
X120678664Y-80604105D02*
X120821521Y-80604105D01*
X120821521Y-80604105D02*
X120907235Y-80632676D01*
X121164379Y-81204105D02*
X121164379Y-80604105D01*
X121164379Y-80604105D02*
X121392950Y-80604105D01*
X121392950Y-80604105D02*
X121450093Y-80632676D01*
X121450093Y-80632676D02*
X121478664Y-80661248D01*
X121478664Y-80661248D02*
X121507236Y-80718391D01*
X121507236Y-80718391D02*
X121507236Y-80804105D01*
X121507236Y-80804105D02*
X121478664Y-80861248D01*
X121478664Y-80861248D02*
X121450093Y-80889819D01*
X121450093Y-80889819D02*
X121392950Y-80918391D01*
X121392950Y-80918391D02*
X121164379Y-80918391D01*
X121707236Y-80604105D02*
X122078664Y-80604105D01*
X122078664Y-80604105D02*
X121878664Y-80832676D01*
X121878664Y-80832676D02*
X121964379Y-80832676D01*
X121964379Y-80832676D02*
X122021522Y-80861248D01*
X122021522Y-80861248D02*
X122050093Y-80889819D01*
X122050093Y-80889819D02*
X122078664Y-80946962D01*
X122078664Y-80946962D02*
X122078664Y-81089819D01*
X122078664Y-81089819D02*
X122050093Y-81146962D01*
X122050093Y-81146962D02*
X122021522Y-81175534D01*
X122021522Y-81175534D02*
X121964379Y-81204105D01*
X121964379Y-81204105D02*
X121792950Y-81204105D01*
X121792950Y-81204105D02*
X121735807Y-81175534D01*
X121735807Y-81175534D02*
X121707236Y-81146962D01*
X122307236Y-80661248D02*
X122335808Y-80632676D01*
X122335808Y-80632676D02*
X122392951Y-80604105D01*
X122392951Y-80604105D02*
X122535808Y-80604105D01*
X122535808Y-80604105D02*
X122592951Y-80632676D01*
X122592951Y-80632676D02*
X122621522Y-80661248D01*
X122621522Y-80661248D02*
X122650093Y-80718391D01*
X122650093Y-80718391D02*
X122650093Y-80775534D01*
X122650093Y-80775534D02*
X122621522Y-80861248D01*
X122621522Y-80861248D02*
X122278665Y-81204105D01*
X122278665Y-81204105D02*
X122650093Y-81204105D01*
X122907237Y-80975534D02*
X123364380Y-80975534D01*
X123621522Y-81175534D02*
X123707237Y-81204105D01*
X123707237Y-81204105D02*
X123850094Y-81204105D01*
X123850094Y-81204105D02*
X123907237Y-81175534D01*
X123907237Y-81175534D02*
X123935808Y-81146962D01*
X123935808Y-81146962D02*
X123964379Y-81089819D01*
X123964379Y-81089819D02*
X123964379Y-81032676D01*
X123964379Y-81032676D02*
X123935808Y-80975534D01*
X123935808Y-80975534D02*
X123907237Y-80946962D01*
X123907237Y-80946962D02*
X123850094Y-80918391D01*
X123850094Y-80918391D02*
X123735808Y-80889819D01*
X123735808Y-80889819D02*
X123678665Y-80861248D01*
X123678665Y-80861248D02*
X123650094Y-80832676D01*
X123650094Y-80832676D02*
X123621522Y-80775534D01*
X123621522Y-80775534D02*
X123621522Y-80718391D01*
X123621522Y-80718391D02*
X123650094Y-80661248D01*
X123650094Y-80661248D02*
X123678665Y-80632676D01*
X123678665Y-80632676D02*
X123735808Y-80604105D01*
X123735808Y-80604105D02*
X123878665Y-80604105D01*
X123878665Y-80604105D02*
X123964379Y-80632676D01*
X124164380Y-80604105D02*
X124535808Y-80604105D01*
X124535808Y-80604105D02*
X124335808Y-80832676D01*
X124335808Y-80832676D02*
X124421523Y-80832676D01*
X124421523Y-80832676D02*
X124478666Y-80861248D01*
X124478666Y-80861248D02*
X124507237Y-80889819D01*
X124507237Y-80889819D02*
X124535808Y-80946962D01*
X124535808Y-80946962D02*
X124535808Y-81089819D01*
X124535808Y-81089819D02*
X124507237Y-81146962D01*
X124507237Y-81146962D02*
X124478666Y-81175534D01*
X124478666Y-81175534D02*
X124421523Y-81204105D01*
X124421523Y-81204105D02*
X124250094Y-81204105D01*
X124250094Y-81204105D02*
X124192951Y-81175534D01*
X124192951Y-81175534D02*
X124164380Y-81146962D01*
X119992950Y-81570071D02*
X120135807Y-82170071D01*
X120135807Y-82170071D02*
X120250093Y-81741500D01*
X120250093Y-81741500D02*
X120364378Y-82170071D01*
X120364378Y-82170071D02*
X120507236Y-81570071D01*
X121078664Y-82170071D02*
X120878664Y-81884357D01*
X120735807Y-82170071D02*
X120735807Y-81570071D01*
X120735807Y-81570071D02*
X120964378Y-81570071D01*
X120964378Y-81570071D02*
X121021521Y-81598642D01*
X121021521Y-81598642D02*
X121050092Y-81627214D01*
X121050092Y-81627214D02*
X121078664Y-81684357D01*
X121078664Y-81684357D02*
X121078664Y-81770071D01*
X121078664Y-81770071D02*
X121050092Y-81827214D01*
X121050092Y-81827214D02*
X121021521Y-81855785D01*
X121021521Y-81855785D02*
X120964378Y-81884357D01*
X120964378Y-81884357D02*
X120735807Y-81884357D01*
X121450092Y-81570071D02*
X121564378Y-81570071D01*
X121564378Y-81570071D02*
X121621521Y-81598642D01*
X121621521Y-81598642D02*
X121678664Y-81655785D01*
X121678664Y-81655785D02*
X121707235Y-81770071D01*
X121707235Y-81770071D02*
X121707235Y-81970071D01*
X121707235Y-81970071D02*
X121678664Y-82084357D01*
X121678664Y-82084357D02*
X121621521Y-82141500D01*
X121621521Y-82141500D02*
X121564378Y-82170071D01*
X121564378Y-82170071D02*
X121450092Y-82170071D01*
X121450092Y-82170071D02*
X121392950Y-82141500D01*
X121392950Y-82141500D02*
X121335807Y-82084357D01*
X121335807Y-82084357D02*
X121307235Y-81970071D01*
X121307235Y-81970071D02*
X121307235Y-81770071D01*
X121307235Y-81770071D02*
X121335807Y-81655785D01*
X121335807Y-81655785D02*
X121392950Y-81598642D01*
X121392950Y-81598642D02*
X121450092Y-81570071D01*
X122078663Y-81570071D02*
X122192949Y-81570071D01*
X122192949Y-81570071D02*
X122250092Y-81598642D01*
X122250092Y-81598642D02*
X122307235Y-81655785D01*
X122307235Y-81655785D02*
X122335806Y-81770071D01*
X122335806Y-81770071D02*
X122335806Y-81970071D01*
X122335806Y-81970071D02*
X122307235Y-82084357D01*
X122307235Y-82084357D02*
X122250092Y-82141500D01*
X122250092Y-82141500D02*
X122192949Y-82170071D01*
X122192949Y-82170071D02*
X122078663Y-82170071D01*
X122078663Y-82170071D02*
X122021521Y-82141500D01*
X122021521Y-82141500D02*
X121964378Y-82084357D01*
X121964378Y-82084357D02*
X121935806Y-81970071D01*
X121935806Y-81970071D02*
X121935806Y-81770071D01*
X121935806Y-81770071D02*
X121964378Y-81655785D01*
X121964378Y-81655785D02*
X122021521Y-81598642D01*
X122021521Y-81598642D02*
X122078663Y-81570071D01*
X122592949Y-82170071D02*
X122592949Y-81570071D01*
X122592949Y-81570071D02*
X122792949Y-81998642D01*
X122792949Y-81998642D02*
X122992949Y-81570071D01*
X122992949Y-81570071D02*
X122992949Y-82170071D01*
X123278663Y-81941500D02*
X123735806Y-81941500D01*
X124335805Y-82170071D02*
X123992948Y-82170071D01*
X124164377Y-82170071D02*
X124164377Y-81570071D01*
X124164377Y-81570071D02*
X124107234Y-81655785D01*
X124107234Y-81655785D02*
X124050091Y-81712928D01*
X124050091Y-81712928D02*
X123992948Y-81741500D01*
X124592949Y-81570071D02*
X124592949Y-82055785D01*
X124592949Y-82055785D02*
X124621520Y-82112928D01*
X124621520Y-82112928D02*
X124650092Y-82141500D01*
X124650092Y-82141500D02*
X124707234Y-82170071D01*
X124707234Y-82170071D02*
X124821520Y-82170071D01*
X124821520Y-82170071D02*
X124878663Y-82141500D01*
X124878663Y-82141500D02*
X124907234Y-82112928D01*
X124907234Y-82112928D02*
X124935806Y-82055785D01*
X124935806Y-82055785D02*
X124935806Y-81570071D01*
D11*
X130524510Y-106367257D02*
X130524510Y-104081542D01*
X129953082Y-104652971D02*
X130524510Y-104081542D01*
X130524510Y-104081542D02*
X131095939Y-104652971D01*
D10*
X160165714Y-113965785D02*
X160251428Y-113994357D01*
X160251428Y-113994357D02*
X160279999Y-114022928D01*
X160279999Y-114022928D02*
X160308571Y-114080071D01*
X160308571Y-114080071D02*
X160308571Y-114165785D01*
X160308571Y-114165785D02*
X160279999Y-114222928D01*
X160279999Y-114222928D02*
X160251428Y-114251500D01*
X160251428Y-114251500D02*
X160194285Y-114280071D01*
X160194285Y-114280071D02*
X159965714Y-114280071D01*
X159965714Y-114280071D02*
X159965714Y-113680071D01*
X159965714Y-113680071D02*
X160165714Y-113680071D01*
X160165714Y-113680071D02*
X160222857Y-113708642D01*
X160222857Y-113708642D02*
X160251428Y-113737214D01*
X160251428Y-113737214D02*
X160279999Y-113794357D01*
X160279999Y-113794357D02*
X160279999Y-113851500D01*
X160279999Y-113851500D02*
X160251428Y-113908642D01*
X160251428Y-113908642D02*
X160222857Y-113937214D01*
X160222857Y-113937214D02*
X160165714Y-113965785D01*
X160165714Y-113965785D02*
X159965714Y-113965785D01*
X160537142Y-114108642D02*
X160822857Y-114108642D01*
X160479999Y-114280071D02*
X160679999Y-113680071D01*
X160679999Y-113680071D02*
X160879999Y-114280071D01*
X160994285Y-113680071D02*
X161337143Y-113680071D01*
X161165714Y-114280071D02*
X161165714Y-113680071D01*
X161537143Y-114051500D02*
X161994286Y-114051500D01*
X118092857Y-49179105D02*
X118092857Y-48579105D01*
X118092857Y-48579105D02*
X118321428Y-48579105D01*
X118321428Y-48579105D02*
X118378571Y-48607676D01*
X118378571Y-48607676D02*
X118407142Y-48636248D01*
X118407142Y-48636248D02*
X118435714Y-48693391D01*
X118435714Y-48693391D02*
X118435714Y-48779105D01*
X118435714Y-48779105D02*
X118407142Y-48836248D01*
X118407142Y-48836248D02*
X118378571Y-48864819D01*
X118378571Y-48864819D02*
X118321428Y-48893391D01*
X118321428Y-48893391D02*
X118092857Y-48893391D01*
X118807142Y-48893391D02*
X118807142Y-49179105D01*
X118607142Y-48579105D02*
X118807142Y-48893391D01*
X118807142Y-48893391D02*
X119007142Y-48579105D01*
X119550000Y-49179105D02*
X119350000Y-48893391D01*
X119207143Y-49179105D02*
X119207143Y-48579105D01*
X119207143Y-48579105D02*
X119435714Y-48579105D01*
X119435714Y-48579105D02*
X119492857Y-48607676D01*
X119492857Y-48607676D02*
X119521428Y-48636248D01*
X119521428Y-48636248D02*
X119550000Y-48693391D01*
X119550000Y-48693391D02*
X119550000Y-48779105D01*
X119550000Y-48779105D02*
X119521428Y-48836248D01*
X119521428Y-48836248D02*
X119492857Y-48864819D01*
X119492857Y-48864819D02*
X119435714Y-48893391D01*
X119435714Y-48893391D02*
X119207143Y-48893391D01*
X119921428Y-48579105D02*
X120035714Y-48579105D01*
X120035714Y-48579105D02*
X120092857Y-48607676D01*
X120092857Y-48607676D02*
X120150000Y-48664819D01*
X120150000Y-48664819D02*
X120178571Y-48779105D01*
X120178571Y-48779105D02*
X120178571Y-48979105D01*
X120178571Y-48979105D02*
X120150000Y-49093391D01*
X120150000Y-49093391D02*
X120092857Y-49150534D01*
X120092857Y-49150534D02*
X120035714Y-49179105D01*
X120035714Y-49179105D02*
X119921428Y-49179105D01*
X119921428Y-49179105D02*
X119864286Y-49150534D01*
X119864286Y-49150534D02*
X119807143Y-49093391D01*
X119807143Y-49093391D02*
X119778571Y-48979105D01*
X119778571Y-48979105D02*
X119778571Y-48779105D01*
X119778571Y-48779105D02*
X119807143Y-48664819D01*
X119807143Y-48664819D02*
X119864286Y-48607676D01*
X119864286Y-48607676D02*
X119921428Y-48579105D01*
X120892857Y-49179105D02*
X120892857Y-48579105D01*
X120892857Y-48579105D02*
X121092857Y-49007676D01*
X121092857Y-49007676D02*
X121292857Y-48579105D01*
X121292857Y-48579105D02*
X121292857Y-49179105D01*
X121692856Y-48579105D02*
X121807142Y-48579105D01*
X121807142Y-48579105D02*
X121864285Y-48607676D01*
X121864285Y-48607676D02*
X121921428Y-48664819D01*
X121921428Y-48664819D02*
X121949999Y-48779105D01*
X121949999Y-48779105D02*
X121949999Y-48979105D01*
X121949999Y-48979105D02*
X121921428Y-49093391D01*
X121921428Y-49093391D02*
X121864285Y-49150534D01*
X121864285Y-49150534D02*
X121807142Y-49179105D01*
X121807142Y-49179105D02*
X121692856Y-49179105D01*
X121692856Y-49179105D02*
X121635714Y-49150534D01*
X121635714Y-49150534D02*
X121578571Y-49093391D01*
X121578571Y-49093391D02*
X121549999Y-48979105D01*
X121549999Y-48979105D02*
X121549999Y-48779105D01*
X121549999Y-48779105D02*
X121578571Y-48664819D01*
X121578571Y-48664819D02*
X121635714Y-48607676D01*
X121635714Y-48607676D02*
X121692856Y-48579105D01*
X122178570Y-49150534D02*
X122264285Y-49179105D01*
X122264285Y-49179105D02*
X122407142Y-49179105D01*
X122407142Y-49179105D02*
X122464285Y-49150534D01*
X122464285Y-49150534D02*
X122492856Y-49121962D01*
X122492856Y-49121962D02*
X122521427Y-49064819D01*
X122521427Y-49064819D02*
X122521427Y-49007676D01*
X122521427Y-49007676D02*
X122492856Y-48950534D01*
X122492856Y-48950534D02*
X122464285Y-48921962D01*
X122464285Y-48921962D02*
X122407142Y-48893391D01*
X122407142Y-48893391D02*
X122292856Y-48864819D01*
X122292856Y-48864819D02*
X122235713Y-48836248D01*
X122235713Y-48836248D02*
X122207142Y-48807676D01*
X122207142Y-48807676D02*
X122178570Y-48750534D01*
X122178570Y-48750534D02*
X122178570Y-48693391D01*
X122178570Y-48693391D02*
X122207142Y-48636248D01*
X122207142Y-48636248D02*
X122235713Y-48607676D01*
X122235713Y-48607676D02*
X122292856Y-48579105D01*
X122292856Y-48579105D02*
X122435713Y-48579105D01*
X122435713Y-48579105D02*
X122521427Y-48607676D01*
X122978571Y-48864819D02*
X122778571Y-48864819D01*
X122778571Y-49179105D02*
X122778571Y-48579105D01*
X122778571Y-48579105D02*
X123064285Y-48579105D01*
X123292857Y-48864819D02*
X123492857Y-48864819D01*
X123578571Y-49179105D02*
X123292857Y-49179105D01*
X123292857Y-49179105D02*
X123292857Y-48579105D01*
X123292857Y-48579105D02*
X123578571Y-48579105D01*
X123749999Y-48579105D02*
X124092857Y-48579105D01*
X123921428Y-49179105D02*
X123921428Y-48579105D01*
X119392858Y-50145071D02*
X119392858Y-49545071D01*
X119392858Y-49545071D02*
X119535715Y-49545071D01*
X119535715Y-49545071D02*
X119621429Y-49573642D01*
X119621429Y-49573642D02*
X119678572Y-49630785D01*
X119678572Y-49630785D02*
X119707143Y-49687928D01*
X119707143Y-49687928D02*
X119735715Y-49802214D01*
X119735715Y-49802214D02*
X119735715Y-49887928D01*
X119735715Y-49887928D02*
X119707143Y-50002214D01*
X119707143Y-50002214D02*
X119678572Y-50059357D01*
X119678572Y-50059357D02*
X119621429Y-50116500D01*
X119621429Y-50116500D02*
X119535715Y-50145071D01*
X119535715Y-50145071D02*
X119392858Y-50145071D01*
X120335715Y-50145071D02*
X120135715Y-49859357D01*
X119992858Y-50145071D02*
X119992858Y-49545071D01*
X119992858Y-49545071D02*
X120221429Y-49545071D01*
X120221429Y-49545071D02*
X120278572Y-49573642D01*
X120278572Y-49573642D02*
X120307143Y-49602214D01*
X120307143Y-49602214D02*
X120335715Y-49659357D01*
X120335715Y-49659357D02*
X120335715Y-49745071D01*
X120335715Y-49745071D02*
X120307143Y-49802214D01*
X120307143Y-49802214D02*
X120278572Y-49830785D01*
X120278572Y-49830785D02*
X120221429Y-49859357D01*
X120221429Y-49859357D02*
X119992858Y-49859357D01*
X120707143Y-49545071D02*
X120821429Y-49545071D01*
X120821429Y-49545071D02*
X120878572Y-49573642D01*
X120878572Y-49573642D02*
X120935715Y-49630785D01*
X120935715Y-49630785D02*
X120964286Y-49745071D01*
X120964286Y-49745071D02*
X120964286Y-49945071D01*
X120964286Y-49945071D02*
X120935715Y-50059357D01*
X120935715Y-50059357D02*
X120878572Y-50116500D01*
X120878572Y-50116500D02*
X120821429Y-50145071D01*
X120821429Y-50145071D02*
X120707143Y-50145071D01*
X120707143Y-50145071D02*
X120650001Y-50116500D01*
X120650001Y-50116500D02*
X120592858Y-50059357D01*
X120592858Y-50059357D02*
X120564286Y-49945071D01*
X120564286Y-49945071D02*
X120564286Y-49745071D01*
X120564286Y-49745071D02*
X120592858Y-49630785D01*
X120592858Y-49630785D02*
X120650001Y-49573642D01*
X120650001Y-49573642D02*
X120707143Y-49545071D01*
X121535714Y-49573642D02*
X121478572Y-49545071D01*
X121478572Y-49545071D02*
X121392857Y-49545071D01*
X121392857Y-49545071D02*
X121307143Y-49573642D01*
X121307143Y-49573642D02*
X121250000Y-49630785D01*
X121250000Y-49630785D02*
X121221429Y-49687928D01*
X121221429Y-49687928D02*
X121192857Y-49802214D01*
X121192857Y-49802214D02*
X121192857Y-49887928D01*
X121192857Y-49887928D02*
X121221429Y-50002214D01*
X121221429Y-50002214D02*
X121250000Y-50059357D01*
X121250000Y-50059357D02*
X121307143Y-50116500D01*
X121307143Y-50116500D02*
X121392857Y-50145071D01*
X121392857Y-50145071D02*
X121450000Y-50145071D01*
X121450000Y-50145071D02*
X121535714Y-50116500D01*
X121535714Y-50116500D02*
X121564286Y-50087928D01*
X121564286Y-50087928D02*
X121564286Y-49887928D01*
X121564286Y-49887928D02*
X121450000Y-49887928D01*
X121821429Y-49545071D02*
X121821429Y-50030785D01*
X121821429Y-50030785D02*
X121850000Y-50087928D01*
X121850000Y-50087928D02*
X121878572Y-50116500D01*
X121878572Y-50116500D02*
X121935714Y-50145071D01*
X121935714Y-50145071D02*
X122050000Y-50145071D01*
X122050000Y-50145071D02*
X122107143Y-50116500D01*
X122107143Y-50116500D02*
X122135714Y-50087928D01*
X122135714Y-50087928D02*
X122164286Y-50030785D01*
X122164286Y-50030785D02*
X122164286Y-49545071D01*
X122450000Y-49830785D02*
X122650000Y-49830785D01*
X122735714Y-50145071D02*
X122450000Y-50145071D01*
X122450000Y-50145071D02*
X122450000Y-49545071D01*
X122450000Y-49545071D02*
X122735714Y-49545071D01*
X163094285Y-37584214D02*
X163008571Y-37555642D01*
X163008571Y-37555642D02*
X162980000Y-37527071D01*
X162980000Y-37527071D02*
X162951428Y-37469928D01*
X162951428Y-37469928D02*
X162951428Y-37384214D01*
X162951428Y-37384214D02*
X162980000Y-37327071D01*
X162980000Y-37327071D02*
X163008571Y-37298500D01*
X163008571Y-37298500D02*
X163065714Y-37269928D01*
X163065714Y-37269928D02*
X163294285Y-37269928D01*
X163294285Y-37269928D02*
X163294285Y-37869928D01*
X163294285Y-37869928D02*
X163094285Y-37869928D01*
X163094285Y-37869928D02*
X163037143Y-37841357D01*
X163037143Y-37841357D02*
X163008571Y-37812785D01*
X163008571Y-37812785D02*
X162980000Y-37755642D01*
X162980000Y-37755642D02*
X162980000Y-37698500D01*
X162980000Y-37698500D02*
X163008571Y-37641357D01*
X163008571Y-37641357D02*
X163037143Y-37612785D01*
X163037143Y-37612785D02*
X163094285Y-37584214D01*
X163094285Y-37584214D02*
X163294285Y-37584214D01*
X162722857Y-37441357D02*
X162437143Y-37441357D01*
X162780000Y-37269928D02*
X162580000Y-37869928D01*
X162580000Y-37869928D02*
X162380000Y-37269928D01*
X162265714Y-37869928D02*
X161922857Y-37869928D01*
X162094285Y-37269928D02*
X162094285Y-37869928D01*
X161722856Y-37498500D02*
X161265714Y-37498500D01*
X131884285Y-37584214D02*
X131798571Y-37555642D01*
X131798571Y-37555642D02*
X131770000Y-37527071D01*
X131770000Y-37527071D02*
X131741428Y-37469928D01*
X131741428Y-37469928D02*
X131741428Y-37384214D01*
X131741428Y-37384214D02*
X131770000Y-37327071D01*
X131770000Y-37327071D02*
X131798571Y-37298500D01*
X131798571Y-37298500D02*
X131855714Y-37269928D01*
X131855714Y-37269928D02*
X132084285Y-37269928D01*
X132084285Y-37269928D02*
X132084285Y-37869928D01*
X132084285Y-37869928D02*
X131884285Y-37869928D01*
X131884285Y-37869928D02*
X131827143Y-37841357D01*
X131827143Y-37841357D02*
X131798571Y-37812785D01*
X131798571Y-37812785D02*
X131770000Y-37755642D01*
X131770000Y-37755642D02*
X131770000Y-37698500D01*
X131770000Y-37698500D02*
X131798571Y-37641357D01*
X131798571Y-37641357D02*
X131827143Y-37612785D01*
X131827143Y-37612785D02*
X131884285Y-37584214D01*
X131884285Y-37584214D02*
X132084285Y-37584214D01*
X131512857Y-37441357D02*
X131227143Y-37441357D01*
X131570000Y-37269928D02*
X131370000Y-37869928D01*
X131370000Y-37869928D02*
X131170000Y-37269928D01*
X131055714Y-37869928D02*
X130712857Y-37869928D01*
X130884285Y-37269928D02*
X130884285Y-37869928D01*
X130512856Y-37498500D02*
X130055714Y-37498500D01*
X181548642Y-102947142D02*
X181520071Y-103004285D01*
X181520071Y-103004285D02*
X181520071Y-103089999D01*
X181520071Y-103089999D02*
X181548642Y-103175713D01*
X181548642Y-103175713D02*
X181605785Y-103232856D01*
X181605785Y-103232856D02*
X181662928Y-103261427D01*
X181662928Y-103261427D02*
X181777214Y-103289999D01*
X181777214Y-103289999D02*
X181862928Y-103289999D01*
X181862928Y-103289999D02*
X181977214Y-103261427D01*
X181977214Y-103261427D02*
X182034357Y-103232856D01*
X182034357Y-103232856D02*
X182091500Y-103175713D01*
X182091500Y-103175713D02*
X182120071Y-103089999D01*
X182120071Y-103089999D02*
X182120071Y-103032856D01*
X182120071Y-103032856D02*
X182091500Y-102947142D01*
X182091500Y-102947142D02*
X182062928Y-102918570D01*
X182062928Y-102918570D02*
X181862928Y-102918570D01*
X181862928Y-102918570D02*
X181862928Y-103032856D01*
X182120071Y-102661427D02*
X181520071Y-102661427D01*
X181520071Y-102661427D02*
X182120071Y-102318570D01*
X182120071Y-102318570D02*
X181520071Y-102318570D01*
X182120071Y-102032856D02*
X181520071Y-102032856D01*
X181520071Y-102032856D02*
X181520071Y-101889999D01*
X181520071Y-101889999D02*
X181548642Y-101804285D01*
X181548642Y-101804285D02*
X181605785Y-101747142D01*
X181605785Y-101747142D02*
X181662928Y-101718571D01*
X181662928Y-101718571D02*
X181777214Y-101689999D01*
X181777214Y-101689999D02*
X181862928Y-101689999D01*
X181862928Y-101689999D02*
X181977214Y-101718571D01*
X181977214Y-101718571D02*
X182034357Y-101747142D01*
X182034357Y-101747142D02*
X182091500Y-101804285D01*
X182091500Y-101804285D02*
X182120071Y-101889999D01*
X182120071Y-101889999D02*
X182120071Y-102032856D01*
X116910714Y-80979105D02*
X116625000Y-80979105D01*
X116625000Y-80979105D02*
X116596428Y-81264819D01*
X116596428Y-81264819D02*
X116625000Y-81236248D01*
X116625000Y-81236248D02*
X116682143Y-81207676D01*
X116682143Y-81207676D02*
X116825000Y-81207676D01*
X116825000Y-81207676D02*
X116882143Y-81236248D01*
X116882143Y-81236248D02*
X116910714Y-81264819D01*
X116910714Y-81264819D02*
X116939285Y-81321962D01*
X116939285Y-81321962D02*
X116939285Y-81464819D01*
X116939285Y-81464819D02*
X116910714Y-81521962D01*
X116910714Y-81521962D02*
X116882143Y-81550534D01*
X116882143Y-81550534D02*
X116825000Y-81579105D01*
X116825000Y-81579105D02*
X116682143Y-81579105D01*
X116682143Y-81579105D02*
X116625000Y-81550534D01*
X116625000Y-81550534D02*
X116596428Y-81521962D01*
X117110714Y-80979105D02*
X117310714Y-81579105D01*
X117310714Y-81579105D02*
X117510714Y-80979105D01*
X116267857Y-81945071D02*
X116267857Y-82430785D01*
X116267857Y-82430785D02*
X116296428Y-82487928D01*
X116296428Y-82487928D02*
X116325000Y-82516500D01*
X116325000Y-82516500D02*
X116382142Y-82545071D01*
X116382142Y-82545071D02*
X116496428Y-82545071D01*
X116496428Y-82545071D02*
X116553571Y-82516500D01*
X116553571Y-82516500D02*
X116582142Y-82487928D01*
X116582142Y-82487928D02*
X116610714Y-82430785D01*
X116610714Y-82430785D02*
X116610714Y-81945071D01*
X116867856Y-82516500D02*
X116953571Y-82545071D01*
X116953571Y-82545071D02*
X117096428Y-82545071D01*
X117096428Y-82545071D02*
X117153571Y-82516500D01*
X117153571Y-82516500D02*
X117182142Y-82487928D01*
X117182142Y-82487928D02*
X117210713Y-82430785D01*
X117210713Y-82430785D02*
X117210713Y-82373642D01*
X117210713Y-82373642D02*
X117182142Y-82316500D01*
X117182142Y-82316500D02*
X117153571Y-82287928D01*
X117153571Y-82287928D02*
X117096428Y-82259357D01*
X117096428Y-82259357D02*
X116982142Y-82230785D01*
X116982142Y-82230785D02*
X116924999Y-82202214D01*
X116924999Y-82202214D02*
X116896428Y-82173642D01*
X116896428Y-82173642D02*
X116867856Y-82116500D01*
X116867856Y-82116500D02*
X116867856Y-82059357D01*
X116867856Y-82059357D02*
X116896428Y-82002214D01*
X116896428Y-82002214D02*
X116924999Y-81973642D01*
X116924999Y-81973642D02*
X116982142Y-81945071D01*
X116982142Y-81945071D02*
X117124999Y-81945071D01*
X117124999Y-81945071D02*
X117210713Y-81973642D01*
X117667857Y-82230785D02*
X117753571Y-82259357D01*
X117753571Y-82259357D02*
X117782142Y-82287928D01*
X117782142Y-82287928D02*
X117810714Y-82345071D01*
X117810714Y-82345071D02*
X117810714Y-82430785D01*
X117810714Y-82430785D02*
X117782142Y-82487928D01*
X117782142Y-82487928D02*
X117753571Y-82516500D01*
X117753571Y-82516500D02*
X117696428Y-82545071D01*
X117696428Y-82545071D02*
X117467857Y-82545071D01*
X117467857Y-82545071D02*
X117467857Y-81945071D01*
X117467857Y-81945071D02*
X117667857Y-81945071D01*
X117667857Y-81945071D02*
X117725000Y-81973642D01*
X117725000Y-81973642D02*
X117753571Y-82002214D01*
X117753571Y-82002214D02*
X117782142Y-82059357D01*
X117782142Y-82059357D02*
X117782142Y-82116500D01*
X117782142Y-82116500D02*
X117753571Y-82173642D01*
X117753571Y-82173642D02*
X117725000Y-82202214D01*
X117725000Y-82202214D02*
X117667857Y-82230785D01*
X117667857Y-82230785D02*
X117467857Y-82230785D01*
X110264285Y-92404105D02*
X110635713Y-92404105D01*
X110635713Y-92404105D02*
X110435713Y-92632676D01*
X110435713Y-92632676D02*
X110521428Y-92632676D01*
X110521428Y-92632676D02*
X110578571Y-92661248D01*
X110578571Y-92661248D02*
X110607142Y-92689819D01*
X110607142Y-92689819D02*
X110635713Y-92746962D01*
X110635713Y-92746962D02*
X110635713Y-92889819D01*
X110635713Y-92889819D02*
X110607142Y-92946962D01*
X110607142Y-92946962D02*
X110578571Y-92975534D01*
X110578571Y-92975534D02*
X110521428Y-93004105D01*
X110521428Y-93004105D02*
X110349999Y-93004105D01*
X110349999Y-93004105D02*
X110292856Y-92975534D01*
X110292856Y-92975534D02*
X110264285Y-92946962D01*
X110892857Y-92946962D02*
X110921428Y-92975534D01*
X110921428Y-92975534D02*
X110892857Y-93004105D01*
X110892857Y-93004105D02*
X110864285Y-92975534D01*
X110864285Y-92975534D02*
X110892857Y-92946962D01*
X110892857Y-92946962D02*
X110892857Y-93004105D01*
X111121428Y-92404105D02*
X111492856Y-92404105D01*
X111492856Y-92404105D02*
X111292856Y-92632676D01*
X111292856Y-92632676D02*
X111378571Y-92632676D01*
X111378571Y-92632676D02*
X111435714Y-92661248D01*
X111435714Y-92661248D02*
X111464285Y-92689819D01*
X111464285Y-92689819D02*
X111492856Y-92746962D01*
X111492856Y-92746962D02*
X111492856Y-92889819D01*
X111492856Y-92889819D02*
X111464285Y-92946962D01*
X111464285Y-92946962D02*
X111435714Y-92975534D01*
X111435714Y-92975534D02*
X111378571Y-93004105D01*
X111378571Y-93004105D02*
X111207142Y-93004105D01*
X111207142Y-93004105D02*
X111149999Y-92975534D01*
X111149999Y-92975534D02*
X111121428Y-92946962D01*
X111664285Y-92404105D02*
X111864285Y-93004105D01*
X111864285Y-93004105D02*
X112064285Y-92404105D01*
X110664286Y-93970071D02*
X110607143Y-93941500D01*
X110607143Y-93941500D02*
X110578572Y-93912928D01*
X110578572Y-93912928D02*
X110550000Y-93855785D01*
X110550000Y-93855785D02*
X110550000Y-93684357D01*
X110550000Y-93684357D02*
X110578572Y-93627214D01*
X110578572Y-93627214D02*
X110607143Y-93598642D01*
X110607143Y-93598642D02*
X110664286Y-93570071D01*
X110664286Y-93570071D02*
X110750000Y-93570071D01*
X110750000Y-93570071D02*
X110807143Y-93598642D01*
X110807143Y-93598642D02*
X110835715Y-93627214D01*
X110835715Y-93627214D02*
X110864286Y-93684357D01*
X110864286Y-93684357D02*
X110864286Y-93855785D01*
X110864286Y-93855785D02*
X110835715Y-93912928D01*
X110835715Y-93912928D02*
X110807143Y-93941500D01*
X110807143Y-93941500D02*
X110750000Y-93970071D01*
X110750000Y-93970071D02*
X110664286Y-93970071D01*
X111378572Y-93570071D02*
X111378572Y-93970071D01*
X111121429Y-93570071D02*
X111121429Y-93884357D01*
X111121429Y-93884357D02*
X111150000Y-93941500D01*
X111150000Y-93941500D02*
X111207143Y-93970071D01*
X111207143Y-93970071D02*
X111292857Y-93970071D01*
X111292857Y-93970071D02*
X111350000Y-93941500D01*
X111350000Y-93941500D02*
X111378572Y-93912928D01*
X111578571Y-93570071D02*
X111807143Y-93570071D01*
X111664286Y-93370071D02*
X111664286Y-93884357D01*
X111664286Y-93884357D02*
X111692857Y-93941500D01*
X111692857Y-93941500D02*
X111750000Y-93970071D01*
X111750000Y-93970071D02*
X111807143Y-93970071D01*
X146700093Y-62755785D02*
X146900093Y-62755785D01*
X146985807Y-63070071D02*
X146700093Y-63070071D01*
X146700093Y-63070071D02*
X146700093Y-62470071D01*
X146700093Y-62470071D02*
X146985807Y-62470071D01*
X147214378Y-63041500D02*
X147300093Y-63070071D01*
X147300093Y-63070071D02*
X147442950Y-63070071D01*
X147442950Y-63070071D02*
X147500093Y-63041500D01*
X147500093Y-63041500D02*
X147528664Y-63012928D01*
X147528664Y-63012928D02*
X147557235Y-62955785D01*
X147557235Y-62955785D02*
X147557235Y-62898642D01*
X147557235Y-62898642D02*
X147528664Y-62841500D01*
X147528664Y-62841500D02*
X147500093Y-62812928D01*
X147500093Y-62812928D02*
X147442950Y-62784357D01*
X147442950Y-62784357D02*
X147328664Y-62755785D01*
X147328664Y-62755785D02*
X147271521Y-62727214D01*
X147271521Y-62727214D02*
X147242950Y-62698642D01*
X147242950Y-62698642D02*
X147214378Y-62641500D01*
X147214378Y-62641500D02*
X147214378Y-62584357D01*
X147214378Y-62584357D02*
X147242950Y-62527214D01*
X147242950Y-62527214D02*
X147271521Y-62498642D01*
X147271521Y-62498642D02*
X147328664Y-62470071D01*
X147328664Y-62470071D02*
X147471521Y-62470071D01*
X147471521Y-62470071D02*
X147557235Y-62498642D01*
X147814379Y-63070071D02*
X147814379Y-62470071D01*
X147814379Y-62470071D02*
X148042950Y-62470071D01*
X148042950Y-62470071D02*
X148100093Y-62498642D01*
X148100093Y-62498642D02*
X148128664Y-62527214D01*
X148128664Y-62527214D02*
X148157236Y-62584357D01*
X148157236Y-62584357D02*
X148157236Y-62670071D01*
X148157236Y-62670071D02*
X148128664Y-62727214D01*
X148128664Y-62727214D02*
X148100093Y-62755785D01*
X148100093Y-62755785D02*
X148042950Y-62784357D01*
X148042950Y-62784357D02*
X147814379Y-62784357D01*
X148357236Y-62470071D02*
X148728664Y-62470071D01*
X148728664Y-62470071D02*
X148528664Y-62698642D01*
X148528664Y-62698642D02*
X148614379Y-62698642D01*
X148614379Y-62698642D02*
X148671522Y-62727214D01*
X148671522Y-62727214D02*
X148700093Y-62755785D01*
X148700093Y-62755785D02*
X148728664Y-62812928D01*
X148728664Y-62812928D02*
X148728664Y-62955785D01*
X148728664Y-62955785D02*
X148700093Y-63012928D01*
X148700093Y-63012928D02*
X148671522Y-63041500D01*
X148671522Y-63041500D02*
X148614379Y-63070071D01*
X148614379Y-63070071D02*
X148442950Y-63070071D01*
X148442950Y-63070071D02*
X148385807Y-63041500D01*
X148385807Y-63041500D02*
X148357236Y-63012928D01*
X148957236Y-62527214D02*
X148985808Y-62498642D01*
X148985808Y-62498642D02*
X149042951Y-62470071D01*
X149042951Y-62470071D02*
X149185808Y-62470071D01*
X149185808Y-62470071D02*
X149242951Y-62498642D01*
X149242951Y-62498642D02*
X149271522Y-62527214D01*
X149271522Y-62527214D02*
X149300093Y-62584357D01*
X149300093Y-62584357D02*
X149300093Y-62641500D01*
X149300093Y-62641500D02*
X149271522Y-62727214D01*
X149271522Y-62727214D02*
X148928665Y-63070071D01*
X148928665Y-63070071D02*
X149300093Y-63070071D01*
X149557237Y-62841500D02*
X150014380Y-62841500D01*
X150271522Y-63041500D02*
X150357237Y-63070071D01*
X150357237Y-63070071D02*
X150500094Y-63070071D01*
X150500094Y-63070071D02*
X150557237Y-63041500D01*
X150557237Y-63041500D02*
X150585808Y-63012928D01*
X150585808Y-63012928D02*
X150614379Y-62955785D01*
X150614379Y-62955785D02*
X150614379Y-62898642D01*
X150614379Y-62898642D02*
X150585808Y-62841500D01*
X150585808Y-62841500D02*
X150557237Y-62812928D01*
X150557237Y-62812928D02*
X150500094Y-62784357D01*
X150500094Y-62784357D02*
X150385808Y-62755785D01*
X150385808Y-62755785D02*
X150328665Y-62727214D01*
X150328665Y-62727214D02*
X150300094Y-62698642D01*
X150300094Y-62698642D02*
X150271522Y-62641500D01*
X150271522Y-62641500D02*
X150271522Y-62584357D01*
X150271522Y-62584357D02*
X150300094Y-62527214D01*
X150300094Y-62527214D02*
X150328665Y-62498642D01*
X150328665Y-62498642D02*
X150385808Y-62470071D01*
X150385808Y-62470071D02*
X150528665Y-62470071D01*
X150528665Y-62470071D02*
X150614379Y-62498642D01*
X150814380Y-62470071D02*
X151185808Y-62470071D01*
X151185808Y-62470071D02*
X150985808Y-62698642D01*
X150985808Y-62698642D02*
X151071523Y-62698642D01*
X151071523Y-62698642D02*
X151128666Y-62727214D01*
X151128666Y-62727214D02*
X151157237Y-62755785D01*
X151157237Y-62755785D02*
X151185808Y-62812928D01*
X151185808Y-62812928D02*
X151185808Y-62955785D01*
X151185808Y-62955785D02*
X151157237Y-63012928D01*
X151157237Y-63012928D02*
X151128666Y-63041500D01*
X151128666Y-63041500D02*
X151071523Y-63070071D01*
X151071523Y-63070071D02*
X150900094Y-63070071D01*
X150900094Y-63070071D02*
X150842951Y-63041500D01*
X150842951Y-63041500D02*
X150814380Y-63012928D01*
X151442952Y-62841500D02*
X151900095Y-62841500D01*
X152185809Y-63070071D02*
X152185809Y-62470071D01*
X152185809Y-62470071D02*
X152385809Y-62898642D01*
X152385809Y-62898642D02*
X152585809Y-62470071D01*
X152585809Y-62470071D02*
X152585809Y-63070071D01*
X152871523Y-63070071D02*
X152871523Y-62470071D01*
X153157237Y-63070071D02*
X153157237Y-62470071D01*
X153157237Y-62470071D02*
X153500094Y-63070071D01*
X153500094Y-63070071D02*
X153500094Y-62470071D01*
X153785808Y-63070071D02*
X153785808Y-62470071D01*
X154071522Y-62841500D02*
X154528665Y-62841500D01*
X155128664Y-63070071D02*
X154785807Y-63070071D01*
X154957236Y-63070071D02*
X154957236Y-62470071D01*
X154957236Y-62470071D02*
X154900093Y-62555785D01*
X154900093Y-62555785D02*
X154842950Y-62612928D01*
X154842950Y-62612928D02*
X154785807Y-62641500D01*
X155385808Y-62470071D02*
X155385808Y-62955785D01*
X155385808Y-62955785D02*
X155414379Y-63012928D01*
X155414379Y-63012928D02*
X155442951Y-63041500D01*
X155442951Y-63041500D02*
X155500093Y-63070071D01*
X155500093Y-63070071D02*
X155614379Y-63070071D01*
X155614379Y-63070071D02*
X155671522Y-63041500D01*
X155671522Y-63041500D02*
X155700093Y-63012928D01*
X155700093Y-63012928D02*
X155728665Y-62955785D01*
X155728665Y-62955785D02*
X155728665Y-62470071D01*
D12*
%TO.C,G\u002A\u002A\u002A*%
G36*
X157910299Y-85070366D02*
G01*
X158058433Y-85084606D01*
X158183263Y-85106891D01*
X158241833Y-85125277D01*
X158356548Y-85188614D01*
X158457675Y-85269938D01*
X158522691Y-85349112D01*
X158535000Y-85387375D01*
X158567137Y-85402759D01*
X158617854Y-85395843D01*
X158715597Y-85405566D01*
X158817854Y-85460785D01*
X158935000Y-85547394D01*
X158935000Y-85486048D01*
X159099400Y-85486048D01*
X159105418Y-85583239D01*
X159111352Y-85609917D01*
X159163661Y-85651805D01*
X159250424Y-85663498D01*
X159331435Y-85643551D01*
X159358819Y-85618819D01*
X159363810Y-85591702D01*
X159337031Y-85603744D01*
X159321066Y-85597640D01*
X159346316Y-85545000D01*
X159415000Y-85545000D01*
X159428647Y-85583960D01*
X159432639Y-85585000D01*
X159466790Y-85556970D01*
X159475000Y-85545000D01*
X159471828Y-85508140D01*
X159457360Y-85505000D01*
X159416627Y-85534036D01*
X159415000Y-85545000D01*
X159346316Y-85545000D01*
X159347797Y-85541913D01*
X159355451Y-85529924D01*
X159413748Y-85456484D01*
X159458913Y-85425018D01*
X159459600Y-85425000D01*
X159489140Y-85391740D01*
X159495000Y-85351199D01*
X159459457Y-85252524D01*
X159370242Y-85179134D01*
X159253475Y-85150556D01*
X159228537Y-85152001D01*
X159159902Y-85166667D01*
X159124200Y-85205001D01*
X159107939Y-85289281D01*
X159102607Y-85359917D01*
X159099400Y-85486048D01*
X158935000Y-85486048D01*
X158935000Y-85346197D01*
X158929063Y-85221319D01*
X158907927Y-85159692D01*
X158872639Y-85145000D01*
X158831237Y-85125608D01*
X158835000Y-85105000D01*
X158887490Y-85082640D01*
X158995368Y-85069736D01*
X159134612Y-85066053D01*
X159281198Y-85071358D01*
X159411103Y-85085418D01*
X159500305Y-85108000D01*
X159507629Y-85111533D01*
X159613882Y-85190486D01*
X159681416Y-85283535D01*
X159693727Y-85331739D01*
X159721586Y-85392771D01*
X159789497Y-85481917D01*
X159877206Y-85577591D01*
X159964462Y-85658208D01*
X160031013Y-85702180D01*
X160043922Y-85705000D01*
X160080535Y-85725476D01*
X160075932Y-85743491D01*
X160024854Y-85762073D01*
X159944624Y-85729798D01*
X159855881Y-85658428D01*
X159793663Y-85582641D01*
X159728164Y-85494356D01*
X159683571Y-85473680D01*
X159641103Y-85518758D01*
X159615000Y-85565000D01*
X159568983Y-85637615D01*
X159538240Y-85665612D01*
X159487935Y-85684945D01*
X159460320Y-85700865D01*
X159438057Y-85734227D01*
X159453609Y-85794610D01*
X159512104Y-85897456D01*
X159539906Y-85940600D01*
X159622689Y-86053757D01*
X159699889Y-86137217D01*
X159744586Y-86168042D01*
X159808743Y-86204318D01*
X159801537Y-86239890D01*
X159730750Y-86262406D01*
X159683483Y-86265000D01*
X159611421Y-86258001D01*
X159551828Y-86227553D01*
X159488166Y-86159482D01*
X159403896Y-86039610D01*
X159382181Y-86006755D01*
X159272736Y-85856208D01*
X159190598Y-85780219D01*
X159134491Y-85778629D01*
X159103139Y-85851274D01*
X159095000Y-85970534D01*
X159108119Y-86104306D01*
X159148520Y-86167543D01*
X159155000Y-86170534D01*
X159212943Y-86207383D01*
X159198931Y-86239499D01*
X159120988Y-86260435D01*
X159037360Y-86265000D01*
X158917381Y-86255524D01*
X158844758Y-86231503D01*
X158830824Y-86199548D01*
X158875229Y-86170446D01*
X158912458Y-86129033D01*
X158931164Y-86032269D01*
X158934951Y-85916255D01*
X158927203Y-85764611D01*
X158898300Y-85660946D01*
X158840297Y-85575000D01*
X158754069Y-85500842D01*
X158668809Y-85465488D01*
X158660346Y-85465000D01*
X158610944Y-85473346D01*
X158585367Y-85511280D01*
X158576002Y-85598147D01*
X158575000Y-85681930D01*
X158566078Y-85829975D01*
X158531973Y-85935173D01*
X158470235Y-86023367D01*
X158355863Y-86138213D01*
X158231246Y-86211463D01*
X158075096Y-86250991D01*
X157866125Y-86264672D01*
X157816986Y-86265000D01*
X157642584Y-86259103D01*
X157532653Y-86242511D01*
X157491767Y-86216876D01*
X157523356Y-86185000D01*
X157772609Y-86185000D01*
X157887835Y-86185000D01*
X158014757Y-86170619D01*
X158119031Y-86143330D01*
X158263629Y-86050415D01*
X158362127Y-85894576D01*
X158394093Y-85789125D01*
X158411189Y-85700453D01*
X158399632Y-85677401D01*
X158347954Y-85707459D01*
X158330444Y-85719688D01*
X158235040Y-85768722D01*
X158162764Y-85785000D01*
X158093072Y-85756913D01*
X158000438Y-85687307D01*
X157907954Y-85598166D01*
X157838714Y-85511471D01*
X157815346Y-85454272D01*
X157839475Y-85452248D01*
X157901207Y-85499353D01*
X157957866Y-85555000D01*
X158078470Y-85661877D01*
X158180599Y-85699724D01*
X158279920Y-85671858D01*
X158333192Y-85634506D01*
X158391208Y-85573226D01*
X158395014Y-85505556D01*
X158376090Y-85447867D01*
X158277341Y-85288592D01*
X158131940Y-85184968D01*
X157956616Y-85147171D01*
X157889068Y-85151684D01*
X157850344Y-85160023D01*
X157823679Y-85180966D01*
X157806404Y-85227786D01*
X157795848Y-85313755D01*
X157789343Y-85452145D01*
X157784217Y-85656230D01*
X157783804Y-85675000D01*
X157772609Y-86185000D01*
X157523356Y-86185000D01*
X157524501Y-86183845D01*
X157555000Y-86170534D01*
X157585703Y-86140534D01*
X157604346Y-86069832D01*
X157613271Y-85944192D01*
X157615000Y-85806140D01*
X157615000Y-85464769D01*
X157470345Y-85624884D01*
X157375391Y-85715314D01*
X157288971Y-85773368D01*
X157250345Y-85785000D01*
X157209411Y-85794433D01*
X157186584Y-85834353D01*
X157176813Y-85922188D01*
X157175000Y-86045000D01*
X157169070Y-86200815D01*
X157150387Y-86284389D01*
X157125000Y-86303895D01*
X157081760Y-86273149D01*
X157003975Y-86190888D01*
X156903703Y-86070617D01*
X156819979Y-85962238D01*
X156706305Y-85812070D01*
X156628964Y-85717406D01*
X156577013Y-85669217D01*
X156539505Y-85658472D01*
X156505497Y-85676142D01*
X156489734Y-85689765D01*
X156423311Y-85730620D01*
X156384754Y-85727978D01*
X156389960Y-85684899D01*
X156441575Y-85627918D01*
X156528150Y-85557723D01*
X156470088Y-85486707D01*
X156695000Y-85486707D01*
X156717178Y-85527179D01*
X156775555Y-85613323D01*
X156857893Y-85727145D01*
X156865000Y-85736707D01*
X157035000Y-85965000D01*
X157047461Y-85835970D01*
X157027896Y-85693694D01*
X156977461Y-85618427D01*
X156918702Y-85545615D01*
X156895000Y-85497457D01*
X156860726Y-85473046D01*
X156795000Y-85465000D01*
X156719751Y-85472449D01*
X156695000Y-85486707D01*
X156470088Y-85486707D01*
X156433013Y-85441361D01*
X156337877Y-85325000D01*
X156336438Y-85738744D01*
X156337001Y-85925482D01*
X156342045Y-86047225D01*
X156354264Y-86118958D01*
X156376351Y-86155666D01*
X156411001Y-86172335D01*
X156414550Y-86173292D01*
X156472686Y-86202847D01*
X156462823Y-86234624D01*
X156395996Y-86258455D01*
X156315000Y-86265000D01*
X156212466Y-86253339D01*
X156156775Y-86225010D01*
X156160563Y-86189987D01*
X156195229Y-86170446D01*
X156240408Y-86111323D01*
X156255000Y-85992060D01*
X156245294Y-85893184D01*
X156207083Y-85806436D01*
X156126723Y-85706034D01*
X156074414Y-85650804D01*
X155975658Y-85555035D01*
X155895636Y-85487949D01*
X155854414Y-85465000D01*
X155816140Y-85434543D01*
X155815000Y-85425000D01*
X155837262Y-85385502D01*
X155899602Y-85407526D01*
X155995351Y-85487673D01*
X156050496Y-85545000D01*
X156136783Y-85633978D01*
X156202617Y-85692069D01*
X156225875Y-85705000D01*
X156240230Y-85668382D01*
X156250632Y-85572019D01*
X156254977Y-85436143D01*
X156255000Y-85425000D01*
X156251471Y-85272871D01*
X156238783Y-85185803D01*
X156213784Y-85149082D01*
X156195000Y-85145000D01*
X156141769Y-85123401D01*
X156135000Y-85105000D01*
X156169542Y-85076080D01*
X156246110Y-85065000D01*
X156337507Y-85083258D01*
X156423660Y-85146470D01*
X156520009Y-85267287D01*
X156553206Y-85316649D01*
X156624867Y-85388015D01*
X156717758Y-85394262D01*
X156718312Y-85394156D01*
X156816126Y-85401804D01*
X156919633Y-85470769D01*
X156937454Y-85487351D01*
X157055000Y-85599967D01*
X157055000Y-85372483D01*
X157050268Y-85238534D01*
X157033142Y-85168155D01*
X156999229Y-85145316D01*
X156992639Y-85145000D01*
X156951237Y-85125608D01*
X156955000Y-85105000D01*
X157007446Y-85079432D01*
X157106928Y-85065730D01*
X157137360Y-85065000D01*
X157236677Y-85073995D01*
X157291332Y-85096429D01*
X157295000Y-85105000D01*
X157262601Y-85140487D01*
X157235000Y-85145000D01*
X157202400Y-85161466D01*
X157183743Y-85220675D01*
X157175874Y-85337340D01*
X157175000Y-85425000D01*
X157177480Y-85572948D01*
X157187855Y-85657748D01*
X157210523Y-85696171D01*
X157248438Y-85705000D01*
X157330063Y-85672322D01*
X157426135Y-85589286D01*
X157518050Y-85478387D01*
X157587203Y-85362122D01*
X157614993Y-85262987D01*
X157615000Y-85261739D01*
X157596693Y-85168875D01*
X157555000Y-85145000D01*
X157501769Y-85123401D01*
X157495000Y-85105000D01*
X157531212Y-85081488D01*
X157626175Y-85068251D01*
X157759375Y-85064729D01*
X157910299Y-85070366D01*
G37*
G36*
X155818076Y-85075126D02*
G01*
X155886507Y-85101118D01*
X155891562Y-85136396D01*
X155835000Y-85170534D01*
X155809147Y-85194395D01*
X155791667Y-85250853D01*
X155781117Y-85352357D01*
X155776059Y-85511355D01*
X155775000Y-85689279D01*
X155776434Y-85900052D01*
X155781711Y-86042935D01*
X155792293Y-86130004D01*
X155809641Y-86173333D01*
X155835000Y-86185000D01*
X155888230Y-86206598D01*
X155895000Y-86225000D01*
X155859025Y-86247817D01*
X155767043Y-86262300D01*
X155695000Y-86265000D01*
X155580901Y-86258573D01*
X155508488Y-86242142D01*
X155495000Y-86229279D01*
X155526832Y-86185552D01*
X155555000Y-86170534D01*
X155588832Y-86135705D01*
X155607792Y-86053878D01*
X155614780Y-85910423D01*
X155615000Y-85868073D01*
X155615000Y-85588636D01*
X155516818Y-85686818D01*
X155419701Y-85766849D01*
X155352000Y-85779125D01*
X155315000Y-85745000D01*
X155326166Y-85712545D01*
X155365116Y-85705000D01*
X155453465Y-85668858D01*
X155533940Y-85575383D01*
X155592474Y-85447004D01*
X155615000Y-85306619D01*
X155605290Y-85194758D01*
X155573026Y-85148209D01*
X155555000Y-85145000D01*
X155501769Y-85123401D01*
X155495000Y-85105000D01*
X155530974Y-85082182D01*
X155622956Y-85067699D01*
X155695000Y-85065000D01*
X155818076Y-85075126D01*
G37*
G36*
X160404248Y-85065823D02*
G01*
X160454359Y-85144893D01*
X160479856Y-85201993D01*
X160531366Y-85307636D01*
X160579081Y-85373691D01*
X160598574Y-85384850D01*
X160647603Y-85412292D01*
X160728816Y-85483017D01*
X160798270Y-85553736D01*
X160888979Y-85645626D01*
X160941167Y-85680218D01*
X160965133Y-85663594D01*
X160967628Y-85653736D01*
X160978784Y-85629704D01*
X161008725Y-85611981D01*
X161068050Y-85599625D01*
X161167359Y-85591693D01*
X161317251Y-85587243D01*
X161528324Y-85585333D01*
X161740725Y-85585000D01*
X162500585Y-85585000D01*
X162679993Y-85461564D01*
X162816744Y-85384118D01*
X162914697Y-85363975D01*
X162967497Y-85401499D01*
X162975000Y-85444734D01*
X163008469Y-85503831D01*
X163075000Y-85545000D01*
X163147585Y-85604712D01*
X163179897Y-85694319D01*
X163169906Y-85784514D01*
X163115586Y-85845992D01*
X163096324Y-85853063D01*
X163019517Y-85904726D01*
X162993629Y-85949318D01*
X162939415Y-86010790D01*
X162845956Y-86018085D01*
X162732609Y-85971484D01*
X162695000Y-85945000D01*
X162654702Y-85918078D01*
X162604579Y-85898091D01*
X162532908Y-85884003D01*
X162427964Y-85874775D01*
X162278025Y-85869370D01*
X162071369Y-85866752D01*
X161800731Y-85865889D01*
X161006462Y-85865000D01*
X160810731Y-85656519D01*
X160716117Y-85560849D01*
X160646638Y-85500326D01*
X160615537Y-85486302D01*
X160615000Y-85488752D01*
X160630159Y-85571041D01*
X160669682Y-85693122D01*
X160724634Y-85834207D01*
X160786082Y-85973507D01*
X160845092Y-86090235D01*
X160892730Y-86163604D01*
X160911224Y-86178027D01*
X160963563Y-86200778D01*
X160950584Y-86227874D01*
X160886063Y-86251645D01*
X160783775Y-86264421D01*
X160755000Y-86265000D01*
X160636740Y-86255463D01*
X160564436Y-86231404D01*
X160549958Y-86199645D01*
X160592396Y-86171533D01*
X160629495Y-86128877D01*
X160619289Y-86037342D01*
X160595796Y-85972331D01*
X160555198Y-85938877D01*
X160474713Y-85926585D01*
X160373085Y-85925000D01*
X160246628Y-85928354D01*
X160176194Y-85945652D01*
X160137865Y-85987744D01*
X160115963Y-86041646D01*
X160094700Y-86131005D01*
X160116289Y-86171365D01*
X160125000Y-86174979D01*
X160176380Y-86207403D01*
X160159334Y-86238984D01*
X160085007Y-86260601D01*
X160015000Y-86265000D01*
X159914801Y-86256568D01*
X159859076Y-86235504D01*
X159855000Y-86226987D01*
X159885412Y-86176776D01*
X159914157Y-86155869D01*
X159948464Y-86107465D01*
X160001004Y-85998053D01*
X160065245Y-85842699D01*
X160103985Y-85738757D01*
X160215255Y-85738757D01*
X160230649Y-85792831D01*
X160317582Y-85821702D01*
X160379279Y-85825000D01*
X160482894Y-85819434D01*
X160523020Y-85797867D01*
X160519108Y-85761283D01*
X160490962Y-85673782D01*
X160468861Y-85591283D01*
X160430405Y-85481727D01*
X160393716Y-85412787D01*
X160357649Y-85371100D01*
X160331299Y-85388353D01*
X160301287Y-85464157D01*
X160281303Y-85543020D01*
X160292766Y-85565935D01*
X160296603Y-85564009D01*
X160331759Y-85558681D01*
X160328668Y-85595218D01*
X160292718Y-85648433D01*
X160275000Y-85665000D01*
X160215255Y-85738757D01*
X160103985Y-85738757D01*
X160134656Y-85656466D01*
X160151447Y-85608591D01*
X160219571Y-85416944D01*
X160281464Y-85251958D01*
X160331199Y-85128797D01*
X160362848Y-85062623D01*
X160367146Y-85056853D01*
X160404248Y-85065823D01*
G37*
G36*
X152936330Y-85219431D02*
G01*
X152992756Y-85300305D01*
X153014422Y-85357904D01*
X152996745Y-85374974D01*
X152975000Y-85365000D01*
X152945691Y-85379542D01*
X152935000Y-85447537D01*
X152928565Y-85519386D01*
X152900572Y-85523806D01*
X152874033Y-85504197D01*
X152831260Y-85472066D01*
X152801493Y-85475523D01*
X152767472Y-85527332D01*
X152724221Y-85615000D01*
X152685774Y-85700898D01*
X152686677Y-85737076D01*
X152729652Y-85744939D01*
X152740761Y-85745000D01*
X152798154Y-85761717D01*
X152795268Y-85824152D01*
X152795079Y-85824748D01*
X152788040Y-85881879D01*
X152829153Y-85881683D01*
X152832384Y-85880468D01*
X152882157Y-85883740D01*
X152895000Y-85943081D01*
X152910381Y-86002687D01*
X152938990Y-86002533D01*
X152962803Y-86000132D01*
X152939960Y-86055723D01*
X152938775Y-86057945D01*
X152879407Y-86144901D01*
X152836123Y-86161389D01*
X152815735Y-86105967D01*
X152815000Y-86084098D01*
X152815000Y-85978475D01*
X152675000Y-86065000D01*
X152577616Y-86111064D01*
X152534797Y-86100083D01*
X152550515Y-86036988D01*
X152596272Y-85967354D01*
X152641826Y-85895810D01*
X152655000Y-85859182D01*
X152618441Y-85842289D01*
X152522503Y-85827135D01*
X152387793Y-85816951D01*
X152385000Y-85816827D01*
X152115000Y-85805000D01*
X152315000Y-85730591D01*
X152439325Y-85685089D01*
X152537928Y-85650329D01*
X152571945Y-85639181D01*
X152582640Y-85607264D01*
X152527442Y-85536135D01*
X152451945Y-85464725D01*
X152353581Y-85370236D01*
X152321916Y-85319828D01*
X152357769Y-85312201D01*
X152461957Y-85346053D01*
X152513419Y-85366917D01*
X152598469Y-85399827D01*
X152639240Y-85399627D01*
X152640315Y-85354192D01*
X152606275Y-85251400D01*
X152581785Y-85186019D01*
X152589728Y-85163907D01*
X152649991Y-85198713D01*
X152672668Y-85216019D01*
X152773758Y-85286047D01*
X152830875Y-85297132D01*
X152854201Y-85249218D01*
X152856330Y-85215000D01*
X152857661Y-85125000D01*
X152936330Y-85219431D01*
G37*
G36*
X164065000Y-85492126D02*
G01*
X164084101Y-85539645D01*
X164094412Y-85635996D01*
X164095000Y-85667360D01*
X164107515Y-85771834D01*
X164152495Y-85821735D01*
X164241090Y-85820584D01*
X164384449Y-85771904D01*
X164402426Y-85764474D01*
X164514248Y-85722962D01*
X164561285Y-85717620D01*
X164548020Y-85744593D01*
X164478937Y-85800030D01*
X164358519Y-85880076D01*
X164191250Y-85980879D01*
X164071017Y-86049300D01*
X163895000Y-86147570D01*
X163895000Y-85946285D01*
X163889202Y-85831759D01*
X163874370Y-85758850D01*
X163862584Y-85745000D01*
X163811395Y-85758669D01*
X163708292Y-85794512D01*
X163575554Y-85844782D01*
X163575000Y-85845000D01*
X163411783Y-85906662D01*
X163308791Y-85935577D01*
X163252580Y-85930202D01*
X163229710Y-85888991D01*
X163226740Y-85810401D01*
X163226886Y-85805000D01*
X163240375Y-85706156D01*
X163279735Y-85667604D01*
X163302927Y-85665000D01*
X163363313Y-85692346D01*
X163375000Y-85725000D01*
X163382484Y-85778374D01*
X163388743Y-85785000D01*
X163428335Y-85768577D01*
X163522503Y-85724672D01*
X163654147Y-85661331D01*
X163718743Y-85629765D01*
X163863347Y-85562219D01*
X163980637Y-85513823D01*
X164052556Y-85491754D01*
X164065000Y-85492126D01*
G37*
G36*
X155255000Y-85699855D02*
G01*
X155255000Y-85865000D01*
X154325000Y-85861142D01*
X154025135Y-85857867D01*
X153748899Y-85850978D01*
X153509652Y-85841057D01*
X153320754Y-85828687D01*
X153195562Y-85814450D01*
X153177975Y-85811142D01*
X153056056Y-85778552D01*
X152971235Y-85743338D01*
X152946981Y-85722016D01*
X152956394Y-85681992D01*
X153016183Y-85648462D01*
X153131272Y-85620798D01*
X153306589Y-85598368D01*
X153547060Y-85580544D01*
X153857611Y-85566696D01*
X154243168Y-85556196D01*
X154245000Y-85556157D01*
X155255000Y-85534710D01*
X155255000Y-85699855D01*
G37*
G36*
X160775000Y-85725000D02*
G01*
X160755000Y-85745000D01*
X160735000Y-85725000D01*
X160755000Y-85705000D01*
X160775000Y-85725000D01*
G37*
G36*
X160413837Y-85495438D02*
G01*
X160415000Y-85505000D01*
X160384561Y-85543837D01*
X160375000Y-85545000D01*
X160336162Y-85514561D01*
X160335000Y-85505000D01*
X160365438Y-85466162D01*
X160375000Y-85465000D01*
X160413837Y-85495438D01*
G37*
D13*
%TO.C,R6*%
X181364564Y-48390000D02*
X180910436Y-48390000D01*
X181364564Y-49860000D02*
X180910436Y-49860000D01*
%TO.C,J7*%
X178490000Y-72585000D02*
X178490000Y-72135000D01*
X178490000Y-72585000D02*
X178880000Y-72585000D01*
X179190000Y-67015000D02*
X179190000Y-67665000D01*
X179190000Y-74635000D02*
X179190000Y-73975000D01*
X180920000Y-67015000D02*
X179190000Y-67015000D01*
X180920000Y-74635000D02*
X179190000Y-74635000D01*
X183490000Y-67015000D02*
X183280000Y-67015000D01*
X183490000Y-74635000D02*
X183280000Y-74635000D01*
%TO.C,R12*%
X157990000Y-59197936D02*
X157990000Y-59652064D01*
X159460000Y-59197936D02*
X159460000Y-59652064D01*
%TO.C,C31*%
X146115000Y-82313748D02*
X146115000Y-82836252D01*
X147585000Y-82313748D02*
X147585000Y-82836252D01*
%TO.C,U8*%
X158990000Y-97890000D02*
X160250000Y-97890000D01*
X158990000Y-101650000D02*
X158990000Y-97890000D01*
X165810000Y-97890000D02*
X164550000Y-97890000D01*
X165810000Y-101650000D02*
X165810000Y-97890000D01*
X159090000Y-102930000D02*
X158760000Y-103170000D01*
X158760000Y-102690000D01*
X159090000Y-102930000D01*
G36*
X159090000Y-102930000D02*
G01*
X158760000Y-103170000D01*
X158760000Y-102690000D01*
X159090000Y-102930000D01*
G37*
%TO.C,TP2*%
X121770000Y-83520000D02*
G75*
G02*
X120370000Y-83520000I-700000J0D01*
G01*
X120370000Y-83520000D02*
G75*
G02*
X121770000Y-83520000I700000J0D01*
G01*
%TO.C,J2*%
X119815000Y-86965000D02*
X119815000Y-101025000D01*
X119815000Y-86965000D02*
X121375000Y-86965000D01*
X121725000Y-103135000D02*
X124125000Y-103135000D01*
X123425000Y-86965000D02*
X122875000Y-86965000D01*
X124135000Y-103125000D02*
X124635000Y-102635000D01*
X124635000Y-102185000D02*
X124635000Y-102635000D01*
X132665000Y-102185000D02*
X124635000Y-102185000D01*
X132665000Y-102185000D02*
X132665000Y-102635000D01*
X133275000Y-86965000D02*
X133785000Y-86965000D01*
X133785000Y-86965000D02*
X133785000Y-90575000D01*
X133785000Y-92275000D02*
X133785000Y-96975000D01*
X133785000Y-98275000D02*
X133785000Y-99375000D01*
%TO.C,D6*%
X160140000Y-57765000D02*
X160140000Y-60450000D01*
X162060000Y-57765000D02*
X160140000Y-57765000D01*
X162060000Y-60450000D02*
X162060000Y-57765000D01*
%TO.C,C24*%
X151301252Y-48145000D02*
X150778748Y-48145000D01*
X151301252Y-49615000D02*
X150778748Y-49615000D01*
%TO.C,TP8*%
X114120000Y-93300000D02*
G75*
G02*
X112720000Y-93300000I-700000J0D01*
G01*
X112720000Y-93300000D02*
G75*
G02*
X114120000Y-93300000I700000J0D01*
G01*
%TO.C,C5*%
X107863752Y-83085000D02*
X107341248Y-83085000D01*
X107863752Y-84555000D02*
X107341248Y-84555000D01*
D14*
%TO.C,IC1*%
X140900000Y-102567000D02*
X152933000Y-102567000D01*
X140900000Y-114633000D02*
X140900000Y-102567000D01*
X143900000Y-118600000D02*
X145900000Y-121600000D01*
X144900000Y-114600000D02*
X144900000Y-118600000D01*
X144900000Y-118600000D02*
X143900000Y-118600000D01*
X144900000Y-118600000D02*
X147900000Y-118600000D01*
X145900000Y-121600000D02*
X146900000Y-121600000D01*
X146900000Y-121600000D02*
X148900000Y-118600000D01*
X147900000Y-118600000D02*
X147900000Y-114633000D01*
X148900000Y-118600000D02*
X147900000Y-118600000D01*
X152933000Y-102567000D02*
X152933000Y-114633000D01*
X152933000Y-114633000D02*
X140900000Y-114633000D01*
D15*
X157100000Y-112400000D02*
X157100000Y-112400000D01*
X157300000Y-112400000D02*
X157300000Y-112400000D01*
X157100000Y-112400000D02*
G75*
G02*
X157300000Y-112400000I100000J0D01*
G01*
X157300000Y-112400000D02*
G75*
G02*
X157100000Y-112400000I-100000J0D01*
G01*
D13*
%TO.C,R9*%
X110915000Y-70087064D02*
X110915000Y-69632936D01*
X112385000Y-70087064D02*
X112385000Y-69632936D01*
D16*
%TO.C,U2*%
X115468399Y-68908700D02*
X115468399Y-69574561D01*
X115468399Y-71494039D02*
X115468399Y-72159900D01*
X115468399Y-72159900D02*
X115630258Y-72159900D01*
X115630258Y-68908700D02*
X115468399Y-68908700D01*
X118049740Y-72159900D02*
X118211599Y-72159900D01*
X118211599Y-68908700D02*
X118049740Y-68908700D01*
X118211599Y-69574561D02*
X118211599Y-68908700D01*
X118211599Y-72159900D02*
X118211599Y-71494039D01*
D12*
G36*
X117280499Y-72847100D02*
G01*
X116899498Y-72847100D01*
X116899498Y-72593100D01*
X117280499Y-72593100D01*
X117280499Y-72847100D01*
G37*
D13*
%TO.C,C23*%
X121213748Y-51290000D02*
X121736252Y-51290000D01*
X121213748Y-52760000D02*
X121736252Y-52760000D01*
%TO.C,D7*%
X155490000Y-58425000D02*
X155490000Y-61110000D01*
X155490000Y-61110000D02*
X157410000Y-61110000D01*
X157410000Y-61110000D02*
X157410000Y-58425000D01*
%TO.C,C13*%
X177121252Y-48395000D02*
X176598748Y-48395000D01*
X177121252Y-49865000D02*
X176598748Y-49865000D01*
%TO.C,TP14*%
X153200000Y-54250000D02*
G75*
G02*
X151800000Y-54250000I-700000J0D01*
G01*
X151800000Y-54250000D02*
G75*
G02*
X153200000Y-54250000I700000J0D01*
G01*
%TO.C,J11*%
X106390000Y-94870000D02*
X106390000Y-105030000D01*
X106390000Y-105030000D02*
X114010000Y-105030000D01*
X107660000Y-105030000D02*
X107660000Y-94870000D01*
X114010000Y-94870000D02*
X106390000Y-94870000D01*
X114010000Y-105030000D02*
X114010000Y-94870000D01*
%TO.C,TP12*%
X163250000Y-49500000D02*
G75*
G02*
X161850000Y-49500000I-700000J0D01*
G01*
X161850000Y-49500000D02*
G75*
G02*
X163250000Y-49500000I700000J0D01*
G01*
D14*
%TO.C,IC2*%
X166758500Y-77692000D02*
X178824500Y-77692000D01*
X166758500Y-89725000D02*
X166758500Y-77692000D01*
D15*
X176591500Y-73325000D02*
X176591500Y-73325000D01*
X176591500Y-73525000D02*
X176591500Y-73525000D01*
D14*
X178791500Y-85725000D02*
X182791500Y-85725000D01*
X178824500Y-77692000D02*
X178824500Y-89725000D01*
X178824500Y-89725000D02*
X166758500Y-89725000D01*
X182791500Y-81725000D02*
X182791500Y-82725000D01*
X182791500Y-82725000D02*
X178824500Y-82725000D01*
X182791500Y-85725000D02*
X182791500Y-82725000D01*
X182791500Y-85725000D02*
X182791500Y-86725000D01*
X182791500Y-86725000D02*
X185791500Y-84725000D01*
X185791500Y-83725000D02*
X182791500Y-81725000D01*
X185791500Y-84725000D02*
X185791500Y-83725000D01*
D15*
X176591500Y-73325000D02*
G75*
G02*
X176591500Y-73525000I0J-100000D01*
G01*
X176591500Y-73525000D02*
G75*
G02*
X176591500Y-73325000I0J100000D01*
G01*
D13*
%TO.C,C3*%
X114641252Y-80585000D02*
X114118748Y-80585000D01*
X114641252Y-82055000D02*
X114118748Y-82055000D01*
%TO.C,J8*%
X173265000Y-94445000D02*
X173265000Y-104605000D01*
X173265000Y-104605000D02*
X180885000Y-104605000D01*
X179615000Y-94445000D02*
X179615000Y-104605000D01*
X180885000Y-94445000D02*
X173265000Y-94445000D01*
X180885000Y-104605000D02*
X180885000Y-94445000D01*
%TO.C,U5*%
X121300000Y-60150000D02*
X122400000Y-60150000D01*
X121350000Y-79650000D02*
X121350000Y-78650000D01*
X121350000Y-79650000D02*
X122350000Y-79650000D01*
X121500000Y-60300000D02*
X121500000Y-60800000D01*
X121500000Y-78650000D02*
X121500000Y-79500000D01*
X121500000Y-79500000D02*
X122800000Y-79500000D01*
X139500000Y-60300000D02*
X121500000Y-60300000D01*
X139500000Y-60300000D02*
X139500000Y-60800000D01*
X139500000Y-78750000D02*
X139500000Y-79500000D01*
X139500000Y-79500000D02*
X138150000Y-79500000D01*
X139650000Y-60150000D02*
X138650000Y-60150000D01*
X139650000Y-60800000D02*
X139650000Y-60150000D01*
X139650000Y-78750000D02*
X139650000Y-79650000D01*
X139650000Y-79650000D02*
X138650000Y-79650000D01*
%TO.C,D4*%
X136712500Y-51835000D02*
X139397500Y-51835000D01*
X139397500Y-49915000D02*
X136712500Y-49915000D01*
X139397500Y-51835000D02*
X139397500Y-49915000D01*
%TO.C,C15*%
X171065000Y-48961252D02*
X171065000Y-48438748D01*
X172535000Y-48961252D02*
X172535000Y-48438748D01*
%TO.C,R8*%
X137555436Y-47040000D02*
X138009564Y-47040000D01*
X137555436Y-48510000D02*
X138009564Y-48510000D01*
%TO.C,C21*%
X156615000Y-100113748D02*
X156615000Y-100636252D01*
X158085000Y-100113748D02*
X158085000Y-100636252D01*
%TO.C,R2*%
X107914564Y-89865000D02*
X107460436Y-89865000D01*
X107914564Y-91335000D02*
X107460436Y-91335000D01*
%TO.C,R7*%
X117065000Y-109972936D02*
X117065000Y-110427064D01*
X118535000Y-109972936D02*
X118535000Y-110427064D01*
%TO.C,U3*%
X112372500Y-76810000D02*
X111372500Y-76810000D01*
X112372500Y-79530000D02*
X111372500Y-79530000D01*
X110982500Y-76860000D02*
X110702500Y-76860000D01*
X110982500Y-76580000D01*
X110982500Y-76860000D01*
G36*
X110982500Y-76860000D02*
G01*
X110702500Y-76860000D01*
X110982500Y-76580000D01*
X110982500Y-76860000D01*
G37*
%TO.C,R1*%
X129665000Y-83822936D02*
X129665000Y-84277064D01*
X131135000Y-83822936D02*
X131135000Y-84277064D01*
%TO.C,C32*%
X143065000Y-82263748D02*
X143065000Y-82786252D01*
X144535000Y-82263748D02*
X144535000Y-82786252D01*
%TO.C,C8*%
X116495000Y-74258748D02*
X116495000Y-74781252D01*
X117965000Y-74258748D02*
X117965000Y-74781252D01*
%TO.C,C22*%
X153740000Y-100611252D02*
X153740000Y-100088748D01*
X155210000Y-100611252D02*
X155210000Y-100088748D01*
%TO.C,C1*%
X116790000Y-94038748D02*
X116790000Y-94561252D01*
X118260000Y-94038748D02*
X118260000Y-94561252D01*
%TO.C,J6*%
X154880000Y-38190000D02*
X154880000Y-45810000D01*
X154880000Y-39460000D02*
X165040000Y-39460000D01*
X154880000Y-45810000D02*
X165040000Y-45810000D01*
X165040000Y-38190000D02*
X154880000Y-38190000D01*
X165040000Y-45810000D02*
X165040000Y-38190000D01*
%TO.C,R5*%
X135240436Y-80755000D02*
X135694564Y-80755000D01*
X135240436Y-82225000D02*
X135694564Y-82225000D01*
%TO.C,R3*%
X138139564Y-57490000D02*
X137685436Y-57490000D01*
X138139564Y-58960000D02*
X137685436Y-58960000D01*
%TO.C,TP16*%
X168010000Y-98830000D02*
G75*
G02*
X166610000Y-98830000I-700000J0D01*
G01*
X166610000Y-98830000D02*
G75*
G02*
X168010000Y-98830000I700000J0D01*
G01*
D16*
%TO.C,U10*%
X141443500Y-49199900D02*
X141443500Y-55676900D01*
X141443500Y-55676900D02*
X144364500Y-55676900D01*
X142418860Y-49199900D02*
X141443500Y-49199900D01*
X144364500Y-55676900D02*
X144364500Y-56692900D01*
X144364500Y-56692900D02*
X145507500Y-56692900D01*
X145507500Y-55676900D02*
X148428500Y-55676900D01*
X145507500Y-56692900D02*
X145507500Y-55676900D01*
X148428500Y-49199900D02*
X147453140Y-49199900D01*
X148428500Y-55676900D02*
X148428500Y-49199900D01*
D13*
%TO.C,TP3*%
X159500000Y-62240000D02*
G75*
G02*
X158100000Y-62240000I-700000J0D01*
G01*
X158100000Y-62240000D02*
G75*
G02*
X159500000Y-62240000I700000J0D01*
G01*
%TO.C,C14*%
X168440000Y-49011252D02*
X168440000Y-48488748D01*
X169910000Y-49011252D02*
X169910000Y-48488748D01*
%TO.C,C20*%
X167813748Y-100715000D02*
X168336252Y-100715000D01*
X167813748Y-102185000D02*
X168336252Y-102185000D01*
%TO.C,C10*%
X122511252Y-57765000D02*
X121988748Y-57765000D01*
X122511252Y-59235000D02*
X121988748Y-59235000D01*
%TO.C,C17*%
X171051252Y-65425000D02*
X170528748Y-65425000D01*
X171051252Y-66895000D02*
X170528748Y-66895000D01*
%TO.C,U13*%
X176337500Y-69065000D02*
X177337500Y-69065000D01*
X176337500Y-71785000D02*
X177337500Y-71785000D01*
X177727500Y-72015000D02*
X177727500Y-71735000D01*
X178007500Y-71735000D01*
X177727500Y-72015000D01*
G36*
X177727500Y-72015000D02*
G01*
X177727500Y-71735000D01*
X178007500Y-71735000D01*
X177727500Y-72015000D01*
G37*
%TO.C,SW1*%
X133200000Y-52850000D02*
X133200000Y-54050000D01*
X133200000Y-55650000D02*
X133200000Y-56850000D01*
X133200000Y-56850000D02*
X139600000Y-56850000D01*
X139600000Y-52850000D02*
X133200000Y-52850000D01*
X139600000Y-54050000D02*
X139600000Y-52850000D01*
X139600000Y-56850000D02*
X139600000Y-55650000D01*
%TO.C,D1*%
X106712500Y-93785000D02*
X109397500Y-93785000D01*
X109397500Y-91865000D02*
X106712500Y-91865000D01*
X109397500Y-93785000D02*
X109397500Y-91865000D01*
%TO.C,L2*%
X171117122Y-63280000D02*
X170317878Y-63280000D01*
X171117122Y-64400000D02*
X170317878Y-64400000D01*
D17*
%TO.C,J10*%
X105650000Y-47275000D02*
X108250000Y-47275000D01*
X105650000Y-49875000D02*
X106280000Y-49875000D01*
X108250000Y-49875000D02*
X107620000Y-49875000D01*
D13*
%TO.C,C11*%
X137705000Y-84341252D02*
X137705000Y-83818748D01*
X139175000Y-84341252D02*
X139175000Y-83818748D01*
%TO.C,U15*%
X142920000Y-63750000D02*
X158520000Y-63750000D01*
X142920000Y-79350000D02*
X142920000Y-63750000D01*
X158520000Y-63750000D02*
X158520000Y-79350000D01*
X158520000Y-79350000D02*
X142920000Y-79350000D01*
X145010000Y-79861000D02*
X144530000Y-79861000D01*
X144770000Y-79525000D01*
X145010000Y-79861000D01*
G36*
X145010000Y-79861000D02*
G01*
X144530000Y-79861000D01*
X144770000Y-79525000D01*
X145010000Y-79861000D01*
G37*
%TO.C,U12*%
X153707500Y-50985000D02*
X153707500Y-54745000D01*
X153707500Y-54745000D02*
X154967500Y-54745000D01*
X160527500Y-50985000D02*
X160527500Y-54745000D01*
X160527500Y-54745000D02*
X159267500Y-54745000D01*
X160757500Y-49945000D02*
X160427500Y-49705000D01*
X160757500Y-49465000D01*
X160757500Y-49945000D01*
G36*
X160757500Y-49945000D02*
G01*
X160427500Y-49705000D01*
X160757500Y-49465000D01*
X160757500Y-49945000D01*
G37*
%TO.C,TP1*%
X119020000Y-83550000D02*
G75*
G02*
X117620000Y-83550000I-700000J0D01*
G01*
X117620000Y-83550000D02*
G75*
G02*
X119020000Y-83550000I700000J0D01*
G01*
%TO.C,C9*%
X122436252Y-55415000D02*
X121913748Y-55415000D01*
X122436252Y-56885000D02*
X121913748Y-56885000D01*
%TO.C,J1*%
X103740000Y-73940000D02*
X103950000Y-73940000D01*
X103740000Y-81560000D02*
X103950000Y-81560000D01*
X106310000Y-73940000D02*
X108040000Y-73940000D01*
X106310000Y-81560000D02*
X108040000Y-81560000D01*
X108040000Y-73940000D02*
X108040000Y-74600000D01*
X108040000Y-81560000D02*
X108040000Y-80910000D01*
X108740000Y-75990000D02*
X108350000Y-75990000D01*
X108740000Y-75990000D02*
X108740000Y-76440000D01*
D16*
%TO.C,U7*%
X124332500Y-49374900D02*
X124332500Y-55851900D01*
X124332500Y-55851900D02*
X127253500Y-55851900D01*
X125307860Y-49374900D02*
X124332500Y-49374900D01*
X127253500Y-55851900D02*
X127253500Y-56867900D01*
X127253500Y-56867900D02*
X128396500Y-56867900D01*
X128396500Y-55851900D02*
X131317500Y-55851900D01*
X128396500Y-56867900D02*
X128396500Y-55851900D01*
X131317500Y-49374900D02*
X130342140Y-49374900D01*
X131317500Y-55851900D02*
X131317500Y-49374900D01*
D13*
%TO.C,C4*%
X107913752Y-85335000D02*
X107391248Y-85335000D01*
X107913752Y-86805000D02*
X107391248Y-86805000D01*
%TO.C,U1*%
X112180000Y-85042500D02*
X112180000Y-86302500D01*
X112180000Y-91862500D02*
X112180000Y-90602500D01*
X115940000Y-85042500D02*
X112180000Y-85042500D01*
X115940000Y-91862500D02*
X112180000Y-91862500D01*
X117460000Y-92092500D02*
X116980000Y-92092500D01*
X117220000Y-91762500D01*
X117460000Y-92092500D01*
G36*
X117460000Y-92092500D02*
G01*
X116980000Y-92092500D01*
X117220000Y-91762500D01*
X117460000Y-92092500D01*
G37*
%TO.C,SW2*%
X160600000Y-65075000D02*
X160600000Y-66275000D01*
X160600000Y-67875000D02*
X160600000Y-69075000D01*
X160600000Y-69075000D02*
X167000000Y-69075000D01*
X167000000Y-65075000D02*
X160600000Y-65075000D01*
X167000000Y-66275000D02*
X167000000Y-65075000D01*
X167000000Y-69075000D02*
X167000000Y-67875000D01*
%TO.C,C12*%
X133663748Y-57465000D02*
X134186252Y-57465000D01*
X133663748Y-58935000D02*
X134186252Y-58935000D01*
%TO.C,D5*%
X106002500Y-87440000D02*
X106002500Y-89360000D01*
X106002500Y-89360000D02*
X108687500Y-89360000D01*
X108687500Y-87440000D02*
X106002500Y-87440000D01*
%TO.C,D3*%
X132115000Y-46815000D02*
X132115000Y-48735000D01*
X132115000Y-48735000D02*
X134800000Y-48735000D01*
X134800000Y-46815000D02*
X132115000Y-46815000D01*
%TO.C,C16*%
X165315000Y-54638748D02*
X165315000Y-55161252D01*
X166785000Y-54638748D02*
X166785000Y-55161252D01*
D16*
%TO.C,U4*%
X134088963Y-82991500D02*
X134088963Y-83278293D01*
X134088963Y-85066907D02*
X134088963Y-85353700D01*
X134088963Y-85353700D02*
X134625819Y-85353700D01*
X134625819Y-82991500D02*
X134088963Y-82991500D01*
X135914307Y-85353700D02*
X136451163Y-85353700D01*
X136451163Y-82991500D02*
X135914307Y-82991500D01*
X136451163Y-83278293D02*
X136451163Y-82991500D01*
X136451163Y-85353700D02*
X136451163Y-85066907D01*
D12*
G36*
X136730563Y-83862974D02*
G01*
X136476563Y-83862974D01*
X136476563Y-83481974D01*
X136730563Y-83481974D01*
X136730563Y-83862974D01*
G37*
D13*
%TO.C,C30*%
X153380000Y-59168748D02*
X153380000Y-59691252D01*
X154850000Y-59168748D02*
X154850000Y-59691252D01*
%TO.C,D2*%
X114390000Y-105965000D02*
X114390000Y-108650000D01*
X116310000Y-105965000D02*
X114390000Y-105965000D01*
X116310000Y-108650000D02*
X116310000Y-105965000D01*
%TO.C,C28*%
X150985000Y-59136248D02*
X150985000Y-59658752D01*
X152455000Y-59136248D02*
X152455000Y-59658752D01*
%TO.C,C25*%
X164011252Y-62965000D02*
X163488748Y-62965000D01*
X164011252Y-64435000D02*
X163488748Y-64435000D01*
%TO.C,TP18*%
X157710000Y-95800000D02*
G75*
G02*
X156310000Y-95800000I-700000J0D01*
G01*
X156310000Y-95800000D02*
G75*
G02*
X157710000Y-95800000I700000J0D01*
G01*
%TO.C,C26*%
X151241252Y-51395000D02*
X150718748Y-51395000D01*
X151241252Y-52865000D02*
X150718748Y-52865000D01*
%TO.C,C18*%
X174888748Y-65185000D02*
X175411252Y-65185000D01*
X174888748Y-66655000D02*
X175411252Y-66655000D01*
%TO.C,C6*%
X114185000Y-74248748D02*
X114185000Y-74771252D01*
X115655000Y-74248748D02*
X115655000Y-74771252D01*
%TO.C,U9*%
D14*
X105890000Y-52370000D02*
X118890000Y-52370000D01*
X118890000Y-65370000D01*
X105890000Y-65370000D01*
X105890000Y-52370000D01*
D13*
%TO.C,C2*%
X114641252Y-82835000D02*
X114118748Y-82835000D01*
X114641252Y-84305000D02*
X114118748Y-84305000D01*
%TO.C,J4*%
X115880000Y-38190000D02*
X115880000Y-45810000D01*
X115880000Y-39460000D02*
X126040000Y-39460000D01*
X115880000Y-45810000D02*
X126040000Y-45810000D01*
X126040000Y-38190000D02*
X115880000Y-38190000D01*
X126040000Y-45810000D02*
X126040000Y-38190000D01*
%TO.C,J3*%
X128880000Y-38190000D02*
X128880000Y-45810000D01*
X128880000Y-39460000D02*
X139040000Y-39460000D01*
X128880000Y-45810000D02*
X139040000Y-45810000D01*
X139040000Y-38190000D02*
X128880000Y-38190000D01*
X139040000Y-45810000D02*
X139040000Y-38190000D01*
%TO.C,L1*%
X180267122Y-64010000D02*
X179467878Y-64010000D01*
X180267122Y-65130000D02*
X179467878Y-65130000D01*
%TO.C,TP17*%
X168075000Y-95100000D02*
G75*
G02*
X166675000Y-95100000I-700000J0D01*
G01*
X166675000Y-95100000D02*
G75*
G02*
X168075000Y-95100000I700000J0D01*
G01*
%TO.C,R10*%
X133902064Y-50115000D02*
X133447936Y-50115000D01*
X133902064Y-51585000D02*
X133447936Y-51585000D01*
D12*
%TO.C,G\u002A\u002A\u002A*%
G36*
X160643170Y-91250820D02*
G01*
X160827469Y-91366855D01*
X160954725Y-91557284D01*
X160966504Y-91589711D01*
X160999722Y-91837959D01*
X160925182Y-92061637D01*
X160814815Y-92200059D01*
X160638513Y-92306639D01*
X160421712Y-92342811D01*
X160209921Y-92305874D01*
X160097971Y-92242582D01*
X159928324Y-92046454D01*
X159858361Y-91826029D01*
X159890033Y-91601449D01*
X160016500Y-91402103D01*
X160210837Y-91263142D01*
X160428677Y-91214482D01*
X160643170Y-91250820D01*
G37*
G36*
X135891158Y-91247183D02*
G01*
X136086506Y-91375244D01*
X136087278Y-91376014D01*
X136184678Y-91500813D01*
X136227077Y-91647450D01*
X136233807Y-91787922D01*
X136222571Y-91965627D01*
X136174907Y-92083356D01*
X136069883Y-92191205D01*
X136062803Y-92197192D01*
X135840435Y-92321542D01*
X135608156Y-92339262D01*
X135384292Y-92250769D01*
X135294827Y-92179834D01*
X135174676Y-92040554D01*
X135127099Y-91891673D01*
X135122210Y-91791652D01*
X135168855Y-91559001D01*
X135292904Y-91377964D01*
X135470525Y-91258807D01*
X135677887Y-91211792D01*
X135891158Y-91247183D01*
G37*
G36*
X142016828Y-88214230D02*
G01*
X142102080Y-88315618D01*
X142193498Y-88441466D01*
X142265338Y-88556485D01*
X142292013Y-88622910D01*
X142247816Y-88663980D01*
X142127025Y-88752030D01*
X141947336Y-88875172D01*
X141726445Y-89021519D01*
X141482050Y-89179181D01*
X141231848Y-89336272D01*
X141210249Y-89349606D01*
X141143738Y-89332017D01*
X141050799Y-89240154D01*
X141017846Y-89195516D01*
X140941560Y-89072759D01*
X140907088Y-88993790D01*
X140908393Y-88982392D01*
X140993789Y-88907686D01*
X141135167Y-88792753D01*
X141311176Y-88653980D01*
X141500466Y-88507752D01*
X141681689Y-88370455D01*
X141833495Y-88258476D01*
X141934534Y-88188201D01*
X141963486Y-88172593D01*
X142016828Y-88214230D01*
G37*
G36*
X142027779Y-89712752D02*
G01*
X142146564Y-89834092D01*
X142237800Y-89955164D01*
X142305932Y-90093393D01*
X142355402Y-90266206D01*
X142390653Y-90491032D01*
X142416128Y-90785296D01*
X142436271Y-91166426D01*
X142443714Y-91344188D01*
X142459891Y-91720314D01*
X142475256Y-92000341D01*
X142491671Y-92199294D01*
X142510997Y-92332201D01*
X142535095Y-92414089D01*
X142565826Y-92459986D01*
X142583615Y-92473731D01*
X142698970Y-92504552D01*
X142789617Y-92466774D01*
X142880577Y-92430872D01*
X142951756Y-92477800D01*
X142983824Y-92520495D01*
X143033195Y-92621449D01*
X143027931Y-92677428D01*
X142888336Y-92794048D01*
X142708253Y-92940730D01*
X142506583Y-93102551D01*
X142302228Y-93264586D01*
X142114088Y-93411910D01*
X141961065Y-93529600D01*
X141862060Y-93602731D01*
X141834938Y-93619420D01*
X141782732Y-93581343D01*
X141686713Y-93484893D01*
X141633198Y-93425674D01*
X141504055Y-93247929D01*
X141409484Y-93039157D01*
X141345408Y-92781079D01*
X141307749Y-92455418D01*
X141292427Y-92043896D01*
X141291575Y-91894650D01*
X141287163Y-91599078D01*
X141275091Y-91329337D01*
X141257109Y-91112214D01*
X141234965Y-90974496D01*
X141230558Y-90959880D01*
X141169514Y-90836757D01*
X141075145Y-90790094D01*
X140983729Y-90784846D01*
X140846656Y-90800752D01*
X140764568Y-90839413D01*
X140761898Y-90843125D01*
X140701228Y-90863766D01*
X140624970Y-90817913D01*
X140573626Y-90735048D01*
X140569037Y-90702743D01*
X140609786Y-90645030D01*
X140722062Y-90531494D01*
X140890905Y-90376146D01*
X141101359Y-90192998D01*
X141216781Y-90095988D01*
X141864526Y-89557725D01*
X142027779Y-89712752D01*
G37*
G36*
X151716626Y-87690090D02*
G01*
X152012830Y-87713109D01*
X152403940Y-87751936D01*
X152894546Y-87806947D01*
X153489238Y-87878512D01*
X153658096Y-87899456D01*
X154251707Y-87973861D01*
X154736336Y-88035990D01*
X155113370Y-88086794D01*
X155384198Y-88127221D01*
X155550206Y-88158222D01*
X155612783Y-88180746D01*
X155573316Y-88195743D01*
X155433194Y-88204163D01*
X155193804Y-88206956D01*
X154856533Y-88205071D01*
X154422770Y-88199459D01*
X154088840Y-88194247D01*
X153516701Y-88186540D01*
X153053303Y-88183696D01*
X152696332Y-88185747D01*
X152443474Y-88192731D01*
X152292416Y-88204680D01*
X152240844Y-88221631D01*
X152240809Y-88222154D01*
X152268683Y-88297967D01*
X152340470Y-88432133D01*
X152407549Y-88542813D01*
X152499243Y-88694815D01*
X152559805Y-88809425D01*
X152574288Y-88850432D01*
X152542639Y-88872850D01*
X152443581Y-88884946D01*
X152270948Y-88886407D01*
X152018575Y-88876919D01*
X151680298Y-88856166D01*
X151249950Y-88823836D01*
X150721367Y-88779612D01*
X150100984Y-88724330D01*
X149667240Y-88684738D01*
X149262739Y-88647652D01*
X148902533Y-88614464D01*
X148601674Y-88586567D01*
X148375211Y-88565353D01*
X148238196Y-88552215D01*
X148211269Y-88549476D01*
X148210457Y-88541889D01*
X148307005Y-88531382D01*
X148487181Y-88518893D01*
X148737251Y-88505362D01*
X149043483Y-88491728D01*
X149072757Y-88490551D01*
X149481309Y-88474248D01*
X149928321Y-88456387D01*
X150371340Y-88438667D01*
X150767909Y-88422786D01*
X150942337Y-88415791D01*
X151783689Y-88382030D01*
X151567610Y-88073568D01*
X151458315Y-87910224D01*
X151380609Y-87780118D01*
X151351531Y-87712166D01*
X151390567Y-87689992D01*
X151510735Y-87682509D01*
X151716626Y-87690090D01*
G37*
G36*
X158336317Y-88070652D02*
G01*
X158502191Y-88261567D01*
X158614969Y-88473529D01*
X158685825Y-88735705D01*
X158725936Y-89077263D01*
X158726842Y-89089903D01*
X158760165Y-89562089D01*
X159279918Y-89562089D01*
X159550321Y-89567746D01*
X159719588Y-89592326D01*
X159791702Y-89647244D01*
X159770641Y-89743915D01*
X159660386Y-89893755D01*
X159468869Y-90103993D01*
X159298876Y-90277513D01*
X159175356Y-90382233D01*
X159073413Y-90434573D01*
X158968149Y-90450957D01*
X158942233Y-90451367D01*
X158743654Y-90451367D01*
X158743654Y-91336675D01*
X158745414Y-91682235D01*
X158751693Y-91933350D01*
X158763987Y-92106690D01*
X158783795Y-92218930D01*
X158812612Y-92286741D01*
X158830994Y-92309323D01*
X158957003Y-92384152D01*
X159120037Y-92379721D01*
X159330033Y-92300769D01*
X159461181Y-92243087D01*
X159530009Y-92236306D01*
X159572934Y-92280256D01*
X159584132Y-92299592D01*
X159628489Y-92393189D01*
X159637202Y-92426040D01*
X159595889Y-92469313D01*
X159483541Y-92566120D01*
X159317609Y-92702718D01*
X159115549Y-92865364D01*
X158894814Y-93040315D01*
X158672856Y-93213830D01*
X158467131Y-93372166D01*
X158295092Y-93501581D01*
X158174192Y-93588332D01*
X158122427Y-93618719D01*
X158068101Y-93579928D01*
X157972019Y-93480418D01*
X157912406Y-93410995D01*
X157806326Y-93268011D01*
X157724606Y-93116413D01*
X157664252Y-92939655D01*
X157622267Y-92721191D01*
X157595657Y-92444475D01*
X157581428Y-92092960D01*
X157576583Y-91650101D01*
X157576477Y-91555125D01*
X157576477Y-90455863D01*
X157117943Y-90439720D01*
X156890870Y-90429107D01*
X156752178Y-90412768D01*
X156679086Y-90384497D01*
X156648816Y-90338092D01*
X156643208Y-90310429D01*
X156676188Y-90218656D01*
X156777809Y-90086306D01*
X156924463Y-89934818D01*
X157092541Y-89785631D01*
X157258433Y-89660186D01*
X157398530Y-89579922D01*
X157467279Y-89562089D01*
X157550500Y-89546733D01*
X157564711Y-89478733D01*
X157550244Y-89409556D01*
X157466866Y-89215160D01*
X157340089Y-89123080D01*
X157170078Y-89133393D01*
X157065536Y-89178769D01*
X156948197Y-89196748D01*
X156874461Y-89128128D01*
X156867903Y-89020998D01*
X156913643Y-88962940D01*
X157030278Y-88849160D01*
X157202308Y-88693879D01*
X157414232Y-88511319D01*
X157518660Y-88423910D01*
X158155591Y-87895486D01*
X158336317Y-88070652D01*
G37*
G36*
X139725840Y-89608125D02*
G01*
X139895046Y-89729695D01*
X140049371Y-89901994D01*
X140099094Y-89978166D01*
X140253717Y-90348348D01*
X140314409Y-90756741D01*
X140284690Y-91188083D01*
X140168082Y-91627113D01*
X139968109Y-92058571D01*
X139688291Y-92467196D01*
X139468633Y-92709982D01*
X139214383Y-92955516D01*
X138968772Y-93179614D01*
X138746531Y-93369990D01*
X138562393Y-93514358D01*
X138431087Y-93600432D01*
X138378242Y-93619420D01*
X138286394Y-93587246D01*
X138165611Y-93509560D01*
X138162028Y-93506759D01*
X138037470Y-93377071D01*
X137898505Y-93169614D01*
X137740647Y-92876337D01*
X137559406Y-92489187D01*
X137434870Y-92202124D01*
X137235656Y-91748325D01*
X137062682Y-91392899D01*
X136909685Y-91127923D01*
X136770400Y-90945468D01*
X136638562Y-90837608D01*
X136507906Y-90796418D01*
X136372169Y-90813971D01*
X136345143Y-90823347D01*
X136223137Y-90858408D01*
X136155836Y-90833497D01*
X136117621Y-90775456D01*
X136078065Y-90683653D01*
X136076459Y-90651038D01*
X136121430Y-90610343D01*
X136232382Y-90507533D01*
X136394279Y-90356605D01*
X136592087Y-90171553D01*
X136668423Y-90099999D01*
X136879982Y-89906250D01*
X137067157Y-89743503D01*
X137213289Y-89625602D01*
X137301722Y-89566391D01*
X137315609Y-89562089D01*
X137429353Y-89609353D01*
X137570528Y-89737474D01*
X137720934Y-89925947D01*
X137862371Y-90154269D01*
X137892740Y-90212283D01*
X137980956Y-90398767D01*
X138094332Y-90655308D01*
X138218288Y-90948150D01*
X138338244Y-91243536D01*
X138338825Y-91245003D01*
X138519594Y-91680294D01*
X138678036Y-92015396D01*
X138818281Y-92258085D01*
X138944461Y-92416136D01*
X138976530Y-92445204D01*
X139046088Y-92484468D01*
X139093493Y-92440713D01*
X139123039Y-92371295D01*
X139155987Y-92215806D01*
X139173820Y-91987464D01*
X139176658Y-91723527D01*
X139164624Y-91461251D01*
X139137838Y-91237896D01*
X139119078Y-91152912D01*
X139042769Y-90972000D01*
X138935134Y-90814075D01*
X138920912Y-90799065D01*
X138805117Y-90707150D01*
X138681631Y-90682737D01*
X138570055Y-90694727D01*
X138401533Y-90697632D01*
X138313047Y-90631946D01*
X138290262Y-90508533D01*
X138332672Y-90460313D01*
X138446629Y-90363596D01*
X138612226Y-90233071D01*
X138809552Y-90083425D01*
X139018700Y-89929346D01*
X139219762Y-89785522D01*
X139392828Y-89666641D01*
X139517990Y-89587391D01*
X139573110Y-89562089D01*
X139725840Y-89608125D01*
G37*
G36*
X155477741Y-89710355D02*
G01*
X155602932Y-89841046D01*
X155698949Y-89979866D01*
X155770188Y-90144246D01*
X155821044Y-90351619D01*
X155855914Y-90619416D01*
X155879195Y-90965069D01*
X155893982Y-91360925D01*
X155907166Y-91705850D01*
X155924465Y-92003839D01*
X155944487Y-92237846D01*
X155965842Y-92390823D01*
X155982257Y-92442595D01*
X156088925Y-92491473D01*
X156211725Y-92484271D01*
X156354217Y-92479936D01*
X156439230Y-92543394D01*
X156445191Y-92552530D01*
X156460796Y-92600152D01*
X156441338Y-92657559D01*
X156375233Y-92737202D01*
X156250901Y-92851534D01*
X156056759Y-93013003D01*
X155897719Y-93141074D01*
X155287605Y-93629311D01*
X155148423Y-93499311D01*
X154949170Y-93246867D01*
X154809245Y-92912714D01*
X154773514Y-92776106D01*
X154713897Y-92516381D01*
X154047047Y-93066333D01*
X153816265Y-93255180D01*
X153616003Y-93416254D01*
X153461650Y-93537398D01*
X153368595Y-93606457D01*
X153348910Y-93617852D01*
X153294357Y-93582224D01*
X153198959Y-93492096D01*
X153174621Y-93466575D01*
X153057980Y-93333406D01*
X152970238Y-93204708D01*
X152906641Y-93061278D01*
X152862438Y-92883914D01*
X152832873Y-92653414D01*
X152813195Y-92350574D01*
X152798649Y-91956191D01*
X152798356Y-91946527D01*
X152784178Y-91555754D01*
X152766203Y-91262559D01*
X152741040Y-91053360D01*
X152705297Y-90914575D01*
X152655582Y-90832624D01*
X152588504Y-90793925D01*
X152508249Y-90784846D01*
X152370878Y-90811049D01*
X152285667Y-90846165D01*
X152167721Y-90864757D01*
X152091843Y-90789097D01*
X152074921Y-90695654D01*
X152115320Y-90640468D01*
X152227203Y-90529152D01*
X152395662Y-90375526D01*
X152605788Y-90193409D01*
X152721814Y-90095988D01*
X153369558Y-89557725D01*
X153534948Y-89712752D01*
X153654851Y-89838174D01*
X153746643Y-89972283D01*
X153814888Y-90132819D01*
X153864152Y-90337522D01*
X153898997Y-90604133D01*
X153923989Y-90950391D01*
X153939494Y-91285065D01*
X153955343Y-91606397D01*
X153975124Y-91891502D01*
X153997021Y-92120778D01*
X154019219Y-92274624D01*
X154036385Y-92330761D01*
X154141249Y-92377289D01*
X154308992Y-92342062D01*
X154529697Y-92227332D01*
X154550566Y-92213995D01*
X154740527Y-92090973D01*
X154741215Y-91608268D01*
X154729845Y-91262455D01*
X154691322Y-91017310D01*
X154620737Y-90864590D01*
X154513180Y-90796053D01*
X154363741Y-90803454D01*
X154278042Y-90830669D01*
X154124880Y-90858190D01*
X154039994Y-90798425D01*
X154020216Y-90697761D01*
X154060402Y-90643086D01*
X154171703Y-90531746D01*
X154339303Y-90377585D01*
X154548382Y-90194448D01*
X154664608Y-90095698D01*
X155309850Y-89552931D01*
X155477741Y-89710355D01*
G37*
G36*
X146411475Y-87748642D02*
G01*
X146447831Y-87770760D01*
X146550518Y-87867490D01*
X146668541Y-88019809D01*
X146726785Y-88111003D01*
X146877352Y-88367122D01*
X146905142Y-90379214D01*
X146913042Y-90931415D01*
X146921001Y-91382135D01*
X146930524Y-91741043D01*
X146943118Y-92017808D01*
X146960287Y-92222097D01*
X146983538Y-92363582D01*
X147014375Y-92451930D01*
X147054305Y-92496810D01*
X147104832Y-92507892D01*
X147167462Y-92494845D01*
X147231018Y-92472125D01*
X147351390Y-92440882D01*
X147423388Y-92475583D01*
X147457430Y-92522855D01*
X147486751Y-92570135D01*
X147498933Y-92610787D01*
X147482892Y-92657303D01*
X147427544Y-92722178D01*
X147321808Y-92817903D01*
X147154599Y-92956972D01*
X146914836Y-93151879D01*
X146859721Y-93196614D01*
X146640310Y-93373371D01*
X146488610Y-93488749D01*
X146386526Y-93552030D01*
X146315960Y-93572496D01*
X146258814Y-93559430D01*
X146209310Y-93530229D01*
X146100996Y-93420089D01*
X145983989Y-93243479D01*
X145879872Y-93040885D01*
X145810229Y-92852794D01*
X145793544Y-92750299D01*
X145768012Y-92625894D01*
X145703003Y-92592436D01*
X145625616Y-92648204D01*
X145558343Y-92717647D01*
X145427958Y-92843204D01*
X145253835Y-93006475D01*
X145073353Y-93172638D01*
X144590453Y-93613495D01*
X144399986Y-93499867D01*
X144029773Y-93221358D01*
X143753457Y-92889232D01*
X143573949Y-92513729D01*
X143494159Y-92105090D01*
X143516995Y-91673554D01*
X143645369Y-91229363D01*
X143673621Y-91166266D01*
X144459628Y-91166266D01*
X144483845Y-91364430D01*
X144549130Y-91600574D01*
X144644430Y-91851974D01*
X144758691Y-92095902D01*
X144880863Y-92309634D01*
X144999890Y-92470442D01*
X145104723Y-92555602D01*
X145139112Y-92563402D01*
X145210370Y-92526780D01*
X145331814Y-92430932D01*
X145472051Y-92301487D01*
X145737965Y-92039572D01*
X145737965Y-91332873D01*
X145737183Y-91041268D01*
X145732343Y-90839825D01*
X145719704Y-90707549D01*
X145695524Y-90623443D01*
X145656063Y-90566510D01*
X145597580Y-90515756D01*
X145591519Y-90510981D01*
X145394026Y-90418131D01*
X145154596Y-90392962D01*
X144919244Y-90435178D01*
X144766077Y-90516279D01*
X144598477Y-90709610D01*
X144489351Y-90959450D01*
X144459628Y-91166266D01*
X143673621Y-91166266D01*
X143712312Y-91079854D01*
X143952340Y-90699930D01*
X144280211Y-90344381D01*
X144672714Y-90032682D01*
X145106641Y-89784309D01*
X145395296Y-89667605D01*
X145737965Y-89551884D01*
X145737965Y-89331013D01*
X145723683Y-89159075D01*
X145688509Y-89019921D01*
X145680429Y-89002637D01*
X145578449Y-88918145D01*
X145421552Y-88897428D01*
X145248869Y-88944999D01*
X145236426Y-88951417D01*
X145144580Y-88974249D01*
X145077249Y-88906100D01*
X145067252Y-88888117D01*
X145037092Y-88801081D01*
X145070064Y-88726776D01*
X145177507Y-88632155D01*
X145292210Y-88540081D01*
X145465963Y-88397866D01*
X145672733Y-88226909D01*
X145835603Y-88091208D01*
X146045778Y-87917163D01*
X146189925Y-87805581D01*
X146286573Y-87746765D01*
X146354247Y-87731018D01*
X146411475Y-87748642D01*
G37*
G36*
X148947484Y-89608915D02*
G01*
X149092629Y-89735376D01*
X149245129Y-89920444D01*
X149385083Y-90143092D01*
X149392397Y-90156717D01*
X149480646Y-90334989D01*
X149595233Y-90583996D01*
X149721524Y-90871142D01*
X149844883Y-91163830D01*
X149848307Y-91172164D01*
X150001099Y-91527103D01*
X150149086Y-91838883D01*
X150284852Y-92094087D01*
X150400982Y-92279296D01*
X150490060Y-92381091D01*
X150525003Y-92396663D01*
X150591007Y-92344045D01*
X150642021Y-92196899D01*
X150674307Y-91971284D01*
X150684263Y-91712191D01*
X150665991Y-91343246D01*
X150609141Y-91063790D01*
X150509690Y-90857657D01*
X150454492Y-90789320D01*
X150356749Y-90707447D01*
X150243490Y-90681400D01*
X150098085Y-90693256D01*
X149920727Y-90698122D01*
X149825782Y-90643804D01*
X149795462Y-90519242D01*
X149795295Y-90504981D01*
X149838027Y-90455544D01*
X149952889Y-90358424D01*
X150119884Y-90228134D01*
X150319012Y-90079192D01*
X150530274Y-89926110D01*
X150733671Y-89783404D01*
X150909206Y-89665589D01*
X151036878Y-89587179D01*
X151094145Y-89562297D01*
X151179845Y-89589469D01*
X151309908Y-89656109D01*
X151335394Y-89671276D01*
X151536153Y-89855942D01*
X151679682Y-90118885D01*
X151765439Y-90442764D01*
X151792882Y-90810239D01*
X151761469Y-91203968D01*
X151670658Y-91606609D01*
X151519907Y-92000822D01*
X151414521Y-92202133D01*
X151299604Y-92372634D01*
X151119605Y-92605470D01*
X150888490Y-92884827D01*
X150620226Y-93194888D01*
X150328782Y-93519839D01*
X150028123Y-93843864D01*
X149732218Y-94151147D01*
X149455032Y-94425872D01*
X149426607Y-94453118D01*
X149057955Y-94784044D01*
X148740193Y-95022334D01*
X148467363Y-95170878D01*
X148233512Y-95232567D01*
X148032685Y-95210291D01*
X147947263Y-95171203D01*
X147813678Y-95035230D01*
X147724580Y-94829376D01*
X147686406Y-94588206D01*
X147705597Y-94346285D01*
X147753118Y-94210504D01*
X148461378Y-94210504D01*
X148497494Y-94315480D01*
X148599494Y-94340362D01*
X148757856Y-94286730D01*
X148963059Y-94156162D01*
X149010902Y-94119361D01*
X149194477Y-93953085D01*
X149344027Y-93778341D01*
X149438917Y-93621898D01*
X149461816Y-93534394D01*
X149415721Y-93517515D01*
X149298014Y-93535729D01*
X149139561Y-93581060D01*
X148971227Y-93645534D01*
X148897376Y-93680232D01*
X148688631Y-93821271D01*
X148536870Y-93993665D01*
X148464463Y-94170208D01*
X148461378Y-94210504D01*
X147753118Y-94210504D01*
X147763032Y-94182176D01*
X147939657Y-93941520D01*
X148207577Y-93709708D01*
X148547027Y-93500342D01*
X148938243Y-93327020D01*
X149072757Y-93280875D01*
X149235111Y-93221272D01*
X149341512Y-93167130D01*
X149367272Y-93137369D01*
X149332227Y-93039599D01*
X149258384Y-92862581D01*
X149155329Y-92627145D01*
X149032649Y-92354120D01*
X148899932Y-92064336D01*
X148766765Y-91778622D01*
X148642734Y-91517806D01*
X148537427Y-91302719D01*
X148460430Y-91154190D01*
X148432907Y-91107328D01*
X148258551Y-90901525D01*
X148077053Y-90804136D01*
X147882764Y-90812425D01*
X147848058Y-90824146D01*
X147732274Y-90857276D01*
X147675605Y-90828889D01*
X147649407Y-90765745D01*
X147646253Y-90706130D01*
X147679789Y-90630903D01*
X147760922Y-90526635D01*
X147900561Y-90379898D01*
X148109611Y-90177265D01*
X148186652Y-90104360D01*
X148397709Y-89909627D01*
X148583836Y-89745901D01*
X148728644Y-89627004D01*
X148815744Y-89566760D01*
X148829595Y-89562089D01*
X148947484Y-89608915D01*
G37*
D13*
%TO.C,J9*%
X158595000Y-105540000D02*
X158595000Y-113160000D01*
X158595000Y-113160000D02*
X168755000Y-113160000D01*
X168755000Y-105540000D02*
X158595000Y-105540000D01*
X168755000Y-111890000D02*
X158595000Y-111890000D01*
X168755000Y-113160000D02*
X168755000Y-105540000D01*
%TO.C,C19*%
X167788748Y-103115000D02*
X168311252Y-103115000D01*
X167788748Y-104585000D02*
X168311252Y-104585000D01*
%TO.C,J5*%
X141880000Y-38190000D02*
X141880000Y-45810000D01*
X141880000Y-39460000D02*
X152040000Y-39460000D01*
X141880000Y-45810000D02*
X152040000Y-45810000D01*
X152040000Y-38190000D02*
X141880000Y-38190000D01*
X152040000Y-45810000D02*
X152040000Y-38190000D01*
%TO.C,C7*%
X113105000Y-68813748D02*
X113105000Y-69336252D01*
X114575000Y-68813748D02*
X114575000Y-69336252D01*
%TO.C,L3*%
X174910378Y-63270000D02*
X175709622Y-63270000D01*
X174910378Y-64390000D02*
X175709622Y-64390000D01*
%TO.C,R4*%
X131755000Y-84307064D02*
X131755000Y-83852936D01*
X133225000Y-84307064D02*
X133225000Y-83852936D01*
%TD*%
M02*
